<svg width="136.198mm" height="109.224mm" viewBox="0 0 136.198 109.224" xmlns="http://www.w3.org/2000/svg"><g id="svgGroup" stroke-linecap="round" fill-rule="evenodd" font-size="9pt" stroke="#000" stroke-width="0.25mm" fill="none" style="stroke:#000;stroke-width:0.25mm;fill:none"><path d="M 25.977 42.097 L 43.909 40.528 L 45.478 58.46 L 27.546 60.029 L 25.977 42.097 Z M 24.496 25.162 L 42.427 23.593 L 43.996 41.525 L 26.065 43.093 L 24.496 25.162 Z M 23.014 8.227 L 40.946 6.658 L 42.514 24.589 L 24.583 26.158 L 23.014 8.227 Z M 65.947 38.981 L 83.879 40.55 L 82.31 58.482 L 64.378 56.913 L 65.947 38.981 Z M 68.91 5.111 L 86.842 6.679 L 85.273 24.611 L 67.342 23.042 L 68.91 5.111 Z M 83.632 43.373 L 101.563 44.941 L 99.994 62.873 L 82.063 61.304 L 83.632 43.373 Z M 85.113 26.437 L 103.045 28.006 L 101.476 45.938 L 83.545 44.369 L 85.113 26.437 Z M 86.595 9.502 L 104.526 11.071 L 102.958 29.002 L 85.026 27.433 L 86.595 9.502 Z M 67.429 22.046 L 85.36 23.615 L 83.791 41.546 L 65.86 39.977 L 67.429 22.046 Z M 122.409 83.865 L 136.198 95.435 L 124.628 109.224 L 110.839 97.654 L 122.409 83.865 Z M 84.342 65.496 L 101.257 71.652 L 95.1 88.567 L 78.186 82.41 L 84.342 65.496 Z M 45.847 34 L 63.847 34 L 63.847 52 L 45.847 52 L 45.847 34 Z M 45.847 17 L 63.847 17 L 63.847 35 L 45.847 35 L 45.847 17 Z M 45.847 0 L 63.847 0 L 63.847 18 L 45.847 18 L 45.847 0 Z M 104.179 73.015 L 119.768 82.015 L 110.768 97.604 L 95.179 88.604 L 104.179 73.015 Z M 8.8 65.509 L 26.187 60.85 L 30.845 78.237 L 13.459 82.895 L 8.8 65.509 Z M 4.4 49.088 L 21.787 44.429 L 26.445 61.816 L 9.059 66.475 L 4.4 49.088 Z M 0 32.667 L 17.387 28.008 L 22.045 45.395 L 4.659 50.054 L 0 32.667 Z" vector-effect="non-scaling-stroke"/></g></svg>