0
SECTION
2
HEADER
9
$INSUNITS
70
4
0
ENDSEC
0
SECTION
2
TABLES
0
TABLE
2
LTYPE
0
LTYPE
72
65
70
64
2
CONTINUOUS
3
______
73
0
40
0
0
ENDTAB
0
TABLE
2
LAYER
0
ENDTAB
0
ENDSEC
0
SECTION
2
ENTITIES
0
LINE
8
0
10
2.5773724
20
5.7847
11
19.9640372
21
10.4434428
0
LINE
8
0
10
19.9640372
20
10.4434428
11
24.62278
21
-6.943222
0
LINE
8
0
10
24.62278
20
-6.943222
11
7.2361152
21
-11.6019648
0
LINE
8
0
10
7.2361152
20
-11.6019648
11
2.5773724
21
5.7847
0
LINE
8
0
10
-1.8225513
20
22.2054391
11
15.5641135
21
26.8641819
0
LINE
8
0
10
15.5641135
20
26.8641819
11
20.2228563
21
9.4775171
0
LINE
8
0
10
20.2228563
20
9.4775171
11
2.8361915
21
4.8187743
0
LINE
8
0
10
2.8361915
20
4.8187743
11
-1.8225513
21
22.2054391
0
LINE
8
0
10
-6.2224751
20
38.6261781
11
11.1641897
21
43.2849209
0
LINE
8
0
10
11.1641897
20
43.2849209
11
15.8229325
21
25.8982561
0
LINE
8
0
10
15.8229325
20
25.8982561
11
-1.5637323
21
21.2395133
0
LINE
8
0
10
-1.5637323
20
21.2395133
11
-6.2224751
21
38.6261781
0
LINE
8
0
10
19.7549394
20
29.1961423
11
37.686444
21
30.7649457
0
LINE
8
0
10
37.686444
20
30.7649457
11
39.2552474
21
12.8334411
0
LINE
8
0
10
39.2552474
20
12.8334411
11
21.3237428
21
11.2646377
0
LINE
8
0
10
21.3237428
20
11.2646377
11
19.7549394
21
29.1961423
0
LINE
8
0
10
18.2732919
20
46.1314522
11
36.2047965
21
47.7002556
0
LINE
8
0
10
36.2047965
20
47.7002556
11
37.7735999
21
29.768751
0
LINE
8
0
10
37.7735999
20
29.768751
11
19.8420953
21
28.1999476
0
LINE
8
0
10
19.8420953
20
28.1999476
11
18.2732919
21
46.1314522
0
LINE
8
0
10
16.7916442
20
63.0667621
11
34.7231488
21
64.6355655
0
LINE
8
0
10
34.7231488
20
64.6355655
11
36.2919522
21
46.7040609
0
LINE
8
0
10
36.2919522
20
46.7040609
11
18.3604476
21
45.1352575
0
LINE
8
0
10
18.3604476
20
45.1352575
11
16.7916442
21
63.0667621
0
LINE
8
0
10
39.624363
20
37.2933885
11
57.624363
21
37.2933885
0
LINE
8
0
10
57.624363
20
37.2933885
11
57.624363
21
19.2933885
0
LINE
8
0
10
57.624363
20
19.2933885
11
39.624363
21
19.2933885
0
LINE
8
0
10
39.624363
20
19.2933885
11
39.624363
21
37.2933885
0
LINE
8
0
10
39.6243632
20
54.2933886
11
57.6243632
21
54.2933886
0
LINE
8
0
10
57.6243632
20
54.2933886
11
57.6243632
21
36.2933886
0
LINE
8
0
10
57.6243632
20
36.2933886
11
39.6243632
21
36.2933886
0
LINE
8
0
10
39.6243632
20
36.2933886
11
39.6243632
21
54.2933886
0
LINE
8
0
10
39.6243631
20
71.2933885
11
57.6243631
21
71.2933885
0
LINE
8
0
10
57.6243631
20
71.2933885
11
57.6243631
21
53.2933885
0
LINE
8
0
10
57.6243631
20
53.2933885
11
39.6243631
21
53.2933885
0
LINE
8
0
10
39.6243631
20
53.2933885
11
39.6243631
21
71.2933885
0
LINE
8
0
10
59.7246601
20
32.3121857
11
77.6561647
21
30.7433823
0
LINE
8
0
10
77.6561647
20
30.7433823
11
76.0873613
21
12.8118777
0
LINE
8
0
10
76.0873613
20
12.8118777
11
58.1558567
21
14.3806811
0
LINE
8
0
10
58.1558567
20
14.3806811
11
59.7246601
21
32.3121857
0
LINE
8
0
10
61.2063078
20
49.2474956
11
79.1378124
21
47.6786922
0
LINE
8
0
10
79.1378124
20
47.6786922
11
77.569009
21
29.7471876
0
LINE
8
0
10
77.569009
20
29.7471876
11
59.6375044
21
31.315991
0
LINE
8
0
10
59.6375044
20
31.315991
11
61.2063078
21
49.2474956
0
LINE
8
0
10
62.6879555
20
66.1828054
11
80.6194601
21
64.614002
0
LINE
8
0
10
80.6194601
20
64.614002
11
79.0506567
21
46.6824974
0
LINE
8
0
10
79.0506567
20
46.6824974
11
61.1191521
21
48.2513008
0
LINE
8
0
10
61.1191521
20
48.2513008
11
62.6879555
21
66.1828054
0
LINE
8
0
10
77.4092235
20
27.9208307
11
95.3407281
21
26.3520273
0
LINE
8
0
10
95.3407281
20
26.3520273
11
93.7719247
21
8.4205227
0
LINE
8
0
10
93.7719247
20
8.4205227
11
75.8404201
21
9.9893261
0
LINE
8
0
10
75.8404201
20
9.9893261
11
77.4092235
21
27.9208307
0
LINE
8
0
10
78.8908711
20
44.8561407
11
96.8223757
21
43.2873373
0
LINE
8
0
10
96.8223757
20
43.2873373
11
95.2535723
21
25.3558327
0
LINE
8
0
10
95.2535723
20
25.3558327
11
77.3220677
21
26.9246361
0
LINE
8
0
10
77.3220677
20
26.9246361
11
78.8908711
21
44.8561407
0
LINE
8
0
10
80.3725186
20
61.7914504
11
98.3040232
21
60.222647
0
LINE
8
0
10
98.3040232
20
60.222647
11
96.7352198
21
42.2911424
0
LINE
8
0
10
96.7352198
20
42.2911424
11
78.8037152
21
43.8599458
0
LINE
8
0
10
78.8037152
20
43.8599458
11
80.3725186
21
61.7914504
0
LINE
8
0
10
78.119784
20
5.7974188
11
95.0342512
21
-0.3589438
0
LINE
8
0
10
95.0342512
20
-0.3589438
11
88.8778886
21
-17.273411
0
LINE
8
0
10
88.8778886
20
-17.273411
11
71.9634214
21
-11.1170484
0
LINE
8
0
10
71.9634214
20
-11.1170484
11
78.119784
21
5.7974188
0
LINE
8
0
10
97.9568786
20
-1.7217874
11
113.5453358
21
-10.7217874
0
LINE
8
0
10
113.5453358
20
-10.7217874
11
104.5453358
21
-26.3102446
0
LINE
8
0
10
104.5453358
20
-26.3102446
11
88.9568786
21
-17.3102446
0
LINE
8
0
10
88.9568786
20
-17.3102446
11
97.9568786
21
-1.7217874
0
LINE
8
0
10
116.1869066
20
-12.571435
11
129.9757066
21
-24.141612
0
LINE
8
0
10
129.9757066
20
-24.141612
11
118.4055296
21
-37.930412
0
LINE
8
0
10
118.4055296
20
-37.930412
11
104.6167296
21
-26.360235
0
LINE
8
0
10
104.6167296
20
-26.360235
11
116.1869066
21
-12.571435
0
ENDSEC
0
EOF