<svg width="135.114mm" height="107.932mm" viewBox="0 0 135.114 107.932" xmlns="http://www.w3.org/2000/svg"><g id="svgGroup" stroke-linecap="round" fill-rule="evenodd" font-size="9pt" stroke="#000" stroke-width="0.25mm" fill="none" style="stroke:#000;stroke-width:0.25mm;fill:none"><path d="M 13.941 81.654 L 29.396 77.512 A 1 1 0 0 0 30.103 76.288 L 26.457 62.679 L 94.999 87.627 L 109.798 96.171 A 1 1 0 0 0 110.25 96.303 L 123.829 107.698 A 1 1 0 0 0 125.238 107.575 L 134.88 96.084 A 1 1 0 0 0 134.757 94.675 L 117.904 80.534 L 117.515 80.997 L 117.104 80.759 L 120.093 46.595 L 128.063 47.293 L 129.544 30.357 L 102.647 28.004 L 104.042 12.065 A 1 1 0 0 0 103.133 10.982 L 86.197 9.5 L 86.357 7.674 A 1 1 0 0 0 85.448 6.59 L 63.493 4.669 L 63.493 1 A 1 1 0 0 0 62.493 0 L 46.493 0 A 1 1 0 0 0 45.493 1 L 45.493 6.231 L 23.7 8.138 A 1 1 0 0 0 22.791 9.221 L 24.266 26.088 L 0.741 32.391 A 1 1 0 0 0 0.034 33.616 L 12.716 80.946 A 1 1 0 0 0 13.941 81.654 Z" vector-effect="non-scaling-stroke"/></g></svg>