<svg width="135.114mm" height="107.932mm" viewBox="0 0 135.114 107.932" xmlns="http://www.w3.org/2000/svg"><g id="svgGroup" stroke-linecap="round" fill-rule="evenodd" font-size="9pt" stroke="#000" stroke-width="0.25mm" fill="none" style="stroke:#000;stroke-width:0.25mm;fill:none"><path d="M 13.941 81.654 L 29.396 77.512 A 1 1 0 0 0 30.103 76.288 L 27.948 68.246 A 3 3 0 0 1 31.872 64.65 L 94.753 87.537 A 3 3 0 0 1 95.227 87.758 L 109.798 96.171 A 1 1 0 0 0 110.25 96.303 L 123.829 107.698 A 1 1 0 0 0 125.238 107.575 L 134.88 96.084 A 1 1 0 0 0 134.757 94.675 L 117.904 80.534 L 117.515 80.997 L 117.104 80.759 L 119.832 49.584 A 3 3 0 0 1 123.082 46.857 L 125.074 47.031 A 3 3 0 0 0 128.324 44.304 L 129.283 33.346 A 3 3 0 0 0 126.556 30.096 L 105.636 28.266 A 3 3 0 0 1 102.909 25.016 L 104.042 12.065 A 1 1 0 0 0 103.133 10.982 L 87.193 9.587 A 1 1 0 0 1 86.284 8.504 L 86.357 7.674 A 1 1 0 0 0 85.448 6.59 L 66.231 4.909 A 3 3 0 0 1 63.493 1.92 L 63.493 1 A 1 1 0 0 0 62.493 0 L 46.493 0 A 1 1 0 0 0 45.493 1 L 45.493 3.482 A 3 3 0 0 1 42.754 6.471 L 23.7 8.138 A 1 1 0 0 0 22.791 9.221 L 24.047 23.58 A 3 3 0 0 1 21.835 26.739 L 0.741 32.391 A 1 1 0 0 0 0.034 33.616 L 12.716 80.946 A 1 1 0 0 0 13.941 81.654 Z" vector-effect="non-scaling-stroke"/></g></svg>