%FSLAX45Y45*%
G04 Gerber Fmt 4.5, Leading zero omitted, Abs format (unit mm)*
G04 Created by KiCad (PCBNEW (5.1.10)-1) date 2021-09-28 07:08:21*
%MOMM*%
%LPD*%
G01*
G04 APERTURE LIST*
%TA.AperFunction,Profile*%
%ADD10C,0.150000*%
%TD*%
%ADD11C,0.200000*%
%ADD12C,0.300000*%
G04 APERTURE END LIST*
D10*
X22841889Y-11438755D02*
X24537221Y-11582290D01*
X16415625Y-12862500D02*
G75*
G02*
X16194412Y-13178424I-298858J-26147D01*
G01*
X15413099Y-18661336D02*
X17160539Y-18206850D01*
X17231250Y-18084375D02*
G75*
G02*
X17160539Y-18206850I-96593J-25882D01*
G01*
X17034375Y-17346396D02*
X17231250Y-18084375D01*
X14019914Y-13866224D02*
X15290625Y-18590625D01*
X15413099Y-18661336D02*
G75*
G02*
X15290625Y-18590625I-25882J96593D01*
G01*
X14090625Y-13743750D02*
X16194412Y-13178424D01*
X14019914Y-13866224D02*
G75*
G02*
X14090625Y-13743750I96593J25882D01*
G01*
X16293750Y-11409375D02*
X16415625Y-12862500D01*
X16384654Y-11301040D02*
X18397958Y-11127088D01*
X16293750Y-11409375D02*
G75*
G02*
X16384654Y-11301040I99620J8716D01*
G01*
X20471811Y-10672085D02*
X20471811Y-10580036D01*
X20371811Y-10480036D02*
G75*
G02*
X20471811Y-10580036I0J-100000D01*
G01*
X20371811Y-10480036D02*
X18771811Y-10480036D01*
X18671811Y-10580036D02*
G75*
G02*
X18771811Y-10480036I100000J0D01*
G01*
X18671811Y-10580036D02*
X18671811Y-10828230D01*
X22750985Y-11330420D02*
X22758248Y-11247404D01*
X22667344Y-11139069D02*
G75*
G02*
X22758248Y-11247404I-8716J-99620D01*
G01*
X20745665Y-10970944D02*
X22667344Y-11139069D01*
X25853880Y-18316903D02*
X26105713Y-15438436D01*
X24787500Y-13312500D02*
X26778122Y-13489625D01*
X26954962Y-14910444D02*
X27050834Y-13814630D01*
X26629957Y-15183156D02*
X26430718Y-15165725D01*
X24514788Y-12987495D02*
X24628125Y-11690625D01*
X24537221Y-11582290D02*
G75*
G02*
X24628125Y-11690625I-8716J-99620D01*
G01*
X17426759Y-16986842D02*
X23597822Y-19233747D01*
X23645216Y-19255847D02*
X25102306Y-20097098D01*
X25102306Y-20097098D02*
X26587242Y-21321701D01*
X26728125Y-21309375D02*
G75*
G02*
X26587242Y-21321701I-76604J64279D01*
G01*
X26728125Y-21309375D02*
X27693750Y-20156250D01*
X27681424Y-20015367D02*
G75*
G02*
X27693750Y-20156250I-64279J-76604D01*
G01*
X25959902Y-18572863D02*
X27681424Y-20015367D01*
X17034375Y-17346396D02*
G75*
G02*
X17426759Y-16986842I289778J77646D01*
G01*
X23597822Y-19233747D02*
G75*
G02*
X23645216Y-19255847I-102606J-281908D01*
G01*
X25959902Y-18572863D02*
G75*
G02*
X25853880Y-18316903I192836J229813D01*
G01*
X26105713Y-15438436D02*
G75*
G02*
X26430718Y-15165725I298858J-26147D01*
G01*
X26954962Y-14910444D02*
G75*
G02*
X26629957Y-15183156I-298858J26147D01*
G01*
X26778122Y-13489625D02*
G75*
G02*
X27050834Y-13814630I-26147J-298858D01*
G01*
X24787500Y-13312500D02*
G75*
G02*
X24514788Y-12987495I26147J298858D01*
G01*
X20745665Y-10970944D02*
G75*
G02*
X20471811Y-10672085I26147J298858D01*
G01*
X18671811Y-10828230D02*
G75*
G02*
X18397958Y-11127088I-300000J0D01*
G01*
X26105713Y-15438436D02*
G75*
G02*
X26105713Y-15438436I99620J-8716D01*
G01*
X26954962Y-14910444D02*
G75*
G02*
X26954962Y-14910444I-99619J8716D01*
G01*
X26778122Y-13489625D02*
G75*
G02*
X26778122Y-13489625I-8716J-99620D01*
G01*
X22841888Y-11438755D02*
G75*
G02*
X22750985Y-11330420I8716J99619D01*
G01*
X20745665Y-10970944D02*
G75*
G02*
X20745665Y-10970944I8716J99620D01*
G01*
X18397958Y-11127088D02*
G75*
G02*
X18397958Y-11127088I-8716J99619D01*
G01*
X23597822Y-19233747D02*
G75*
G02*
X23597822Y-19233747I-17101J-46985D01*
G01*
X22841889Y-11438755D02*
G75*
G02*
X22841889Y-11438755I4358J49810D01*
G01*
X22667344Y-11139069D02*
G75*
G02*
X22667344Y-11139069I-4358J-49810D01*
G01*
D11*
X26555946Y-14465798D02*
X26705946Y-14615798D01*
X26705946Y-14465798D02*
X26555946Y-14615798D01*
X26616955Y-13768461D02*
X26766955Y-13918461D01*
X26766955Y-13768461D02*
X26616955Y-13918461D01*
X14743229Y-14475504D02*
G75*
G03*
X14743229Y-14475504I-85090J0D01*
G01*
X15183221Y-16117578D02*
G75*
G03*
X15183221Y-16117578I-85090J0D01*
G01*
X15623213Y-17759652D02*
G75*
G03*
X15623213Y-17759652I-85090J0D01*
G01*
X15805747Y-14190803D02*
G75*
G03*
X15805747Y-14190803I-85090J0D01*
G01*
X16245739Y-15832877D02*
G75*
G03*
X16245739Y-15832877I-85090J0D01*
G01*
X16685732Y-17474951D02*
G75*
G03*
X16685732Y-17474951I-85090J0D01*
G01*
X16900738Y-12118769D02*
G75*
G03*
X16900738Y-12118769I-85090J0D01*
G01*
X17048903Y-13812300D02*
G75*
G03*
X17048903Y-13812300I-85090J0D01*
G01*
X17197067Y-15505831D02*
G75*
G03*
X17197067Y-15505831I-85090J0D01*
G01*
X17996552Y-12022898D02*
G75*
G03*
X17996552Y-12022898I-85090J0D01*
G01*
X18144717Y-13716429D02*
G75*
G03*
X18144717Y-13716429I-85090J0D01*
G01*
X18292881Y-15409960D02*
G75*
G03*
X18292881Y-15409960I-85090J0D01*
G01*
X19106901Y-11330036D02*
G75*
G03*
X19106901Y-11330036I-85090J0D01*
G01*
X19106901Y-13030036D02*
G75*
G03*
X19106901Y-13030036I-85090J0D01*
G01*
X19106901Y-14730036D02*
G75*
G03*
X19106901Y-14730036I-85090J0D01*
G01*
X20206901Y-11330036D02*
G75*
G03*
X20206901Y-11330036I-85090J0D01*
G01*
X20206901Y-13030036D02*
G75*
G03*
X20206901Y-13030036I-85090J0D01*
G01*
X20206901Y-14730036D02*
G75*
G03*
X20206901Y-14730036I-85090J0D01*
G01*
X21037159Y-15255236D02*
G75*
G03*
X21037159Y-15255236I-85090J0D01*
G01*
X21185324Y-13561705D02*
G75*
G03*
X21185324Y-13561705I-85090J0D01*
G01*
X21333489Y-11868174D02*
G75*
G03*
X21333489Y-11868174I-85090J0D01*
G01*
X22132973Y-15351107D02*
G75*
G03*
X22132973Y-15351107I-85090J0D01*
G01*
X22281138Y-13657576D02*
G75*
G03*
X22281138Y-13657576I-85090J0D01*
G01*
X22429303Y-11964046D02*
G75*
G03*
X22429303Y-11964046I-85090J0D01*
G01*
X22627518Y-17945064D02*
G75*
G03*
X22627518Y-17945064I-85090J0D01*
G01*
X22805615Y-15694372D02*
G75*
G03*
X22805615Y-15694372I-85090J0D01*
G01*
X22953780Y-14000841D02*
G75*
G03*
X22953780Y-14000841I-85090J0D01*
G01*
X23101945Y-12307310D02*
G75*
G03*
X23101945Y-12307310I-85090J0D01*
G01*
X23661179Y-18321286D02*
G75*
G03*
X23661179Y-18321286I-85090J0D01*
G01*
X23901429Y-15790243D02*
G75*
G03*
X23901429Y-15790243I-85090J0D01*
G01*
X24049594Y-14096712D02*
G75*
G03*
X24049594Y-14096712I-85090J0D01*
G01*
X24197759Y-12403181D02*
G75*
G03*
X24197759Y-12403181I-85090J0D01*
G01*
X24443262Y-18685977D02*
G75*
G03*
X24443262Y-18685977I-85090J0D01*
G01*
X25395890Y-19235977D02*
G75*
G03*
X25395890Y-19235977I-85090J0D01*
G01*
X26102762Y-19730934D02*
G75*
G03*
X26102762Y-19730934I-85090J0D01*
G01*
X26945411Y-20438001D02*
G75*
G03*
X26945411Y-20438001I-85090J0D01*
G01*
X14803492Y-14674785D02*
X14803492Y-14974785D01*
X14653492Y-14824785D02*
X14953492Y-14824785D01*
X15243484Y-16316859D02*
X15243484Y-16616859D01*
X15093484Y-16466859D02*
X15393484Y-16466859D01*
X15343395Y-14757879D02*
X15343395Y-15057879D01*
X15193395Y-14907879D02*
X15493395Y-14907879D01*
X15343395Y-14757879D02*
X15343395Y-15057879D01*
X15193395Y-14907879D02*
X15493395Y-14907879D01*
X15683477Y-17958933D02*
X15683477Y-18258933D01*
X15533477Y-18108933D02*
X15833477Y-18108933D01*
X15769418Y-14415966D02*
X15769418Y-14715966D01*
X15619418Y-14565966D02*
X15919418Y-14565966D01*
X15783388Y-16399953D02*
X15783388Y-16699953D01*
X15633388Y-16549953D02*
X15933388Y-16549953D01*
X15783388Y-16399953D02*
X15783388Y-16699953D01*
X15633388Y-16549953D02*
X15933388Y-16549953D01*
X16209410Y-16058040D02*
X16209410Y-16358040D01*
X16059410Y-16208040D02*
X16359410Y-16208040D01*
X16223380Y-18042027D02*
X16223380Y-18342027D01*
X16073380Y-18192027D02*
X16373380Y-18192027D01*
X16223380Y-18042027D02*
X16223380Y-18342027D01*
X16073380Y-18192027D02*
X16373380Y-18192027D01*
X16649403Y-17700114D02*
X16649403Y-18000114D01*
X16499403Y-17850114D02*
X16799403Y-17850114D01*
X16898141Y-12337985D02*
X16898141Y-12637985D01*
X16748141Y-12487985D02*
X17048141Y-12487985D01*
X17046306Y-14031516D02*
X17046306Y-14331516D01*
X16896306Y-14181516D02*
X17196306Y-14181516D01*
X17194470Y-15725047D02*
X17194470Y-16025047D01*
X17044470Y-15875047D02*
X17344470Y-15875047D01*
X17415413Y-12513570D02*
X17415413Y-12813570D01*
X17265413Y-12663570D02*
X17565413Y-12663570D01*
X17415413Y-12513570D02*
X17415413Y-12813570D01*
X17265413Y-12663570D02*
X17565413Y-12663570D01*
X17563577Y-14207101D02*
X17563577Y-14507101D01*
X17413577Y-14357101D02*
X17713577Y-14357101D01*
X17563577Y-14207101D02*
X17563577Y-14507101D01*
X17413577Y-14357101D02*
X17713577Y-14357101D01*
X17711742Y-15900632D02*
X17711742Y-16200632D01*
X17561742Y-16050632D02*
X17861742Y-16050632D01*
X17711742Y-15900632D02*
X17711742Y-16200632D01*
X17561742Y-16050632D02*
X17861742Y-16050632D01*
X17894336Y-12250829D02*
X17894336Y-12550829D01*
X17744336Y-12400829D02*
X18044336Y-12400829D01*
X18042500Y-13944360D02*
X18042500Y-14244360D01*
X17892500Y-14094360D02*
X18192500Y-14094360D01*
X18190665Y-15637891D02*
X18190665Y-15937891D01*
X18040665Y-15787891D02*
X18340665Y-15787891D01*
X19071811Y-11555036D02*
X19071811Y-11855036D01*
X18921811Y-11705036D02*
X19221811Y-11705036D01*
X19071811Y-13255036D02*
X19071811Y-13555036D01*
X18921811Y-13405036D02*
X19221811Y-13405036D01*
X19071811Y-14955036D02*
X19071811Y-15255036D01*
X18921811Y-15105036D02*
X19221811Y-15105036D01*
X19571811Y-11775036D02*
X19571811Y-12075036D01*
X19421811Y-11925036D02*
X19721811Y-11925036D01*
X19571811Y-11775036D02*
X19571811Y-12075036D01*
X19421811Y-11925036D02*
X19721811Y-11925036D01*
X19571811Y-13475036D02*
X19571811Y-13775036D01*
X19421811Y-13625036D02*
X19721811Y-13625036D01*
X19571811Y-13475036D02*
X19571811Y-13775036D01*
X19421811Y-13625036D02*
X19721811Y-13625036D01*
X19571811Y-15175036D02*
X19571811Y-15475036D01*
X19421811Y-15325036D02*
X19721811Y-15325036D01*
X19571811Y-15175036D02*
X19571811Y-15475036D01*
X19421811Y-15325036D02*
X19721811Y-15325036D01*
X20071811Y-11555036D02*
X20071811Y-11855036D01*
X19921811Y-11705036D02*
X20221811Y-11705036D01*
X20071811Y-13255036D02*
X20071811Y-13555036D01*
X19921811Y-13405036D02*
X20221811Y-13405036D01*
X20071811Y-14955036D02*
X20071811Y-15255036D01*
X19921811Y-15105036D02*
X20221811Y-15105036D01*
X20969195Y-15483167D02*
X20969195Y-15783167D01*
X20819195Y-15633167D02*
X21119195Y-15633167D01*
X21117360Y-13789636D02*
X21117360Y-14089636D01*
X20967360Y-13939636D02*
X21267360Y-13939636D01*
X21265525Y-12096105D02*
X21265525Y-12396105D01*
X21115525Y-12246105D02*
X21415525Y-12246105D01*
X21448118Y-15745908D02*
X21448118Y-16045908D01*
X21298118Y-15895908D02*
X21598118Y-15895908D01*
X21448118Y-15745908D02*
X21448118Y-16045908D01*
X21298118Y-15895908D02*
X21598118Y-15895908D01*
X21596283Y-14052377D02*
X21596283Y-14352377D01*
X21446283Y-14202377D02*
X21746283Y-14202377D01*
X21596283Y-14052377D02*
X21596283Y-14352377D01*
X21446283Y-14202377D02*
X21746283Y-14202377D01*
X21744448Y-12358846D02*
X21744448Y-12658846D01*
X21594448Y-12508846D02*
X21894448Y-12508846D01*
X21744448Y-12358846D02*
X21744448Y-12658846D01*
X21594448Y-12508846D02*
X21894448Y-12508846D01*
X21965390Y-15570323D02*
X21965390Y-15870323D01*
X21815390Y-15720323D02*
X22115390Y-15720323D01*
X22113555Y-13876792D02*
X22113555Y-14176792D01*
X21963555Y-14026792D02*
X22263555Y-14026792D01*
X22261720Y-12183261D02*
X22261720Y-12483261D01*
X22111720Y-12333261D02*
X22411719Y-12333261D01*
X22461155Y-18164549D02*
X22461155Y-18464549D01*
X22311155Y-18314549D02*
X22611155Y-18314549D01*
X22737652Y-15922302D02*
X22737652Y-16222302D01*
X22587652Y-16072302D02*
X22887652Y-16072302D01*
X22855757Y-18542292D02*
X22855757Y-18842292D01*
X22705757Y-18692292D02*
X23005757Y-18692292D01*
X22855757Y-18542292D02*
X22855757Y-18842292D01*
X22705757Y-18692292D02*
X23005757Y-18692292D01*
X22885816Y-14228771D02*
X22885816Y-14528771D01*
X22735816Y-14378771D02*
X23035816Y-14378771D01*
X23033981Y-12535240D02*
X23033981Y-12835240D01*
X22883981Y-12685240D02*
X23183981Y-12685240D01*
X23216575Y-16185043D02*
X23216575Y-16485043D01*
X23066575Y-16335043D02*
X23366575Y-16335043D01*
X23216575Y-16185043D02*
X23216575Y-16485043D01*
X23066575Y-16335043D02*
X23366575Y-16335043D01*
X23364739Y-14491512D02*
X23364739Y-14791512D01*
X23214739Y-14641512D02*
X23514739Y-14641512D01*
X23364739Y-14491512D02*
X23364739Y-14791512D01*
X23214739Y-14641512D02*
X23514739Y-14641512D01*
X23400847Y-18506569D02*
X23400847Y-18806569D01*
X23250847Y-18656569D02*
X23550847Y-18656569D01*
X23512904Y-12797981D02*
X23512904Y-13097981D01*
X23362904Y-12947981D02*
X23662904Y-12947981D01*
X23512904Y-12797981D02*
X23512904Y-13097981D01*
X23362904Y-12947981D02*
X23662904Y-12947981D01*
X23733846Y-16009458D02*
X23733846Y-16309458D01*
X23583846Y-16159458D02*
X23883846Y-16159458D01*
X23882011Y-14315927D02*
X23882011Y-14615927D01*
X23732011Y-14465927D02*
X24032011Y-14465927D01*
X24030176Y-12622396D02*
X24030176Y-12922396D01*
X23880176Y-12772396D02*
X24180176Y-12772396D01*
X24213973Y-18885736D02*
X24213973Y-19185736D01*
X24063973Y-19035736D02*
X24363973Y-19035736D01*
X24536986Y-19326262D02*
X24536986Y-19626262D01*
X24386986Y-19476262D02*
X24686986Y-19476262D01*
X24536986Y-19326262D02*
X24536986Y-19626262D01*
X24386986Y-19476262D02*
X24686986Y-19476262D01*
X25079998Y-19385736D02*
X25079998Y-19685736D01*
X24929998Y-19535736D02*
X25229998Y-19535736D01*
X25814929Y-19900340D02*
X25814929Y-20200340D01*
X25664929Y-20050340D02*
X25964929Y-20050340D01*
X26056538Y-20390264D02*
X26056538Y-20690264D01*
X25906538Y-20540264D02*
X26206538Y-20540264D01*
X26056538Y-20390264D02*
X26056538Y-20690264D01*
X25906538Y-20540264D02*
X26206538Y-20540264D01*
X26580974Y-20543128D02*
X26580974Y-20843128D01*
X26430974Y-20693128D02*
X26730974Y-20693128D01*
X15310632Y-14454388D02*
X15310632Y-14211919D01*
X15068163Y-14211919D01*
X15068163Y-14454388D01*
X15310632Y-14454388D01*
X15750625Y-16096462D02*
X15750625Y-15853993D01*
X15508156Y-15853993D01*
X15508156Y-16096462D01*
X15750625Y-16096462D01*
X16190617Y-17738536D02*
X16190617Y-17496067D01*
X15948148Y-17496067D01*
X15948148Y-17738536D01*
X16190617Y-17738536D01*
X17484789Y-12192068D02*
X17484789Y-11949599D01*
X17242320Y-11949599D01*
X17242320Y-12192068D01*
X17484789Y-12192068D01*
X17632954Y-13885599D02*
X17632954Y-13643130D01*
X17390485Y-13643130D01*
X17390485Y-13885599D01*
X17632954Y-13885599D01*
X17781119Y-15579130D02*
X17781119Y-15336661D01*
X17538650Y-15336661D01*
X17538650Y-15579130D01*
X17781119Y-15579130D01*
X19693046Y-11451271D02*
X19693046Y-11208801D01*
X19450577Y-11208801D01*
X19450577Y-11451271D01*
X19693046Y-11451271D01*
X19693046Y-13151271D02*
X19693046Y-12908801D01*
X19450577Y-12908801D01*
X19450577Y-13151271D01*
X19693046Y-13151271D01*
X19693046Y-14851271D02*
X19693046Y-14608801D01*
X19450577Y-14608801D01*
X19450577Y-14851271D01*
X19693046Y-14851271D01*
X21621211Y-15424406D02*
X21621211Y-15181937D01*
X21378742Y-15181937D01*
X21378742Y-15424406D01*
X21621211Y-15424406D01*
X21769375Y-13730875D02*
X21769375Y-13488406D01*
X21526906Y-13488406D01*
X21526906Y-13730875D01*
X21769375Y-13730875D01*
X21917540Y-12037344D02*
X21917540Y-11794875D01*
X21675071Y-11794875D01*
X21675071Y-12037344D01*
X21917540Y-12037344D01*
X23180493Y-18254409D02*
X23180493Y-18011940D01*
X22938024Y-18011940D01*
X22938024Y-18254409D01*
X23180493Y-18254409D01*
X23389667Y-15863542D02*
X23389667Y-15621073D01*
X23147198Y-15621073D01*
X23147198Y-15863542D01*
X23389667Y-15863542D01*
X23537832Y-14170011D02*
X23537832Y-13927542D01*
X23295363Y-13927542D01*
X23295363Y-14170011D01*
X23537832Y-14170011D01*
X23685996Y-12476480D02*
X23685996Y-12234011D01*
X23443527Y-12234011D01*
X23443527Y-12476480D01*
X23685996Y-12476480D01*
X24955720Y-19082211D02*
X24955720Y-18839742D01*
X24713251Y-18839742D01*
X24713251Y-19082211D01*
X24955720Y-19082211D01*
X26560231Y-20205702D02*
X26560231Y-19963233D01*
X26317762Y-19963233D01*
X26317762Y-20205702D01*
X26560231Y-20205702D01*
D12*
X14295435Y-21818311D02*
X14295435Y-21518311D01*
X14366864Y-21518311D01*
X14409721Y-21532596D01*
X14438292Y-21561168D01*
X14452578Y-21589739D01*
X14466864Y-21646882D01*
X14466864Y-21689739D01*
X14452578Y-21746882D01*
X14438292Y-21775453D01*
X14409721Y-21804025D01*
X14366864Y-21818311D01*
X14295435Y-21818311D01*
X14595435Y-21818311D02*
X14595435Y-21618311D01*
X14595435Y-21675453D02*
X14609721Y-21646882D01*
X14624007Y-21632596D01*
X14652578Y-21618311D01*
X14681150Y-21618311D01*
X14781150Y-21818311D02*
X14781150Y-21618311D01*
X14781150Y-21518311D02*
X14766864Y-21532596D01*
X14781150Y-21546882D01*
X14795435Y-21532596D01*
X14781150Y-21518311D01*
X14781150Y-21546882D01*
X14966864Y-21818311D02*
X14938292Y-21804025D01*
X14924007Y-21775453D01*
X14924007Y-21518311D01*
X15124007Y-21818311D02*
X15095435Y-21804025D01*
X15081150Y-21775453D01*
X15081150Y-21518311D01*
X15466864Y-21818311D02*
X15466864Y-21518311D01*
X15566864Y-21732596D01*
X15666864Y-21518311D01*
X15666864Y-21818311D01*
X15938292Y-21818311D02*
X15938292Y-21661168D01*
X15924007Y-21632596D01*
X15895435Y-21618311D01*
X15838292Y-21618311D01*
X15809721Y-21632596D01*
X15938292Y-21804025D02*
X15909721Y-21818311D01*
X15838292Y-21818311D01*
X15809721Y-21804025D01*
X15795435Y-21775453D01*
X15795435Y-21746882D01*
X15809721Y-21718311D01*
X15838292Y-21704025D01*
X15909721Y-21704025D01*
X15938292Y-21689739D01*
X16081150Y-21618311D02*
X16081150Y-21918311D01*
X16081150Y-21632596D02*
X16109721Y-21618311D01*
X16166864Y-21618311D01*
X16195435Y-21632596D01*
X16209721Y-21646882D01*
X16224007Y-21675453D01*
X16224007Y-21761168D01*
X16209721Y-21789739D01*
X16195435Y-21804025D01*
X16166864Y-21818311D01*
X16109721Y-21818311D01*
X16081150Y-21804025D01*
X16352578Y-21789739D02*
X16366864Y-21804025D01*
X16352578Y-21818311D01*
X16338292Y-21804025D01*
X16352578Y-21789739D01*
X16352578Y-21818311D01*
X16352578Y-21632596D02*
X16366864Y-21646882D01*
X16352578Y-21661168D01*
X16338292Y-21646882D01*
X16352578Y-21632596D01*
X16352578Y-21661168D01*
X13859007Y-22237596D02*
X14009007Y-22387596D01*
X14009007Y-22237596D02*
X13859007Y-22387596D01*
X14452578Y-22448310D02*
X14281150Y-22448310D01*
X14366864Y-22448310D02*
X14366864Y-22148311D01*
X14338292Y-22191168D01*
X14309721Y-22219739D01*
X14281150Y-22234025D01*
X14581150Y-22419739D02*
X14595435Y-22434025D01*
X14581150Y-22448310D01*
X14566864Y-22434025D01*
X14581150Y-22419739D01*
X14581150Y-22448310D01*
X14866864Y-22148311D02*
X14724007Y-22148311D01*
X14709721Y-22291168D01*
X14724007Y-22276882D01*
X14752578Y-22262596D01*
X14824007Y-22262596D01*
X14852578Y-22276882D01*
X14866864Y-22291168D01*
X14881150Y-22319739D01*
X14881150Y-22391168D01*
X14866864Y-22419739D01*
X14852578Y-22434025D01*
X14824007Y-22448310D01*
X14752578Y-22448310D01*
X14724007Y-22434025D01*
X14709721Y-22419739D01*
X15066864Y-22148311D02*
X15095435Y-22148311D01*
X15124007Y-22162596D01*
X15138292Y-22176882D01*
X15152578Y-22205453D01*
X15166864Y-22262596D01*
X15166864Y-22334025D01*
X15152578Y-22391168D01*
X15138292Y-22419739D01*
X15124007Y-22434025D01*
X15095435Y-22448310D01*
X15066864Y-22448310D01*
X15038292Y-22434025D01*
X15024007Y-22419739D01*
X15009721Y-22391168D01*
X14995435Y-22334025D01*
X14995435Y-22262596D01*
X15009721Y-22205453D01*
X15024007Y-22176882D01*
X15038292Y-22162596D01*
X15066864Y-22148311D01*
X15352578Y-22148311D02*
X15381150Y-22148311D01*
X15409721Y-22162596D01*
X15424007Y-22176882D01*
X15438292Y-22205453D01*
X15452578Y-22262596D01*
X15452578Y-22334025D01*
X15438292Y-22391168D01*
X15424007Y-22419739D01*
X15409721Y-22434025D01*
X15381150Y-22448310D01*
X15352578Y-22448310D01*
X15324007Y-22434025D01*
X15309721Y-22419739D01*
X15295435Y-22391168D01*
X15281150Y-22334025D01*
X15281150Y-22262596D01*
X15295435Y-22205453D01*
X15309721Y-22176882D01*
X15324007Y-22162596D01*
X15352578Y-22148311D01*
X15581150Y-22448310D02*
X15581150Y-22248311D01*
X15581150Y-22276882D02*
X15595435Y-22262596D01*
X15624007Y-22248311D01*
X15666864Y-22248311D01*
X15695435Y-22262596D01*
X15709721Y-22291168D01*
X15709721Y-22448310D01*
X15709721Y-22291168D02*
X15724007Y-22262596D01*
X15752578Y-22248311D01*
X15795435Y-22248311D01*
X15824007Y-22262596D01*
X15838292Y-22291168D01*
X15838292Y-22448310D01*
X15981150Y-22448310D02*
X15981150Y-22248311D01*
X15981150Y-22276882D02*
X15995435Y-22262596D01*
X16024007Y-22248311D01*
X16066864Y-22248311D01*
X16095435Y-22262596D01*
X16109721Y-22291168D01*
X16109721Y-22448310D01*
X16109721Y-22291168D02*
X16124007Y-22262596D01*
X16152578Y-22248311D01*
X16195435Y-22248311D01*
X16224007Y-22262596D01*
X16238292Y-22291168D01*
X16238292Y-22448310D01*
X16824007Y-22134025D02*
X16566864Y-22519739D01*
X17209721Y-22148311D02*
X17238293Y-22148311D01*
X17266864Y-22162596D01*
X17281150Y-22176882D01*
X17295435Y-22205453D01*
X17309721Y-22262596D01*
X17309721Y-22334025D01*
X17295435Y-22391168D01*
X17281150Y-22419739D01*
X17266864Y-22434025D01*
X17238293Y-22448310D01*
X17209721Y-22448310D01*
X17181150Y-22434025D01*
X17166864Y-22419739D01*
X17152578Y-22391168D01*
X17138293Y-22334025D01*
X17138293Y-22262596D01*
X17152578Y-22205453D01*
X17166864Y-22176882D01*
X17181150Y-22162596D01*
X17209721Y-22148311D01*
X17438293Y-22419739D02*
X17452578Y-22434025D01*
X17438293Y-22448310D01*
X17424007Y-22434025D01*
X17438293Y-22419739D01*
X17438293Y-22448310D01*
X17638293Y-22148311D02*
X17666864Y-22148311D01*
X17695435Y-22162596D01*
X17709721Y-22176882D01*
X17724007Y-22205453D01*
X17738293Y-22262596D01*
X17738293Y-22334025D01*
X17724007Y-22391168D01*
X17709721Y-22419739D01*
X17695435Y-22434025D01*
X17666864Y-22448310D01*
X17638293Y-22448310D01*
X17609721Y-22434025D01*
X17595435Y-22419739D01*
X17581150Y-22391168D01*
X17566864Y-22334025D01*
X17566864Y-22262596D01*
X17581150Y-22205453D01*
X17595435Y-22176882D01*
X17609721Y-22162596D01*
X17638293Y-22148311D01*
X18009721Y-22148311D02*
X17866864Y-22148311D01*
X17852578Y-22291168D01*
X17866864Y-22276882D01*
X17895435Y-22262596D01*
X17966864Y-22262596D01*
X17995435Y-22276882D01*
X18009721Y-22291168D01*
X18024007Y-22319739D01*
X18024007Y-22391168D01*
X18009721Y-22419739D01*
X17995435Y-22434025D01*
X17966864Y-22448310D01*
X17895435Y-22448310D01*
X17866864Y-22434025D01*
X17852578Y-22419739D01*
X18166864Y-22448310D02*
X18224007Y-22448310D01*
X18252578Y-22434025D01*
X18266864Y-22419739D01*
X18295435Y-22376882D01*
X18309721Y-22319739D01*
X18309721Y-22205453D01*
X18295435Y-22176882D01*
X18281150Y-22162596D01*
X18252578Y-22148311D01*
X18195435Y-22148311D01*
X18166864Y-22162596D01*
X18152578Y-22176882D01*
X18138293Y-22205453D01*
X18138293Y-22276882D01*
X18152578Y-22305453D01*
X18166864Y-22319739D01*
X18195435Y-22334025D01*
X18252578Y-22334025D01*
X18281150Y-22319739D01*
X18295435Y-22305453D01*
X18309721Y-22276882D01*
X18595435Y-22448310D02*
X18424007Y-22448310D01*
X18509721Y-22448310D02*
X18509721Y-22148311D01*
X18481150Y-22191168D01*
X18452578Y-22219739D01*
X18424007Y-22234025D01*
X18709721Y-22148311D02*
X18709721Y-22205453D01*
X18824007Y-22148311D02*
X18824007Y-22205453D01*
X19266864Y-22562596D02*
X19252578Y-22548310D01*
X19224007Y-22505453D01*
X19209721Y-22476882D01*
X19195435Y-22434025D01*
X19181150Y-22362596D01*
X19181150Y-22305453D01*
X19195435Y-22234025D01*
X19209721Y-22191168D01*
X19224007Y-22162596D01*
X19252578Y-22119739D01*
X19266864Y-22105453D01*
X19366864Y-22176882D02*
X19381150Y-22162596D01*
X19409721Y-22148311D01*
X19481150Y-22148311D01*
X19509721Y-22162596D01*
X19524007Y-22176882D01*
X19538293Y-22205453D01*
X19538293Y-22234025D01*
X19524007Y-22276882D01*
X19352578Y-22448310D01*
X19538293Y-22448310D01*
X19895435Y-22448310D02*
X19895435Y-22148311D01*
X20024007Y-22448310D02*
X20024007Y-22291168D01*
X20009721Y-22262596D01*
X19981150Y-22248311D01*
X19938293Y-22248311D01*
X19909721Y-22262596D01*
X19895435Y-22276882D01*
X20209721Y-22448310D02*
X20181150Y-22434025D01*
X20166864Y-22419739D01*
X20152578Y-22391168D01*
X20152578Y-22305453D01*
X20166864Y-22276882D01*
X20181150Y-22262596D01*
X20209721Y-22248311D01*
X20252578Y-22248311D01*
X20281150Y-22262596D01*
X20295435Y-22276882D01*
X20309721Y-22305453D01*
X20309721Y-22391168D01*
X20295435Y-22419739D01*
X20281150Y-22434025D01*
X20252578Y-22448310D01*
X20209721Y-22448310D01*
X20481150Y-22448310D02*
X20452578Y-22434025D01*
X20438293Y-22405453D01*
X20438293Y-22148311D01*
X20709721Y-22434025D02*
X20681150Y-22448310D01*
X20624007Y-22448310D01*
X20595435Y-22434025D01*
X20581150Y-22405453D01*
X20581150Y-22291168D01*
X20595435Y-22262596D01*
X20624007Y-22248311D01*
X20681150Y-22248311D01*
X20709721Y-22262596D01*
X20724007Y-22291168D01*
X20724007Y-22319739D01*
X20581150Y-22348311D01*
X20838293Y-22434025D02*
X20866864Y-22448310D01*
X20924007Y-22448310D01*
X20952578Y-22434025D01*
X20966864Y-22405453D01*
X20966864Y-22391168D01*
X20952578Y-22362596D01*
X20924007Y-22348311D01*
X20881150Y-22348311D01*
X20852578Y-22334025D01*
X20838293Y-22305453D01*
X20838293Y-22291168D01*
X20852578Y-22262596D01*
X20881150Y-22248311D01*
X20924007Y-22248311D01*
X20952578Y-22262596D01*
X21066864Y-22562596D02*
X21081150Y-22548310D01*
X21109721Y-22505453D01*
X21124007Y-22476882D01*
X21138293Y-22434025D01*
X21152578Y-22362596D01*
X21152578Y-22305453D01*
X21138293Y-22234025D01*
X21124007Y-22191168D01*
X21109721Y-22162596D01*
X21081150Y-22119739D01*
X21066864Y-22105453D01*
X21609721Y-22562596D02*
X21595435Y-22548310D01*
X21566864Y-22505453D01*
X21552578Y-22476882D01*
X21538293Y-22434025D01*
X21524007Y-22362596D01*
X21524007Y-22305453D01*
X21538293Y-22234025D01*
X21552578Y-22191168D01*
X21566864Y-22162596D01*
X21595435Y-22119739D01*
X21609721Y-22105453D01*
X21724007Y-22248311D02*
X21724007Y-22448310D01*
X21724007Y-22276882D02*
X21738293Y-22262596D01*
X21766864Y-22248311D01*
X21809721Y-22248311D01*
X21838293Y-22262596D01*
X21852578Y-22291168D01*
X21852578Y-22448310D01*
X22038293Y-22448310D02*
X22009721Y-22434025D01*
X21995435Y-22419739D01*
X21981150Y-22391168D01*
X21981150Y-22305453D01*
X21995435Y-22276882D01*
X22009721Y-22262596D01*
X22038293Y-22248311D01*
X22081150Y-22248311D01*
X22109721Y-22262596D01*
X22124007Y-22276882D01*
X22138293Y-22305453D01*
X22138293Y-22391168D01*
X22124007Y-22419739D01*
X22109721Y-22434025D01*
X22081150Y-22448310D01*
X22038293Y-22448310D01*
X22224007Y-22248311D02*
X22338293Y-22248311D01*
X22266864Y-22148311D02*
X22266864Y-22405453D01*
X22281150Y-22434025D01*
X22309721Y-22448310D01*
X22338293Y-22448310D01*
X22666864Y-22248311D02*
X22666864Y-22548310D01*
X22666864Y-22262596D02*
X22695435Y-22248311D01*
X22752578Y-22248311D01*
X22781150Y-22262596D01*
X22795435Y-22276882D01*
X22809721Y-22305453D01*
X22809721Y-22391168D01*
X22795435Y-22419739D01*
X22781150Y-22434025D01*
X22752578Y-22448310D01*
X22695435Y-22448310D01*
X22666864Y-22434025D01*
X22981150Y-22448310D02*
X22952578Y-22434025D01*
X22938292Y-22405453D01*
X22938292Y-22148311D01*
X23224007Y-22448310D02*
X23224007Y-22291168D01*
X23209721Y-22262596D01*
X23181150Y-22248311D01*
X23124007Y-22248311D01*
X23095435Y-22262596D01*
X23224007Y-22434025D02*
X23195435Y-22448310D01*
X23124007Y-22448310D01*
X23095435Y-22434025D01*
X23081150Y-22405453D01*
X23081150Y-22376882D01*
X23095435Y-22348311D01*
X23124007Y-22334025D01*
X23195435Y-22334025D01*
X23224007Y-22319739D01*
X23324007Y-22248311D02*
X23438292Y-22248311D01*
X23366864Y-22148311D02*
X23366864Y-22405453D01*
X23381150Y-22434025D01*
X23409721Y-22448310D01*
X23438292Y-22448310D01*
X23652578Y-22434025D02*
X23624007Y-22448310D01*
X23566864Y-22448310D01*
X23538292Y-22434025D01*
X23524007Y-22405453D01*
X23524007Y-22291168D01*
X23538292Y-22262596D01*
X23566864Y-22248311D01*
X23624007Y-22248311D01*
X23652578Y-22262596D01*
X23666864Y-22291168D01*
X23666864Y-22319739D01*
X23524007Y-22348311D01*
X23924007Y-22448310D02*
X23924007Y-22148311D01*
X23924007Y-22434025D02*
X23895435Y-22448310D01*
X23838292Y-22448310D01*
X23809721Y-22434025D01*
X23795435Y-22419739D01*
X23781150Y-22391168D01*
X23781150Y-22305453D01*
X23795435Y-22276882D01*
X23809721Y-22262596D01*
X23838292Y-22248311D01*
X23895435Y-22248311D01*
X23924007Y-22262596D01*
X24038292Y-22562596D02*
X24052578Y-22548310D01*
X24081150Y-22505453D01*
X24095435Y-22476882D01*
X24109721Y-22434025D01*
X24124007Y-22362596D01*
X24124007Y-22305453D01*
X24109721Y-22234025D01*
X24095435Y-22191168D01*
X24081150Y-22162596D01*
X24052578Y-22119739D01*
X24038292Y-22105453D01*
X14009007Y-22708596D02*
G75*
G03*
X14009007Y-22708596I-85090J0D01*
G01*
X14452578Y-22844310D02*
X14281150Y-22844310D01*
X14366864Y-22844310D02*
X14366864Y-22544310D01*
X14338292Y-22587168D01*
X14309721Y-22615739D01*
X14281150Y-22630025D01*
X14581150Y-22815739D02*
X14595435Y-22830025D01*
X14581150Y-22844310D01*
X14566864Y-22830025D01*
X14581150Y-22815739D01*
X14581150Y-22844310D01*
X14695435Y-22544310D02*
X14895435Y-22544310D01*
X14766864Y-22844310D01*
X15066864Y-22544310D02*
X15095435Y-22544310D01*
X15124007Y-22558596D01*
X15138292Y-22572882D01*
X15152578Y-22601453D01*
X15166864Y-22658596D01*
X15166864Y-22730025D01*
X15152578Y-22787168D01*
X15138292Y-22815739D01*
X15124007Y-22830025D01*
X15095435Y-22844310D01*
X15066864Y-22844310D01*
X15038292Y-22830025D01*
X15024007Y-22815739D01*
X15009721Y-22787168D01*
X14995435Y-22730025D01*
X14995435Y-22658596D01*
X15009721Y-22601453D01*
X15024007Y-22572882D01*
X15038292Y-22558596D01*
X15066864Y-22544310D01*
X15281150Y-22572882D02*
X15295435Y-22558596D01*
X15324007Y-22544310D01*
X15395435Y-22544310D01*
X15424007Y-22558596D01*
X15438292Y-22572882D01*
X15452578Y-22601453D01*
X15452578Y-22630025D01*
X15438292Y-22672882D01*
X15266864Y-22844310D01*
X15452578Y-22844310D01*
X15581150Y-22844310D02*
X15581150Y-22644310D01*
X15581150Y-22672882D02*
X15595435Y-22658596D01*
X15624007Y-22644310D01*
X15666864Y-22644310D01*
X15695435Y-22658596D01*
X15709721Y-22687168D01*
X15709721Y-22844310D01*
X15709721Y-22687168D02*
X15724007Y-22658596D01*
X15752578Y-22644310D01*
X15795435Y-22644310D01*
X15824007Y-22658596D01*
X15838292Y-22687168D01*
X15838292Y-22844310D01*
X15981150Y-22844310D02*
X15981150Y-22644310D01*
X15981150Y-22672882D02*
X15995435Y-22658596D01*
X16024007Y-22644310D01*
X16066864Y-22644310D01*
X16095435Y-22658596D01*
X16109721Y-22687168D01*
X16109721Y-22844310D01*
X16109721Y-22687168D02*
X16124007Y-22658596D01*
X16152578Y-22644310D01*
X16195435Y-22644310D01*
X16224007Y-22658596D01*
X16238292Y-22687168D01*
X16238292Y-22844310D01*
X16824007Y-22530025D02*
X16566864Y-22915739D01*
X17209721Y-22544310D02*
X17238293Y-22544310D01*
X17266864Y-22558596D01*
X17281150Y-22572882D01*
X17295435Y-22601453D01*
X17309721Y-22658596D01*
X17309721Y-22730025D01*
X17295435Y-22787168D01*
X17281150Y-22815739D01*
X17266864Y-22830025D01*
X17238293Y-22844310D01*
X17209721Y-22844310D01*
X17181150Y-22830025D01*
X17166864Y-22815739D01*
X17152578Y-22787168D01*
X17138293Y-22730025D01*
X17138293Y-22658596D01*
X17152578Y-22601453D01*
X17166864Y-22572882D01*
X17181150Y-22558596D01*
X17209721Y-22544310D01*
X17438293Y-22815739D02*
X17452578Y-22830025D01*
X17438293Y-22844310D01*
X17424007Y-22830025D01*
X17438293Y-22815739D01*
X17438293Y-22844310D01*
X17638293Y-22544310D02*
X17666864Y-22544310D01*
X17695435Y-22558596D01*
X17709721Y-22572882D01*
X17724007Y-22601453D01*
X17738293Y-22658596D01*
X17738293Y-22730025D01*
X17724007Y-22787168D01*
X17709721Y-22815739D01*
X17695435Y-22830025D01*
X17666864Y-22844310D01*
X17638293Y-22844310D01*
X17609721Y-22830025D01*
X17595435Y-22815739D01*
X17581150Y-22787168D01*
X17566864Y-22730025D01*
X17566864Y-22658596D01*
X17581150Y-22601453D01*
X17595435Y-22572882D01*
X17609721Y-22558596D01*
X17638293Y-22544310D01*
X17995435Y-22544310D02*
X17938293Y-22544310D01*
X17909721Y-22558596D01*
X17895435Y-22572882D01*
X17866864Y-22615739D01*
X17852578Y-22672882D01*
X17852578Y-22787168D01*
X17866864Y-22815739D01*
X17881150Y-22830025D01*
X17909721Y-22844310D01*
X17966864Y-22844310D01*
X17995435Y-22830025D01*
X18009721Y-22815739D01*
X18024007Y-22787168D01*
X18024007Y-22715739D01*
X18009721Y-22687168D01*
X17995435Y-22672882D01*
X17966864Y-22658596D01*
X17909721Y-22658596D01*
X17881150Y-22672882D01*
X17866864Y-22687168D01*
X17852578Y-22715739D01*
X18124007Y-22544310D02*
X18324007Y-22544310D01*
X18195435Y-22844310D01*
X18495435Y-22544310D02*
X18524007Y-22544310D01*
X18552578Y-22558596D01*
X18566864Y-22572882D01*
X18581150Y-22601453D01*
X18595435Y-22658596D01*
X18595435Y-22730025D01*
X18581150Y-22787168D01*
X18566864Y-22815739D01*
X18552578Y-22830025D01*
X18524007Y-22844310D01*
X18495435Y-22844310D01*
X18466864Y-22830025D01*
X18452578Y-22815739D01*
X18438293Y-22787168D01*
X18424007Y-22730025D01*
X18424007Y-22658596D01*
X18438293Y-22601453D01*
X18452578Y-22572882D01*
X18466864Y-22558596D01*
X18495435Y-22544310D01*
X18709721Y-22544310D02*
X18709721Y-22601453D01*
X18824007Y-22544310D02*
X18824007Y-22601453D01*
X19266864Y-22958596D02*
X19252578Y-22944310D01*
X19224007Y-22901453D01*
X19209721Y-22872882D01*
X19195435Y-22830025D01*
X19181150Y-22758596D01*
X19181150Y-22701453D01*
X19195435Y-22630025D01*
X19209721Y-22587168D01*
X19224007Y-22558596D01*
X19252578Y-22515739D01*
X19266864Y-22501453D01*
X19352578Y-22544310D02*
X19538293Y-22544310D01*
X19438293Y-22658596D01*
X19481150Y-22658596D01*
X19509721Y-22672882D01*
X19524007Y-22687168D01*
X19538293Y-22715739D01*
X19538293Y-22787168D01*
X19524007Y-22815739D01*
X19509721Y-22830025D01*
X19481150Y-22844310D01*
X19395435Y-22844310D01*
X19366864Y-22830025D01*
X19352578Y-22815739D01*
X19795435Y-22544310D02*
X19738293Y-22544310D01*
X19709721Y-22558596D01*
X19695435Y-22572882D01*
X19666864Y-22615739D01*
X19652578Y-22672882D01*
X19652578Y-22787168D01*
X19666864Y-22815739D01*
X19681150Y-22830025D01*
X19709721Y-22844310D01*
X19766864Y-22844310D01*
X19795435Y-22830025D01*
X19809721Y-22815739D01*
X19824007Y-22787168D01*
X19824007Y-22715739D01*
X19809721Y-22687168D01*
X19795435Y-22672882D01*
X19766864Y-22658596D01*
X19709721Y-22658596D01*
X19681150Y-22672882D01*
X19666864Y-22687168D01*
X19652578Y-22715739D01*
X20181150Y-22844310D02*
X20181150Y-22544310D01*
X20309721Y-22844310D02*
X20309721Y-22687168D01*
X20295435Y-22658596D01*
X20266864Y-22644310D01*
X20224007Y-22644310D01*
X20195435Y-22658596D01*
X20181150Y-22672882D01*
X20495435Y-22844310D02*
X20466864Y-22830025D01*
X20452578Y-22815739D01*
X20438293Y-22787168D01*
X20438293Y-22701453D01*
X20452578Y-22672882D01*
X20466864Y-22658596D01*
X20495435Y-22644310D01*
X20538293Y-22644310D01*
X20566864Y-22658596D01*
X20581150Y-22672882D01*
X20595435Y-22701453D01*
X20595435Y-22787168D01*
X20581150Y-22815739D01*
X20566864Y-22830025D01*
X20538293Y-22844310D01*
X20495435Y-22844310D01*
X20766864Y-22844310D02*
X20738293Y-22830025D01*
X20724007Y-22801453D01*
X20724007Y-22544310D01*
X20995435Y-22830025D02*
X20966864Y-22844310D01*
X20909721Y-22844310D01*
X20881150Y-22830025D01*
X20866864Y-22801453D01*
X20866864Y-22687168D01*
X20881150Y-22658596D01*
X20909721Y-22644310D01*
X20966864Y-22644310D01*
X20995435Y-22658596D01*
X21009721Y-22687168D01*
X21009721Y-22715739D01*
X20866864Y-22744310D01*
X21124007Y-22830025D02*
X21152578Y-22844310D01*
X21209721Y-22844310D01*
X21238293Y-22830025D01*
X21252578Y-22801453D01*
X21252578Y-22787168D01*
X21238293Y-22758596D01*
X21209721Y-22744310D01*
X21166864Y-22744310D01*
X21138293Y-22730025D01*
X21124007Y-22701453D01*
X21124007Y-22687168D01*
X21138293Y-22658596D01*
X21166864Y-22644310D01*
X21209721Y-22644310D01*
X21238293Y-22658596D01*
X21352578Y-22958596D02*
X21366864Y-22944310D01*
X21395435Y-22901453D01*
X21409721Y-22872882D01*
X21424007Y-22830025D01*
X21438293Y-22758596D01*
X21438293Y-22701453D01*
X21424007Y-22630025D01*
X21409721Y-22587168D01*
X21395435Y-22558596D01*
X21366864Y-22515739D01*
X21352578Y-22501453D01*
X21895435Y-22958596D02*
X21881150Y-22944310D01*
X21852578Y-22901453D01*
X21838293Y-22872882D01*
X21824007Y-22830025D01*
X21809721Y-22758596D01*
X21809721Y-22701453D01*
X21824007Y-22630025D01*
X21838293Y-22587168D01*
X21852578Y-22558596D01*
X21881150Y-22515739D01*
X21895435Y-22501453D01*
X22009721Y-22644310D02*
X22009721Y-22844310D01*
X22009721Y-22672882D02*
X22024007Y-22658596D01*
X22052578Y-22644310D01*
X22095435Y-22644310D01*
X22124007Y-22658596D01*
X22138293Y-22687168D01*
X22138293Y-22844310D01*
X22324007Y-22844310D02*
X22295435Y-22830025D01*
X22281150Y-22815739D01*
X22266864Y-22787168D01*
X22266864Y-22701453D01*
X22281150Y-22672882D01*
X22295435Y-22658596D01*
X22324007Y-22644310D01*
X22366864Y-22644310D01*
X22395435Y-22658596D01*
X22409721Y-22672882D01*
X22424007Y-22701453D01*
X22424007Y-22787168D01*
X22409721Y-22815739D01*
X22395435Y-22830025D01*
X22366864Y-22844310D01*
X22324007Y-22844310D01*
X22509721Y-22644310D02*
X22624007Y-22644310D01*
X22552578Y-22544310D02*
X22552578Y-22801453D01*
X22566864Y-22830025D01*
X22595435Y-22844310D01*
X22624007Y-22844310D01*
X22952578Y-22644310D02*
X22952578Y-22944310D01*
X22952578Y-22658596D02*
X22981150Y-22644310D01*
X23038292Y-22644310D01*
X23066864Y-22658596D01*
X23081150Y-22672882D01*
X23095435Y-22701453D01*
X23095435Y-22787168D01*
X23081150Y-22815739D01*
X23066864Y-22830025D01*
X23038292Y-22844310D01*
X22981150Y-22844310D01*
X22952578Y-22830025D01*
X23266864Y-22844310D02*
X23238292Y-22830025D01*
X23224007Y-22801453D01*
X23224007Y-22544310D01*
X23509721Y-22844310D02*
X23509721Y-22687168D01*
X23495435Y-22658596D01*
X23466864Y-22644310D01*
X23409721Y-22644310D01*
X23381150Y-22658596D01*
X23509721Y-22830025D02*
X23481150Y-22844310D01*
X23409721Y-22844310D01*
X23381150Y-22830025D01*
X23366864Y-22801453D01*
X23366864Y-22772882D01*
X23381150Y-22744310D01*
X23409721Y-22730025D01*
X23481150Y-22730025D01*
X23509721Y-22715739D01*
X23609721Y-22644310D02*
X23724007Y-22644310D01*
X23652578Y-22544310D02*
X23652578Y-22801453D01*
X23666864Y-22830025D01*
X23695435Y-22844310D01*
X23724007Y-22844310D01*
X23938292Y-22830025D02*
X23909721Y-22844310D01*
X23852578Y-22844310D01*
X23824007Y-22830025D01*
X23809721Y-22801453D01*
X23809721Y-22687168D01*
X23824007Y-22658596D01*
X23852578Y-22644310D01*
X23909721Y-22644310D01*
X23938292Y-22658596D01*
X23952578Y-22687168D01*
X23952578Y-22715739D01*
X23809721Y-22744310D01*
X24209721Y-22844310D02*
X24209721Y-22544310D01*
X24209721Y-22830025D02*
X24181150Y-22844310D01*
X24124007Y-22844310D01*
X24095435Y-22830025D01*
X24081150Y-22815739D01*
X24066864Y-22787168D01*
X24066864Y-22701453D01*
X24081150Y-22672882D01*
X24095435Y-22658596D01*
X24124007Y-22644310D01*
X24181150Y-22644310D01*
X24209721Y-22658596D01*
X24324007Y-22958596D02*
X24338292Y-22944310D01*
X24366864Y-22901453D01*
X24381150Y-22872882D01*
X24395435Y-22830025D01*
X24409721Y-22758596D01*
X24409721Y-22701453D01*
X24395435Y-22630025D01*
X24381150Y-22587168D01*
X24366864Y-22558596D01*
X24338292Y-22515739D01*
X24324007Y-22501453D01*
X13859007Y-22954596D02*
X13859007Y-23254596D01*
X13709007Y-23104596D02*
X14009007Y-23104596D01*
X14266864Y-22940310D02*
X14452578Y-22940310D01*
X14352578Y-23054596D01*
X14395435Y-23054596D01*
X14424007Y-23068882D01*
X14438292Y-23083168D01*
X14452578Y-23111739D01*
X14452578Y-23183168D01*
X14438292Y-23211739D01*
X14424007Y-23226025D01*
X14395435Y-23240310D01*
X14309721Y-23240310D01*
X14281150Y-23226025D01*
X14266864Y-23211739D01*
X14581150Y-23211739D02*
X14595435Y-23226025D01*
X14581150Y-23240310D01*
X14566864Y-23226025D01*
X14581150Y-23211739D01*
X14581150Y-23240310D01*
X14781150Y-22940310D02*
X14809721Y-22940310D01*
X14838292Y-22954596D01*
X14852578Y-22968882D01*
X14866864Y-22997453D01*
X14881150Y-23054596D01*
X14881150Y-23126025D01*
X14866864Y-23183168D01*
X14852578Y-23211739D01*
X14838292Y-23226025D01*
X14809721Y-23240310D01*
X14781150Y-23240310D01*
X14752578Y-23226025D01*
X14738292Y-23211739D01*
X14724007Y-23183168D01*
X14709721Y-23126025D01*
X14709721Y-23054596D01*
X14724007Y-22997453D01*
X14738292Y-22968882D01*
X14752578Y-22954596D01*
X14781150Y-22940310D01*
X15066864Y-22940310D02*
X15095435Y-22940310D01*
X15124007Y-22954596D01*
X15138292Y-22968882D01*
X15152578Y-22997453D01*
X15166864Y-23054596D01*
X15166864Y-23126025D01*
X15152578Y-23183168D01*
X15138292Y-23211739D01*
X15124007Y-23226025D01*
X15095435Y-23240310D01*
X15066864Y-23240310D01*
X15038292Y-23226025D01*
X15024007Y-23211739D01*
X15009721Y-23183168D01*
X14995435Y-23126025D01*
X14995435Y-23054596D01*
X15009721Y-22997453D01*
X15024007Y-22968882D01*
X15038292Y-22954596D01*
X15066864Y-22940310D01*
X15352578Y-22940310D02*
X15381150Y-22940310D01*
X15409721Y-22954596D01*
X15424007Y-22968882D01*
X15438292Y-22997453D01*
X15452578Y-23054596D01*
X15452578Y-23126025D01*
X15438292Y-23183168D01*
X15424007Y-23211739D01*
X15409721Y-23226025D01*
X15381150Y-23240310D01*
X15352578Y-23240310D01*
X15324007Y-23226025D01*
X15309721Y-23211739D01*
X15295435Y-23183168D01*
X15281150Y-23126025D01*
X15281150Y-23054596D01*
X15295435Y-22997453D01*
X15309721Y-22968882D01*
X15324007Y-22954596D01*
X15352578Y-22940310D01*
X15581150Y-23240310D02*
X15581150Y-23040310D01*
X15581150Y-23068882D02*
X15595435Y-23054596D01*
X15624007Y-23040310D01*
X15666864Y-23040310D01*
X15695435Y-23054596D01*
X15709721Y-23083168D01*
X15709721Y-23240310D01*
X15709721Y-23083168D02*
X15724007Y-23054596D01*
X15752578Y-23040310D01*
X15795435Y-23040310D01*
X15824007Y-23054596D01*
X15838292Y-23083168D01*
X15838292Y-23240310D01*
X15981150Y-23240310D02*
X15981150Y-23040310D01*
X15981150Y-23068882D02*
X15995435Y-23054596D01*
X16024007Y-23040310D01*
X16066864Y-23040310D01*
X16095435Y-23054596D01*
X16109721Y-23083168D01*
X16109721Y-23240310D01*
X16109721Y-23083168D02*
X16124007Y-23054596D01*
X16152578Y-23040310D01*
X16195435Y-23040310D01*
X16224007Y-23054596D01*
X16238292Y-23083168D01*
X16238292Y-23240310D01*
X16824007Y-22926025D02*
X16566864Y-23311739D01*
X17209721Y-22940310D02*
X17238293Y-22940310D01*
X17266864Y-22954596D01*
X17281150Y-22968882D01*
X17295435Y-22997453D01*
X17309721Y-23054596D01*
X17309721Y-23126025D01*
X17295435Y-23183168D01*
X17281150Y-23211739D01*
X17266864Y-23226025D01*
X17238293Y-23240310D01*
X17209721Y-23240310D01*
X17181150Y-23226025D01*
X17166864Y-23211739D01*
X17152578Y-23183168D01*
X17138293Y-23126025D01*
X17138293Y-23054596D01*
X17152578Y-22997453D01*
X17166864Y-22968882D01*
X17181150Y-22954596D01*
X17209721Y-22940310D01*
X17438293Y-23211739D02*
X17452578Y-23226025D01*
X17438293Y-23240310D01*
X17424007Y-23226025D01*
X17438293Y-23211739D01*
X17438293Y-23240310D01*
X17738293Y-23240310D02*
X17566864Y-23240310D01*
X17652578Y-23240310D02*
X17652578Y-22940310D01*
X17624007Y-22983168D01*
X17595435Y-23011739D01*
X17566864Y-23026025D01*
X18024007Y-23240310D02*
X17852578Y-23240310D01*
X17938293Y-23240310D02*
X17938293Y-22940310D01*
X17909721Y-22983168D01*
X17881150Y-23011739D01*
X17852578Y-23026025D01*
X18195435Y-23068882D02*
X18166864Y-23054596D01*
X18152578Y-23040310D01*
X18138293Y-23011739D01*
X18138293Y-22997453D01*
X18152578Y-22968882D01*
X18166864Y-22954596D01*
X18195435Y-22940310D01*
X18252578Y-22940310D01*
X18281150Y-22954596D01*
X18295435Y-22968882D01*
X18309721Y-22997453D01*
X18309721Y-23011739D01*
X18295435Y-23040310D01*
X18281150Y-23054596D01*
X18252578Y-23068882D01*
X18195435Y-23068882D01*
X18166864Y-23083168D01*
X18152578Y-23097453D01*
X18138293Y-23126025D01*
X18138293Y-23183168D01*
X18152578Y-23211739D01*
X18166864Y-23226025D01*
X18195435Y-23240310D01*
X18252578Y-23240310D01*
X18281150Y-23226025D01*
X18295435Y-23211739D01*
X18309721Y-23183168D01*
X18309721Y-23126025D01*
X18295435Y-23097453D01*
X18281150Y-23083168D01*
X18252578Y-23068882D01*
X18595435Y-23240310D02*
X18424007Y-23240310D01*
X18509721Y-23240310D02*
X18509721Y-22940310D01*
X18481150Y-22983168D01*
X18452578Y-23011739D01*
X18424007Y-23026025D01*
X18709721Y-22940310D02*
X18709721Y-22997453D01*
X18824007Y-22940310D02*
X18824007Y-22997453D01*
X19266864Y-23354596D02*
X19252578Y-23340310D01*
X19224007Y-23297453D01*
X19209721Y-23268882D01*
X19195435Y-23226025D01*
X19181150Y-23154596D01*
X19181150Y-23097453D01*
X19195435Y-23026025D01*
X19209721Y-22983168D01*
X19224007Y-22954596D01*
X19252578Y-22911739D01*
X19266864Y-22897453D01*
X19352578Y-22940310D02*
X19552578Y-22940310D01*
X19424007Y-23240310D01*
X19652578Y-22968882D02*
X19666864Y-22954596D01*
X19695435Y-22940310D01*
X19766864Y-22940310D01*
X19795435Y-22954596D01*
X19809721Y-22968882D01*
X19824007Y-22997453D01*
X19824007Y-23026025D01*
X19809721Y-23068882D01*
X19638293Y-23240310D01*
X19824007Y-23240310D01*
X20181150Y-23240310D02*
X20181150Y-22940310D01*
X20309721Y-23240310D02*
X20309721Y-23083168D01*
X20295435Y-23054596D01*
X20266864Y-23040310D01*
X20224007Y-23040310D01*
X20195435Y-23054596D01*
X20181150Y-23068882D01*
X20495435Y-23240310D02*
X20466864Y-23226025D01*
X20452578Y-23211739D01*
X20438293Y-23183168D01*
X20438293Y-23097453D01*
X20452578Y-23068882D01*
X20466864Y-23054596D01*
X20495435Y-23040310D01*
X20538293Y-23040310D01*
X20566864Y-23054596D01*
X20581150Y-23068882D01*
X20595435Y-23097453D01*
X20595435Y-23183168D01*
X20581150Y-23211739D01*
X20566864Y-23226025D01*
X20538293Y-23240310D01*
X20495435Y-23240310D01*
X20766864Y-23240310D02*
X20738293Y-23226025D01*
X20724007Y-23197453D01*
X20724007Y-22940310D01*
X20995435Y-23226025D02*
X20966864Y-23240310D01*
X20909721Y-23240310D01*
X20881150Y-23226025D01*
X20866864Y-23197453D01*
X20866864Y-23083168D01*
X20881150Y-23054596D01*
X20909721Y-23040310D01*
X20966864Y-23040310D01*
X20995435Y-23054596D01*
X21009721Y-23083168D01*
X21009721Y-23111739D01*
X20866864Y-23140310D01*
X21124007Y-23226025D02*
X21152578Y-23240310D01*
X21209721Y-23240310D01*
X21238293Y-23226025D01*
X21252578Y-23197453D01*
X21252578Y-23183168D01*
X21238293Y-23154596D01*
X21209721Y-23140310D01*
X21166864Y-23140310D01*
X21138293Y-23126025D01*
X21124007Y-23097453D01*
X21124007Y-23083168D01*
X21138293Y-23054596D01*
X21166864Y-23040310D01*
X21209721Y-23040310D01*
X21238293Y-23054596D01*
X21352578Y-23354596D02*
X21366864Y-23340310D01*
X21395435Y-23297453D01*
X21409721Y-23268882D01*
X21424007Y-23226025D01*
X21438293Y-23154596D01*
X21438293Y-23097453D01*
X21424007Y-23026025D01*
X21409721Y-22983168D01*
X21395435Y-22954596D01*
X21366864Y-22911739D01*
X21352578Y-22897453D01*
X21895435Y-23354596D02*
X21881150Y-23340310D01*
X21852578Y-23297453D01*
X21838293Y-23268882D01*
X21824007Y-23226025D01*
X21809721Y-23154596D01*
X21809721Y-23097453D01*
X21824007Y-23026025D01*
X21838293Y-22983168D01*
X21852578Y-22954596D01*
X21881150Y-22911739D01*
X21895435Y-22897453D01*
X22009721Y-23040310D02*
X22009721Y-23240310D01*
X22009721Y-23068882D02*
X22024007Y-23054596D01*
X22052578Y-23040310D01*
X22095435Y-23040310D01*
X22124007Y-23054596D01*
X22138293Y-23083168D01*
X22138293Y-23240310D01*
X22324007Y-23240310D02*
X22295435Y-23226025D01*
X22281150Y-23211739D01*
X22266864Y-23183168D01*
X22266864Y-23097453D01*
X22281150Y-23068882D01*
X22295435Y-23054596D01*
X22324007Y-23040310D01*
X22366864Y-23040310D01*
X22395435Y-23054596D01*
X22409721Y-23068882D01*
X22424007Y-23097453D01*
X22424007Y-23183168D01*
X22409721Y-23211739D01*
X22395435Y-23226025D01*
X22366864Y-23240310D01*
X22324007Y-23240310D01*
X22509721Y-23040310D02*
X22624007Y-23040310D01*
X22552578Y-22940310D02*
X22552578Y-23197453D01*
X22566864Y-23226025D01*
X22595435Y-23240310D01*
X22624007Y-23240310D01*
X22952578Y-23040310D02*
X22952578Y-23340310D01*
X22952578Y-23054596D02*
X22981150Y-23040310D01*
X23038292Y-23040310D01*
X23066864Y-23054596D01*
X23081150Y-23068882D01*
X23095435Y-23097453D01*
X23095435Y-23183168D01*
X23081150Y-23211739D01*
X23066864Y-23226025D01*
X23038292Y-23240310D01*
X22981150Y-23240310D01*
X22952578Y-23226025D01*
X23266864Y-23240310D02*
X23238292Y-23226025D01*
X23224007Y-23197453D01*
X23224007Y-22940310D01*
X23509721Y-23240310D02*
X23509721Y-23083168D01*
X23495435Y-23054596D01*
X23466864Y-23040310D01*
X23409721Y-23040310D01*
X23381150Y-23054596D01*
X23509721Y-23226025D02*
X23481150Y-23240310D01*
X23409721Y-23240310D01*
X23381150Y-23226025D01*
X23366864Y-23197453D01*
X23366864Y-23168882D01*
X23381150Y-23140310D01*
X23409721Y-23126025D01*
X23481150Y-23126025D01*
X23509721Y-23111739D01*
X23609721Y-23040310D02*
X23724007Y-23040310D01*
X23652578Y-22940310D02*
X23652578Y-23197453D01*
X23666864Y-23226025D01*
X23695435Y-23240310D01*
X23724007Y-23240310D01*
X23938292Y-23226025D02*
X23909721Y-23240310D01*
X23852578Y-23240310D01*
X23824007Y-23226025D01*
X23809721Y-23197453D01*
X23809721Y-23083168D01*
X23824007Y-23054596D01*
X23852578Y-23040310D01*
X23909721Y-23040310D01*
X23938292Y-23054596D01*
X23952578Y-23083168D01*
X23952578Y-23111739D01*
X23809721Y-23140310D01*
X24209721Y-23240310D02*
X24209721Y-22940310D01*
X24209721Y-23226025D02*
X24181150Y-23240310D01*
X24124007Y-23240310D01*
X24095435Y-23226025D01*
X24081150Y-23211739D01*
X24066864Y-23183168D01*
X24066864Y-23097453D01*
X24081150Y-23068882D01*
X24095435Y-23054596D01*
X24124007Y-23040310D01*
X24181150Y-23040310D01*
X24209721Y-23054596D01*
X24324007Y-23354596D02*
X24338292Y-23340310D01*
X24366864Y-23297453D01*
X24381150Y-23268882D01*
X24395435Y-23226025D01*
X24409721Y-23154596D01*
X24409721Y-23097453D01*
X24395435Y-23026025D01*
X24381150Y-22983168D01*
X24366864Y-22954596D01*
X24338292Y-22911739D01*
X24324007Y-22897453D01*
X13958791Y-23655831D02*
X13958791Y-23413362D01*
X13716322Y-23413362D01*
X13716322Y-23655831D01*
X13958791Y-23655831D01*
X14266864Y-23370310D02*
X14452578Y-23370310D01*
X14352578Y-23484596D01*
X14395435Y-23484596D01*
X14424007Y-23498882D01*
X14438292Y-23513168D01*
X14452578Y-23541739D01*
X14452578Y-23613168D01*
X14438292Y-23641739D01*
X14424007Y-23656025D01*
X14395435Y-23670310D01*
X14309721Y-23670310D01*
X14281150Y-23656025D01*
X14266864Y-23641739D01*
X14581150Y-23641739D02*
X14595435Y-23656025D01*
X14581150Y-23670310D01*
X14566864Y-23656025D01*
X14581150Y-23641739D01*
X14581150Y-23670310D01*
X14852578Y-23470310D02*
X14852578Y-23670310D01*
X14781150Y-23356025D02*
X14709721Y-23570310D01*
X14895435Y-23570310D01*
X14995435Y-23398882D02*
X15009721Y-23384596D01*
X15038292Y-23370310D01*
X15109721Y-23370310D01*
X15138292Y-23384596D01*
X15152578Y-23398882D01*
X15166864Y-23427453D01*
X15166864Y-23456025D01*
X15152578Y-23498882D01*
X14981150Y-23670310D01*
X15166864Y-23670310D01*
X15309721Y-23670310D02*
X15366864Y-23670310D01*
X15395435Y-23656025D01*
X15409721Y-23641739D01*
X15438292Y-23598882D01*
X15452578Y-23541739D01*
X15452578Y-23427453D01*
X15438292Y-23398882D01*
X15424007Y-23384596D01*
X15395435Y-23370310D01*
X15338292Y-23370310D01*
X15309721Y-23384596D01*
X15295435Y-23398882D01*
X15281150Y-23427453D01*
X15281150Y-23498882D01*
X15295435Y-23527453D01*
X15309721Y-23541739D01*
X15338292Y-23556025D01*
X15395435Y-23556025D01*
X15424007Y-23541739D01*
X15438292Y-23527453D01*
X15452578Y-23498882D01*
X15581150Y-23670310D02*
X15581150Y-23470310D01*
X15581150Y-23498882D02*
X15595435Y-23484596D01*
X15624007Y-23470310D01*
X15666864Y-23470310D01*
X15695435Y-23484596D01*
X15709721Y-23513168D01*
X15709721Y-23670310D01*
X15709721Y-23513168D02*
X15724007Y-23484596D01*
X15752578Y-23470310D01*
X15795435Y-23470310D01*
X15824007Y-23484596D01*
X15838292Y-23513168D01*
X15838292Y-23670310D01*
X15981150Y-23670310D02*
X15981150Y-23470310D01*
X15981150Y-23498882D02*
X15995435Y-23484596D01*
X16024007Y-23470310D01*
X16066864Y-23470310D01*
X16095435Y-23484596D01*
X16109721Y-23513168D01*
X16109721Y-23670310D01*
X16109721Y-23513168D02*
X16124007Y-23484596D01*
X16152578Y-23470310D01*
X16195435Y-23470310D01*
X16224007Y-23484596D01*
X16238292Y-23513168D01*
X16238292Y-23670310D01*
X16824007Y-23356025D02*
X16566864Y-23741739D01*
X17209721Y-23370310D02*
X17238293Y-23370310D01*
X17266864Y-23384596D01*
X17281150Y-23398882D01*
X17295435Y-23427453D01*
X17309721Y-23484596D01*
X17309721Y-23556025D01*
X17295435Y-23613168D01*
X17281150Y-23641739D01*
X17266864Y-23656025D01*
X17238293Y-23670310D01*
X17209721Y-23670310D01*
X17181150Y-23656025D01*
X17166864Y-23641739D01*
X17152578Y-23613168D01*
X17138293Y-23556025D01*
X17138293Y-23484596D01*
X17152578Y-23427453D01*
X17166864Y-23398882D01*
X17181150Y-23384596D01*
X17209721Y-23370310D01*
X17438293Y-23641739D02*
X17452578Y-23656025D01*
X17438293Y-23670310D01*
X17424007Y-23656025D01*
X17438293Y-23641739D01*
X17438293Y-23670310D01*
X17738293Y-23670310D02*
X17566864Y-23670310D01*
X17652578Y-23670310D02*
X17652578Y-23370310D01*
X17624007Y-23413168D01*
X17595435Y-23441739D01*
X17566864Y-23456025D01*
X17838293Y-23370310D02*
X18024007Y-23370310D01*
X17924007Y-23484596D01*
X17966864Y-23484596D01*
X17995435Y-23498882D01*
X18009721Y-23513168D01*
X18024007Y-23541739D01*
X18024007Y-23613168D01*
X18009721Y-23641739D01*
X17995435Y-23656025D01*
X17966864Y-23670310D01*
X17881150Y-23670310D01*
X17852578Y-23656025D01*
X17838293Y-23641739D01*
X18295435Y-23370310D02*
X18152578Y-23370310D01*
X18138293Y-23513168D01*
X18152578Y-23498882D01*
X18181150Y-23484596D01*
X18252578Y-23484596D01*
X18281150Y-23498882D01*
X18295435Y-23513168D01*
X18309721Y-23541739D01*
X18309721Y-23613168D01*
X18295435Y-23641739D01*
X18281150Y-23656025D01*
X18252578Y-23670310D01*
X18181150Y-23670310D01*
X18152578Y-23656025D01*
X18138293Y-23641739D01*
X18495435Y-23370310D02*
X18524007Y-23370310D01*
X18552578Y-23384596D01*
X18566864Y-23398882D01*
X18581150Y-23427453D01*
X18595435Y-23484596D01*
X18595435Y-23556025D01*
X18581150Y-23613168D01*
X18566864Y-23641739D01*
X18552578Y-23656025D01*
X18524007Y-23670310D01*
X18495435Y-23670310D01*
X18466864Y-23656025D01*
X18452578Y-23641739D01*
X18438293Y-23613168D01*
X18424007Y-23556025D01*
X18424007Y-23484596D01*
X18438293Y-23427453D01*
X18452578Y-23398882D01*
X18466864Y-23384596D01*
X18495435Y-23370310D01*
X18709721Y-23370310D02*
X18709721Y-23427453D01*
X18824007Y-23370310D02*
X18824007Y-23427453D01*
X19266864Y-23784596D02*
X19252578Y-23770310D01*
X19224007Y-23727453D01*
X19209721Y-23698882D01*
X19195435Y-23656025D01*
X19181150Y-23584596D01*
X19181150Y-23527453D01*
X19195435Y-23456025D01*
X19209721Y-23413168D01*
X19224007Y-23384596D01*
X19252578Y-23341739D01*
X19266864Y-23327453D01*
X19538293Y-23670310D02*
X19366864Y-23670310D01*
X19452578Y-23670310D02*
X19452578Y-23370310D01*
X19424007Y-23413168D01*
X19395435Y-23441739D01*
X19366864Y-23456025D01*
X19709721Y-23498882D02*
X19681150Y-23484596D01*
X19666864Y-23470310D01*
X19652578Y-23441739D01*
X19652578Y-23427453D01*
X19666864Y-23398882D01*
X19681150Y-23384596D01*
X19709721Y-23370310D01*
X19766864Y-23370310D01*
X19795435Y-23384596D01*
X19809721Y-23398882D01*
X19824007Y-23427453D01*
X19824007Y-23441739D01*
X19809721Y-23470310D01*
X19795435Y-23484596D01*
X19766864Y-23498882D01*
X19709721Y-23498882D01*
X19681150Y-23513168D01*
X19666864Y-23527453D01*
X19652578Y-23556025D01*
X19652578Y-23613168D01*
X19666864Y-23641739D01*
X19681150Y-23656025D01*
X19709721Y-23670310D01*
X19766864Y-23670310D01*
X19795435Y-23656025D01*
X19809721Y-23641739D01*
X19824007Y-23613168D01*
X19824007Y-23556025D01*
X19809721Y-23527453D01*
X19795435Y-23513168D01*
X19766864Y-23498882D01*
X20181150Y-23670310D02*
X20181150Y-23370310D01*
X20309721Y-23670310D02*
X20309721Y-23513168D01*
X20295435Y-23484596D01*
X20266864Y-23470310D01*
X20224007Y-23470310D01*
X20195435Y-23484596D01*
X20181150Y-23498882D01*
X20495435Y-23670310D02*
X20466864Y-23656025D01*
X20452578Y-23641739D01*
X20438293Y-23613168D01*
X20438293Y-23527453D01*
X20452578Y-23498882D01*
X20466864Y-23484596D01*
X20495435Y-23470310D01*
X20538293Y-23470310D01*
X20566864Y-23484596D01*
X20581150Y-23498882D01*
X20595435Y-23527453D01*
X20595435Y-23613168D01*
X20581150Y-23641739D01*
X20566864Y-23656025D01*
X20538293Y-23670310D01*
X20495435Y-23670310D01*
X20766864Y-23670310D02*
X20738293Y-23656025D01*
X20724007Y-23627453D01*
X20724007Y-23370310D01*
X20995435Y-23656025D02*
X20966864Y-23670310D01*
X20909721Y-23670310D01*
X20881150Y-23656025D01*
X20866864Y-23627453D01*
X20866864Y-23513168D01*
X20881150Y-23484596D01*
X20909721Y-23470310D01*
X20966864Y-23470310D01*
X20995435Y-23484596D01*
X21009721Y-23513168D01*
X21009721Y-23541739D01*
X20866864Y-23570310D01*
X21124007Y-23656025D02*
X21152578Y-23670310D01*
X21209721Y-23670310D01*
X21238293Y-23656025D01*
X21252578Y-23627453D01*
X21252578Y-23613168D01*
X21238293Y-23584596D01*
X21209721Y-23570310D01*
X21166864Y-23570310D01*
X21138293Y-23556025D01*
X21124007Y-23527453D01*
X21124007Y-23513168D01*
X21138293Y-23484596D01*
X21166864Y-23470310D01*
X21209721Y-23470310D01*
X21238293Y-23484596D01*
X21352578Y-23784596D02*
X21366864Y-23770310D01*
X21395435Y-23727453D01*
X21409721Y-23698882D01*
X21424007Y-23656025D01*
X21438293Y-23584596D01*
X21438293Y-23527453D01*
X21424007Y-23456025D01*
X21409721Y-23413168D01*
X21395435Y-23384596D01*
X21366864Y-23341739D01*
X21352578Y-23327453D01*
X21895435Y-23784596D02*
X21881150Y-23770310D01*
X21852578Y-23727453D01*
X21838293Y-23698882D01*
X21824007Y-23656025D01*
X21809721Y-23584596D01*
X21809721Y-23527453D01*
X21824007Y-23456025D01*
X21838293Y-23413168D01*
X21852578Y-23384596D01*
X21881150Y-23341739D01*
X21895435Y-23327453D01*
X22009721Y-23470310D02*
X22009721Y-23670310D01*
X22009721Y-23498882D02*
X22024007Y-23484596D01*
X22052578Y-23470310D01*
X22095435Y-23470310D01*
X22124007Y-23484596D01*
X22138293Y-23513168D01*
X22138293Y-23670310D01*
X22324007Y-23670310D02*
X22295435Y-23656025D01*
X22281150Y-23641739D01*
X22266864Y-23613168D01*
X22266864Y-23527453D01*
X22281150Y-23498882D01*
X22295435Y-23484596D01*
X22324007Y-23470310D01*
X22366864Y-23470310D01*
X22395435Y-23484596D01*
X22409721Y-23498882D01*
X22424007Y-23527453D01*
X22424007Y-23613168D01*
X22409721Y-23641739D01*
X22395435Y-23656025D01*
X22366864Y-23670310D01*
X22324007Y-23670310D01*
X22509721Y-23470310D02*
X22624007Y-23470310D01*
X22552578Y-23370310D02*
X22552578Y-23627453D01*
X22566864Y-23656025D01*
X22595435Y-23670310D01*
X22624007Y-23670310D01*
X22952578Y-23470310D02*
X22952578Y-23770310D01*
X22952578Y-23484596D02*
X22981150Y-23470310D01*
X23038292Y-23470310D01*
X23066864Y-23484596D01*
X23081150Y-23498882D01*
X23095435Y-23527453D01*
X23095435Y-23613168D01*
X23081150Y-23641739D01*
X23066864Y-23656025D01*
X23038292Y-23670310D01*
X22981150Y-23670310D01*
X22952578Y-23656025D01*
X23266864Y-23670310D02*
X23238292Y-23656025D01*
X23224007Y-23627453D01*
X23224007Y-23370310D01*
X23509721Y-23670310D02*
X23509721Y-23513168D01*
X23495435Y-23484596D01*
X23466864Y-23470310D01*
X23409721Y-23470310D01*
X23381150Y-23484596D01*
X23509721Y-23656025D02*
X23481150Y-23670310D01*
X23409721Y-23670310D01*
X23381150Y-23656025D01*
X23366864Y-23627453D01*
X23366864Y-23598882D01*
X23381150Y-23570310D01*
X23409721Y-23556025D01*
X23481150Y-23556025D01*
X23509721Y-23541739D01*
X23609721Y-23470310D02*
X23724007Y-23470310D01*
X23652578Y-23370310D02*
X23652578Y-23627453D01*
X23666864Y-23656025D01*
X23695435Y-23670310D01*
X23724007Y-23670310D01*
X23938292Y-23656025D02*
X23909721Y-23670310D01*
X23852578Y-23670310D01*
X23824007Y-23656025D01*
X23809721Y-23627453D01*
X23809721Y-23513168D01*
X23824007Y-23484596D01*
X23852578Y-23470310D01*
X23909721Y-23470310D01*
X23938292Y-23484596D01*
X23952578Y-23513168D01*
X23952578Y-23541739D01*
X23809721Y-23570310D01*
X24209721Y-23670310D02*
X24209721Y-23370310D01*
X24209721Y-23656025D02*
X24181150Y-23670310D01*
X24124007Y-23670310D01*
X24095435Y-23656025D01*
X24081150Y-23641739D01*
X24066864Y-23613168D01*
X24066864Y-23527453D01*
X24081150Y-23498882D01*
X24095435Y-23484596D01*
X24124007Y-23470310D01*
X24181150Y-23470310D01*
X24209721Y-23484596D01*
X24324007Y-23784596D02*
X24338292Y-23770310D01*
X24366864Y-23727453D01*
X24381150Y-23698882D01*
X24395435Y-23656025D01*
X24409721Y-23584596D01*
X24409721Y-23527453D01*
X24395435Y-23456025D01*
X24381150Y-23413168D01*
X24366864Y-23384596D01*
X24338292Y-23341739D01*
X24324007Y-23327453D01*
M02*
