%FSLAX45Y45*%
G04 Gerber Fmt 4.5, Leading zero omitted, Abs format (unit mm)*
G04 Created by KiCad (PCBNEW (5.1.10)-1) date 2021-09-28 07:08:21*
%MOMM*%
%LPD*%
G01*
G04 APERTURE LIST*
%TA.AperFunction,Profile*%
%ADD10C,0.150000*%
%TD*%
%ADD11C,0.200000*%
%ADD12C,0.300000*%
G04 APERTURE END LIST*
D10*
X22841889Y-11438755D02*
X24537221Y-11582290D01*
X16415625Y-12862500D02*
G75*
G02*
X16194412Y-13178424I-298858J-26147D01*
G01*
X15413099Y-18661336D02*
X17160539Y-18206850D01*
X17231250Y-18084375D02*
G75*
G02*
X17160539Y-18206850I-96593J-25882D01*
G01*
X17034375Y-17346396D02*
X17231250Y-18084375D01*
X14019914Y-13866224D02*
X15290625Y-18590625D01*
X15413099Y-18661336D02*
G75*
G02*
X15290625Y-18590625I-25882J96593D01*
G01*
X14090625Y-13743750D02*
X16194412Y-13178424D01*
X14019914Y-13866224D02*
G75*
G02*
X14090625Y-13743750I96593J25882D01*
G01*
X16293750Y-11409375D02*
X16415625Y-12862500D01*
X16384654Y-11301040D02*
X18397958Y-11127088D01*
X16293750Y-11409375D02*
G75*
G02*
X16384654Y-11301040I99620J8716D01*
G01*
X20471811Y-10672085D02*
X20471811Y-10580036D01*
X20371811Y-10480036D02*
G75*
G02*
X20471811Y-10580036I0J-100000D01*
G01*
X20371811Y-10480036D02*
X18771811Y-10480036D01*
X18671811Y-10580036D02*
G75*
G02*
X18771811Y-10480036I100000J0D01*
G01*
X18671811Y-10580036D02*
X18671811Y-10828230D01*
X22750985Y-11330420D02*
X22758248Y-11247404D01*
X22667344Y-11139069D02*
G75*
G02*
X22758248Y-11247404I-8716J-99620D01*
G01*
X20745665Y-10970944D02*
X22667344Y-11139069D01*
X25853880Y-18316903D02*
X26105713Y-15438436D01*
X24787500Y-13312500D02*
X26778122Y-13489625D01*
X26954962Y-14910444D02*
X27050834Y-13814630D01*
X26629957Y-15183156D02*
X26430718Y-15165725D01*
X24514788Y-12987495D02*
X24628125Y-11690625D01*
X24537221Y-11582290D02*
G75*
G02*
X24628125Y-11690625I-8716J-99620D01*
G01*
X17426759Y-16986842D02*
X23597822Y-19233747D01*
X23645216Y-19255847D02*
X25102306Y-20097098D01*
X25102306Y-20097098D02*
X26587242Y-21321701D01*
X26728125Y-21309375D02*
G75*
G02*
X26587242Y-21321701I-76604J64279D01*
G01*
X26728125Y-21309375D02*
X27693750Y-20156250D01*
X27681424Y-20015367D02*
G75*
G02*
X27693750Y-20156250I-64279J-76604D01*
G01*
X25959902Y-18572863D02*
X27681424Y-20015367D01*
X17034375Y-17346396D02*
G75*
G02*
X17426759Y-16986842I289778J77646D01*
G01*
X23597822Y-19233747D02*
G75*
G02*
X23645216Y-19255847I-102606J-281908D01*
G01*
X25959902Y-18572863D02*
G75*
G02*
X25853880Y-18316903I192836J229813D01*
G01*
X26105713Y-15438436D02*
G75*
G02*
X26430718Y-15165725I298858J-26147D01*
G01*
X26954962Y-14910444D02*
G75*
G02*
X26629957Y-15183156I-298858J26147D01*
G01*
X26778122Y-13489625D02*
G75*
G02*
X27050834Y-13814630I-26147J-298858D01*
G01*
X24787500Y-13312500D02*
G75*
G02*
X24514788Y-12987495I26147J298858D01*
G01*
X20745665Y-10970944D02*
G75*
G02*
X20471811Y-10672085I26147J298858D01*
G01*
X18671811Y-10828230D02*
G75*
G02*
X18397958Y-11127088I-300000J0D01*
G01*
X26105713Y-15438436D02*
G75*
G02*
X26105713Y-15438436I99620J-8716D01*
G01*
X26954962Y-14910444D02*
G75*
G02*
X26954962Y-14910444I-99619J8716D01*
G01*
X26778122Y-13489625D02*
G75*
G02*
X26778122Y-13489625I-8716J-99620D01*
G01*
X22841888Y-11438755D02*
G75*
G02*
X22750985Y-11330420I8716J99619D01*
G01*
X20745665Y-10970944D02*
G75*
G02*
X20745665Y-10970944I8716J99620D01*
G01*
X18397958Y-11127088D02*
G75*
G02*
X18397958Y-11127088I-8716J99619D01*
G01*
X23597822Y-19233747D02*
G75*
G02*
X23597822Y-19233747I-17101J-46985D01*
G01*
X22841889Y-11438755D02*
G75*
G02*
X22841889Y-11438755I4358J49810D01*
G01*
X22667344Y-11139069D02*
G75*
G02*
X22667344Y-11139069I-4358J-49810D01*
G01*
D11*
X14745625Y-13873750D02*
X14785625Y-13913750D01*
X14785625Y-13873750D02*
X14745625Y-13913750D01*
X14907144Y-15329541D02*
X14947144Y-15369541D01*
X14947144Y-15329541D02*
X14907144Y-15369541D01*
X15007054Y-14650804D02*
X15047054Y-14690804D01*
X15047054Y-14650804D02*
X15007054Y-14690804D01*
X15186250Y-15514375D02*
X15226250Y-15554375D01*
X15226250Y-15514375D02*
X15186250Y-15554375D01*
X15336250Y-13789375D02*
X15376250Y-13829375D01*
X15376250Y-13789375D02*
X15336250Y-13829375D01*
X15347136Y-16971614D02*
X15387136Y-17011614D01*
X15387136Y-16971614D02*
X15347136Y-17011614D01*
X15447047Y-16253297D02*
X15487047Y-16293297D01*
X15487047Y-16253297D02*
X15447047Y-16293297D01*
X15626875Y-17155000D02*
X15666875Y-17195000D01*
X15666875Y-17155000D02*
X15626875Y-17195000D01*
X15776875Y-15430000D02*
X15816875Y-15470000D01*
X15816875Y-15430000D02*
X15776875Y-15470000D01*
X15887039Y-17893289D02*
X15927039Y-17933289D01*
X15927039Y-17893289D02*
X15887039Y-17933289D01*
X16217500Y-17070625D02*
X16257500Y-17110625D01*
X16257500Y-17070625D02*
X16217500Y-17110625D01*
X16733125Y-12936250D02*
X16773125Y-12976250D01*
X16773125Y-12936250D02*
X16733125Y-12976250D01*
X16761250Y-17333125D02*
X16801250Y-17373125D01*
X16801250Y-17333125D02*
X16761250Y-17373125D01*
X16920625Y-14614375D02*
X16960625Y-14654375D01*
X16960625Y-14614375D02*
X16920625Y-14654375D01*
X17005000Y-11567500D02*
X17045000Y-11607500D01*
X17045000Y-11567500D02*
X17005000Y-11607500D01*
X17117500Y-16283125D02*
X17157500Y-16323125D01*
X17157500Y-16283125D02*
X17117500Y-16323125D01*
X17145625Y-12364375D02*
X17185625Y-12404375D01*
X17185625Y-12364375D02*
X17145625Y-12404375D01*
X17155000Y-13264375D02*
X17195000Y-13304375D01*
X17195000Y-13264375D02*
X17155000Y-13304375D01*
X17305000Y-14951875D02*
X17345000Y-14991875D01*
X17345000Y-14951875D02*
X17305000Y-14991875D01*
X17314375Y-14051875D02*
X17354375Y-14091875D01*
X17354375Y-14051875D02*
X17314375Y-14091875D01*
X17436250Y-15720625D02*
X17476250Y-15760625D01*
X17476250Y-15720625D02*
X17436250Y-15760625D01*
X17595625Y-11539375D02*
X17635625Y-11579375D01*
X17635625Y-11539375D02*
X17595625Y-11579375D01*
X17745625Y-13236250D02*
X17785625Y-13276250D01*
X17785625Y-13236250D02*
X17745625Y-13276250D01*
X17895625Y-14923750D02*
X17935625Y-14963750D01*
X17935625Y-14923750D02*
X17895625Y-14963750D01*
X18724311Y-12163814D02*
X18764311Y-12203814D01*
X18764311Y-12163814D02*
X18724311Y-12203814D01*
X18724311Y-13858686D02*
X18764311Y-13898686D01*
X18764311Y-13858686D02*
X18724311Y-13898686D01*
X19255000Y-10808125D02*
X19295000Y-10848125D01*
X19295000Y-10808125D02*
X19255000Y-10848125D01*
X19255000Y-11605000D02*
X19295000Y-11645000D01*
X19295000Y-11605000D02*
X19255000Y-11645000D01*
X19255000Y-12514375D02*
X19295000Y-12554375D01*
X19295000Y-12514375D02*
X19255000Y-12554375D01*
X19255000Y-14211250D02*
X19295000Y-14251250D01*
X19295000Y-14211250D02*
X19255000Y-14251250D01*
X19255000Y-15017500D02*
X19295000Y-15057500D01*
X19295000Y-15017500D02*
X19255000Y-15057500D01*
X19311250Y-13311250D02*
X19351250Y-13351250D01*
X19351250Y-13311250D02*
X19311250Y-13351250D01*
X19588700Y-15949425D02*
X19628700Y-15989425D01*
X19628700Y-15949425D02*
X19588700Y-15989425D01*
X19845625Y-10808125D02*
X19885625Y-10848125D01*
X19885625Y-10808125D02*
X19845625Y-10848125D01*
X19845625Y-12514375D02*
X19885625Y-12554375D01*
X19885625Y-12514375D02*
X19845625Y-12554375D01*
X19845625Y-14211250D02*
X19885625Y-14251250D01*
X19885625Y-14211250D02*
X19845625Y-14251250D01*
X20622942Y-16143308D02*
X20662942Y-16183308D01*
X20662942Y-16143308D02*
X20622942Y-16183308D01*
X20771106Y-14189856D02*
X20811106Y-14229856D01*
X20811106Y-14189856D02*
X20771106Y-14229856D01*
X20919271Y-12500521D02*
X20959271Y-12540521D01*
X20959271Y-12500521D02*
X20919271Y-12540521D01*
X21233125Y-14764375D02*
X21273125Y-14804375D01*
X21273125Y-14764375D02*
X21233125Y-14804375D01*
X21233125Y-15580000D02*
X21273125Y-15620000D01*
X21273125Y-15580000D02*
X21233125Y-15620000D01*
X21373750Y-13076875D02*
X21413750Y-13116875D01*
X21413750Y-13076875D02*
X21373750Y-13116875D01*
X21373750Y-13901875D02*
X21413750Y-13941875D01*
X21413750Y-13901875D02*
X21373750Y-13941875D01*
X21458125Y-12195625D02*
X21498125Y-12235625D01*
X21498125Y-12195625D02*
X21458125Y-12235625D01*
X21523750Y-11380000D02*
X21563750Y-11420000D01*
X21563750Y-11380000D02*
X21523750Y-11420000D01*
X21814375Y-14801875D02*
X21854375Y-14841875D01*
X21854375Y-14801875D02*
X21814375Y-14841875D01*
X21964375Y-13105000D02*
X22004375Y-13145000D01*
X22004375Y-13105000D02*
X21964375Y-13145000D01*
X22114375Y-11417500D02*
X22154375Y-11457500D01*
X22154375Y-11417500D02*
X22114375Y-11457500D01*
X22391398Y-16363273D02*
X22431398Y-16403273D01*
X22431398Y-16363273D02*
X22391398Y-16403273D01*
X22539563Y-14627063D02*
X22579563Y-14667063D01*
X22579563Y-14627063D02*
X22539563Y-14667063D01*
X22687727Y-12862727D02*
X22727727Y-12902727D01*
X22727727Y-12862727D02*
X22687727Y-12902727D01*
X22705000Y-18383287D02*
X22745000Y-18423287D01*
X22745000Y-18383287D02*
X22705000Y-18423287D01*
X22789375Y-18214375D02*
X22829375Y-18254375D01*
X22829375Y-18214375D02*
X22789375Y-18254375D01*
X22920625Y-17586250D02*
X22960625Y-17626250D01*
X22960625Y-17586250D02*
X22920625Y-17626250D01*
X22995625Y-15214375D02*
X23035625Y-15254375D01*
X23035625Y-15214375D02*
X22995625Y-15254375D01*
X22995625Y-16039375D02*
X23035625Y-16079375D01*
X23035625Y-16039375D02*
X22995625Y-16079375D01*
X23145625Y-13508125D02*
X23185625Y-13548125D01*
X23185625Y-13508125D02*
X23145625Y-13548125D01*
X23145625Y-14333125D02*
X23185625Y-14373125D01*
X23185625Y-14333125D02*
X23145625Y-14373125D01*
X23295625Y-11820625D02*
X23335625Y-11860625D01*
X23335625Y-11820625D02*
X23295625Y-11860625D01*
X23295625Y-12645625D02*
X23335625Y-12685625D01*
X23335625Y-12645625D02*
X23295625Y-12685625D01*
X23501875Y-17698750D02*
X23541875Y-17738750D01*
X23541875Y-17698750D02*
X23501875Y-17738750D01*
X23586250Y-15242500D02*
X23626250Y-15282500D01*
X23626250Y-15242500D02*
X23586250Y-15282500D01*
X23736250Y-13545625D02*
X23776250Y-13585625D01*
X23776250Y-13545625D02*
X23736250Y-13585625D01*
X23886250Y-11848750D02*
X23926250Y-11888750D01*
X23926250Y-11848750D02*
X23886250Y-11888750D01*
X24495625Y-19133125D02*
X24535625Y-19173125D01*
X24535625Y-19133125D02*
X24495625Y-19173125D01*
X24570625Y-19048750D02*
X24610625Y-19088750D01*
X24610625Y-19048750D02*
X24570625Y-19088750D01*
X24776875Y-18420625D02*
X24816875Y-18460625D01*
X24816875Y-18420625D02*
X24776875Y-18460625D01*
X25048750Y-18214375D02*
X25088750Y-18254375D01*
X25088750Y-18214375D02*
X25048750Y-18254375D01*
X25348750Y-18598750D02*
X25388750Y-18638750D01*
X25388750Y-18598750D02*
X25348750Y-18638750D01*
X26061250Y-20136250D02*
X26101250Y-20176250D01*
X26101250Y-20136250D02*
X26061250Y-20176250D01*
X26455000Y-19573750D02*
X26495000Y-19613750D01*
X26495000Y-19573750D02*
X26455000Y-19613750D01*
X26483125Y-19770625D02*
X26523125Y-19810625D01*
X26523125Y-19770625D02*
X26483125Y-19810625D01*
X27026875Y-19789375D02*
X27066875Y-19829375D01*
X27066875Y-19789375D02*
X27026875Y-19829375D01*
X26423289Y-14789724D02*
G75*
G03*
X26423289Y-14789724I-45000J0D01*
G01*
X26346037Y-14756788D02*
X26340808Y-14816560D01*
X26415771Y-14762889D02*
X26410541Y-14822661D01*
X26340808Y-14816560D02*
G75*
G03*
X26410541Y-14822661I34867J-3051D01*
G01*
X26415771Y-14762889D02*
G75*
G03*
X26346037Y-14756788I-34867J3051D01*
G01*
X26432877Y-14680143D02*
G75*
G03*
X26432877Y-14680143I-45000J0D01*
G01*
X26355624Y-14647207D02*
X26350395Y-14706978D01*
X26425358Y-14653308D02*
X26420129Y-14713079D01*
X26350395Y-14706978D02*
G75*
G03*
X26420129Y-14713079I34867J-3051D01*
G01*
X26425358Y-14653308D02*
G75*
G03*
X26355624Y-14647207I-34867J3051D01*
G01*
X26467739Y-14281665D02*
G75*
G03*
X26467739Y-14281665I-45000J0D01*
G01*
X26390487Y-14248729D02*
X26385257Y-14308500D01*
X26460220Y-14254830D02*
X26454991Y-14314601D01*
X26385257Y-14308500D02*
G75*
G03*
X26454991Y-14314601I34867J-3051D01*
G01*
X26460220Y-14254830D02*
G75*
G03*
X26390487Y-14248729I-34867J3051D01*
G01*
X26493886Y-13982807D02*
G75*
G03*
X26493886Y-13982807I-45000J0D01*
G01*
X26416633Y-13949870D02*
X26411404Y-14009642D01*
X26486367Y-13955971D02*
X26481138Y-14015743D01*
X26411404Y-14009642D02*
G75*
G03*
X26481138Y-14015743I34867J-3051D01*
G01*
X26486367Y-13955971D02*
G75*
G03*
X26416633Y-13949870I-34867J3051D01*
G01*
X26881539Y-14829816D02*
G75*
G03*
X26881539Y-14829816I-45000J0D01*
G01*
X26804287Y-14796880D02*
X26799057Y-14856651D01*
X26874020Y-14802981D02*
X26868791Y-14862752D01*
X26799057Y-14856651D02*
G75*
G03*
X26868791Y-14862752I34867J-3051D01*
G01*
X26874020Y-14802981D02*
G75*
G03*
X26804287Y-14796880I-34867J3051D01*
G01*
X26891126Y-14720235D02*
G75*
G03*
X26891126Y-14720235I-45000J0D01*
G01*
X26813874Y-14687298D02*
X26808645Y-14747070D01*
X26883608Y-14693399D02*
X26878378Y-14753171D01*
X26808645Y-14747070D02*
G75*
G03*
X26878378Y-14753171I34867J-3051D01*
G01*
X26883608Y-14693399D02*
G75*
G03*
X26813874Y-14687298I-34867J3051D01*
G01*
X26925988Y-14321757D02*
G75*
G03*
X26925988Y-14321757I-45000J0D01*
G01*
X26848736Y-14288820D02*
X26843507Y-14348592D01*
X26918470Y-14294921D02*
X26913240Y-14354693D01*
X26843507Y-14348592D02*
G75*
G03*
X26913240Y-14354693I34867J-3051D01*
G01*
X26918470Y-14294921D02*
G75*
G03*
X26848736Y-14288820I-34867J3051D01*
G01*
X26952135Y-14022898D02*
G75*
G03*
X26952135Y-14022898I-45000J0D01*
G01*
X26874883Y-13989962D02*
X26869654Y-14049734D01*
X26944617Y-13996063D02*
X26939387Y-14055835D01*
X26869654Y-14049734D02*
G75*
G03*
X26939387Y-14055835I34867J-3051D01*
G01*
X26944617Y-13996063D02*
G75*
G03*
X26874883Y-13989962I-34867J3051D01*
G01*
X24354428Y-16331799D02*
X24354428Y-16441019D01*
X24299818Y-16386409D02*
X24409038Y-16386409D01*
X24376565Y-16078766D02*
X24376565Y-16187986D01*
X24321955Y-16133376D02*
X24431175Y-16133376D01*
X24398703Y-15825732D02*
X24398703Y-15934952D01*
X24344093Y-15880342D02*
X24453313Y-15880342D01*
X24420840Y-15572699D02*
X24420840Y-15681919D01*
X24366230Y-15627309D02*
X24475450Y-15627309D01*
X24442978Y-15319665D02*
X24442978Y-15428885D01*
X24388368Y-15374275D02*
X24497588Y-15374275D01*
X24465116Y-15066632D02*
X24465116Y-15175852D01*
X24410506Y-15121242D02*
X24519726Y-15121242D01*
X24487253Y-14813598D02*
X24487253Y-14922818D01*
X24432643Y-14868208D02*
X24541863Y-14868208D01*
X24509391Y-14560565D02*
X24509391Y-14669785D01*
X24454781Y-14615175D02*
X24564001Y-14615175D01*
X24531528Y-14307531D02*
X24531528Y-14416751D01*
X24476918Y-14362141D02*
X24586138Y-14362141D01*
X24553666Y-14054498D02*
X24553666Y-14163718D01*
X24499056Y-14109108D02*
X24608276Y-14109108D01*
X24575803Y-13801464D02*
X24575803Y-13910684D01*
X24521193Y-13856074D02*
X24630413Y-13856074D01*
X24597941Y-13548431D02*
X24597941Y-13657651D01*
X24543331Y-13603041D02*
X24652551Y-13603041D01*
X25872628Y-16464624D02*
X25872628Y-16573844D01*
X25818018Y-16519234D02*
X25927238Y-16519234D01*
X25894766Y-16211591D02*
X25894766Y-16320811D01*
X25840156Y-16266201D02*
X25949376Y-16266201D01*
X25916904Y-15958557D02*
X25916904Y-16067777D01*
X25862294Y-16013167D02*
X25971514Y-16013167D01*
X25939041Y-15705524D02*
X25939041Y-15814744D01*
X25884431Y-15760134D02*
X25993651Y-15760134D01*
X25961179Y-15452491D02*
X25961179Y-15561711D01*
X25906569Y-15507101D02*
X26015789Y-15507101D01*
X25983316Y-15199457D02*
X25983316Y-15308677D01*
X25928706Y-15254067D02*
X26037926Y-15254067D01*
X26005454Y-14946424D02*
X26005454Y-15055644D01*
X25950844Y-15001034D02*
X26060064Y-15001034D01*
X26027591Y-14693390D02*
X26027591Y-14802610D01*
X25972981Y-14748000D02*
X26082201Y-14748000D01*
X26049729Y-14440357D02*
X26049729Y-14549577D01*
X25995119Y-14494967D02*
X26104339Y-14494967D01*
X26071866Y-14187323D02*
X26071866Y-14296543D01*
X26017256Y-14241933D02*
X26126476Y-14241933D01*
X26094004Y-13934290D02*
X26094004Y-14043510D01*
X26039394Y-13988900D02*
X26148614Y-13988900D01*
X26116142Y-13681256D02*
X26116142Y-13790476D01*
X26061532Y-13735866D02*
X26170752Y-13735866D01*
D12*
X14295435Y-21818311D02*
X14295435Y-21518311D01*
X14366864Y-21518311D01*
X14409721Y-21532596D01*
X14438292Y-21561168D01*
X14452578Y-21589739D01*
X14466864Y-21646882D01*
X14466864Y-21689739D01*
X14452578Y-21746882D01*
X14438292Y-21775453D01*
X14409721Y-21804025D01*
X14366864Y-21818311D01*
X14295435Y-21818311D01*
X14595435Y-21818311D02*
X14595435Y-21618311D01*
X14595435Y-21675453D02*
X14609721Y-21646882D01*
X14624007Y-21632596D01*
X14652578Y-21618311D01*
X14681150Y-21618311D01*
X14781150Y-21818311D02*
X14781150Y-21618311D01*
X14781150Y-21518311D02*
X14766864Y-21532596D01*
X14781150Y-21546882D01*
X14795435Y-21532596D01*
X14781150Y-21518311D01*
X14781150Y-21546882D01*
X14966864Y-21818311D02*
X14938292Y-21804025D01*
X14924007Y-21775453D01*
X14924007Y-21518311D01*
X15124007Y-21818311D02*
X15095435Y-21804025D01*
X15081150Y-21775453D01*
X15081150Y-21518311D01*
X15466864Y-21818311D02*
X15466864Y-21518311D01*
X15566864Y-21732596D01*
X15666864Y-21518311D01*
X15666864Y-21818311D01*
X15938292Y-21818311D02*
X15938292Y-21661168D01*
X15924007Y-21632596D01*
X15895435Y-21618311D01*
X15838292Y-21618311D01*
X15809721Y-21632596D01*
X15938292Y-21804025D02*
X15909721Y-21818311D01*
X15838292Y-21818311D01*
X15809721Y-21804025D01*
X15795435Y-21775453D01*
X15795435Y-21746882D01*
X15809721Y-21718311D01*
X15838292Y-21704025D01*
X15909721Y-21704025D01*
X15938292Y-21689739D01*
X16081150Y-21618311D02*
X16081150Y-21918311D01*
X16081150Y-21632596D02*
X16109721Y-21618311D01*
X16166864Y-21618311D01*
X16195435Y-21632596D01*
X16209721Y-21646882D01*
X16224007Y-21675453D01*
X16224007Y-21761168D01*
X16209721Y-21789739D01*
X16195435Y-21804025D01*
X16166864Y-21818311D01*
X16109721Y-21818311D01*
X16081150Y-21804025D01*
X16352578Y-21789739D02*
X16366864Y-21804025D01*
X16352578Y-21818311D01*
X16338292Y-21804025D01*
X16352578Y-21789739D01*
X16352578Y-21818311D01*
X16352578Y-21632596D02*
X16366864Y-21646882D01*
X16352578Y-21661168D01*
X16338292Y-21646882D01*
X16352578Y-21632596D01*
X16352578Y-21661168D01*
X13969007Y-22292596D02*
X14009007Y-22332596D01*
X14009007Y-22292596D02*
X13969007Y-22332596D01*
X14352578Y-22148311D02*
X14381150Y-22148311D01*
X14409721Y-22162596D01*
X14424007Y-22176882D01*
X14438292Y-22205453D01*
X14452578Y-22262596D01*
X14452578Y-22334025D01*
X14438292Y-22391168D01*
X14424007Y-22419739D01*
X14409721Y-22434025D01*
X14381150Y-22448310D01*
X14352578Y-22448310D01*
X14324007Y-22434025D01*
X14309721Y-22419739D01*
X14295435Y-22391168D01*
X14281150Y-22334025D01*
X14281150Y-22262596D01*
X14295435Y-22205453D01*
X14309721Y-22176882D01*
X14324007Y-22162596D01*
X14352578Y-22148311D01*
X14581150Y-22419739D02*
X14595435Y-22434025D01*
X14581150Y-22448310D01*
X14566864Y-22434025D01*
X14581150Y-22419739D01*
X14581150Y-22448310D01*
X14852578Y-22248311D02*
X14852578Y-22448310D01*
X14781150Y-22134025D02*
X14709721Y-22348311D01*
X14895435Y-22348311D01*
X15066864Y-22148311D02*
X15095435Y-22148311D01*
X15124007Y-22162596D01*
X15138292Y-22176882D01*
X15152578Y-22205453D01*
X15166864Y-22262596D01*
X15166864Y-22334025D01*
X15152578Y-22391168D01*
X15138292Y-22419739D01*
X15124007Y-22434025D01*
X15095435Y-22448310D01*
X15066864Y-22448310D01*
X15038292Y-22434025D01*
X15024007Y-22419739D01*
X15009721Y-22391168D01*
X14995435Y-22334025D01*
X14995435Y-22262596D01*
X15009721Y-22205453D01*
X15024007Y-22176882D01*
X15038292Y-22162596D01*
X15066864Y-22148311D01*
X15352578Y-22148311D02*
X15381150Y-22148311D01*
X15409721Y-22162596D01*
X15424007Y-22176882D01*
X15438292Y-22205453D01*
X15452578Y-22262596D01*
X15452578Y-22334025D01*
X15438292Y-22391168D01*
X15424007Y-22419739D01*
X15409721Y-22434025D01*
X15381150Y-22448310D01*
X15352578Y-22448310D01*
X15324007Y-22434025D01*
X15309721Y-22419739D01*
X15295435Y-22391168D01*
X15281150Y-22334025D01*
X15281150Y-22262596D01*
X15295435Y-22205453D01*
X15309721Y-22176882D01*
X15324007Y-22162596D01*
X15352578Y-22148311D01*
X15581150Y-22448310D02*
X15581150Y-22248311D01*
X15581150Y-22276882D02*
X15595435Y-22262596D01*
X15624007Y-22248311D01*
X15666864Y-22248311D01*
X15695435Y-22262596D01*
X15709721Y-22291168D01*
X15709721Y-22448310D01*
X15709721Y-22291168D02*
X15724007Y-22262596D01*
X15752578Y-22248311D01*
X15795435Y-22248311D01*
X15824007Y-22262596D01*
X15838292Y-22291168D01*
X15838292Y-22448310D01*
X15981150Y-22448310D02*
X15981150Y-22248311D01*
X15981150Y-22276882D02*
X15995435Y-22262596D01*
X16024007Y-22248311D01*
X16066864Y-22248311D01*
X16095435Y-22262596D01*
X16109721Y-22291168D01*
X16109721Y-22448310D01*
X16109721Y-22291168D02*
X16124007Y-22262596D01*
X16152578Y-22248311D01*
X16195435Y-22248311D01*
X16224007Y-22262596D01*
X16238292Y-22291168D01*
X16238292Y-22448310D01*
X16824007Y-22134025D02*
X16566864Y-22519739D01*
X17209721Y-22148311D02*
X17238293Y-22148311D01*
X17266864Y-22162596D01*
X17281150Y-22176882D01*
X17295435Y-22205453D01*
X17309721Y-22262596D01*
X17309721Y-22334025D01*
X17295435Y-22391168D01*
X17281150Y-22419739D01*
X17266864Y-22434025D01*
X17238293Y-22448310D01*
X17209721Y-22448310D01*
X17181150Y-22434025D01*
X17166864Y-22419739D01*
X17152578Y-22391168D01*
X17138293Y-22334025D01*
X17138293Y-22262596D01*
X17152578Y-22205453D01*
X17166864Y-22176882D01*
X17181150Y-22162596D01*
X17209721Y-22148311D01*
X17438293Y-22419739D02*
X17452578Y-22434025D01*
X17438293Y-22448310D01*
X17424007Y-22434025D01*
X17438293Y-22419739D01*
X17438293Y-22448310D01*
X17638293Y-22148311D02*
X17666864Y-22148311D01*
X17695435Y-22162596D01*
X17709721Y-22176882D01*
X17724007Y-22205453D01*
X17738293Y-22262596D01*
X17738293Y-22334025D01*
X17724007Y-22391168D01*
X17709721Y-22419739D01*
X17695435Y-22434025D01*
X17666864Y-22448310D01*
X17638293Y-22448310D01*
X17609721Y-22434025D01*
X17595435Y-22419739D01*
X17581150Y-22391168D01*
X17566864Y-22334025D01*
X17566864Y-22262596D01*
X17581150Y-22205453D01*
X17595435Y-22176882D01*
X17609721Y-22162596D01*
X17638293Y-22148311D01*
X18024007Y-22448310D02*
X17852578Y-22448310D01*
X17938293Y-22448310D02*
X17938293Y-22148311D01*
X17909721Y-22191168D01*
X17881150Y-22219739D01*
X17852578Y-22234025D01*
X18295435Y-22148311D02*
X18152578Y-22148311D01*
X18138293Y-22291168D01*
X18152578Y-22276882D01*
X18181150Y-22262596D01*
X18252578Y-22262596D01*
X18281150Y-22276882D01*
X18295435Y-22291168D01*
X18309721Y-22319739D01*
X18309721Y-22391168D01*
X18295435Y-22419739D01*
X18281150Y-22434025D01*
X18252578Y-22448310D01*
X18181150Y-22448310D01*
X18152578Y-22434025D01*
X18138293Y-22419739D01*
X18409721Y-22148311D02*
X18609721Y-22148311D01*
X18481150Y-22448310D01*
X18709721Y-22148311D02*
X18709721Y-22205453D01*
X18824007Y-22148311D02*
X18824007Y-22205453D01*
X19266864Y-22562596D02*
X19252578Y-22548310D01*
X19224007Y-22505453D01*
X19209721Y-22476882D01*
X19195435Y-22434025D01*
X19181150Y-22362596D01*
X19181150Y-22305453D01*
X19195435Y-22234025D01*
X19209721Y-22191168D01*
X19224007Y-22162596D01*
X19252578Y-22119739D01*
X19266864Y-22105453D01*
X19352578Y-22148311D02*
X19552578Y-22148311D01*
X19424007Y-22448310D01*
X19638293Y-22148311D02*
X19824007Y-22148311D01*
X19724007Y-22262596D01*
X19766864Y-22262596D01*
X19795435Y-22276882D01*
X19809721Y-22291168D01*
X19824007Y-22319739D01*
X19824007Y-22391168D01*
X19809721Y-22419739D01*
X19795435Y-22434025D01*
X19766864Y-22448310D01*
X19681150Y-22448310D01*
X19652578Y-22434025D01*
X19638293Y-22419739D01*
X20181150Y-22448310D02*
X20181150Y-22148311D01*
X20309721Y-22448310D02*
X20309721Y-22291168D01*
X20295435Y-22262596D01*
X20266864Y-22248311D01*
X20224007Y-22248311D01*
X20195435Y-22262596D01*
X20181150Y-22276882D01*
X20495435Y-22448310D02*
X20466864Y-22434025D01*
X20452578Y-22419739D01*
X20438293Y-22391168D01*
X20438293Y-22305453D01*
X20452578Y-22276882D01*
X20466864Y-22262596D01*
X20495435Y-22248311D01*
X20538293Y-22248311D01*
X20566864Y-22262596D01*
X20581150Y-22276882D01*
X20595435Y-22305453D01*
X20595435Y-22391168D01*
X20581150Y-22419739D01*
X20566864Y-22434025D01*
X20538293Y-22448310D01*
X20495435Y-22448310D01*
X20766864Y-22448310D02*
X20738293Y-22434025D01*
X20724007Y-22405453D01*
X20724007Y-22148311D01*
X20995435Y-22434025D02*
X20966864Y-22448310D01*
X20909721Y-22448310D01*
X20881150Y-22434025D01*
X20866864Y-22405453D01*
X20866864Y-22291168D01*
X20881150Y-22262596D01*
X20909721Y-22248311D01*
X20966864Y-22248311D01*
X20995435Y-22262596D01*
X21009721Y-22291168D01*
X21009721Y-22319739D01*
X20866864Y-22348311D01*
X21124007Y-22434025D02*
X21152578Y-22448310D01*
X21209721Y-22448310D01*
X21238293Y-22434025D01*
X21252578Y-22405453D01*
X21252578Y-22391168D01*
X21238293Y-22362596D01*
X21209721Y-22348311D01*
X21166864Y-22348311D01*
X21138293Y-22334025D01*
X21124007Y-22305453D01*
X21124007Y-22291168D01*
X21138293Y-22262596D01*
X21166864Y-22248311D01*
X21209721Y-22248311D01*
X21238293Y-22262596D01*
X21352578Y-22562596D02*
X21366864Y-22548310D01*
X21395435Y-22505453D01*
X21409721Y-22476882D01*
X21424007Y-22434025D01*
X21438293Y-22362596D01*
X21438293Y-22305453D01*
X21424007Y-22234025D01*
X21409721Y-22191168D01*
X21395435Y-22162596D01*
X21366864Y-22119739D01*
X21352578Y-22105453D01*
X14009007Y-22708596D02*
G75*
G03*
X14009007Y-22708596I-45000J0D01*
G01*
X14352578Y-22544310D02*
X14381150Y-22544310D01*
X14409721Y-22558596D01*
X14424007Y-22572882D01*
X14438292Y-22601453D01*
X14452578Y-22658596D01*
X14452578Y-22730025D01*
X14438292Y-22787168D01*
X14424007Y-22815739D01*
X14409721Y-22830025D01*
X14381150Y-22844310D01*
X14352578Y-22844310D01*
X14324007Y-22830025D01*
X14309721Y-22815739D01*
X14295435Y-22787168D01*
X14281150Y-22730025D01*
X14281150Y-22658596D01*
X14295435Y-22601453D01*
X14309721Y-22572882D01*
X14324007Y-22558596D01*
X14352578Y-22544310D01*
X14581150Y-22815739D02*
X14595435Y-22830025D01*
X14581150Y-22844310D01*
X14566864Y-22830025D01*
X14581150Y-22815739D01*
X14581150Y-22844310D01*
X14738292Y-22844310D02*
X14795435Y-22844310D01*
X14824007Y-22830025D01*
X14838292Y-22815739D01*
X14866864Y-22772882D01*
X14881150Y-22715739D01*
X14881150Y-22601453D01*
X14866864Y-22572882D01*
X14852578Y-22558596D01*
X14824007Y-22544310D01*
X14766864Y-22544310D01*
X14738292Y-22558596D01*
X14724007Y-22572882D01*
X14709721Y-22601453D01*
X14709721Y-22672882D01*
X14724007Y-22701453D01*
X14738292Y-22715739D01*
X14766864Y-22730025D01*
X14824007Y-22730025D01*
X14852578Y-22715739D01*
X14866864Y-22701453D01*
X14881150Y-22672882D01*
X15066864Y-22544310D02*
X15095435Y-22544310D01*
X15124007Y-22558596D01*
X15138292Y-22572882D01*
X15152578Y-22601453D01*
X15166864Y-22658596D01*
X15166864Y-22730025D01*
X15152578Y-22787168D01*
X15138292Y-22815739D01*
X15124007Y-22830025D01*
X15095435Y-22844310D01*
X15066864Y-22844310D01*
X15038292Y-22830025D01*
X15024007Y-22815739D01*
X15009721Y-22787168D01*
X14995435Y-22730025D01*
X14995435Y-22658596D01*
X15009721Y-22601453D01*
X15024007Y-22572882D01*
X15038292Y-22558596D01*
X15066864Y-22544310D01*
X15352578Y-22544310D02*
X15381150Y-22544310D01*
X15409721Y-22558596D01*
X15424007Y-22572882D01*
X15438292Y-22601453D01*
X15452578Y-22658596D01*
X15452578Y-22730025D01*
X15438292Y-22787168D01*
X15424007Y-22815739D01*
X15409721Y-22830025D01*
X15381150Y-22844310D01*
X15352578Y-22844310D01*
X15324007Y-22830025D01*
X15309721Y-22815739D01*
X15295435Y-22787168D01*
X15281150Y-22730025D01*
X15281150Y-22658596D01*
X15295435Y-22601453D01*
X15309721Y-22572882D01*
X15324007Y-22558596D01*
X15352578Y-22544310D01*
X15581150Y-22844310D02*
X15581150Y-22644310D01*
X15581150Y-22672882D02*
X15595435Y-22658596D01*
X15624007Y-22644310D01*
X15666864Y-22644310D01*
X15695435Y-22658596D01*
X15709721Y-22687168D01*
X15709721Y-22844310D01*
X15709721Y-22687168D02*
X15724007Y-22658596D01*
X15752578Y-22644310D01*
X15795435Y-22644310D01*
X15824007Y-22658596D01*
X15838292Y-22687168D01*
X15838292Y-22844310D01*
X15981150Y-22844310D02*
X15981150Y-22644310D01*
X15981150Y-22672882D02*
X15995435Y-22658596D01*
X16024007Y-22644310D01*
X16066864Y-22644310D01*
X16095435Y-22658596D01*
X16109721Y-22687168D01*
X16109721Y-22844310D01*
X16109721Y-22687168D02*
X16124007Y-22658596D01*
X16152578Y-22644310D01*
X16195435Y-22644310D01*
X16224007Y-22658596D01*
X16238292Y-22687168D01*
X16238292Y-22844310D01*
X16824007Y-22530025D02*
X16566864Y-22915739D01*
X17209721Y-22544310D02*
X17238293Y-22544310D01*
X17266864Y-22558596D01*
X17281150Y-22572882D01*
X17295435Y-22601453D01*
X17309721Y-22658596D01*
X17309721Y-22730025D01*
X17295435Y-22787168D01*
X17281150Y-22815739D01*
X17266864Y-22830025D01*
X17238293Y-22844310D01*
X17209721Y-22844310D01*
X17181150Y-22830025D01*
X17166864Y-22815739D01*
X17152578Y-22787168D01*
X17138293Y-22730025D01*
X17138293Y-22658596D01*
X17152578Y-22601453D01*
X17166864Y-22572882D01*
X17181150Y-22558596D01*
X17209721Y-22544310D01*
X17438293Y-22815739D02*
X17452578Y-22830025D01*
X17438293Y-22844310D01*
X17424007Y-22830025D01*
X17438293Y-22815739D01*
X17438293Y-22844310D01*
X17638293Y-22544310D02*
X17666864Y-22544310D01*
X17695435Y-22558596D01*
X17709721Y-22572882D01*
X17724007Y-22601453D01*
X17738293Y-22658596D01*
X17738293Y-22730025D01*
X17724007Y-22787168D01*
X17709721Y-22815739D01*
X17695435Y-22830025D01*
X17666864Y-22844310D01*
X17638293Y-22844310D01*
X17609721Y-22830025D01*
X17595435Y-22815739D01*
X17581150Y-22787168D01*
X17566864Y-22730025D01*
X17566864Y-22658596D01*
X17581150Y-22601453D01*
X17595435Y-22572882D01*
X17609721Y-22558596D01*
X17638293Y-22544310D01*
X17838293Y-22544310D02*
X18024007Y-22544310D01*
X17924007Y-22658596D01*
X17966864Y-22658596D01*
X17995435Y-22672882D01*
X18009721Y-22687168D01*
X18024007Y-22715739D01*
X18024007Y-22787168D01*
X18009721Y-22815739D01*
X17995435Y-22830025D01*
X17966864Y-22844310D01*
X17881150Y-22844310D01*
X17852578Y-22830025D01*
X17838293Y-22815739D01*
X18295435Y-22544310D02*
X18152578Y-22544310D01*
X18138293Y-22687168D01*
X18152578Y-22672882D01*
X18181150Y-22658596D01*
X18252578Y-22658596D01*
X18281150Y-22672882D01*
X18295435Y-22687168D01*
X18309721Y-22715739D01*
X18309721Y-22787168D01*
X18295435Y-22815739D01*
X18281150Y-22830025D01*
X18252578Y-22844310D01*
X18181150Y-22844310D01*
X18152578Y-22830025D01*
X18138293Y-22815739D01*
X18566864Y-22644310D02*
X18566864Y-22844310D01*
X18495435Y-22530025D02*
X18424007Y-22744310D01*
X18609721Y-22744310D01*
X18709721Y-22544310D02*
X18709721Y-22601453D01*
X18824007Y-22544310D02*
X18824007Y-22601453D01*
X19266864Y-22958596D02*
X19252578Y-22944310D01*
X19224007Y-22901453D01*
X19209721Y-22872882D01*
X19195435Y-22830025D01*
X19181150Y-22758596D01*
X19181150Y-22701453D01*
X19195435Y-22630025D01*
X19209721Y-22587168D01*
X19224007Y-22558596D01*
X19252578Y-22515739D01*
X19266864Y-22501453D01*
X19438293Y-22544310D02*
X19466864Y-22544310D01*
X19495435Y-22558596D01*
X19509721Y-22572882D01*
X19524007Y-22601453D01*
X19538293Y-22658596D01*
X19538293Y-22730025D01*
X19524007Y-22787168D01*
X19509721Y-22815739D01*
X19495435Y-22830025D01*
X19466864Y-22844310D01*
X19438293Y-22844310D01*
X19409721Y-22830025D01*
X19395435Y-22815739D01*
X19381150Y-22787168D01*
X19366864Y-22730025D01*
X19366864Y-22658596D01*
X19381150Y-22601453D01*
X19395435Y-22572882D01*
X19409721Y-22558596D01*
X19438293Y-22544310D01*
X19895435Y-22844310D02*
X19895435Y-22544310D01*
X20024007Y-22844310D02*
X20024007Y-22687168D01*
X20009721Y-22658596D01*
X19981150Y-22644310D01*
X19938293Y-22644310D01*
X19909721Y-22658596D01*
X19895435Y-22672882D01*
X20209721Y-22844310D02*
X20181150Y-22830025D01*
X20166864Y-22815739D01*
X20152578Y-22787168D01*
X20152578Y-22701453D01*
X20166864Y-22672882D01*
X20181150Y-22658596D01*
X20209721Y-22644310D01*
X20252578Y-22644310D01*
X20281150Y-22658596D01*
X20295435Y-22672882D01*
X20309721Y-22701453D01*
X20309721Y-22787168D01*
X20295435Y-22815739D01*
X20281150Y-22830025D01*
X20252578Y-22844310D01*
X20209721Y-22844310D01*
X20481150Y-22844310D02*
X20452578Y-22830025D01*
X20438293Y-22801453D01*
X20438293Y-22544310D01*
X20709721Y-22830025D02*
X20681150Y-22844310D01*
X20624007Y-22844310D01*
X20595435Y-22830025D01*
X20581150Y-22801453D01*
X20581150Y-22687168D01*
X20595435Y-22658596D01*
X20624007Y-22644310D01*
X20681150Y-22644310D01*
X20709721Y-22658596D01*
X20724007Y-22687168D01*
X20724007Y-22715739D01*
X20581150Y-22744310D01*
X20838293Y-22830025D02*
X20866864Y-22844310D01*
X20924007Y-22844310D01*
X20952578Y-22830025D01*
X20966864Y-22801453D01*
X20966864Y-22787168D01*
X20952578Y-22758596D01*
X20924007Y-22744310D01*
X20881150Y-22744310D01*
X20852578Y-22730025D01*
X20838293Y-22701453D01*
X20838293Y-22687168D01*
X20852578Y-22658596D01*
X20881150Y-22644310D01*
X20924007Y-22644310D01*
X20952578Y-22658596D01*
X21324007Y-22730025D02*
X21552578Y-22730025D01*
X21438293Y-22844310D02*
X21438293Y-22615739D01*
X21966864Y-22672882D02*
X21938293Y-22658596D01*
X21924007Y-22644310D01*
X21909721Y-22615739D01*
X21909721Y-22601453D01*
X21924007Y-22572882D01*
X21938293Y-22558596D01*
X21966864Y-22544310D01*
X22024007Y-22544310D01*
X22052578Y-22558596D01*
X22066864Y-22572882D01*
X22081150Y-22601453D01*
X22081150Y-22615739D01*
X22066864Y-22644310D01*
X22052578Y-22658596D01*
X22024007Y-22672882D01*
X21966864Y-22672882D01*
X21938293Y-22687168D01*
X21924007Y-22701453D01*
X21909721Y-22730025D01*
X21909721Y-22787168D01*
X21924007Y-22815739D01*
X21938293Y-22830025D01*
X21966864Y-22844310D01*
X22024007Y-22844310D01*
X22052578Y-22830025D01*
X22066864Y-22815739D01*
X22081150Y-22787168D01*
X22081150Y-22730025D01*
X22066864Y-22701453D01*
X22052578Y-22687168D01*
X22024007Y-22672882D01*
X22424007Y-22830025D02*
X22452578Y-22844310D01*
X22509721Y-22844310D01*
X22538292Y-22830025D01*
X22552578Y-22801453D01*
X22552578Y-22787168D01*
X22538292Y-22758596D01*
X22509721Y-22744310D01*
X22466864Y-22744310D01*
X22438292Y-22730025D01*
X22424007Y-22701453D01*
X22424007Y-22687168D01*
X22438292Y-22658596D01*
X22466864Y-22644310D01*
X22509721Y-22644310D01*
X22538292Y-22658596D01*
X22724007Y-22844310D02*
X22695435Y-22830025D01*
X22681150Y-22801453D01*
X22681150Y-22544310D01*
X22881150Y-22844310D02*
X22852578Y-22830025D01*
X22838292Y-22815739D01*
X22824007Y-22787168D01*
X22824007Y-22701453D01*
X22838292Y-22672882D01*
X22852578Y-22658596D01*
X22881150Y-22644310D01*
X22924007Y-22644310D01*
X22952578Y-22658596D01*
X22966864Y-22672882D01*
X22981150Y-22701453D01*
X22981150Y-22787168D01*
X22966864Y-22815739D01*
X22952578Y-22830025D01*
X22924007Y-22844310D01*
X22881150Y-22844310D01*
X23066864Y-22644310D02*
X23181150Y-22644310D01*
X23109721Y-22544310D02*
X23109721Y-22801453D01*
X23124007Y-22830025D01*
X23152578Y-22844310D01*
X23181150Y-22844310D01*
X23266864Y-22830025D02*
X23295435Y-22844310D01*
X23352578Y-22844310D01*
X23381150Y-22830025D01*
X23395435Y-22801453D01*
X23395435Y-22787168D01*
X23381150Y-22758596D01*
X23352578Y-22744310D01*
X23309721Y-22744310D01*
X23281150Y-22730025D01*
X23266864Y-22701453D01*
X23266864Y-22687168D01*
X23281150Y-22658596D01*
X23309721Y-22644310D01*
X23352578Y-22644310D01*
X23381150Y-22658596D01*
X23495435Y-22958596D02*
X23509721Y-22944310D01*
X23538292Y-22901453D01*
X23552578Y-22872882D01*
X23566864Y-22830025D01*
X23581150Y-22758596D01*
X23581150Y-22701453D01*
X23566864Y-22630025D01*
X23552578Y-22587168D01*
X23538292Y-22558596D01*
X23509721Y-22515739D01*
X23495435Y-22501453D01*
X13954397Y-23049986D02*
X13954397Y-23159206D01*
X13899787Y-23104596D02*
X14009007Y-23104596D01*
X14452578Y-23240310D02*
X14281150Y-23240310D01*
X14366864Y-23240310D02*
X14366864Y-22940310D01*
X14338292Y-22983168D01*
X14309721Y-23011739D01*
X14281150Y-23026025D01*
X14581150Y-23211739D02*
X14595435Y-23226025D01*
X14581150Y-23240310D01*
X14566864Y-23226025D01*
X14581150Y-23211739D01*
X14581150Y-23240310D01*
X14781150Y-22940310D02*
X14809721Y-22940310D01*
X14838292Y-22954596D01*
X14852578Y-22968882D01*
X14866864Y-22997453D01*
X14881150Y-23054596D01*
X14881150Y-23126025D01*
X14866864Y-23183168D01*
X14852578Y-23211739D01*
X14838292Y-23226025D01*
X14809721Y-23240310D01*
X14781150Y-23240310D01*
X14752578Y-23226025D01*
X14738292Y-23211739D01*
X14724007Y-23183168D01*
X14709721Y-23126025D01*
X14709721Y-23054596D01*
X14724007Y-22997453D01*
X14738292Y-22968882D01*
X14752578Y-22954596D01*
X14781150Y-22940310D01*
X15024007Y-23240310D02*
X15081150Y-23240310D01*
X15109721Y-23226025D01*
X15124007Y-23211739D01*
X15152578Y-23168882D01*
X15166864Y-23111739D01*
X15166864Y-22997453D01*
X15152578Y-22968882D01*
X15138292Y-22954596D01*
X15109721Y-22940310D01*
X15052578Y-22940310D01*
X15024007Y-22954596D01*
X15009721Y-22968882D01*
X14995435Y-22997453D01*
X14995435Y-23068882D01*
X15009721Y-23097453D01*
X15024007Y-23111739D01*
X15052578Y-23126025D01*
X15109721Y-23126025D01*
X15138292Y-23111739D01*
X15152578Y-23097453D01*
X15166864Y-23068882D01*
X15281150Y-22968882D02*
X15295435Y-22954596D01*
X15324007Y-22940310D01*
X15395435Y-22940310D01*
X15424007Y-22954596D01*
X15438292Y-22968882D01*
X15452578Y-22997453D01*
X15452578Y-23026025D01*
X15438292Y-23068882D01*
X15266864Y-23240310D01*
X15452578Y-23240310D01*
X15581150Y-23240310D02*
X15581150Y-23040310D01*
X15581150Y-23068882D02*
X15595435Y-23054596D01*
X15624007Y-23040310D01*
X15666864Y-23040310D01*
X15695435Y-23054596D01*
X15709721Y-23083168D01*
X15709721Y-23240310D01*
X15709721Y-23083168D02*
X15724007Y-23054596D01*
X15752578Y-23040310D01*
X15795435Y-23040310D01*
X15824007Y-23054596D01*
X15838292Y-23083168D01*
X15838292Y-23240310D01*
X15981150Y-23240310D02*
X15981150Y-23040310D01*
X15981150Y-23068882D02*
X15995435Y-23054596D01*
X16024007Y-23040310D01*
X16066864Y-23040310D01*
X16095435Y-23054596D01*
X16109721Y-23083168D01*
X16109721Y-23240310D01*
X16109721Y-23083168D02*
X16124007Y-23054596D01*
X16152578Y-23040310D01*
X16195435Y-23040310D01*
X16224007Y-23054596D01*
X16238292Y-23083168D01*
X16238292Y-23240310D01*
X16824007Y-22926025D02*
X16566864Y-23311739D01*
X17209721Y-22940310D02*
X17238293Y-22940310D01*
X17266864Y-22954596D01*
X17281150Y-22968882D01*
X17295435Y-22997453D01*
X17309721Y-23054596D01*
X17309721Y-23126025D01*
X17295435Y-23183168D01*
X17281150Y-23211739D01*
X17266864Y-23226025D01*
X17238293Y-23240310D01*
X17209721Y-23240310D01*
X17181150Y-23226025D01*
X17166864Y-23211739D01*
X17152578Y-23183168D01*
X17138293Y-23126025D01*
X17138293Y-23054596D01*
X17152578Y-22997453D01*
X17166864Y-22968882D01*
X17181150Y-22954596D01*
X17209721Y-22940310D01*
X17438293Y-23211739D02*
X17452578Y-23226025D01*
X17438293Y-23240310D01*
X17424007Y-23226025D01*
X17438293Y-23211739D01*
X17438293Y-23240310D01*
X17638293Y-22940310D02*
X17666864Y-22940310D01*
X17695435Y-22954596D01*
X17709721Y-22968882D01*
X17724007Y-22997453D01*
X17738293Y-23054596D01*
X17738293Y-23126025D01*
X17724007Y-23183168D01*
X17709721Y-23211739D01*
X17695435Y-23226025D01*
X17666864Y-23240310D01*
X17638293Y-23240310D01*
X17609721Y-23226025D01*
X17595435Y-23211739D01*
X17581150Y-23183168D01*
X17566864Y-23126025D01*
X17566864Y-23054596D01*
X17581150Y-22997453D01*
X17595435Y-22968882D01*
X17609721Y-22954596D01*
X17638293Y-22940310D01*
X17995435Y-23040310D02*
X17995435Y-23240310D01*
X17924007Y-22926025D02*
X17852578Y-23140310D01*
X18038293Y-23140310D01*
X18124007Y-22940310D02*
X18309721Y-22940310D01*
X18209721Y-23054596D01*
X18252578Y-23054596D01*
X18281150Y-23068882D01*
X18295435Y-23083168D01*
X18309721Y-23111739D01*
X18309721Y-23183168D01*
X18295435Y-23211739D01*
X18281150Y-23226025D01*
X18252578Y-23240310D01*
X18166864Y-23240310D01*
X18138293Y-23226025D01*
X18124007Y-23211739D01*
X18495435Y-22940310D02*
X18524007Y-22940310D01*
X18552578Y-22954596D01*
X18566864Y-22968882D01*
X18581150Y-22997453D01*
X18595435Y-23054596D01*
X18595435Y-23126025D01*
X18581150Y-23183168D01*
X18566864Y-23211739D01*
X18552578Y-23226025D01*
X18524007Y-23240310D01*
X18495435Y-23240310D01*
X18466864Y-23226025D01*
X18452578Y-23211739D01*
X18438293Y-23183168D01*
X18424007Y-23126025D01*
X18424007Y-23054596D01*
X18438293Y-22997453D01*
X18452578Y-22968882D01*
X18466864Y-22954596D01*
X18495435Y-22940310D01*
X18709721Y-22940310D02*
X18709721Y-22997453D01*
X18824007Y-22940310D02*
X18824007Y-22997453D01*
X19266864Y-23354596D02*
X19252578Y-23340310D01*
X19224007Y-23297453D01*
X19209721Y-23268882D01*
X19195435Y-23226025D01*
X19181150Y-23154596D01*
X19181150Y-23097453D01*
X19195435Y-23026025D01*
X19209721Y-22983168D01*
X19224007Y-22954596D01*
X19252578Y-22911739D01*
X19266864Y-22897453D01*
X19366864Y-22968882D02*
X19381150Y-22954596D01*
X19409721Y-22940310D01*
X19481150Y-22940310D01*
X19509721Y-22954596D01*
X19524007Y-22968882D01*
X19538293Y-22997453D01*
X19538293Y-23026025D01*
X19524007Y-23068882D01*
X19352578Y-23240310D01*
X19538293Y-23240310D01*
X19795435Y-23040310D02*
X19795435Y-23240310D01*
X19724007Y-22926025D02*
X19652578Y-23140310D01*
X19838293Y-23140310D01*
X20181150Y-23240310D02*
X20181150Y-22940310D01*
X20309721Y-23240310D02*
X20309721Y-23083168D01*
X20295435Y-23054596D01*
X20266864Y-23040310D01*
X20224007Y-23040310D01*
X20195435Y-23054596D01*
X20181150Y-23068882D01*
X20495435Y-23240310D02*
X20466864Y-23226025D01*
X20452578Y-23211739D01*
X20438293Y-23183168D01*
X20438293Y-23097453D01*
X20452578Y-23068882D01*
X20466864Y-23054596D01*
X20495435Y-23040310D01*
X20538293Y-23040310D01*
X20566864Y-23054596D01*
X20581150Y-23068882D01*
X20595435Y-23097453D01*
X20595435Y-23183168D01*
X20581150Y-23211739D01*
X20566864Y-23226025D01*
X20538293Y-23240310D01*
X20495435Y-23240310D01*
X20766864Y-23240310D02*
X20738293Y-23226025D01*
X20724007Y-23197453D01*
X20724007Y-22940310D01*
X20995435Y-23226025D02*
X20966864Y-23240310D01*
X20909721Y-23240310D01*
X20881150Y-23226025D01*
X20866864Y-23197453D01*
X20866864Y-23083168D01*
X20881150Y-23054596D01*
X20909721Y-23040310D01*
X20966864Y-23040310D01*
X20995435Y-23054596D01*
X21009721Y-23083168D01*
X21009721Y-23111739D01*
X20866864Y-23140310D01*
X21124007Y-23226025D02*
X21152578Y-23240310D01*
X21209721Y-23240310D01*
X21238293Y-23226025D01*
X21252578Y-23197453D01*
X21252578Y-23183168D01*
X21238293Y-23154596D01*
X21209721Y-23140310D01*
X21166864Y-23140310D01*
X21138293Y-23126025D01*
X21124007Y-23097453D01*
X21124007Y-23083168D01*
X21138293Y-23054596D01*
X21166864Y-23040310D01*
X21209721Y-23040310D01*
X21238293Y-23054596D01*
X21352578Y-23354596D02*
X21366864Y-23340310D01*
X21395435Y-23297453D01*
X21409721Y-23268882D01*
X21424007Y-23226025D01*
X21438293Y-23154596D01*
X21438293Y-23097453D01*
X21424007Y-23026025D01*
X21409721Y-22983168D01*
X21395435Y-22954596D01*
X21366864Y-22911739D01*
X21352578Y-22897453D01*
M02*
