%TF.GenerationSoftware,KiCad,Pcbnew,(5.1.10)-1*%
%TF.CreationDate,2021-09-28T22:32:17-05:00*%
%TF.ProjectId,a_duck,615f6475-636b-42e6-9b69-6361645f7063,VERSION_HERE*%
%TF.SameCoordinates,Original*%
%TF.FileFunction,Paste,Bot*%
%TF.FilePolarity,Positive*%
%FSLAX46Y46*%
G04 Gerber Fmt 4.6, Leading zero omitted, Abs format (unit mm)*
G04 Created by KiCad (PCBNEW (5.1.10)-1) date 2021-09-28 22:32:17*
%MOMM*%
%LPD*%
G01*
G04 APERTURE LIST*
%ADD10C,0.100000*%
%ADD11R,2.600000X2.600000*%
%ADD12R,0.900000X1.200000*%
G04 APERTURE END LIST*
D10*
%TO.C,S16*%
G36*
X233301286Y-187266059D02*
G01*
X232412033Y-189709260D01*
X229968832Y-188820007D01*
X230858085Y-186376806D01*
X233301286Y-187266059D01*
G37*
G36*
X223200281Y-181248403D02*
G01*
X222311028Y-183691604D01*
X219867827Y-182802351D01*
X220757080Y-180359150D01*
X223200281Y-181248403D01*
G37*
%TD*%
%TO.C,S1*%
G36*
X166316445Y-179480469D02*
G01*
X166989374Y-181991876D01*
X164477967Y-182664805D01*
X163805038Y-180153398D01*
X166316445Y-179480469D01*
G37*
G36*
X154590600Y-180344792D02*
G01*
X155263529Y-182856199D01*
X152752122Y-183529128D01*
X152079193Y-181017721D01*
X154590600Y-180344792D01*
G37*
%TD*%
D11*
%TO.C,S7*%
X198993113Y-153250361D03*
X187443113Y-151050361D03*
%TD*%
%TO.C,S8*%
X198993113Y-136250361D03*
X187443113Y-134050361D03*
%TD*%
D10*
%TO.C,S6*%
G36*
X178598413Y-124941905D02*
G01*
X178825018Y-127532012D01*
X176234911Y-127758617D01*
X176008306Y-125168510D01*
X178598413Y-124941905D01*
G37*
G36*
X166900622Y-123756926D02*
G01*
X167127227Y-126347033D01*
X164537120Y-126573638D01*
X164310515Y-123983531D01*
X166900622Y-123756926D01*
G37*
%TD*%
D11*
%TO.C,S9*%
X198993113Y-119250361D03*
X187443113Y-117050361D03*
%TD*%
D10*
%TO.C,D1*%
G36*
X158085328Y-171074409D02*
G01*
X158395911Y-172233520D01*
X157526578Y-172466457D01*
X157215995Y-171307346D01*
X158085328Y-171074409D01*
G37*
G36*
X161272884Y-170220307D02*
G01*
X161583467Y-171379418D01*
X160714134Y-171612355D01*
X160403551Y-170453244D01*
X161272884Y-170220307D01*
G37*
%TD*%
%TO.C,S2*%
G36*
X161916522Y-163059730D02*
G01*
X162589451Y-165571137D01*
X160078044Y-166244066D01*
X159405115Y-163732659D01*
X161916522Y-163059730D01*
G37*
G36*
X150190677Y-163924053D02*
G01*
X150863606Y-166435460D01*
X148352199Y-167108389D01*
X147679270Y-164596982D01*
X150190677Y-163924053D01*
G37*
%TD*%
%TO.C,D2*%
G36*
X153685404Y-154653670D02*
G01*
X153995987Y-155812781D01*
X153126654Y-156045718D01*
X152816071Y-154886607D01*
X153685404Y-154653670D01*
G37*
G36*
X156872960Y-153799568D02*
G01*
X157183543Y-154958679D01*
X156314210Y-155191616D01*
X156003627Y-154032505D01*
X156872960Y-153799568D01*
G37*
%TD*%
%TO.C,S3*%
G36*
X157516598Y-146638991D02*
G01*
X158189527Y-149150398D01*
X155678120Y-149823327D01*
X155005191Y-147311920D01*
X157516598Y-146638991D01*
G37*
G36*
X145790753Y-147503314D02*
G01*
X146463682Y-150014721D01*
X143952275Y-150687650D01*
X143279346Y-148176243D01*
X145790753Y-147503314D01*
G37*
%TD*%
%TO.C,D3*%
G36*
X149285481Y-138232931D02*
G01*
X149596064Y-139392042D01*
X148726731Y-139624979D01*
X148416148Y-138465868D01*
X149285481Y-138232931D01*
G37*
G36*
X152473037Y-137378829D02*
G01*
X152783620Y-138537940D01*
X151914287Y-138770877D01*
X151603704Y-137611766D01*
X152473037Y-137378829D01*
G37*
%TD*%
%TO.C,S4*%
G36*
X181561708Y-158812525D02*
G01*
X181788313Y-161402632D01*
X179198206Y-161629237D01*
X178971601Y-159039130D01*
X181561708Y-158812525D01*
G37*
G36*
X169863917Y-157627546D02*
G01*
X170090522Y-160217653D01*
X167500415Y-160444258D01*
X167273810Y-157854151D01*
X169863917Y-157627546D01*
G37*
%TD*%
%TO.C,D4*%
G36*
X174915338Y-149104855D02*
G01*
X175019925Y-150300289D01*
X174123350Y-150378729D01*
X174018763Y-149183295D01*
X174915338Y-149104855D01*
G37*
G36*
X178202780Y-148817241D02*
G01*
X178307367Y-150012675D01*
X177410792Y-150091115D01*
X177306205Y-148895681D01*
X178202780Y-148817241D01*
G37*
%TD*%
%TO.C,S5*%
G36*
X180080061Y-141877215D02*
G01*
X180306666Y-144467322D01*
X177716559Y-144693927D01*
X177489954Y-142103820D01*
X180080061Y-141877215D01*
G37*
G36*
X168382270Y-140692236D02*
G01*
X168608875Y-143282343D01*
X166018768Y-143508948D01*
X165792163Y-140918841D01*
X168382270Y-140692236D01*
G37*
%TD*%
%TO.C,D5*%
G36*
X173433690Y-132169545D02*
G01*
X173538277Y-133364979D01*
X172641702Y-133443419D01*
X172537115Y-132247985D01*
X173433690Y-132169545D01*
G37*
G36*
X176721132Y-131881931D02*
G01*
X176825719Y-133077365D01*
X175929144Y-133155805D01*
X175824557Y-131960371D01*
X176721132Y-131881931D01*
G37*
%TD*%
%TO.C,D6*%
G36*
X171952043Y-115234235D02*
G01*
X172056630Y-116429669D01*
X171160055Y-116508109D01*
X171055468Y-115312675D01*
X171952043Y-115234235D01*
G37*
G36*
X175239485Y-114946621D02*
G01*
X175344072Y-116142055D01*
X174447497Y-116220495D01*
X174342910Y-115025061D01*
X175239485Y-114946621D01*
G37*
%TD*%
D12*
%TO.C,D7*%
X194068113Y-142300361D03*
X197368113Y-142300361D03*
%TD*%
%TO.C,D8*%
X194068113Y-125300361D03*
X197368113Y-125300361D03*
%TD*%
%TO.C,D9*%
X194068113Y-108300362D03*
X197368113Y-108300362D03*
%TD*%
D10*
%TO.C,S10*%
G36*
X219152078Y-158062761D02*
G01*
X218925473Y-160652868D01*
X216335366Y-160426263D01*
X216561971Y-157836156D01*
X219152078Y-158062761D01*
G37*
G36*
X207837772Y-154864483D02*
G01*
X207611167Y-157454590D01*
X205021060Y-157227985D01*
X205247665Y-154637878D01*
X207837772Y-154864483D01*
G37*
%TD*%
%TO.C,D10*%
G36*
X214292399Y-147348441D02*
G01*
X214187812Y-148543875D01*
X213291237Y-148465435D01*
X213395824Y-147270001D01*
X214292399Y-147348441D01*
G37*
G36*
X217579841Y-147636055D02*
G01*
X217475254Y-148831489D01*
X216578679Y-148753049D01*
X216683266Y-147557615D01*
X217579841Y-147636055D01*
G37*
%TD*%
%TO.C,S11*%
G36*
X220633725Y-141127451D02*
G01*
X220407120Y-143717558D01*
X217817013Y-143490953D01*
X218043618Y-140900846D01*
X220633725Y-141127451D01*
G37*
G36*
X209319419Y-137929173D02*
G01*
X209092814Y-140519280D01*
X206502707Y-140292675D01*
X206729312Y-137702568D01*
X209319419Y-137929173D01*
G37*
%TD*%
%TO.C,D11*%
G36*
X215774047Y-130413131D02*
G01*
X215669460Y-131608565D01*
X214772885Y-131530125D01*
X214877472Y-130334691D01*
X215774047Y-130413131D01*
G37*
G36*
X219061489Y-130700745D02*
G01*
X218956902Y-131896179D01*
X218060327Y-131817739D01*
X218164914Y-130622305D01*
X219061489Y-130700745D01*
G37*
%TD*%
%TO.C,S12*%
G36*
X222115373Y-124192142D02*
G01*
X221888768Y-126782249D01*
X219298661Y-126555644D01*
X219525266Y-123965537D01*
X222115373Y-124192142D01*
G37*
G36*
X210801067Y-120993864D02*
G01*
X210574462Y-123583971D01*
X207984355Y-123357366D01*
X208210960Y-120767259D01*
X210801067Y-120993864D01*
G37*
%TD*%
%TO.C,D12*%
G36*
X217255695Y-113477821D02*
G01*
X217151108Y-114673255D01*
X216254533Y-114594815D01*
X216359120Y-113399381D01*
X217255695Y-113477821D01*
G37*
G36*
X220543137Y-113765435D02*
G01*
X220438550Y-114960869D01*
X219541975Y-114882429D01*
X219646562Y-113686995D01*
X220543137Y-113765435D01*
G37*
%TD*%
%TO.C,S13*%
G36*
X236836641Y-162454116D02*
G01*
X236610036Y-165044223D01*
X234019929Y-164817618D01*
X234246534Y-162227511D01*
X236836641Y-162454116D01*
G37*
G36*
X225522335Y-159255838D02*
G01*
X225295730Y-161845945D01*
X222705623Y-161619340D01*
X222932228Y-159029233D01*
X225522335Y-159255838D01*
G37*
%TD*%
%TO.C,D13*%
G36*
X231976963Y-151739796D02*
G01*
X231872376Y-152935230D01*
X230975801Y-152856790D01*
X231080388Y-151661356D01*
X231976963Y-151739796D01*
G37*
G36*
X235264405Y-152027410D02*
G01*
X235159818Y-153222844D01*
X234263243Y-153144404D01*
X234367830Y-151948970D01*
X235264405Y-152027410D01*
G37*
%TD*%
%TO.C,S14*%
G36*
X238318289Y-145518806D02*
G01*
X238091684Y-148108913D01*
X235501577Y-147882308D01*
X235728182Y-145292201D01*
X238318289Y-145518806D01*
G37*
G36*
X227003983Y-142320528D02*
G01*
X226777378Y-144910635D01*
X224187271Y-144684030D01*
X224413876Y-142093923D01*
X227003983Y-142320528D01*
G37*
%TD*%
%TO.C,D14*%
G36*
X233458610Y-134804486D02*
G01*
X233354023Y-135999920D01*
X232457448Y-135921480D01*
X232562035Y-134726046D01*
X233458610Y-134804486D01*
G37*
G36*
X236746052Y-135092100D02*
G01*
X236641465Y-136287534D01*
X235744890Y-136209094D01*
X235849477Y-135013660D01*
X236746052Y-135092100D01*
G37*
%TD*%
%TO.C,S15*%
G36*
X239799936Y-128583497D02*
G01*
X239573331Y-131173604D01*
X236983224Y-130946999D01*
X237209829Y-128356892D01*
X239799936Y-128583497D01*
G37*
G36*
X228485630Y-125385219D02*
G01*
X228259025Y-127975326D01*
X225668918Y-127748721D01*
X225895523Y-125158614D01*
X228485630Y-125385219D01*
G37*
%TD*%
%TO.C,D15*%
G36*
X234940258Y-117869176D02*
G01*
X234835671Y-119064610D01*
X233939096Y-118986170D01*
X234043683Y-117790736D01*
X234940258Y-117869176D01*
G37*
G36*
X238227700Y-118156790D02*
G01*
X238123113Y-119352224D01*
X237226538Y-119273784D01*
X237331125Y-118078350D01*
X238227700Y-118156790D01*
G37*
%TD*%
%TO.C,D16*%
G36*
X231380268Y-175659043D02*
G01*
X230969844Y-176786675D01*
X230124120Y-176478857D01*
X230534544Y-175351225D01*
X231380268Y-175659043D01*
G37*
G36*
X234481254Y-176787709D02*
G01*
X234070830Y-177915341D01*
X233225106Y-177607523D01*
X233635530Y-176479891D01*
X234481254Y-176787709D01*
G37*
%TD*%
%TO.C,S17*%
G36*
X249981923Y-195924284D02*
G01*
X248681923Y-198175950D01*
X246430257Y-196875950D01*
X247730257Y-194624284D01*
X249981923Y-195924284D01*
G37*
G36*
X241079330Y-188244028D02*
G01*
X239779330Y-190495694D01*
X237527664Y-189195694D01*
X238827664Y-186944028D01*
X241079330Y-188244028D01*
G37*
%TD*%
%TO.C,D17*%
G36*
X250105626Y-184160024D02*
G01*
X249505626Y-185199254D01*
X248726204Y-184749254D01*
X249326204Y-183710024D01*
X250105626Y-184160024D01*
G37*
G36*
X252963510Y-185810024D02*
G01*
X252363510Y-186849254D01*
X251584088Y-186399254D01*
X252184088Y-185360024D01*
X252963510Y-185810024D01*
G37*
%TD*%
%TO.C,S18*%
G36*
X264905659Y-207347534D02*
G01*
X263234411Y-209339250D01*
X261242695Y-207668002D01*
X262913943Y-205676286D01*
X264905659Y-207347534D01*
G37*
G36*
X257471979Y-198238039D02*
G01*
X255800731Y-200229755D01*
X253809015Y-198558507D01*
X255480263Y-196566791D01*
X257471979Y-198238039D01*
G37*
%TD*%
%TO.C,D18*%
G36*
X267070326Y-195783479D02*
G01*
X266298980Y-196702732D01*
X265609540Y-196124223D01*
X266380886Y-195204970D01*
X267070326Y-195783479D01*
G37*
G36*
X269598272Y-197904679D02*
G01*
X268826926Y-198823932D01*
X268137486Y-198245423D01*
X268908832Y-197326170D01*
X269598272Y-197904679D01*
G37*
%TD*%
M02*
