M48
; DRILL file {KiCad (5.1.10)-1} date 09/28/21 22:32:29
; FORMAT={-:-/ absolute / metric / decimal}
; #@! TF.CreationDate,2021-09-28T22:32:29-05:00
; #@! TF.GenerationSoftware,Kicad,Pcbnew,(5.1.10)-1
; #@! TF.FileFunction,NonPlated,1,2,NPTH
FMAT,2
METRIC
T1C1.500
T2C1.702
T3C3.000
T4C3.429
%
G90
G05
T1
X266.309Y-145.408
X266.92Y-138.435
T2
X146.581Y-144.755
X150.981Y-161.176
X155.381Y-177.597
X157.207Y-141.908
X161.606Y-158.329
X166.006Y-174.75
X168.156Y-121.188
X169.638Y-138.123
X171.12Y-155.058
X179.115Y-120.229
X180.596Y-137.164
X182.078Y-154.1
X190.218Y-113.3
X190.218Y-130.3
X190.218Y-147.3
X201.218Y-113.3
X201.218Y-130.3
X201.218Y-147.3
X209.521Y-152.552
X211.002Y-135.617
X212.484Y-118.682
X220.479Y-153.511
X221.96Y-136.576
X223.442Y-119.64
X225.424Y-179.451
X227.205Y-156.944
X228.687Y-140.008
X230.169Y-123.073
X235.761Y-183.213
X238.163Y-157.902
X239.645Y-140.967
X241.127Y-124.032
X243.582Y-186.86
X253.108Y-192.36
X260.177Y-197.309
X268.603Y-204.38
T3
X148.035Y-148.248
X152.435Y-164.669
X153.434Y-149.079
X153.434Y-149.079
X156.835Y-181.089
X157.694Y-145.66
X157.834Y-165.5
X157.834Y-165.5
X162.094Y-162.08
X162.234Y-181.92
X162.234Y-181.92
X166.494Y-178.501
X168.981Y-124.88
X170.463Y-141.815
X171.945Y-158.75
X174.154Y-126.636
X174.154Y-126.636
X175.636Y-143.571
X175.636Y-143.571
X177.117Y-160.506
X177.117Y-160.506
X178.943Y-124.008
X180.425Y-140.944
X181.907Y-157.879
X190.718Y-117.05
X190.718Y-134.05
X190.718Y-151.05
X195.718Y-119.25
X195.718Y-119.25
X195.718Y-136.25
X195.718Y-136.25
X195.718Y-153.25
X195.718Y-153.25
X200.718Y-117.05
X200.718Y-134.05
X200.718Y-151.05
X209.692Y-156.332
X211.174Y-139.396
X212.655Y-122.461
X214.481Y-158.959
X214.481Y-158.959
X215.963Y-142.024
X215.963Y-142.024
X217.444Y-125.088
X217.444Y-125.088
X219.654Y-157.203
X221.136Y-140.268
X222.617Y-123.333
X224.612Y-183.145
X227.377Y-160.723
X228.558Y-186.923
X228.558Y-186.923
X228.858Y-143.788
X230.34Y-126.852
X232.166Y-163.35
X232.166Y-163.35
X233.647Y-146.415
X233.647Y-146.415
X234.008Y-186.566
X235.129Y-129.48
X235.129Y-129.48
X237.338Y-161.595
X238.82Y-144.659
X240.302Y-127.724
X242.14Y-190.357
X245.37Y-194.763
X245.37Y-194.763
X250.8Y-195.357
X258.149Y-200.503
X260.565Y-205.403
X260.565Y-205.403
X265.81Y-206.931
T4
X151.894Y-143.332
X156.294Y-159.752
X160.694Y-176.173
X173.636Y-120.708
X175.117Y-137.644
X176.599Y-154.579
X195.718Y-113.3
X195.718Y-130.3
X195.718Y-147.3
X215.0Y-153.032
X216.481Y-136.096
X217.963Y-119.161
X230.593Y-181.332
X232.684Y-157.423
X234.166Y-140.488
X235.648Y-123.552
X248.345Y-189.61
X264.39Y-200.845
T0
M30
