M48
; DRILL file {KiCad (5.1.10)-1} date 09/28/21 22:32:29
; FORMAT={-:-/ absolute / metric / decimal}
; #@! TF.CreationDate,2021-09-28T22:32:29-05:00
; #@! TF.GenerationSoftware,Kicad,Pcbnew,(5.1.10)-1
; #@! TF.FileFunction,Plated,1,2,PTH
FMAT,2
METRIC
T1C0.400
T2C0.900
T3C1.092
%
G90
G05
T1
X147.656Y-138.938
X149.271Y-153.495
X150.271Y-146.708
X152.062Y-155.344
X153.562Y-138.094
X153.671Y-169.916
X154.67Y-162.733
X156.469Y-171.75
X157.969Y-154.5
X159.07Y-179.133
X162.375Y-170.906
X167.531Y-129.562
X167.812Y-173.531
X169.406Y-146.344
X170.25Y-115.875
X171.375Y-163.031
X171.656Y-123.844
X171.75Y-132.844
X173.25Y-149.719
X173.344Y-140.719
X174.562Y-157.406
X176.156Y-115.594
X177.656Y-132.562
X179.156Y-149.438
X187.443Y-121.838
X187.443Y-138.787
X192.75Y-108.281
X192.75Y-116.25
X192.75Y-125.344
X192.75Y-142.312
X192.75Y-150.375
X193.312Y-133.312
X196.087Y-159.694
X198.656Y-108.281
X198.656Y-125.344
X198.656Y-142.312
X206.429Y-161.633
X207.911Y-142.099
X209.393Y-125.205
X212.531Y-147.844
X212.531Y-156.0
X213.938Y-130.969
X213.938Y-139.219
X214.781Y-122.156
X215.438Y-114.0
X218.344Y-148.219
X219.844Y-131.25
X221.344Y-114.375
X224.114Y-163.833
X225.596Y-146.471
X227.077Y-128.827
X227.25Y-184.033
X228.094Y-182.344
X229.406Y-176.062
X230.156Y-152.344
X230.156Y-160.594
X231.656Y-135.281
X231.656Y-143.531
X233.156Y-118.406
X233.156Y-126.656
X235.219Y-177.188
X236.062Y-152.625
X237.562Y-135.656
X239.062Y-118.688
X245.156Y-191.531
X245.906Y-190.688
X247.969Y-184.406
X250.688Y-182.344
X253.688Y-186.188
X260.812Y-201.562
X264.75Y-195.938
X265.031Y-197.906
X270.469Y-198.094
T3
X243.544Y-163.864
X243.766Y-161.334
X243.987Y-158.803
X244.208Y-156.273
X244.43Y-153.743
X244.651Y-151.212
X244.873Y-148.682
X245.094Y-146.152
X245.315Y-143.621
X245.537Y-141.091
X245.758Y-138.561
X245.979Y-136.03
X258.726Y-165.192
X258.948Y-162.662
X259.169Y-160.132
X259.39Y-157.601
X259.612Y-155.071
X259.833Y-152.541
X260.055Y-150.01
X260.276Y-147.48
X260.497Y-144.95
X260.719Y-142.419
X260.94Y-139.889
X261.161Y-137.359
T2
X263.809Y-147.598G85X263.757Y-148.196
G05
X263.905Y-146.503G85X263.853Y-147.1
G05
X264.254Y-142.518G85X264.201Y-143.116
G05
X264.515Y-139.529G85X264.463Y-140.127
G05
X268.392Y-147.999G85X268.339Y-148.597
G05
X268.487Y-146.903G85X268.435Y-147.501
G05
X268.836Y-142.919G85X268.784Y-143.516
G05
X269.097Y-139.93G85X269.045Y-140.528
G05
T0
M30
