%TF.GenerationSoftware,KiCad,Pcbnew,(5.1.10)-1*%
%TF.CreationDate,2021-09-28T22:32:17-05:00*%
%TF.ProjectId,a_duck,615f6475-636b-42e6-9b69-6361645f7063,VERSION_HERE*%
%TF.SameCoordinates,Original*%
%TF.FileFunction,Copper,L2,Bot*%
%TF.FilePolarity,Positive*%
%FSLAX46Y46*%
G04 Gerber Fmt 4.6, Leading zero omitted, Abs format (unit mm)*
G04 Created by KiCad (PCBNEW (5.1.10)-1) date 2021-09-28 22:32:17*
%MOMM*%
%LPD*%
G01*
G04 APERTURE LIST*
%TA.AperFunction,EtchedComponent*%
%ADD10C,0.136036*%
%TD*%
%TA.AperFunction,EtchedComponent*%
%ADD11C,0.100000*%
%TD*%
%TA.AperFunction,ComponentPad*%
%ADD12C,0.100000*%
%TD*%
%TA.AperFunction,ComponentPad*%
%ADD13C,1.752600*%
%TD*%
%TA.AperFunction,SMDPad,CuDef*%
%ADD14C,0.100000*%
%TD*%
%TA.AperFunction,SMDPad,CuDef*%
%ADD15R,2.600000X2.600000*%
%TD*%
%TA.AperFunction,SMDPad,CuDef*%
%ADD16R,0.900000X1.200000*%
%TD*%
%TA.AperFunction,ViaPad*%
%ADD17C,0.800000*%
%TD*%
%TA.AperFunction,Conductor*%
%ADD18C,0.250000*%
%TD*%
G04 APERTURE END LIST*
D10*
%TO.C,svg2mod*%
G36*
X209144225Y-168634074D02*
G01*
X209143261Y-168657949D01*
X209140419Y-168681292D01*
X209135773Y-168704029D01*
X209129399Y-168726084D01*
X209121370Y-168747382D01*
X209111763Y-168767849D01*
X209100652Y-168787409D01*
X209088111Y-168805989D01*
X209074215Y-168823512D01*
X209059040Y-168839905D01*
X209042659Y-168855091D01*
X209025148Y-168868997D01*
X209006582Y-168881548D01*
X208987035Y-168892667D01*
X208966582Y-168902282D01*
X208945298Y-168910316D01*
X208923258Y-168916696D01*
X208900536Y-168921345D01*
X208877208Y-168924190D01*
X208853347Y-168925154D01*
X208829465Y-168924190D01*
X208806114Y-168921345D01*
X208783367Y-168916696D01*
X208761301Y-168910316D01*
X208739991Y-168902282D01*
X208719511Y-168892667D01*
X208699937Y-168881548D01*
X208681343Y-168868997D01*
X208663806Y-168855091D01*
X208647399Y-168839905D01*
X208632199Y-168823512D01*
X208618280Y-168805989D01*
X208605717Y-168787409D01*
X208594586Y-168767849D01*
X208584961Y-168747382D01*
X208576917Y-168726084D01*
X208570531Y-168704029D01*
X208565876Y-168681292D01*
X208563028Y-168657949D01*
X208562062Y-168634074D01*
X208563028Y-168610217D01*
X208565876Y-168586889D01*
X208570531Y-168564163D01*
X208576917Y-168542116D01*
X208584961Y-168520823D01*
X208594586Y-168500359D01*
X208605717Y-168480799D01*
X208618280Y-168462218D01*
X208632199Y-168444691D01*
X208647399Y-168428294D01*
X208663806Y-168413102D01*
X208681343Y-168399190D01*
X208699937Y-168386633D01*
X208719511Y-168375506D01*
X208739991Y-168365885D01*
X208761301Y-168357844D01*
X208783367Y-168351460D01*
X208806114Y-168346806D01*
X208829465Y-168343959D01*
X208853347Y-168342993D01*
X208877208Y-168343958D01*
X208900536Y-168346803D01*
X208923258Y-168351452D01*
X208945298Y-168357831D01*
X208966582Y-168365866D01*
X208987035Y-168375480D01*
X209006582Y-168386600D01*
X209025148Y-168399151D01*
X209042659Y-168413057D01*
X209059040Y-168428243D01*
X209074215Y-168444636D01*
X209088111Y-168462159D01*
X209100652Y-168480738D01*
X209111763Y-168500299D01*
X209121370Y-168520766D01*
X209129399Y-168542064D01*
X209135773Y-168564119D01*
X209140419Y-168586856D01*
X209143261Y-168610199D01*
X209144225Y-168634074D01*
G37*
X209144225Y-168634074D02*
X209143261Y-168657949D01*
X209140419Y-168681292D01*
X209135773Y-168704029D01*
X209129399Y-168726084D01*
X209121370Y-168747382D01*
X209111763Y-168767849D01*
X209100652Y-168787409D01*
X209088111Y-168805989D01*
X209074215Y-168823512D01*
X209059040Y-168839905D01*
X209042659Y-168855091D01*
X209025148Y-168868997D01*
X209006582Y-168881548D01*
X208987035Y-168892667D01*
X208966582Y-168902282D01*
X208945298Y-168910316D01*
X208923258Y-168916696D01*
X208900536Y-168921345D01*
X208877208Y-168924190D01*
X208853347Y-168925154D01*
X208829465Y-168924190D01*
X208806114Y-168921345D01*
X208783367Y-168916696D01*
X208761301Y-168910316D01*
X208739991Y-168902282D01*
X208719511Y-168892667D01*
X208699937Y-168881548D01*
X208681343Y-168868997D01*
X208663806Y-168855091D01*
X208647399Y-168839905D01*
X208632199Y-168823512D01*
X208618280Y-168805989D01*
X208605717Y-168787409D01*
X208594586Y-168767849D01*
X208584961Y-168747382D01*
X208576917Y-168726084D01*
X208570531Y-168704029D01*
X208565876Y-168681292D01*
X208563028Y-168657949D01*
X208562062Y-168634074D01*
X208563028Y-168610217D01*
X208565876Y-168586889D01*
X208570531Y-168564163D01*
X208576917Y-168542116D01*
X208584961Y-168520823D01*
X208594586Y-168500359D01*
X208605717Y-168480799D01*
X208618280Y-168462218D01*
X208632199Y-168444691D01*
X208647399Y-168428294D01*
X208663806Y-168413102D01*
X208681343Y-168399190D01*
X208699937Y-168386633D01*
X208719511Y-168375506D01*
X208739991Y-168365885D01*
X208761301Y-168357844D01*
X208783367Y-168351460D01*
X208806114Y-168346806D01*
X208829465Y-168343959D01*
X208853347Y-168342993D01*
X208877208Y-168343958D01*
X208900536Y-168346803D01*
X208923258Y-168351452D01*
X208945298Y-168357831D01*
X208966582Y-168365866D01*
X208987035Y-168375480D01*
X209006582Y-168386600D01*
X209025148Y-168399151D01*
X209042659Y-168413057D01*
X209059040Y-168428243D01*
X209074215Y-168444636D01*
X209088111Y-168462159D01*
X209100652Y-168480738D01*
X209111763Y-168500299D01*
X209121370Y-168520766D01*
X209129399Y-168542064D01*
X209135773Y-168564119D01*
X209140419Y-168586856D01*
X209143261Y-168610199D01*
X209144225Y-168634074D01*
G36*
X213066461Y-170058053D02*
G01*
X213064900Y-170398600D01*
X213039768Y-170398730D01*
X213014697Y-170399119D01*
X212989688Y-170399766D01*
X212964742Y-170400670D01*
X212939862Y-170401829D01*
X212915048Y-170403242D01*
X212890301Y-170404907D01*
X212865623Y-170406824D01*
X212841015Y-170408992D01*
X212816479Y-170411408D01*
X212792015Y-170414072D01*
X212767625Y-170416982D01*
X212743310Y-170420137D01*
X212719071Y-170423536D01*
X212694910Y-170427178D01*
X212670829Y-170431061D01*
X212646827Y-170435184D01*
X212622907Y-170439545D01*
X212599070Y-170444144D01*
X212575318Y-170448979D01*
X212551650Y-170454049D01*
X212528069Y-170459352D01*
X212504576Y-170464888D01*
X212481173Y-170470655D01*
X212457860Y-170476651D01*
X212434639Y-170482876D01*
X212411510Y-170489328D01*
X212388477Y-170496006D01*
X212365538Y-170502908D01*
X212342697Y-170510034D01*
X212319954Y-170517382D01*
X212297311Y-170524951D01*
X212274768Y-170532739D01*
X212252327Y-170540746D01*
X212229990Y-170548969D01*
X212207757Y-170557408D01*
X212185630Y-170566062D01*
X212163610Y-170574929D01*
X212141699Y-170584007D01*
X212119897Y-170593296D01*
X212098207Y-170602794D01*
X212076628Y-170612500D01*
X212055163Y-170622413D01*
X212033814Y-170632532D01*
X212012580Y-170642854D01*
X211991463Y-170653380D01*
X211970466Y-170664107D01*
X211949588Y-170675034D01*
X211928831Y-170686161D01*
X211908197Y-170697485D01*
X211887687Y-170709006D01*
X211867302Y-170720722D01*
X211847043Y-170732631D01*
X211826912Y-170744734D01*
X211806910Y-170757028D01*
X211787038Y-170769512D01*
X211767297Y-170782185D01*
X211747689Y-170795045D01*
X211728216Y-170808091D01*
X211708877Y-170821323D01*
X211689675Y-170834738D01*
X211670611Y-170848336D01*
X211651686Y-170862115D01*
X211632902Y-170876073D01*
X211614259Y-170890211D01*
X211595760Y-170904525D01*
X211577404Y-170919016D01*
X211559195Y-170933681D01*
X211541132Y-170948520D01*
X211523217Y-170963531D01*
X211505451Y-170978713D01*
X211487836Y-170994065D01*
X211470373Y-171009585D01*
X211453064Y-171025272D01*
X211435909Y-171041125D01*
X211418909Y-171057142D01*
X211402067Y-171073323D01*
X211385383Y-171089666D01*
X211368859Y-171106169D01*
X211352495Y-171122832D01*
X211336294Y-171139652D01*
X211320257Y-171156630D01*
X211304384Y-171173763D01*
X211288677Y-171191051D01*
X211273137Y-171208492D01*
X211257766Y-171226084D01*
X211242565Y-171243827D01*
X211227535Y-171261719D01*
X211212677Y-171279759D01*
X211197993Y-171297945D01*
X211183484Y-171316277D01*
X211169152Y-171334753D01*
X211154997Y-171353372D01*
X211141021Y-171372132D01*
X211127224Y-171391032D01*
X211113610Y-171410072D01*
X211100178Y-171429249D01*
X211086929Y-171448562D01*
X211073866Y-171468011D01*
X211060990Y-171487593D01*
X211048301Y-171507308D01*
X211035802Y-171527155D01*
X211023493Y-171547131D01*
X211011375Y-171567236D01*
X210999450Y-171587469D01*
X210987720Y-171607827D01*
X210976185Y-171628311D01*
X210964847Y-171648918D01*
X210953706Y-171669647D01*
X210942765Y-171690498D01*
X210932025Y-171711468D01*
X210921486Y-171732557D01*
X210911151Y-171753763D01*
X210901020Y-171775085D01*
X210891095Y-171796522D01*
X210881377Y-171818072D01*
X210871867Y-171839734D01*
X210862566Y-171861507D01*
X210853476Y-171883389D01*
X210844599Y-171905380D01*
X210835935Y-171927478D01*
X210827485Y-171949681D01*
X210819252Y-171971989D01*
X210811235Y-171994400D01*
X210803438Y-172016913D01*
X210795859Y-172039527D01*
X210788502Y-172062240D01*
X210781368Y-172085051D01*
X210774457Y-172107958D01*
X210767771Y-172130961D01*
X210761311Y-172154059D01*
X210755078Y-172177249D01*
X210749074Y-172200531D01*
X210743301Y-172223903D01*
X210737758Y-172247365D01*
X210732448Y-172270914D01*
X210727372Y-172294550D01*
X210722531Y-172318271D01*
X210717927Y-172342076D01*
X210713560Y-172365963D01*
X210709432Y-172389932D01*
X210705545Y-172413982D01*
X210701899Y-172438110D01*
X210698495Y-172462315D01*
X210695336Y-172486597D01*
X210692423Y-172510954D01*
X210689756Y-172535385D01*
X210687336Y-172559888D01*
X210685167Y-172584463D01*
X210683247Y-172609107D01*
X210681579Y-172633820D01*
X210680165Y-172658600D01*
X210679005Y-172683447D01*
X210678100Y-172708358D01*
X210677452Y-172733333D01*
X210677062Y-172758370D01*
X210676932Y-172783468D01*
X210677062Y-172808566D01*
X210677452Y-172833603D01*
X210678100Y-172858578D01*
X210679005Y-172883489D01*
X210680165Y-172908336D01*
X210681579Y-172933117D01*
X210683247Y-172957831D01*
X210685167Y-172982476D01*
X210687336Y-173007052D01*
X210689756Y-173031556D01*
X210692423Y-173055988D01*
X210695336Y-173080347D01*
X210698495Y-173104630D01*
X210701899Y-173128837D01*
X210705545Y-173152967D01*
X210709432Y-173177018D01*
X210713560Y-173200989D01*
X210717927Y-173224879D01*
X210722531Y-173248686D01*
X210727372Y-173272409D01*
X210732448Y-173296047D01*
X210737758Y-173319598D01*
X210743301Y-173343062D01*
X210749074Y-173366437D01*
X210755078Y-173389721D01*
X210761311Y-173412914D01*
X210767771Y-173436014D01*
X210774457Y-173459020D01*
X210781368Y-173481931D01*
X210788502Y-173504745D01*
X210795859Y-173527461D01*
X210803438Y-173550078D01*
X210811235Y-173572594D01*
X210819252Y-173595008D01*
X210827485Y-173617320D01*
X210835935Y-173639526D01*
X210844599Y-173661628D01*
X210853476Y-173683622D01*
X210862566Y-173705508D01*
X210871867Y-173727285D01*
X210881377Y-173748951D01*
X210891095Y-173770505D01*
X210901020Y-173791945D01*
X210911151Y-173813271D01*
X210921486Y-173834481D01*
X210932025Y-173855574D01*
X210942765Y-173876549D01*
X210953706Y-173897403D01*
X210964847Y-173918137D01*
X210976185Y-173938748D01*
X210987720Y-173959236D01*
X210999450Y-173979599D01*
X211011375Y-173999836D01*
X211023493Y-174019946D01*
X211035802Y-174039926D01*
X211048301Y-174059777D01*
X211060990Y-174079497D01*
X211073866Y-174099084D01*
X211086929Y-174118537D01*
X211100178Y-174137855D01*
X211113610Y-174157037D01*
X211127224Y-174176081D01*
X211141021Y-174194986D01*
X211154997Y-174213751D01*
X211169152Y-174232375D01*
X211183484Y-174250855D01*
X211197993Y-174269192D01*
X211212677Y-174287383D01*
X211227535Y-174305428D01*
X211242565Y-174323325D01*
X211257766Y-174341073D01*
X211273137Y-174358670D01*
X211288677Y-174376116D01*
X211304384Y-174393408D01*
X211320257Y-174410546D01*
X211336294Y-174427529D01*
X211352495Y-174444355D01*
X211368859Y-174461022D01*
X211385383Y-174477531D01*
X211402067Y-174493878D01*
X211418909Y-174510064D01*
X211435909Y-174526086D01*
X211453064Y-174541944D01*
X211470373Y-174557636D01*
X211487836Y-174573161D01*
X211505451Y-174588517D01*
X211523217Y-174603704D01*
X211541132Y-174618720D01*
X211559195Y-174633564D01*
X211577404Y-174648234D01*
X211595760Y-174662729D01*
X211614259Y-174677049D01*
X211632902Y-174691191D01*
X211651686Y-174705154D01*
X211670611Y-174718938D01*
X211689675Y-174732540D01*
X211708877Y-174745960D01*
X211728216Y-174759197D01*
X211747689Y-174772248D01*
X211767297Y-174785113D01*
X211787038Y-174797790D01*
X211806910Y-174810278D01*
X211826912Y-174822577D01*
X211847043Y-174834684D01*
X211867302Y-174846598D01*
X211887687Y-174858318D01*
X211908197Y-174869843D01*
X211928831Y-174881172D01*
X211949588Y-174892302D01*
X211970466Y-174903234D01*
X211991463Y-174913965D01*
X212012580Y-174924495D01*
X212033814Y-174934821D01*
X212055163Y-174944944D01*
X212076628Y-174954860D01*
X212098207Y-174964570D01*
X212119897Y-174974073D01*
X212141699Y-174983365D01*
X212163610Y-174992447D01*
X212185630Y-175001318D01*
X212207757Y-175009975D01*
X212229990Y-175018417D01*
X212252327Y-175026644D01*
X212274768Y-175034654D01*
X212297311Y-175042445D01*
X212319954Y-175050017D01*
X212342697Y-175057368D01*
X212365538Y-175064497D01*
X212388477Y-175071403D01*
X212411510Y-175078083D01*
X212434639Y-175084538D01*
X212457860Y-175090766D01*
X212481173Y-175096765D01*
X212504576Y-175102534D01*
X212528069Y-175108072D01*
X212551650Y-175113378D01*
X212575318Y-175118450D01*
X212599070Y-175123287D01*
X212622907Y-175127888D01*
X212646827Y-175132252D01*
X212670829Y-175136376D01*
X212694910Y-175140261D01*
X212719071Y-175143904D01*
X212743310Y-175147305D01*
X212767625Y-175150461D01*
X212792015Y-175153373D01*
X212816479Y-175156038D01*
X212841015Y-175158455D01*
X212865623Y-175160624D01*
X212890301Y-175162542D01*
X212915048Y-175164208D01*
X212939862Y-175165622D01*
X212964742Y-175166781D01*
X212989688Y-175167685D01*
X213014697Y-175168332D01*
X213039768Y-175168722D01*
X213064900Y-175168852D01*
X213090033Y-175168722D01*
X213115104Y-175168332D01*
X213140114Y-175167685D01*
X213165059Y-175166781D01*
X213189940Y-175165622D01*
X213214755Y-175164208D01*
X213239503Y-175162542D01*
X213264182Y-175160624D01*
X213288790Y-175158455D01*
X213313328Y-175156038D01*
X213337793Y-175153373D01*
X213362185Y-175150461D01*
X213386501Y-175147305D01*
X213410741Y-175143904D01*
X213434903Y-175140261D01*
X213458987Y-175136376D01*
X213482990Y-175132252D01*
X213506912Y-175127888D01*
X213530751Y-175123287D01*
X213554506Y-175118450D01*
X213578176Y-175113378D01*
X213601759Y-175108072D01*
X213625254Y-175102534D01*
X213648660Y-175096765D01*
X213671976Y-175090766D01*
X213695200Y-175084538D01*
X213718331Y-175078083D01*
X213741367Y-175071403D01*
X213764309Y-175064497D01*
X213787153Y-175057368D01*
X213809899Y-175050017D01*
X213832546Y-175042445D01*
X213855092Y-175034654D01*
X213877536Y-175026644D01*
X213899877Y-175018417D01*
X213922113Y-175009975D01*
X213944243Y-175001318D01*
X213966267Y-174992447D01*
X213988182Y-174983365D01*
X214009987Y-174974073D01*
X214031681Y-174964570D01*
X214053264Y-174954860D01*
X214074732Y-174944944D01*
X214096086Y-174934821D01*
X214117324Y-174924495D01*
X214138444Y-174913965D01*
X214159446Y-174903234D01*
X214180328Y-174892302D01*
X214201089Y-174881172D01*
X214221727Y-174869843D01*
X214242242Y-174858318D01*
X214262631Y-174846598D01*
X214282894Y-174834684D01*
X214303030Y-174822577D01*
X214323037Y-174810278D01*
X214342913Y-174797790D01*
X214362658Y-174785113D01*
X214382271Y-174772248D01*
X214401749Y-174759197D01*
X214421092Y-174745960D01*
X214440299Y-174732540D01*
X214459367Y-174718938D01*
X214478297Y-174705154D01*
X214497086Y-174691191D01*
X214515734Y-174677049D01*
X214534238Y-174662729D01*
X214552598Y-174648234D01*
X214570813Y-174633564D01*
X214588881Y-174618720D01*
X214606801Y-174603704D01*
X214624571Y-174588517D01*
X214642191Y-174573161D01*
X214659658Y-174557636D01*
X214676973Y-174541944D01*
X214694133Y-174526086D01*
X214711137Y-174510064D01*
X214727985Y-174493878D01*
X214744673Y-174477531D01*
X214761203Y-174461022D01*
X214777571Y-174444355D01*
X214793777Y-174427529D01*
X214809820Y-174410546D01*
X214825698Y-174393408D01*
X214841409Y-174376116D01*
X214856954Y-174358670D01*
X214872330Y-174341073D01*
X214887536Y-174323325D01*
X214902571Y-174305428D01*
X214917433Y-174287383D01*
X214932122Y-174269192D01*
X214946636Y-174250855D01*
X214960973Y-174232375D01*
X214975133Y-174213751D01*
X214989114Y-174194986D01*
X215002915Y-174176081D01*
X215016534Y-174157037D01*
X215029971Y-174137855D01*
X215043224Y-174118537D01*
X215056291Y-174099084D01*
X215069172Y-174079497D01*
X215081866Y-174059777D01*
X215094370Y-174039926D01*
X215106683Y-174019946D01*
X215118805Y-173999836D01*
X215130734Y-173979599D01*
X215142469Y-173959236D01*
X215154009Y-173938748D01*
X215165351Y-173918137D01*
X215176496Y-173897403D01*
X215187441Y-173876549D01*
X215198185Y-173855574D01*
X215208728Y-173834481D01*
X215219067Y-173813271D01*
X215229202Y-173791945D01*
X215239131Y-173770505D01*
X215248853Y-173748951D01*
X215258367Y-173727285D01*
X215267671Y-173705508D01*
X215276765Y-173683622D01*
X215285646Y-173661628D01*
X215294314Y-173639526D01*
X215302767Y-173617320D01*
X215311003Y-173595008D01*
X215319023Y-173572594D01*
X215326824Y-173550078D01*
X215334405Y-173527461D01*
X215341766Y-173504745D01*
X215348903Y-173481931D01*
X215355817Y-173459020D01*
X215362506Y-173436014D01*
X215368969Y-173412914D01*
X215375204Y-173389721D01*
X215381211Y-173366437D01*
X215386987Y-173343062D01*
X215392532Y-173319598D01*
X215397844Y-173296047D01*
X215402922Y-173272409D01*
X215407765Y-173248686D01*
X215412372Y-173224879D01*
X215416740Y-173200989D01*
X215420870Y-173177018D01*
X215424759Y-173152967D01*
X215428407Y-173128837D01*
X215431812Y-173104630D01*
X215434972Y-173080347D01*
X215437888Y-173055988D01*
X215440556Y-173031556D01*
X215442976Y-173007052D01*
X215445147Y-172982476D01*
X215447067Y-172957831D01*
X215448736Y-172933117D01*
X215450151Y-172908336D01*
X215451312Y-172883489D01*
X215452217Y-172858578D01*
X215452865Y-172833603D01*
X215453255Y-172808566D01*
X215453385Y-172783468D01*
X215453255Y-172758370D01*
X215452865Y-172733333D01*
X215452217Y-172708358D01*
X215451312Y-172683447D01*
X215450151Y-172658600D01*
X215448736Y-172633820D01*
X215447067Y-172609107D01*
X215445147Y-172584463D01*
X215442976Y-172559888D01*
X215440556Y-172535385D01*
X215437888Y-172510954D01*
X215434972Y-172486597D01*
X215431812Y-172462315D01*
X215428407Y-172438110D01*
X215424759Y-172413982D01*
X215420870Y-172389932D01*
X215416740Y-172365963D01*
X215412372Y-172342076D01*
X215407765Y-172318271D01*
X215402922Y-172294550D01*
X215397844Y-172270914D01*
X215392532Y-172247365D01*
X215386987Y-172223903D01*
X215381211Y-172200531D01*
X215375204Y-172177249D01*
X215368969Y-172154059D01*
X215362506Y-172130961D01*
X215355817Y-172107958D01*
X215348903Y-172085051D01*
X215341766Y-172062240D01*
X215334405Y-172039527D01*
X215326824Y-172016913D01*
X215319023Y-171994400D01*
X215311003Y-171971989D01*
X215302767Y-171949681D01*
X215294314Y-171927478D01*
X215285646Y-171905380D01*
X215276765Y-171883389D01*
X215267671Y-171861507D01*
X215258367Y-171839734D01*
X215248853Y-171818072D01*
X215239131Y-171796522D01*
X215229202Y-171775085D01*
X215219067Y-171753763D01*
X215208728Y-171732557D01*
X215198185Y-171711468D01*
X215187441Y-171690498D01*
X215176496Y-171669647D01*
X215165351Y-171648918D01*
X215154009Y-171628311D01*
X215142469Y-171607827D01*
X215130734Y-171587469D01*
X215118805Y-171567236D01*
X215106683Y-171547131D01*
X215094370Y-171527155D01*
X215081866Y-171507308D01*
X215069172Y-171487593D01*
X215056291Y-171468011D01*
X215043224Y-171448562D01*
X215029971Y-171429249D01*
X215016534Y-171410072D01*
X215002915Y-171391032D01*
X214989114Y-171372132D01*
X214975133Y-171353372D01*
X214960973Y-171334753D01*
X214946636Y-171316277D01*
X214932122Y-171297945D01*
X214917433Y-171279759D01*
X214902571Y-171261719D01*
X214887536Y-171243827D01*
X214872330Y-171226084D01*
X214856954Y-171208492D01*
X214841409Y-171191051D01*
X214825698Y-171173763D01*
X214809820Y-171156630D01*
X214793777Y-171139652D01*
X214777571Y-171122832D01*
X214761203Y-171106169D01*
X214744673Y-171089666D01*
X214727985Y-171073323D01*
X214711137Y-171057142D01*
X214694133Y-171041125D01*
X214676973Y-171025272D01*
X214659658Y-171009585D01*
X214642191Y-170994065D01*
X214624571Y-170978713D01*
X214606801Y-170963531D01*
X214588881Y-170948520D01*
X214570813Y-170933681D01*
X214552598Y-170919016D01*
X214534238Y-170904525D01*
X214515734Y-170890211D01*
X214497086Y-170876073D01*
X214478297Y-170862115D01*
X214459367Y-170848336D01*
X214440299Y-170834738D01*
X214421092Y-170821323D01*
X214401749Y-170808091D01*
X214382271Y-170795045D01*
X214362658Y-170782185D01*
X214342913Y-170769512D01*
X214323037Y-170757028D01*
X214303030Y-170744734D01*
X214282894Y-170732631D01*
X214262631Y-170720722D01*
X214242242Y-170709006D01*
X214221727Y-170697485D01*
X214201089Y-170686161D01*
X214180328Y-170675034D01*
X214159446Y-170664107D01*
X214138444Y-170653380D01*
X214117324Y-170642854D01*
X214096086Y-170632532D01*
X214074732Y-170622413D01*
X214053264Y-170612500D01*
X214031681Y-170602794D01*
X214009987Y-170593296D01*
X213988182Y-170584007D01*
X213966267Y-170574929D01*
X213944243Y-170566062D01*
X213922113Y-170557408D01*
X213899877Y-170548969D01*
X213877536Y-170540746D01*
X213855092Y-170532739D01*
X213832546Y-170524951D01*
X213809899Y-170517382D01*
X213787153Y-170510034D01*
X213764309Y-170502908D01*
X213741367Y-170496006D01*
X213718331Y-170489328D01*
X213695200Y-170482876D01*
X213671976Y-170476651D01*
X213648660Y-170470655D01*
X213625254Y-170464888D01*
X213601759Y-170459352D01*
X213578176Y-170454049D01*
X213554506Y-170448979D01*
X213530751Y-170444144D01*
X213506912Y-170439545D01*
X213482990Y-170435184D01*
X213458987Y-170431061D01*
X213434903Y-170427178D01*
X213410741Y-170423536D01*
X213386501Y-170420137D01*
X213362185Y-170416982D01*
X213337793Y-170414072D01*
X213313328Y-170411408D01*
X213288790Y-170408992D01*
X213264182Y-170406824D01*
X213239503Y-170404907D01*
X213214755Y-170403242D01*
X213189940Y-170401829D01*
X213165059Y-170400670D01*
X213140114Y-170399766D01*
X213115104Y-170399119D01*
X213090033Y-170398730D01*
X213064900Y-170398600D01*
X213066461Y-170058053D01*
X213091824Y-170058209D01*
X213117180Y-170058677D01*
X213142527Y-170059453D01*
X213167863Y-170060537D01*
X213193186Y-170061925D01*
X213218494Y-170063616D01*
X213243786Y-170065608D01*
X213269060Y-170067898D01*
X213294314Y-170070485D01*
X213319546Y-170073366D01*
X213344754Y-170076539D01*
X213369936Y-170080001D01*
X213395091Y-170083752D01*
X213420217Y-170087789D01*
X213445312Y-170092109D01*
X213470374Y-170096710D01*
X213495400Y-170101591D01*
X213520391Y-170106749D01*
X213545343Y-170112182D01*
X213570254Y-170117888D01*
X213595123Y-170123865D01*
X213619949Y-170130111D01*
X213644728Y-170136623D01*
X213669460Y-170143400D01*
X213694143Y-170150439D01*
X213718774Y-170157739D01*
X213743352Y-170165296D01*
X213767875Y-170173110D01*
X213792341Y-170181177D01*
X213816748Y-170189496D01*
X213841095Y-170198065D01*
X213865379Y-170206881D01*
X213889797Y-170214840D01*
X213914114Y-170223021D01*
X213938330Y-170231423D01*
X213962443Y-170240045D01*
X213986452Y-170248887D01*
X214010355Y-170257945D01*
X214034152Y-170267220D01*
X214057841Y-170276711D01*
X214081422Y-170286415D01*
X214104892Y-170296332D01*
X214128251Y-170306460D01*
X214151497Y-170316799D01*
X214174630Y-170327347D01*
X214197648Y-170338102D01*
X214220549Y-170349065D01*
X214243333Y-170360233D01*
X214265998Y-170371605D01*
X214288544Y-170383181D01*
X214310969Y-170394958D01*
X214333271Y-170406936D01*
X214355450Y-170419113D01*
X214377504Y-170431489D01*
X214399432Y-170444062D01*
X214421233Y-170456830D01*
X214442906Y-170469793D01*
X214464449Y-170482950D01*
X214485862Y-170496299D01*
X214507142Y-170509839D01*
X214528290Y-170523568D01*
X214549303Y-170537487D01*
X214570180Y-170551592D01*
X214590921Y-170565884D01*
X214611524Y-170580361D01*
X214631987Y-170595022D01*
X214652310Y-170609865D01*
X214672491Y-170624890D01*
X214692530Y-170640094D01*
X214712424Y-170655478D01*
X214732173Y-170671039D01*
X214751776Y-170686777D01*
X214771230Y-170702691D01*
X214790536Y-170718778D01*
X214809692Y-170735038D01*
X214828696Y-170751470D01*
X214847548Y-170768073D01*
X214866246Y-170784845D01*
X214884789Y-170801785D01*
X214903176Y-170818891D01*
X214921405Y-170836164D01*
X214939476Y-170853601D01*
X214957387Y-170871201D01*
X214975137Y-170888963D01*
X214992724Y-170906886D01*
X215010148Y-170924969D01*
X215027408Y-170943210D01*
X215044501Y-170961609D01*
X215061427Y-170980163D01*
X215078185Y-170998872D01*
X215094774Y-171017735D01*
X215111191Y-171036751D01*
X215127437Y-171055917D01*
X215143509Y-171075233D01*
X215159408Y-171094699D01*
X215175130Y-171114311D01*
X215190676Y-171134070D01*
X215206043Y-171153975D01*
X215221232Y-171174023D01*
X215236239Y-171194214D01*
X215251066Y-171214546D01*
X215265709Y-171235019D01*
X215280168Y-171255631D01*
X215294442Y-171276381D01*
X215308529Y-171297268D01*
X215322429Y-171318290D01*
X215336140Y-171339446D01*
X215349660Y-171360736D01*
X215362989Y-171382157D01*
X215376126Y-171403709D01*
X215389068Y-171425391D01*
X215401816Y-171447200D01*
X215414367Y-171469137D01*
X215426721Y-171491200D01*
X215438877Y-171513387D01*
X215450832Y-171535698D01*
X215462587Y-171558131D01*
X215474139Y-171580685D01*
X215485487Y-171603359D01*
X215496631Y-171626151D01*
X215507569Y-171649061D01*
X215518300Y-171672087D01*
X215528822Y-171695228D01*
X215539135Y-171718483D01*
X215549237Y-171741850D01*
X215559127Y-171765329D01*
X215568804Y-171788918D01*
X215578266Y-171812615D01*
X215587513Y-171836421D01*
X215596543Y-171860333D01*
X215605355Y-171884351D01*
X215613948Y-171908472D01*
X215622320Y-171932697D01*
X215630470Y-171957023D01*
X215638398Y-171981449D01*
X215647309Y-172005952D01*
X215655970Y-172030518D01*
X215664378Y-172055144D01*
X215672532Y-172079830D01*
X215680429Y-172104572D01*
X215688066Y-172129370D01*
X215695443Y-172154220D01*
X215702556Y-172179122D01*
X215709404Y-172204073D01*
X215715985Y-172229071D01*
X215722296Y-172254115D01*
X215728335Y-172279202D01*
X215734100Y-172304331D01*
X215739589Y-172329499D01*
X215744800Y-172354705D01*
X215749731Y-172379946D01*
X215754379Y-172405222D01*
X215758743Y-172430529D01*
X215762821Y-172455866D01*
X215766609Y-172481231D01*
X215770107Y-172506622D01*
X215773312Y-172532037D01*
X215776221Y-172557474D01*
X215778833Y-172582931D01*
X215781146Y-172608407D01*
X215783158Y-172633899D01*
X215784866Y-172659405D01*
X215786268Y-172684924D01*
X215787362Y-172710453D01*
X215788146Y-172735991D01*
X215788618Y-172761536D01*
X215788776Y-172787085D01*
X215788608Y-172813131D01*
X215788107Y-172839167D01*
X215787276Y-172865190D01*
X215786118Y-172891200D01*
X215784635Y-172917194D01*
X215782832Y-172943170D01*
X215780710Y-172969128D01*
X215778274Y-172995064D01*
X215775526Y-173020978D01*
X215772469Y-173046867D01*
X215769106Y-173072730D01*
X215765440Y-173098566D01*
X215761475Y-173124372D01*
X215757214Y-173150146D01*
X215752658Y-173175888D01*
X215747813Y-173201595D01*
X215742680Y-173227265D01*
X215737263Y-173252897D01*
X215731564Y-173278489D01*
X215725587Y-173304040D01*
X215719336Y-173329547D01*
X215712812Y-173355009D01*
X215707780Y-173379293D01*
X215702534Y-173403499D01*
X215697074Y-173427625D01*
X215691401Y-173451671D01*
X215685516Y-173475635D01*
X215679421Y-173499517D01*
X215673117Y-173523315D01*
X215666604Y-173547029D01*
X215659883Y-173570657D01*
X215652956Y-173594198D01*
X215645824Y-173617652D01*
X215638487Y-173641016D01*
X215630947Y-173664291D01*
X215623205Y-173687475D01*
X215615262Y-173710567D01*
X215607118Y-173733566D01*
X215598776Y-173756470D01*
X215590235Y-173779280D01*
X215581497Y-173801994D01*
X215572564Y-173824610D01*
X215563435Y-173847128D01*
X215554113Y-173869547D01*
X215544598Y-173891865D01*
X215534891Y-173914082D01*
X215524993Y-173936197D01*
X215514906Y-173958208D01*
X215504630Y-173980115D01*
X215494166Y-174001916D01*
X215483516Y-174023610D01*
X215472680Y-174045197D01*
X215461660Y-174066675D01*
X215450457Y-174088043D01*
X215439071Y-174109301D01*
X215427504Y-174130446D01*
X215415756Y-174151479D01*
X215403829Y-174172398D01*
X215391724Y-174193201D01*
X215379442Y-174213889D01*
X215366984Y-174234459D01*
X215354351Y-174254912D01*
X215341544Y-174275245D01*
X215328564Y-174295458D01*
X215315412Y-174315550D01*
X215302089Y-174335519D01*
X215288596Y-174355365D01*
X215274935Y-174375087D01*
X215261106Y-174394683D01*
X215247110Y-174414152D01*
X215232949Y-174433494D01*
X215218623Y-174452707D01*
X215204133Y-174471791D01*
X215189481Y-174490744D01*
X215174667Y-174509565D01*
X215159693Y-174528254D01*
X215144560Y-174546808D01*
X215129269Y-174565228D01*
X215113820Y-174583512D01*
X215098215Y-174601658D01*
X215082454Y-174619667D01*
X215066540Y-174637537D01*
X215050473Y-174655266D01*
X215034253Y-174672854D01*
X215017883Y-174690300D01*
X215001362Y-174707603D01*
X214984693Y-174724761D01*
X214967876Y-174741774D01*
X214950912Y-174758641D01*
X214933802Y-174775360D01*
X214916548Y-174791931D01*
X214899150Y-174808352D01*
X214881609Y-174824622D01*
X214863927Y-174840741D01*
X214846104Y-174856707D01*
X214828141Y-174872519D01*
X214810041Y-174888177D01*
X214791803Y-174903679D01*
X214773428Y-174919024D01*
X214754918Y-174934210D01*
X214736274Y-174949238D01*
X214717497Y-174964106D01*
X214698587Y-174978813D01*
X214679547Y-174993357D01*
X214660376Y-175007739D01*
X214641077Y-175021956D01*
X214621649Y-175036008D01*
X214602094Y-175049894D01*
X214582414Y-175063612D01*
X214562609Y-175077162D01*
X214542679Y-175090542D01*
X214522628Y-175103752D01*
X214502454Y-175116790D01*
X214482160Y-175129656D01*
X214461746Y-175142348D01*
X214441214Y-175154866D01*
X214420564Y-175167207D01*
X214399797Y-175179372D01*
X214378915Y-175191359D01*
X214357919Y-175203167D01*
X214336810Y-175214795D01*
X214315588Y-175226243D01*
X214294255Y-175237508D01*
X214272811Y-175248590D01*
X214251259Y-175259488D01*
X214229598Y-175270201D01*
X214207831Y-175280727D01*
X214185957Y-175291067D01*
X214163978Y-175301218D01*
X214141896Y-175311179D01*
X214119710Y-175320951D01*
X214097423Y-175330530D01*
X214075035Y-175339918D01*
X214052547Y-175349111D01*
X214029960Y-175358111D01*
X214007276Y-175366914D01*
X213984495Y-175375521D01*
X213961619Y-175383930D01*
X213938648Y-175392140D01*
X213915584Y-175400151D01*
X213892427Y-175407960D01*
X213869179Y-175415568D01*
X213845840Y-175422973D01*
X213822413Y-175430173D01*
X213798897Y-175437169D01*
X213775294Y-175443959D01*
X213751604Y-175450541D01*
X213727830Y-175456915D01*
X213703971Y-175463080D01*
X213680030Y-175469035D01*
X213656006Y-175474778D01*
X213631902Y-175480309D01*
X213607717Y-175485626D01*
X213583454Y-175490729D01*
X213559113Y-175495616D01*
X213534696Y-175500287D01*
X213510202Y-175504740D01*
X213485634Y-175508975D01*
X213460993Y-175512989D01*
X213436279Y-175516783D01*
X213411493Y-175520355D01*
X213386637Y-175523705D01*
X213361711Y-175526830D01*
X213336717Y-175529730D01*
X213311656Y-175532405D01*
X213286529Y-175534852D01*
X213261336Y-175537071D01*
X213236079Y-175539061D01*
X213210759Y-175540821D01*
X213185377Y-175542350D01*
X213159934Y-175543646D01*
X213134430Y-175544709D01*
X213108868Y-175545537D01*
X213083248Y-175546131D01*
X213057571Y-175546487D01*
X213031838Y-175546606D01*
X213006722Y-175546493D01*
X212981659Y-175546153D01*
X212956650Y-175545588D01*
X212931696Y-175544799D01*
X212906798Y-175543786D01*
X212881957Y-175542551D01*
X212857174Y-175541094D01*
X212832450Y-175539417D01*
X212807786Y-175537521D01*
X212783182Y-175535406D01*
X212758641Y-175533073D01*
X212734162Y-175530524D01*
X212709747Y-175527760D01*
X212685397Y-175524780D01*
X212661112Y-175521588D01*
X212636894Y-175518182D01*
X212612744Y-175514565D01*
X212588663Y-175510737D01*
X212564651Y-175506699D01*
X212540709Y-175502453D01*
X212516840Y-175497999D01*
X212493042Y-175493338D01*
X212469319Y-175488471D01*
X212445669Y-175483399D01*
X212422096Y-175478124D01*
X212398598Y-175472645D01*
X212375178Y-175466965D01*
X212351837Y-175461083D01*
X212328574Y-175455002D01*
X212305392Y-175448722D01*
X212282292Y-175442243D01*
X212259273Y-175435568D01*
X212236338Y-175428696D01*
X212213487Y-175421629D01*
X212190722Y-175414368D01*
X212168042Y-175406914D01*
X212145449Y-175399268D01*
X212122945Y-175391430D01*
X212100530Y-175383402D01*
X212078205Y-175375185D01*
X212055970Y-175366780D01*
X212033828Y-175358187D01*
X212011779Y-175349408D01*
X211989824Y-175340444D01*
X211967963Y-175331295D01*
X211946199Y-175321962D01*
X211924531Y-175312447D01*
X211902961Y-175302751D01*
X211881490Y-175292874D01*
X211860119Y-175282818D01*
X211838848Y-175272583D01*
X211817680Y-175262170D01*
X211796614Y-175251581D01*
X211775651Y-175240816D01*
X211754794Y-175229876D01*
X211734041Y-175218763D01*
X211713396Y-175207477D01*
X211692858Y-175196019D01*
X211672429Y-175184391D01*
X211652109Y-175172592D01*
X211631899Y-175160625D01*
X211611801Y-175148490D01*
X211591816Y-175136188D01*
X211571944Y-175123720D01*
X211552186Y-175111087D01*
X211532544Y-175098290D01*
X211513017Y-175085330D01*
X211493609Y-175072209D01*
X211474318Y-175058926D01*
X211455147Y-175045483D01*
X211436096Y-175031881D01*
X211417166Y-175018120D01*
X211398358Y-175004203D01*
X211379674Y-174990129D01*
X211361113Y-174975901D01*
X211342678Y-174961518D01*
X211324369Y-174946981D01*
X211306186Y-174932293D01*
X211288132Y-174917453D01*
X211270207Y-174902463D01*
X211252412Y-174887323D01*
X211234747Y-174872035D01*
X211217215Y-174856600D01*
X211199815Y-174841018D01*
X211182549Y-174825290D01*
X211165418Y-174809418D01*
X211148423Y-174793403D01*
X211131564Y-174777245D01*
X211114844Y-174760946D01*
X211098262Y-174744506D01*
X211081819Y-174727926D01*
X211065518Y-174711207D01*
X211049358Y-174694351D01*
X211033340Y-174677358D01*
X211017466Y-174660230D01*
X211001737Y-174642967D01*
X210986153Y-174625569D01*
X210970716Y-174608039D01*
X210955426Y-174590378D01*
X210940284Y-174572585D01*
X210925292Y-174554663D01*
X210910451Y-174536611D01*
X210895760Y-174518432D01*
X210881222Y-174500125D01*
X210866838Y-174481693D01*
X210852607Y-174463135D01*
X210838532Y-174444454D01*
X210824613Y-174425649D01*
X210810852Y-174406723D01*
X210797248Y-174387675D01*
X210783804Y-174368507D01*
X210770519Y-174349220D01*
X210757396Y-174329814D01*
X210744435Y-174310292D01*
X210731637Y-174290653D01*
X210719003Y-174270899D01*
X210706534Y-174251030D01*
X210694231Y-174231048D01*
X210682094Y-174210954D01*
X210670126Y-174190749D01*
X210658327Y-174170433D01*
X210646697Y-174150007D01*
X210635238Y-174129473D01*
X210623951Y-174108832D01*
X210612837Y-174088084D01*
X210601896Y-174067230D01*
X210591131Y-174046272D01*
X210580541Y-174025210D01*
X210570127Y-174004046D01*
X210559891Y-173982780D01*
X210549834Y-173961413D01*
X210539957Y-173939946D01*
X210530259Y-173918381D01*
X210520744Y-173896718D01*
X210511411Y-173874958D01*
X210502261Y-173853103D01*
X210493296Y-173831152D01*
X210484516Y-173809108D01*
X210475923Y-173786971D01*
X210467517Y-173764742D01*
X210459299Y-173742422D01*
X210451271Y-173720012D01*
X210443433Y-173697513D01*
X210435786Y-173674925D01*
X210428332Y-173652251D01*
X210421070Y-173629491D01*
X210414003Y-173606646D01*
X210407131Y-173583716D01*
X210400455Y-173560703D01*
X210393977Y-173537609D01*
X210387696Y-173514433D01*
X210381614Y-173491176D01*
X210375732Y-173467841D01*
X210370052Y-173444427D01*
X210364573Y-173420936D01*
X210359297Y-173397368D01*
X210354225Y-173373725D01*
X210349358Y-173350008D01*
X210344697Y-173326217D01*
X210340243Y-173302354D01*
X210335996Y-173278419D01*
X210331958Y-173254414D01*
X210328130Y-173230339D01*
X210324513Y-173206196D01*
X210321107Y-173181985D01*
X210317914Y-173157707D01*
X210314935Y-173133364D01*
X210312170Y-173108956D01*
X210309621Y-173084485D01*
X210307289Y-173059951D01*
X210305174Y-173035355D01*
X210303277Y-173010698D01*
X210301600Y-172985981D01*
X210300144Y-172961206D01*
X210298908Y-172936373D01*
X210297896Y-172911483D01*
X210297106Y-172886537D01*
X210296541Y-172861536D01*
X210296201Y-172836481D01*
X210296088Y-172811373D01*
X210296207Y-172785693D01*
X210296562Y-172760068D01*
X210297153Y-172734500D01*
X210297979Y-172708989D01*
X210299039Y-172683537D01*
X210300331Y-172658146D01*
X210301854Y-172632814D01*
X210303608Y-172607545D01*
X210305592Y-172582339D01*
X210307804Y-172557196D01*
X210310243Y-172532118D01*
X210312909Y-172507107D01*
X210315800Y-172482162D01*
X210318915Y-172457286D01*
X210322253Y-172432478D01*
X210325814Y-172407741D01*
X210329595Y-172383075D01*
X210333597Y-172358482D01*
X210337818Y-172333961D01*
X210342257Y-172309515D01*
X210346913Y-172285144D01*
X210351784Y-172260850D01*
X210356871Y-172236633D01*
X210362171Y-172212494D01*
X210367684Y-172188435D01*
X210373409Y-172164457D01*
X210379345Y-172140560D01*
X210385490Y-172116746D01*
X210391844Y-172093016D01*
X210398405Y-172069370D01*
X210405173Y-172045810D01*
X210412147Y-172022337D01*
X210419325Y-171998951D01*
X210426706Y-171975655D01*
X210434290Y-171952448D01*
X210442075Y-171929333D01*
X210450060Y-171906309D01*
X210458245Y-171883379D01*
X210466628Y-171860542D01*
X210475208Y-171837801D01*
X210483984Y-171815156D01*
X210492955Y-171792608D01*
X210502120Y-171770158D01*
X210511478Y-171747808D01*
X210521029Y-171725558D01*
X210530770Y-171703409D01*
X210540701Y-171681362D01*
X210550820Y-171659419D01*
X210561128Y-171637581D01*
X210571622Y-171615848D01*
X210582302Y-171594222D01*
X210593167Y-171572703D01*
X210604215Y-171551293D01*
X210615446Y-171529992D01*
X210626858Y-171508803D01*
X210638451Y-171487725D01*
X210650223Y-171466759D01*
X210662174Y-171445908D01*
X210674302Y-171425172D01*
X210686607Y-171404551D01*
X210699086Y-171384048D01*
X210711740Y-171363662D01*
X210724568Y-171343395D01*
X210737567Y-171323249D01*
X210750737Y-171303224D01*
X210764078Y-171283321D01*
X210777587Y-171263541D01*
X210791265Y-171243885D01*
X210805109Y-171224354D01*
X210819120Y-171204950D01*
X210833295Y-171185674D01*
X210847634Y-171166525D01*
X210862136Y-171147506D01*
X210876800Y-171128618D01*
X210891624Y-171109861D01*
X210906608Y-171091237D01*
X210921751Y-171072746D01*
X210937051Y-171054390D01*
X210952508Y-171036169D01*
X210968120Y-171018086D01*
X210983886Y-171000140D01*
X210999806Y-170982333D01*
X211015879Y-170964665D01*
X211032103Y-170947139D01*
X211048477Y-170929754D01*
X211065000Y-170912513D01*
X211081671Y-170895415D01*
X211098490Y-170878463D01*
X211115455Y-170861656D01*
X211132565Y-170844997D01*
X211149819Y-170828486D01*
X211167215Y-170812124D01*
X211184754Y-170795912D01*
X211202434Y-170779852D01*
X211220253Y-170763944D01*
X211238212Y-170748189D01*
X211256308Y-170732589D01*
X211274541Y-170717144D01*
X211292910Y-170701855D01*
X211311413Y-170686724D01*
X211330050Y-170671752D01*
X211348819Y-170656939D01*
X211367720Y-170642287D01*
X211386752Y-170627797D01*
X211405913Y-170613469D01*
X211425202Y-170599305D01*
X211444619Y-170585306D01*
X211464162Y-170571473D01*
X211483830Y-170557807D01*
X211503623Y-170544308D01*
X211523538Y-170530979D01*
X211543576Y-170517819D01*
X211563735Y-170504831D01*
X211584014Y-170492014D01*
X211604413Y-170479371D01*
X211624929Y-170466902D01*
X211645562Y-170454608D01*
X211666311Y-170442490D01*
X211687175Y-170430550D01*
X211708152Y-170418788D01*
X211729243Y-170407205D01*
X211750445Y-170395803D01*
X211771758Y-170384582D01*
X211793180Y-170373544D01*
X211814711Y-170362689D01*
X211836350Y-170352019D01*
X211858095Y-170341534D01*
X211879946Y-170331236D01*
X211901901Y-170321126D01*
X211923960Y-170311204D01*
X211946121Y-170301472D01*
X211968383Y-170291931D01*
X211990746Y-170282582D01*
X212013207Y-170273425D01*
X212035767Y-170264463D01*
X212058425Y-170255696D01*
X212081178Y-170247124D01*
X212104026Y-170238750D01*
X212126969Y-170230573D01*
X212150004Y-170222596D01*
X212173131Y-170214819D01*
X212196349Y-170207243D01*
X212219657Y-170199870D01*
X212243054Y-170192699D01*
X212266539Y-170185733D01*
X212290110Y-170178973D01*
X212313767Y-170172419D01*
X212337509Y-170166072D01*
X212361335Y-170159933D01*
X212385242Y-170154005D01*
X212409232Y-170148286D01*
X212433302Y-170142780D01*
X212457451Y-170137486D01*
X212481679Y-170132406D01*
X212505984Y-170127540D01*
X212530366Y-170122890D01*
X212554822Y-170118457D01*
X212579353Y-170114242D01*
X212603958Y-170110246D01*
X212629437Y-170104806D01*
X212654948Y-170099643D01*
X212680492Y-170094761D01*
X212706065Y-170090165D01*
X212731668Y-170085857D01*
X212757297Y-170081843D01*
X212782952Y-170078126D01*
X212808632Y-170074711D01*
X212834335Y-170071602D01*
X212860059Y-170068802D01*
X212885803Y-170066316D01*
X212911567Y-170064149D01*
X212937347Y-170062303D01*
X212963144Y-170060784D01*
X212988955Y-170059595D01*
X213014779Y-170058741D01*
X213040615Y-170058225D01*
X213066461Y-170058053D01*
G37*
X213066461Y-170058053D02*
X213064900Y-170398600D01*
X213039768Y-170398730D01*
X213014697Y-170399119D01*
X212989688Y-170399766D01*
X212964742Y-170400670D01*
X212939862Y-170401829D01*
X212915048Y-170403242D01*
X212890301Y-170404907D01*
X212865623Y-170406824D01*
X212841015Y-170408992D01*
X212816479Y-170411408D01*
X212792015Y-170414072D01*
X212767625Y-170416982D01*
X212743310Y-170420137D01*
X212719071Y-170423536D01*
X212694910Y-170427178D01*
X212670829Y-170431061D01*
X212646827Y-170435184D01*
X212622907Y-170439545D01*
X212599070Y-170444144D01*
X212575318Y-170448979D01*
X212551650Y-170454049D01*
X212528069Y-170459352D01*
X212504576Y-170464888D01*
X212481173Y-170470655D01*
X212457860Y-170476651D01*
X212434639Y-170482876D01*
X212411510Y-170489328D01*
X212388477Y-170496006D01*
X212365538Y-170502908D01*
X212342697Y-170510034D01*
X212319954Y-170517382D01*
X212297311Y-170524951D01*
X212274768Y-170532739D01*
X212252327Y-170540746D01*
X212229990Y-170548969D01*
X212207757Y-170557408D01*
X212185630Y-170566062D01*
X212163610Y-170574929D01*
X212141699Y-170584007D01*
X212119897Y-170593296D01*
X212098207Y-170602794D01*
X212076628Y-170612500D01*
X212055163Y-170622413D01*
X212033814Y-170632532D01*
X212012580Y-170642854D01*
X211991463Y-170653380D01*
X211970466Y-170664107D01*
X211949588Y-170675034D01*
X211928831Y-170686161D01*
X211908197Y-170697485D01*
X211887687Y-170709006D01*
X211867302Y-170720722D01*
X211847043Y-170732631D01*
X211826912Y-170744734D01*
X211806910Y-170757028D01*
X211787038Y-170769512D01*
X211767297Y-170782185D01*
X211747689Y-170795045D01*
X211728216Y-170808091D01*
X211708877Y-170821323D01*
X211689675Y-170834738D01*
X211670611Y-170848336D01*
X211651686Y-170862115D01*
X211632902Y-170876073D01*
X211614259Y-170890211D01*
X211595760Y-170904525D01*
X211577404Y-170919016D01*
X211559195Y-170933681D01*
X211541132Y-170948520D01*
X211523217Y-170963531D01*
X211505451Y-170978713D01*
X211487836Y-170994065D01*
X211470373Y-171009585D01*
X211453064Y-171025272D01*
X211435909Y-171041125D01*
X211418909Y-171057142D01*
X211402067Y-171073323D01*
X211385383Y-171089666D01*
X211368859Y-171106169D01*
X211352495Y-171122832D01*
X211336294Y-171139652D01*
X211320257Y-171156630D01*
X211304384Y-171173763D01*
X211288677Y-171191051D01*
X211273137Y-171208492D01*
X211257766Y-171226084D01*
X211242565Y-171243827D01*
X211227535Y-171261719D01*
X211212677Y-171279759D01*
X211197993Y-171297945D01*
X211183484Y-171316277D01*
X211169152Y-171334753D01*
X211154997Y-171353372D01*
X211141021Y-171372132D01*
X211127224Y-171391032D01*
X211113610Y-171410072D01*
X211100178Y-171429249D01*
X211086929Y-171448562D01*
X211073866Y-171468011D01*
X211060990Y-171487593D01*
X211048301Y-171507308D01*
X211035802Y-171527155D01*
X211023493Y-171547131D01*
X211011375Y-171567236D01*
X210999450Y-171587469D01*
X210987720Y-171607827D01*
X210976185Y-171628311D01*
X210964847Y-171648918D01*
X210953706Y-171669647D01*
X210942765Y-171690498D01*
X210932025Y-171711468D01*
X210921486Y-171732557D01*
X210911151Y-171753763D01*
X210901020Y-171775085D01*
X210891095Y-171796522D01*
X210881377Y-171818072D01*
X210871867Y-171839734D01*
X210862566Y-171861507D01*
X210853476Y-171883389D01*
X210844599Y-171905380D01*
X210835935Y-171927478D01*
X210827485Y-171949681D01*
X210819252Y-171971989D01*
X210811235Y-171994400D01*
X210803438Y-172016913D01*
X210795859Y-172039527D01*
X210788502Y-172062240D01*
X210781368Y-172085051D01*
X210774457Y-172107958D01*
X210767771Y-172130961D01*
X210761311Y-172154059D01*
X210755078Y-172177249D01*
X210749074Y-172200531D01*
X210743301Y-172223903D01*
X210737758Y-172247365D01*
X210732448Y-172270914D01*
X210727372Y-172294550D01*
X210722531Y-172318271D01*
X210717927Y-172342076D01*
X210713560Y-172365963D01*
X210709432Y-172389932D01*
X210705545Y-172413982D01*
X210701899Y-172438110D01*
X210698495Y-172462315D01*
X210695336Y-172486597D01*
X210692423Y-172510954D01*
X210689756Y-172535385D01*
X210687336Y-172559888D01*
X210685167Y-172584463D01*
X210683247Y-172609107D01*
X210681579Y-172633820D01*
X210680165Y-172658600D01*
X210679005Y-172683447D01*
X210678100Y-172708358D01*
X210677452Y-172733333D01*
X210677062Y-172758370D01*
X210676932Y-172783468D01*
X210677062Y-172808566D01*
X210677452Y-172833603D01*
X210678100Y-172858578D01*
X210679005Y-172883489D01*
X210680165Y-172908336D01*
X210681579Y-172933117D01*
X210683247Y-172957831D01*
X210685167Y-172982476D01*
X210687336Y-173007052D01*
X210689756Y-173031556D01*
X210692423Y-173055988D01*
X210695336Y-173080347D01*
X210698495Y-173104630D01*
X210701899Y-173128837D01*
X210705545Y-173152967D01*
X210709432Y-173177018D01*
X210713560Y-173200989D01*
X210717927Y-173224879D01*
X210722531Y-173248686D01*
X210727372Y-173272409D01*
X210732448Y-173296047D01*
X210737758Y-173319598D01*
X210743301Y-173343062D01*
X210749074Y-173366437D01*
X210755078Y-173389721D01*
X210761311Y-173412914D01*
X210767771Y-173436014D01*
X210774457Y-173459020D01*
X210781368Y-173481931D01*
X210788502Y-173504745D01*
X210795859Y-173527461D01*
X210803438Y-173550078D01*
X210811235Y-173572594D01*
X210819252Y-173595008D01*
X210827485Y-173617320D01*
X210835935Y-173639526D01*
X210844599Y-173661628D01*
X210853476Y-173683622D01*
X210862566Y-173705508D01*
X210871867Y-173727285D01*
X210881377Y-173748951D01*
X210891095Y-173770505D01*
X210901020Y-173791945D01*
X210911151Y-173813271D01*
X210921486Y-173834481D01*
X210932025Y-173855574D01*
X210942765Y-173876549D01*
X210953706Y-173897403D01*
X210964847Y-173918137D01*
X210976185Y-173938748D01*
X210987720Y-173959236D01*
X210999450Y-173979599D01*
X211011375Y-173999836D01*
X211023493Y-174019946D01*
X211035802Y-174039926D01*
X211048301Y-174059777D01*
X211060990Y-174079497D01*
X211073866Y-174099084D01*
X211086929Y-174118537D01*
X211100178Y-174137855D01*
X211113610Y-174157037D01*
X211127224Y-174176081D01*
X211141021Y-174194986D01*
X211154997Y-174213751D01*
X211169152Y-174232375D01*
X211183484Y-174250855D01*
X211197993Y-174269192D01*
X211212677Y-174287383D01*
X211227535Y-174305428D01*
X211242565Y-174323325D01*
X211257766Y-174341073D01*
X211273137Y-174358670D01*
X211288677Y-174376116D01*
X211304384Y-174393408D01*
X211320257Y-174410546D01*
X211336294Y-174427529D01*
X211352495Y-174444355D01*
X211368859Y-174461022D01*
X211385383Y-174477531D01*
X211402067Y-174493878D01*
X211418909Y-174510064D01*
X211435909Y-174526086D01*
X211453064Y-174541944D01*
X211470373Y-174557636D01*
X211487836Y-174573161D01*
X211505451Y-174588517D01*
X211523217Y-174603704D01*
X211541132Y-174618720D01*
X211559195Y-174633564D01*
X211577404Y-174648234D01*
X211595760Y-174662729D01*
X211614259Y-174677049D01*
X211632902Y-174691191D01*
X211651686Y-174705154D01*
X211670611Y-174718938D01*
X211689675Y-174732540D01*
X211708877Y-174745960D01*
X211728216Y-174759197D01*
X211747689Y-174772248D01*
X211767297Y-174785113D01*
X211787038Y-174797790D01*
X211806910Y-174810278D01*
X211826912Y-174822577D01*
X211847043Y-174834684D01*
X211867302Y-174846598D01*
X211887687Y-174858318D01*
X211908197Y-174869843D01*
X211928831Y-174881172D01*
X211949588Y-174892302D01*
X211970466Y-174903234D01*
X211991463Y-174913965D01*
X212012580Y-174924495D01*
X212033814Y-174934821D01*
X212055163Y-174944944D01*
X212076628Y-174954860D01*
X212098207Y-174964570D01*
X212119897Y-174974073D01*
X212141699Y-174983365D01*
X212163610Y-174992447D01*
X212185630Y-175001318D01*
X212207757Y-175009975D01*
X212229990Y-175018417D01*
X212252327Y-175026644D01*
X212274768Y-175034654D01*
X212297311Y-175042445D01*
X212319954Y-175050017D01*
X212342697Y-175057368D01*
X212365538Y-175064497D01*
X212388477Y-175071403D01*
X212411510Y-175078083D01*
X212434639Y-175084538D01*
X212457860Y-175090766D01*
X212481173Y-175096765D01*
X212504576Y-175102534D01*
X212528069Y-175108072D01*
X212551650Y-175113378D01*
X212575318Y-175118450D01*
X212599070Y-175123287D01*
X212622907Y-175127888D01*
X212646827Y-175132252D01*
X212670829Y-175136376D01*
X212694910Y-175140261D01*
X212719071Y-175143904D01*
X212743310Y-175147305D01*
X212767625Y-175150461D01*
X212792015Y-175153373D01*
X212816479Y-175156038D01*
X212841015Y-175158455D01*
X212865623Y-175160624D01*
X212890301Y-175162542D01*
X212915048Y-175164208D01*
X212939862Y-175165622D01*
X212964742Y-175166781D01*
X212989688Y-175167685D01*
X213014697Y-175168332D01*
X213039768Y-175168722D01*
X213064900Y-175168852D01*
X213090033Y-175168722D01*
X213115104Y-175168332D01*
X213140114Y-175167685D01*
X213165059Y-175166781D01*
X213189940Y-175165622D01*
X213214755Y-175164208D01*
X213239503Y-175162542D01*
X213264182Y-175160624D01*
X213288790Y-175158455D01*
X213313328Y-175156038D01*
X213337793Y-175153373D01*
X213362185Y-175150461D01*
X213386501Y-175147305D01*
X213410741Y-175143904D01*
X213434903Y-175140261D01*
X213458987Y-175136376D01*
X213482990Y-175132252D01*
X213506912Y-175127888D01*
X213530751Y-175123287D01*
X213554506Y-175118450D01*
X213578176Y-175113378D01*
X213601759Y-175108072D01*
X213625254Y-175102534D01*
X213648660Y-175096765D01*
X213671976Y-175090766D01*
X213695200Y-175084538D01*
X213718331Y-175078083D01*
X213741367Y-175071403D01*
X213764309Y-175064497D01*
X213787153Y-175057368D01*
X213809899Y-175050017D01*
X213832546Y-175042445D01*
X213855092Y-175034654D01*
X213877536Y-175026644D01*
X213899877Y-175018417D01*
X213922113Y-175009975D01*
X213944243Y-175001318D01*
X213966267Y-174992447D01*
X213988182Y-174983365D01*
X214009987Y-174974073D01*
X214031681Y-174964570D01*
X214053264Y-174954860D01*
X214074732Y-174944944D01*
X214096086Y-174934821D01*
X214117324Y-174924495D01*
X214138444Y-174913965D01*
X214159446Y-174903234D01*
X214180328Y-174892302D01*
X214201089Y-174881172D01*
X214221727Y-174869843D01*
X214242242Y-174858318D01*
X214262631Y-174846598D01*
X214282894Y-174834684D01*
X214303030Y-174822577D01*
X214323037Y-174810278D01*
X214342913Y-174797790D01*
X214362658Y-174785113D01*
X214382271Y-174772248D01*
X214401749Y-174759197D01*
X214421092Y-174745960D01*
X214440299Y-174732540D01*
X214459367Y-174718938D01*
X214478297Y-174705154D01*
X214497086Y-174691191D01*
X214515734Y-174677049D01*
X214534238Y-174662729D01*
X214552598Y-174648234D01*
X214570813Y-174633564D01*
X214588881Y-174618720D01*
X214606801Y-174603704D01*
X214624571Y-174588517D01*
X214642191Y-174573161D01*
X214659658Y-174557636D01*
X214676973Y-174541944D01*
X214694133Y-174526086D01*
X214711137Y-174510064D01*
X214727985Y-174493878D01*
X214744673Y-174477531D01*
X214761203Y-174461022D01*
X214777571Y-174444355D01*
X214793777Y-174427529D01*
X214809820Y-174410546D01*
X214825698Y-174393408D01*
X214841409Y-174376116D01*
X214856954Y-174358670D01*
X214872330Y-174341073D01*
X214887536Y-174323325D01*
X214902571Y-174305428D01*
X214917433Y-174287383D01*
X214932122Y-174269192D01*
X214946636Y-174250855D01*
X214960973Y-174232375D01*
X214975133Y-174213751D01*
X214989114Y-174194986D01*
X215002915Y-174176081D01*
X215016534Y-174157037D01*
X215029971Y-174137855D01*
X215043224Y-174118537D01*
X215056291Y-174099084D01*
X215069172Y-174079497D01*
X215081866Y-174059777D01*
X215094370Y-174039926D01*
X215106683Y-174019946D01*
X215118805Y-173999836D01*
X215130734Y-173979599D01*
X215142469Y-173959236D01*
X215154009Y-173938748D01*
X215165351Y-173918137D01*
X215176496Y-173897403D01*
X215187441Y-173876549D01*
X215198185Y-173855574D01*
X215208728Y-173834481D01*
X215219067Y-173813271D01*
X215229202Y-173791945D01*
X215239131Y-173770505D01*
X215248853Y-173748951D01*
X215258367Y-173727285D01*
X215267671Y-173705508D01*
X215276765Y-173683622D01*
X215285646Y-173661628D01*
X215294314Y-173639526D01*
X215302767Y-173617320D01*
X215311003Y-173595008D01*
X215319023Y-173572594D01*
X215326824Y-173550078D01*
X215334405Y-173527461D01*
X215341766Y-173504745D01*
X215348903Y-173481931D01*
X215355817Y-173459020D01*
X215362506Y-173436014D01*
X215368969Y-173412914D01*
X215375204Y-173389721D01*
X215381211Y-173366437D01*
X215386987Y-173343062D01*
X215392532Y-173319598D01*
X215397844Y-173296047D01*
X215402922Y-173272409D01*
X215407765Y-173248686D01*
X215412372Y-173224879D01*
X215416740Y-173200989D01*
X215420870Y-173177018D01*
X215424759Y-173152967D01*
X215428407Y-173128837D01*
X215431812Y-173104630D01*
X215434972Y-173080347D01*
X215437888Y-173055988D01*
X215440556Y-173031556D01*
X215442976Y-173007052D01*
X215445147Y-172982476D01*
X215447067Y-172957831D01*
X215448736Y-172933117D01*
X215450151Y-172908336D01*
X215451312Y-172883489D01*
X215452217Y-172858578D01*
X215452865Y-172833603D01*
X215453255Y-172808566D01*
X215453385Y-172783468D01*
X215453255Y-172758370D01*
X215452865Y-172733333D01*
X215452217Y-172708358D01*
X215451312Y-172683447D01*
X215450151Y-172658600D01*
X215448736Y-172633820D01*
X215447067Y-172609107D01*
X215445147Y-172584463D01*
X215442976Y-172559888D01*
X215440556Y-172535385D01*
X215437888Y-172510954D01*
X215434972Y-172486597D01*
X215431812Y-172462315D01*
X215428407Y-172438110D01*
X215424759Y-172413982D01*
X215420870Y-172389932D01*
X215416740Y-172365963D01*
X215412372Y-172342076D01*
X215407765Y-172318271D01*
X215402922Y-172294550D01*
X215397844Y-172270914D01*
X215392532Y-172247365D01*
X215386987Y-172223903D01*
X215381211Y-172200531D01*
X215375204Y-172177249D01*
X215368969Y-172154059D01*
X215362506Y-172130961D01*
X215355817Y-172107958D01*
X215348903Y-172085051D01*
X215341766Y-172062240D01*
X215334405Y-172039527D01*
X215326824Y-172016913D01*
X215319023Y-171994400D01*
X215311003Y-171971989D01*
X215302767Y-171949681D01*
X215294314Y-171927478D01*
X215285646Y-171905380D01*
X215276765Y-171883389D01*
X215267671Y-171861507D01*
X215258367Y-171839734D01*
X215248853Y-171818072D01*
X215239131Y-171796522D01*
X215229202Y-171775085D01*
X215219067Y-171753763D01*
X215208728Y-171732557D01*
X215198185Y-171711468D01*
X215187441Y-171690498D01*
X215176496Y-171669647D01*
X215165351Y-171648918D01*
X215154009Y-171628311D01*
X215142469Y-171607827D01*
X215130734Y-171587469D01*
X215118805Y-171567236D01*
X215106683Y-171547131D01*
X215094370Y-171527155D01*
X215081866Y-171507308D01*
X215069172Y-171487593D01*
X215056291Y-171468011D01*
X215043224Y-171448562D01*
X215029971Y-171429249D01*
X215016534Y-171410072D01*
X215002915Y-171391032D01*
X214989114Y-171372132D01*
X214975133Y-171353372D01*
X214960973Y-171334753D01*
X214946636Y-171316277D01*
X214932122Y-171297945D01*
X214917433Y-171279759D01*
X214902571Y-171261719D01*
X214887536Y-171243827D01*
X214872330Y-171226084D01*
X214856954Y-171208492D01*
X214841409Y-171191051D01*
X214825698Y-171173763D01*
X214809820Y-171156630D01*
X214793777Y-171139652D01*
X214777571Y-171122832D01*
X214761203Y-171106169D01*
X214744673Y-171089666D01*
X214727985Y-171073323D01*
X214711137Y-171057142D01*
X214694133Y-171041125D01*
X214676973Y-171025272D01*
X214659658Y-171009585D01*
X214642191Y-170994065D01*
X214624571Y-170978713D01*
X214606801Y-170963531D01*
X214588881Y-170948520D01*
X214570813Y-170933681D01*
X214552598Y-170919016D01*
X214534238Y-170904525D01*
X214515734Y-170890211D01*
X214497086Y-170876073D01*
X214478297Y-170862115D01*
X214459367Y-170848336D01*
X214440299Y-170834738D01*
X214421092Y-170821323D01*
X214401749Y-170808091D01*
X214382271Y-170795045D01*
X214362658Y-170782185D01*
X214342913Y-170769512D01*
X214323037Y-170757028D01*
X214303030Y-170744734D01*
X214282894Y-170732631D01*
X214262631Y-170720722D01*
X214242242Y-170709006D01*
X214221727Y-170697485D01*
X214201089Y-170686161D01*
X214180328Y-170675034D01*
X214159446Y-170664107D01*
X214138444Y-170653380D01*
X214117324Y-170642854D01*
X214096086Y-170632532D01*
X214074732Y-170622413D01*
X214053264Y-170612500D01*
X214031681Y-170602794D01*
X214009987Y-170593296D01*
X213988182Y-170584007D01*
X213966267Y-170574929D01*
X213944243Y-170566062D01*
X213922113Y-170557408D01*
X213899877Y-170548969D01*
X213877536Y-170540746D01*
X213855092Y-170532739D01*
X213832546Y-170524951D01*
X213809899Y-170517382D01*
X213787153Y-170510034D01*
X213764309Y-170502908D01*
X213741367Y-170496006D01*
X213718331Y-170489328D01*
X213695200Y-170482876D01*
X213671976Y-170476651D01*
X213648660Y-170470655D01*
X213625254Y-170464888D01*
X213601759Y-170459352D01*
X213578176Y-170454049D01*
X213554506Y-170448979D01*
X213530751Y-170444144D01*
X213506912Y-170439545D01*
X213482990Y-170435184D01*
X213458987Y-170431061D01*
X213434903Y-170427178D01*
X213410741Y-170423536D01*
X213386501Y-170420137D01*
X213362185Y-170416982D01*
X213337793Y-170414072D01*
X213313328Y-170411408D01*
X213288790Y-170408992D01*
X213264182Y-170406824D01*
X213239503Y-170404907D01*
X213214755Y-170403242D01*
X213189940Y-170401829D01*
X213165059Y-170400670D01*
X213140114Y-170399766D01*
X213115104Y-170399119D01*
X213090033Y-170398730D01*
X213064900Y-170398600D01*
X213066461Y-170058053D01*
X213091824Y-170058209D01*
X213117180Y-170058677D01*
X213142527Y-170059453D01*
X213167863Y-170060537D01*
X213193186Y-170061925D01*
X213218494Y-170063616D01*
X213243786Y-170065608D01*
X213269060Y-170067898D01*
X213294314Y-170070485D01*
X213319546Y-170073366D01*
X213344754Y-170076539D01*
X213369936Y-170080001D01*
X213395091Y-170083752D01*
X213420217Y-170087789D01*
X213445312Y-170092109D01*
X213470374Y-170096710D01*
X213495400Y-170101591D01*
X213520391Y-170106749D01*
X213545343Y-170112182D01*
X213570254Y-170117888D01*
X213595123Y-170123865D01*
X213619949Y-170130111D01*
X213644728Y-170136623D01*
X213669460Y-170143400D01*
X213694143Y-170150439D01*
X213718774Y-170157739D01*
X213743352Y-170165296D01*
X213767875Y-170173110D01*
X213792341Y-170181177D01*
X213816748Y-170189496D01*
X213841095Y-170198065D01*
X213865379Y-170206881D01*
X213889797Y-170214840D01*
X213914114Y-170223021D01*
X213938330Y-170231423D01*
X213962443Y-170240045D01*
X213986452Y-170248887D01*
X214010355Y-170257945D01*
X214034152Y-170267220D01*
X214057841Y-170276711D01*
X214081422Y-170286415D01*
X214104892Y-170296332D01*
X214128251Y-170306460D01*
X214151497Y-170316799D01*
X214174630Y-170327347D01*
X214197648Y-170338102D01*
X214220549Y-170349065D01*
X214243333Y-170360233D01*
X214265998Y-170371605D01*
X214288544Y-170383181D01*
X214310969Y-170394958D01*
X214333271Y-170406936D01*
X214355450Y-170419113D01*
X214377504Y-170431489D01*
X214399432Y-170444062D01*
X214421233Y-170456830D01*
X214442906Y-170469793D01*
X214464449Y-170482950D01*
X214485862Y-170496299D01*
X214507142Y-170509839D01*
X214528290Y-170523568D01*
X214549303Y-170537487D01*
X214570180Y-170551592D01*
X214590921Y-170565884D01*
X214611524Y-170580361D01*
X214631987Y-170595022D01*
X214652310Y-170609865D01*
X214672491Y-170624890D01*
X214692530Y-170640094D01*
X214712424Y-170655478D01*
X214732173Y-170671039D01*
X214751776Y-170686777D01*
X214771230Y-170702691D01*
X214790536Y-170718778D01*
X214809692Y-170735038D01*
X214828696Y-170751470D01*
X214847548Y-170768073D01*
X214866246Y-170784845D01*
X214884789Y-170801785D01*
X214903176Y-170818891D01*
X214921405Y-170836164D01*
X214939476Y-170853601D01*
X214957387Y-170871201D01*
X214975137Y-170888963D01*
X214992724Y-170906886D01*
X215010148Y-170924969D01*
X215027408Y-170943210D01*
X215044501Y-170961609D01*
X215061427Y-170980163D01*
X215078185Y-170998872D01*
X215094774Y-171017735D01*
X215111191Y-171036751D01*
X215127437Y-171055917D01*
X215143509Y-171075233D01*
X215159408Y-171094699D01*
X215175130Y-171114311D01*
X215190676Y-171134070D01*
X215206043Y-171153975D01*
X215221232Y-171174023D01*
X215236239Y-171194214D01*
X215251066Y-171214546D01*
X215265709Y-171235019D01*
X215280168Y-171255631D01*
X215294442Y-171276381D01*
X215308529Y-171297268D01*
X215322429Y-171318290D01*
X215336140Y-171339446D01*
X215349660Y-171360736D01*
X215362989Y-171382157D01*
X215376126Y-171403709D01*
X215389068Y-171425391D01*
X215401816Y-171447200D01*
X215414367Y-171469137D01*
X215426721Y-171491200D01*
X215438877Y-171513387D01*
X215450832Y-171535698D01*
X215462587Y-171558131D01*
X215474139Y-171580685D01*
X215485487Y-171603359D01*
X215496631Y-171626151D01*
X215507569Y-171649061D01*
X215518300Y-171672087D01*
X215528822Y-171695228D01*
X215539135Y-171718483D01*
X215549237Y-171741850D01*
X215559127Y-171765329D01*
X215568804Y-171788918D01*
X215578266Y-171812615D01*
X215587513Y-171836421D01*
X215596543Y-171860333D01*
X215605355Y-171884351D01*
X215613948Y-171908472D01*
X215622320Y-171932697D01*
X215630470Y-171957023D01*
X215638398Y-171981449D01*
X215647309Y-172005952D01*
X215655970Y-172030518D01*
X215664378Y-172055144D01*
X215672532Y-172079830D01*
X215680429Y-172104572D01*
X215688066Y-172129370D01*
X215695443Y-172154220D01*
X215702556Y-172179122D01*
X215709404Y-172204073D01*
X215715985Y-172229071D01*
X215722296Y-172254115D01*
X215728335Y-172279202D01*
X215734100Y-172304331D01*
X215739589Y-172329499D01*
X215744800Y-172354705D01*
X215749731Y-172379946D01*
X215754379Y-172405222D01*
X215758743Y-172430529D01*
X215762821Y-172455866D01*
X215766609Y-172481231D01*
X215770107Y-172506622D01*
X215773312Y-172532037D01*
X215776221Y-172557474D01*
X215778833Y-172582931D01*
X215781146Y-172608407D01*
X215783158Y-172633899D01*
X215784866Y-172659405D01*
X215786268Y-172684924D01*
X215787362Y-172710453D01*
X215788146Y-172735991D01*
X215788618Y-172761536D01*
X215788776Y-172787085D01*
X215788608Y-172813131D01*
X215788107Y-172839167D01*
X215787276Y-172865190D01*
X215786118Y-172891200D01*
X215784635Y-172917194D01*
X215782832Y-172943170D01*
X215780710Y-172969128D01*
X215778274Y-172995064D01*
X215775526Y-173020978D01*
X215772469Y-173046867D01*
X215769106Y-173072730D01*
X215765440Y-173098566D01*
X215761475Y-173124372D01*
X215757214Y-173150146D01*
X215752658Y-173175888D01*
X215747813Y-173201595D01*
X215742680Y-173227265D01*
X215737263Y-173252897D01*
X215731564Y-173278489D01*
X215725587Y-173304040D01*
X215719336Y-173329547D01*
X215712812Y-173355009D01*
X215707780Y-173379293D01*
X215702534Y-173403499D01*
X215697074Y-173427625D01*
X215691401Y-173451671D01*
X215685516Y-173475635D01*
X215679421Y-173499517D01*
X215673117Y-173523315D01*
X215666604Y-173547029D01*
X215659883Y-173570657D01*
X215652956Y-173594198D01*
X215645824Y-173617652D01*
X215638487Y-173641016D01*
X215630947Y-173664291D01*
X215623205Y-173687475D01*
X215615262Y-173710567D01*
X215607118Y-173733566D01*
X215598776Y-173756470D01*
X215590235Y-173779280D01*
X215581497Y-173801994D01*
X215572564Y-173824610D01*
X215563435Y-173847128D01*
X215554113Y-173869547D01*
X215544598Y-173891865D01*
X215534891Y-173914082D01*
X215524993Y-173936197D01*
X215514906Y-173958208D01*
X215504630Y-173980115D01*
X215494166Y-174001916D01*
X215483516Y-174023610D01*
X215472680Y-174045197D01*
X215461660Y-174066675D01*
X215450457Y-174088043D01*
X215439071Y-174109301D01*
X215427504Y-174130446D01*
X215415756Y-174151479D01*
X215403829Y-174172398D01*
X215391724Y-174193201D01*
X215379442Y-174213889D01*
X215366984Y-174234459D01*
X215354351Y-174254912D01*
X215341544Y-174275245D01*
X215328564Y-174295458D01*
X215315412Y-174315550D01*
X215302089Y-174335519D01*
X215288596Y-174355365D01*
X215274935Y-174375087D01*
X215261106Y-174394683D01*
X215247110Y-174414152D01*
X215232949Y-174433494D01*
X215218623Y-174452707D01*
X215204133Y-174471791D01*
X215189481Y-174490744D01*
X215174667Y-174509565D01*
X215159693Y-174528254D01*
X215144560Y-174546808D01*
X215129269Y-174565228D01*
X215113820Y-174583512D01*
X215098215Y-174601658D01*
X215082454Y-174619667D01*
X215066540Y-174637537D01*
X215050473Y-174655266D01*
X215034253Y-174672854D01*
X215017883Y-174690300D01*
X215001362Y-174707603D01*
X214984693Y-174724761D01*
X214967876Y-174741774D01*
X214950912Y-174758641D01*
X214933802Y-174775360D01*
X214916548Y-174791931D01*
X214899150Y-174808352D01*
X214881609Y-174824622D01*
X214863927Y-174840741D01*
X214846104Y-174856707D01*
X214828141Y-174872519D01*
X214810041Y-174888177D01*
X214791803Y-174903679D01*
X214773428Y-174919024D01*
X214754918Y-174934210D01*
X214736274Y-174949238D01*
X214717497Y-174964106D01*
X214698587Y-174978813D01*
X214679547Y-174993357D01*
X214660376Y-175007739D01*
X214641077Y-175021956D01*
X214621649Y-175036008D01*
X214602094Y-175049894D01*
X214582414Y-175063612D01*
X214562609Y-175077162D01*
X214542679Y-175090542D01*
X214522628Y-175103752D01*
X214502454Y-175116790D01*
X214482160Y-175129656D01*
X214461746Y-175142348D01*
X214441214Y-175154866D01*
X214420564Y-175167207D01*
X214399797Y-175179372D01*
X214378915Y-175191359D01*
X214357919Y-175203167D01*
X214336810Y-175214795D01*
X214315588Y-175226243D01*
X214294255Y-175237508D01*
X214272811Y-175248590D01*
X214251259Y-175259488D01*
X214229598Y-175270201D01*
X214207831Y-175280727D01*
X214185957Y-175291067D01*
X214163978Y-175301218D01*
X214141896Y-175311179D01*
X214119710Y-175320951D01*
X214097423Y-175330530D01*
X214075035Y-175339918D01*
X214052547Y-175349111D01*
X214029960Y-175358111D01*
X214007276Y-175366914D01*
X213984495Y-175375521D01*
X213961619Y-175383930D01*
X213938648Y-175392140D01*
X213915584Y-175400151D01*
X213892427Y-175407960D01*
X213869179Y-175415568D01*
X213845840Y-175422973D01*
X213822413Y-175430173D01*
X213798897Y-175437169D01*
X213775294Y-175443959D01*
X213751604Y-175450541D01*
X213727830Y-175456915D01*
X213703971Y-175463080D01*
X213680030Y-175469035D01*
X213656006Y-175474778D01*
X213631902Y-175480309D01*
X213607717Y-175485626D01*
X213583454Y-175490729D01*
X213559113Y-175495616D01*
X213534696Y-175500287D01*
X213510202Y-175504740D01*
X213485634Y-175508975D01*
X213460993Y-175512989D01*
X213436279Y-175516783D01*
X213411493Y-175520355D01*
X213386637Y-175523705D01*
X213361711Y-175526830D01*
X213336717Y-175529730D01*
X213311656Y-175532405D01*
X213286529Y-175534852D01*
X213261336Y-175537071D01*
X213236079Y-175539061D01*
X213210759Y-175540821D01*
X213185377Y-175542350D01*
X213159934Y-175543646D01*
X213134430Y-175544709D01*
X213108868Y-175545537D01*
X213083248Y-175546131D01*
X213057571Y-175546487D01*
X213031838Y-175546606D01*
X213006722Y-175546493D01*
X212981659Y-175546153D01*
X212956650Y-175545588D01*
X212931696Y-175544799D01*
X212906798Y-175543786D01*
X212881957Y-175542551D01*
X212857174Y-175541094D01*
X212832450Y-175539417D01*
X212807786Y-175537521D01*
X212783182Y-175535406D01*
X212758641Y-175533073D01*
X212734162Y-175530524D01*
X212709747Y-175527760D01*
X212685397Y-175524780D01*
X212661112Y-175521588D01*
X212636894Y-175518182D01*
X212612744Y-175514565D01*
X212588663Y-175510737D01*
X212564651Y-175506699D01*
X212540709Y-175502453D01*
X212516840Y-175497999D01*
X212493042Y-175493338D01*
X212469319Y-175488471D01*
X212445669Y-175483399D01*
X212422096Y-175478124D01*
X212398598Y-175472645D01*
X212375178Y-175466965D01*
X212351837Y-175461083D01*
X212328574Y-175455002D01*
X212305392Y-175448722D01*
X212282292Y-175442243D01*
X212259273Y-175435568D01*
X212236338Y-175428696D01*
X212213487Y-175421629D01*
X212190722Y-175414368D01*
X212168042Y-175406914D01*
X212145449Y-175399268D01*
X212122945Y-175391430D01*
X212100530Y-175383402D01*
X212078205Y-175375185D01*
X212055970Y-175366780D01*
X212033828Y-175358187D01*
X212011779Y-175349408D01*
X211989824Y-175340444D01*
X211967963Y-175331295D01*
X211946199Y-175321962D01*
X211924531Y-175312447D01*
X211902961Y-175302751D01*
X211881490Y-175292874D01*
X211860119Y-175282818D01*
X211838848Y-175272583D01*
X211817680Y-175262170D01*
X211796614Y-175251581D01*
X211775651Y-175240816D01*
X211754794Y-175229876D01*
X211734041Y-175218763D01*
X211713396Y-175207477D01*
X211692858Y-175196019D01*
X211672429Y-175184391D01*
X211652109Y-175172592D01*
X211631899Y-175160625D01*
X211611801Y-175148490D01*
X211591816Y-175136188D01*
X211571944Y-175123720D01*
X211552186Y-175111087D01*
X211532544Y-175098290D01*
X211513017Y-175085330D01*
X211493609Y-175072209D01*
X211474318Y-175058926D01*
X211455147Y-175045483D01*
X211436096Y-175031881D01*
X211417166Y-175018120D01*
X211398358Y-175004203D01*
X211379674Y-174990129D01*
X211361113Y-174975901D01*
X211342678Y-174961518D01*
X211324369Y-174946981D01*
X211306186Y-174932293D01*
X211288132Y-174917453D01*
X211270207Y-174902463D01*
X211252412Y-174887323D01*
X211234747Y-174872035D01*
X211217215Y-174856600D01*
X211199815Y-174841018D01*
X211182549Y-174825290D01*
X211165418Y-174809418D01*
X211148423Y-174793403D01*
X211131564Y-174777245D01*
X211114844Y-174760946D01*
X211098262Y-174744506D01*
X211081819Y-174727926D01*
X211065518Y-174711207D01*
X211049358Y-174694351D01*
X211033340Y-174677358D01*
X211017466Y-174660230D01*
X211001737Y-174642967D01*
X210986153Y-174625569D01*
X210970716Y-174608039D01*
X210955426Y-174590378D01*
X210940284Y-174572585D01*
X210925292Y-174554663D01*
X210910451Y-174536611D01*
X210895760Y-174518432D01*
X210881222Y-174500125D01*
X210866838Y-174481693D01*
X210852607Y-174463135D01*
X210838532Y-174444454D01*
X210824613Y-174425649D01*
X210810852Y-174406723D01*
X210797248Y-174387675D01*
X210783804Y-174368507D01*
X210770519Y-174349220D01*
X210757396Y-174329814D01*
X210744435Y-174310292D01*
X210731637Y-174290653D01*
X210719003Y-174270899D01*
X210706534Y-174251030D01*
X210694231Y-174231048D01*
X210682094Y-174210954D01*
X210670126Y-174190749D01*
X210658327Y-174170433D01*
X210646697Y-174150007D01*
X210635238Y-174129473D01*
X210623951Y-174108832D01*
X210612837Y-174088084D01*
X210601896Y-174067230D01*
X210591131Y-174046272D01*
X210580541Y-174025210D01*
X210570127Y-174004046D01*
X210559891Y-173982780D01*
X210549834Y-173961413D01*
X210539957Y-173939946D01*
X210530259Y-173918381D01*
X210520744Y-173896718D01*
X210511411Y-173874958D01*
X210502261Y-173853103D01*
X210493296Y-173831152D01*
X210484516Y-173809108D01*
X210475923Y-173786971D01*
X210467517Y-173764742D01*
X210459299Y-173742422D01*
X210451271Y-173720012D01*
X210443433Y-173697513D01*
X210435786Y-173674925D01*
X210428332Y-173652251D01*
X210421070Y-173629491D01*
X210414003Y-173606646D01*
X210407131Y-173583716D01*
X210400455Y-173560703D01*
X210393977Y-173537609D01*
X210387696Y-173514433D01*
X210381614Y-173491176D01*
X210375732Y-173467841D01*
X210370052Y-173444427D01*
X210364573Y-173420936D01*
X210359297Y-173397368D01*
X210354225Y-173373725D01*
X210349358Y-173350008D01*
X210344697Y-173326217D01*
X210340243Y-173302354D01*
X210335996Y-173278419D01*
X210331958Y-173254414D01*
X210328130Y-173230339D01*
X210324513Y-173206196D01*
X210321107Y-173181985D01*
X210317914Y-173157707D01*
X210314935Y-173133364D01*
X210312170Y-173108956D01*
X210309621Y-173084485D01*
X210307289Y-173059951D01*
X210305174Y-173035355D01*
X210303277Y-173010698D01*
X210301600Y-172985981D01*
X210300144Y-172961206D01*
X210298908Y-172936373D01*
X210297896Y-172911483D01*
X210297106Y-172886537D01*
X210296541Y-172861536D01*
X210296201Y-172836481D01*
X210296088Y-172811373D01*
X210296207Y-172785693D01*
X210296562Y-172760068D01*
X210297153Y-172734500D01*
X210297979Y-172708989D01*
X210299039Y-172683537D01*
X210300331Y-172658146D01*
X210301854Y-172632814D01*
X210303608Y-172607545D01*
X210305592Y-172582339D01*
X210307804Y-172557196D01*
X210310243Y-172532118D01*
X210312909Y-172507107D01*
X210315800Y-172482162D01*
X210318915Y-172457286D01*
X210322253Y-172432478D01*
X210325814Y-172407741D01*
X210329595Y-172383075D01*
X210333597Y-172358482D01*
X210337818Y-172333961D01*
X210342257Y-172309515D01*
X210346913Y-172285144D01*
X210351784Y-172260850D01*
X210356871Y-172236633D01*
X210362171Y-172212494D01*
X210367684Y-172188435D01*
X210373409Y-172164457D01*
X210379345Y-172140560D01*
X210385490Y-172116746D01*
X210391844Y-172093016D01*
X210398405Y-172069370D01*
X210405173Y-172045810D01*
X210412147Y-172022337D01*
X210419325Y-171998951D01*
X210426706Y-171975655D01*
X210434290Y-171952448D01*
X210442075Y-171929333D01*
X210450060Y-171906309D01*
X210458245Y-171883379D01*
X210466628Y-171860542D01*
X210475208Y-171837801D01*
X210483984Y-171815156D01*
X210492955Y-171792608D01*
X210502120Y-171770158D01*
X210511478Y-171747808D01*
X210521029Y-171725558D01*
X210530770Y-171703409D01*
X210540701Y-171681362D01*
X210550820Y-171659419D01*
X210561128Y-171637581D01*
X210571622Y-171615848D01*
X210582302Y-171594222D01*
X210593167Y-171572703D01*
X210604215Y-171551293D01*
X210615446Y-171529992D01*
X210626858Y-171508803D01*
X210638451Y-171487725D01*
X210650223Y-171466759D01*
X210662174Y-171445908D01*
X210674302Y-171425172D01*
X210686607Y-171404551D01*
X210699086Y-171384048D01*
X210711740Y-171363662D01*
X210724568Y-171343395D01*
X210737567Y-171323249D01*
X210750737Y-171303224D01*
X210764078Y-171283321D01*
X210777587Y-171263541D01*
X210791265Y-171243885D01*
X210805109Y-171224354D01*
X210819120Y-171204950D01*
X210833295Y-171185674D01*
X210847634Y-171166525D01*
X210862136Y-171147506D01*
X210876800Y-171128618D01*
X210891624Y-171109861D01*
X210906608Y-171091237D01*
X210921751Y-171072746D01*
X210937051Y-171054390D01*
X210952508Y-171036169D01*
X210968120Y-171018086D01*
X210983886Y-171000140D01*
X210999806Y-170982333D01*
X211015879Y-170964665D01*
X211032103Y-170947139D01*
X211048477Y-170929754D01*
X211065000Y-170912513D01*
X211081671Y-170895415D01*
X211098490Y-170878463D01*
X211115455Y-170861656D01*
X211132565Y-170844997D01*
X211149819Y-170828486D01*
X211167215Y-170812124D01*
X211184754Y-170795912D01*
X211202434Y-170779852D01*
X211220253Y-170763944D01*
X211238212Y-170748189D01*
X211256308Y-170732589D01*
X211274541Y-170717144D01*
X211292910Y-170701855D01*
X211311413Y-170686724D01*
X211330050Y-170671752D01*
X211348819Y-170656939D01*
X211367720Y-170642287D01*
X211386752Y-170627797D01*
X211405913Y-170613469D01*
X211425202Y-170599305D01*
X211444619Y-170585306D01*
X211464162Y-170571473D01*
X211483830Y-170557807D01*
X211503623Y-170544308D01*
X211523538Y-170530979D01*
X211543576Y-170517819D01*
X211563735Y-170504831D01*
X211584014Y-170492014D01*
X211604413Y-170479371D01*
X211624929Y-170466902D01*
X211645562Y-170454608D01*
X211666311Y-170442490D01*
X211687175Y-170430550D01*
X211708152Y-170418788D01*
X211729243Y-170407205D01*
X211750445Y-170395803D01*
X211771758Y-170384582D01*
X211793180Y-170373544D01*
X211814711Y-170362689D01*
X211836350Y-170352019D01*
X211858095Y-170341534D01*
X211879946Y-170331236D01*
X211901901Y-170321126D01*
X211923960Y-170311204D01*
X211946121Y-170301472D01*
X211968383Y-170291931D01*
X211990746Y-170282582D01*
X212013207Y-170273425D01*
X212035767Y-170264463D01*
X212058425Y-170255696D01*
X212081178Y-170247124D01*
X212104026Y-170238750D01*
X212126969Y-170230573D01*
X212150004Y-170222596D01*
X212173131Y-170214819D01*
X212196349Y-170207243D01*
X212219657Y-170199870D01*
X212243054Y-170192699D01*
X212266539Y-170185733D01*
X212290110Y-170178973D01*
X212313767Y-170172419D01*
X212337509Y-170166072D01*
X212361335Y-170159933D01*
X212385242Y-170154005D01*
X212409232Y-170148286D01*
X212433302Y-170142780D01*
X212457451Y-170137486D01*
X212481679Y-170132406D01*
X212505984Y-170127540D01*
X212530366Y-170122890D01*
X212554822Y-170118457D01*
X212579353Y-170114242D01*
X212603958Y-170110246D01*
X212629437Y-170104806D01*
X212654948Y-170099643D01*
X212680492Y-170094761D01*
X212706065Y-170090165D01*
X212731668Y-170085857D01*
X212757297Y-170081843D01*
X212782952Y-170078126D01*
X212808632Y-170074711D01*
X212834335Y-170071602D01*
X212860059Y-170068802D01*
X212885803Y-170066316D01*
X212911567Y-170064149D01*
X212937347Y-170062303D01*
X212963144Y-170060784D01*
X212988955Y-170059595D01*
X213014779Y-170058741D01*
X213040615Y-170058225D01*
X213066461Y-170058053D01*
G36*
X214853211Y-167103997D02*
G01*
X214852246Y-167127871D01*
X214849401Y-167151211D01*
X214844750Y-167173943D01*
X214838369Y-167195992D01*
X214830333Y-167217284D01*
X214820716Y-167237742D01*
X214809594Y-167257294D01*
X214797040Y-167275864D01*
X214783131Y-167293377D01*
X214767941Y-167309759D01*
X214751545Y-167324936D01*
X214734017Y-167338832D01*
X214715433Y-167351373D01*
X214695868Y-167362484D01*
X214675396Y-167372090D01*
X214654093Y-167380117D01*
X214632033Y-167386491D01*
X214609291Y-167391136D01*
X214585942Y-167393977D01*
X214562061Y-167394941D01*
X214538180Y-167393977D01*
X214514832Y-167391136D01*
X214492090Y-167386491D01*
X214470030Y-167380117D01*
X214448726Y-167372090D01*
X214428255Y-167362484D01*
X214408689Y-167351373D01*
X214390105Y-167338832D01*
X214372578Y-167324936D01*
X214356182Y-167309759D01*
X214340991Y-167293377D01*
X214327082Y-167275864D01*
X214314529Y-167257294D01*
X214303406Y-167237742D01*
X214293789Y-167217284D01*
X214285753Y-167195992D01*
X214279372Y-167173943D01*
X214274722Y-167151211D01*
X214271876Y-167127871D01*
X214270911Y-167103997D01*
X214271876Y-167080140D01*
X214274722Y-167056811D01*
X214279372Y-167034086D01*
X214285753Y-167012039D01*
X214293789Y-166990746D01*
X214303406Y-166970282D01*
X214314529Y-166950722D01*
X214327082Y-166932141D01*
X214340991Y-166914614D01*
X214356182Y-166898217D01*
X214372578Y-166883025D01*
X214390105Y-166869113D01*
X214408689Y-166856556D01*
X214428255Y-166845429D01*
X214448726Y-166835808D01*
X214470030Y-166827767D01*
X214492090Y-166821383D01*
X214514832Y-166816729D01*
X214538180Y-166813882D01*
X214562061Y-166812916D01*
X214585942Y-166813882D01*
X214609291Y-166816729D01*
X214632033Y-166821383D01*
X214654093Y-166827767D01*
X214675396Y-166835808D01*
X214695868Y-166845429D01*
X214715433Y-166856556D01*
X214734017Y-166869113D01*
X214751545Y-166883025D01*
X214767941Y-166898217D01*
X214783131Y-166914614D01*
X214797040Y-166932141D01*
X214809594Y-166950722D01*
X214820716Y-166970282D01*
X214830333Y-166990746D01*
X214838369Y-167012039D01*
X214844750Y-167034086D01*
X214849401Y-167056811D01*
X214852246Y-167080140D01*
X214853211Y-167103997D01*
G37*
X214853211Y-167103997D02*
X214852246Y-167127871D01*
X214849401Y-167151211D01*
X214844750Y-167173943D01*
X214838369Y-167195992D01*
X214830333Y-167217284D01*
X214820716Y-167237742D01*
X214809594Y-167257294D01*
X214797040Y-167275864D01*
X214783131Y-167293377D01*
X214767941Y-167309759D01*
X214751545Y-167324936D01*
X214734017Y-167338832D01*
X214715433Y-167351373D01*
X214695868Y-167362484D01*
X214675396Y-167372090D01*
X214654093Y-167380117D01*
X214632033Y-167386491D01*
X214609291Y-167391136D01*
X214585942Y-167393977D01*
X214562061Y-167394941D01*
X214538180Y-167393977D01*
X214514832Y-167391136D01*
X214492090Y-167386491D01*
X214470030Y-167380117D01*
X214448726Y-167372090D01*
X214428255Y-167362484D01*
X214408689Y-167351373D01*
X214390105Y-167338832D01*
X214372578Y-167324936D01*
X214356182Y-167309759D01*
X214340991Y-167293377D01*
X214327082Y-167275864D01*
X214314529Y-167257294D01*
X214303406Y-167237742D01*
X214293789Y-167217284D01*
X214285753Y-167195992D01*
X214279372Y-167173943D01*
X214274722Y-167151211D01*
X214271876Y-167127871D01*
X214270911Y-167103997D01*
X214271876Y-167080140D01*
X214274722Y-167056811D01*
X214279372Y-167034086D01*
X214285753Y-167012039D01*
X214293789Y-166990746D01*
X214303406Y-166970282D01*
X214314529Y-166950722D01*
X214327082Y-166932141D01*
X214340991Y-166914614D01*
X214356182Y-166898217D01*
X214372578Y-166883025D01*
X214390105Y-166869113D01*
X214408689Y-166856556D01*
X214428255Y-166845429D01*
X214448726Y-166835808D01*
X214470030Y-166827767D01*
X214492090Y-166821383D01*
X214514832Y-166816729D01*
X214538180Y-166813882D01*
X214562061Y-166812916D01*
X214585942Y-166813882D01*
X214609291Y-166816729D01*
X214632033Y-166821383D01*
X214654093Y-166827767D01*
X214675396Y-166835808D01*
X214695868Y-166845429D01*
X214715433Y-166856556D01*
X214734017Y-166869113D01*
X214751545Y-166883025D01*
X214767941Y-166898217D01*
X214783131Y-166914614D01*
X214797040Y-166932141D01*
X214809594Y-166950722D01*
X214820716Y-166970282D01*
X214830333Y-166990746D01*
X214838369Y-167012039D01*
X214844750Y-167034086D01*
X214849401Y-167056811D01*
X214852246Y-167080140D01*
X214853211Y-167103997D01*
G36*
X217501314Y-176991350D02*
G01*
X217500349Y-177015244D01*
X217497504Y-177038602D01*
X217492854Y-177061349D01*
X217486473Y-177083412D01*
X217478436Y-177104716D01*
X217468819Y-177125185D01*
X217457697Y-177144746D01*
X217445144Y-177163324D01*
X217431234Y-177180844D01*
X217416044Y-177197232D01*
X217399648Y-177212413D01*
X217382120Y-177226313D01*
X217363536Y-177238857D01*
X217343971Y-177249970D01*
X217323499Y-177259578D01*
X217302196Y-177267606D01*
X217280136Y-177273980D01*
X217257394Y-177278626D01*
X217234045Y-177281467D01*
X217210164Y-177282431D01*
X217186284Y-177281467D01*
X217162935Y-177278626D01*
X217140193Y-177273980D01*
X217118133Y-177267606D01*
X217096829Y-177259578D01*
X217076358Y-177249970D01*
X217056792Y-177238857D01*
X217038209Y-177226313D01*
X217020681Y-177212413D01*
X217004285Y-177197232D01*
X216989094Y-177180844D01*
X216975185Y-177163324D01*
X216962632Y-177144746D01*
X216951509Y-177125185D01*
X216941892Y-177104716D01*
X216933856Y-177083412D01*
X216927475Y-177061349D01*
X216922825Y-177038602D01*
X216919980Y-177015244D01*
X216919015Y-176991350D01*
X216919980Y-176967494D01*
X216922825Y-176944165D01*
X216927475Y-176921440D01*
X216933856Y-176899393D01*
X216941892Y-176878100D01*
X216951509Y-176857636D01*
X216962632Y-176838075D01*
X216975185Y-176819494D01*
X216989094Y-176801968D01*
X217004285Y-176785571D01*
X217020681Y-176770379D01*
X217038209Y-176756466D01*
X217056792Y-176743909D01*
X217076358Y-176732783D01*
X217096829Y-176723161D01*
X217118133Y-176715121D01*
X217140193Y-176708736D01*
X217162935Y-176704083D01*
X217186284Y-176701236D01*
X217210164Y-176700270D01*
X217234045Y-176701237D01*
X217257394Y-176704087D01*
X217280136Y-176708744D01*
X217302196Y-176715134D01*
X217323499Y-176723181D01*
X217343971Y-176732808D01*
X217363536Y-176743942D01*
X217382120Y-176756506D01*
X217399648Y-176770424D01*
X217416044Y-176785622D01*
X217431234Y-176802023D01*
X217445144Y-176819553D01*
X217457697Y-176838136D01*
X217468819Y-176857696D01*
X217478436Y-176878157D01*
X217486473Y-176899445D01*
X217492854Y-176921484D01*
X217497504Y-176944198D01*
X217500349Y-176967512D01*
X217501314Y-176991350D01*
G37*
X217501314Y-176991350D02*
X217500349Y-177015244D01*
X217497504Y-177038602D01*
X217492854Y-177061349D01*
X217486473Y-177083412D01*
X217478436Y-177104716D01*
X217468819Y-177125185D01*
X217457697Y-177144746D01*
X217445144Y-177163324D01*
X217431234Y-177180844D01*
X217416044Y-177197232D01*
X217399648Y-177212413D01*
X217382120Y-177226313D01*
X217363536Y-177238857D01*
X217343971Y-177249970D01*
X217323499Y-177259578D01*
X217302196Y-177267606D01*
X217280136Y-177273980D01*
X217257394Y-177278626D01*
X217234045Y-177281467D01*
X217210164Y-177282431D01*
X217186284Y-177281467D01*
X217162935Y-177278626D01*
X217140193Y-177273980D01*
X217118133Y-177267606D01*
X217096829Y-177259578D01*
X217076358Y-177249970D01*
X217056792Y-177238857D01*
X217038209Y-177226313D01*
X217020681Y-177212413D01*
X217004285Y-177197232D01*
X216989094Y-177180844D01*
X216975185Y-177163324D01*
X216962632Y-177144746D01*
X216951509Y-177125185D01*
X216941892Y-177104716D01*
X216933856Y-177083412D01*
X216927475Y-177061349D01*
X216922825Y-177038602D01*
X216919980Y-177015244D01*
X216919015Y-176991350D01*
X216919980Y-176967494D01*
X216922825Y-176944165D01*
X216927475Y-176921440D01*
X216933856Y-176899393D01*
X216941892Y-176878100D01*
X216951509Y-176857636D01*
X216962632Y-176838075D01*
X216975185Y-176819494D01*
X216989094Y-176801968D01*
X217004285Y-176785571D01*
X217020681Y-176770379D01*
X217038209Y-176756466D01*
X217056792Y-176743909D01*
X217076358Y-176732783D01*
X217096829Y-176723161D01*
X217118133Y-176715121D01*
X217140193Y-176708736D01*
X217162935Y-176704083D01*
X217186284Y-176701236D01*
X217210164Y-176700270D01*
X217234045Y-176701237D01*
X217257394Y-176704087D01*
X217280136Y-176708744D01*
X217302196Y-176715134D01*
X217323499Y-176723181D01*
X217343971Y-176732808D01*
X217363536Y-176743942D01*
X217382120Y-176756506D01*
X217399648Y-176770424D01*
X217416044Y-176785622D01*
X217431234Y-176802023D01*
X217445144Y-176819553D01*
X217457697Y-176838136D01*
X217468819Y-176857696D01*
X217478436Y-176878157D01*
X217486473Y-176899445D01*
X217492854Y-176921484D01*
X217497504Y-176944198D01*
X217500349Y-176967512D01*
X217501314Y-176991350D01*
G36*
X207614055Y-174341565D02*
G01*
X207613089Y-174365421D01*
X207610241Y-174388747D01*
X207605586Y-174411468D01*
X207599200Y-174433509D01*
X207591156Y-174454795D01*
X207581531Y-174475251D01*
X207570400Y-174494802D01*
X207557837Y-174513373D01*
X207543918Y-174530890D01*
X207528717Y-174547277D01*
X207512311Y-174562459D01*
X207494773Y-174576361D01*
X207476180Y-174588909D01*
X207456606Y-174600026D01*
X207436126Y-174609640D01*
X207414815Y-174617673D01*
X207392749Y-174624052D01*
X207370003Y-174628701D01*
X207346652Y-174631545D01*
X207322770Y-174632510D01*
X207298890Y-174631545D01*
X207275544Y-174628701D01*
X207252806Y-174624052D01*
X207230752Y-174617673D01*
X207209456Y-174609640D01*
X207188992Y-174600026D01*
X207169436Y-174588909D01*
X207150862Y-174576361D01*
X207133344Y-174562459D01*
X207116958Y-174547277D01*
X207101778Y-174530890D01*
X207087879Y-174513373D01*
X207075335Y-174494802D01*
X207064221Y-174475251D01*
X207054612Y-174454795D01*
X207046583Y-174433509D01*
X207040208Y-174411468D01*
X207035562Y-174388747D01*
X207032720Y-174365421D01*
X207031756Y-174341565D01*
X207032720Y-174317671D01*
X207035562Y-174294314D01*
X207040208Y-174271566D01*
X207046583Y-174249503D01*
X207054612Y-174228200D01*
X207064221Y-174207730D01*
X207075335Y-174188169D01*
X207087879Y-174169592D01*
X207101778Y-174152071D01*
X207116958Y-174135684D01*
X207133344Y-174120502D01*
X207150862Y-174106603D01*
X207169436Y-174094059D01*
X207188992Y-174082946D01*
X207209456Y-174073338D01*
X207230752Y-174065310D01*
X207252806Y-174058936D01*
X207275544Y-174054290D01*
X207298890Y-174051449D01*
X207322770Y-174050485D01*
X207346652Y-174051449D01*
X207370003Y-174054290D01*
X207392749Y-174058936D01*
X207414815Y-174065310D01*
X207436126Y-174073338D01*
X207456606Y-174082946D01*
X207476180Y-174094059D01*
X207494773Y-174106603D01*
X207512311Y-174120502D01*
X207528717Y-174135684D01*
X207543918Y-174152071D01*
X207557837Y-174169592D01*
X207570400Y-174188169D01*
X207581531Y-174207730D01*
X207591156Y-174228200D01*
X207599200Y-174249503D01*
X207605586Y-174271566D01*
X207610241Y-174294314D01*
X207613089Y-174317671D01*
X207614055Y-174341565D01*
G37*
X207614055Y-174341565D02*
X207613089Y-174365421D01*
X207610241Y-174388747D01*
X207605586Y-174411468D01*
X207599200Y-174433509D01*
X207591156Y-174454795D01*
X207581531Y-174475251D01*
X207570400Y-174494802D01*
X207557837Y-174513373D01*
X207543918Y-174530890D01*
X207528717Y-174547277D01*
X207512311Y-174562459D01*
X207494773Y-174576361D01*
X207476180Y-174588909D01*
X207456606Y-174600026D01*
X207436126Y-174609640D01*
X207414815Y-174617673D01*
X207392749Y-174624052D01*
X207370003Y-174628701D01*
X207346652Y-174631545D01*
X207322770Y-174632510D01*
X207298890Y-174631545D01*
X207275544Y-174628701D01*
X207252806Y-174624052D01*
X207230752Y-174617673D01*
X207209456Y-174609640D01*
X207188992Y-174600026D01*
X207169436Y-174588909D01*
X207150862Y-174576361D01*
X207133344Y-174562459D01*
X207116958Y-174547277D01*
X207101778Y-174530890D01*
X207087879Y-174513373D01*
X207075335Y-174494802D01*
X207064221Y-174475251D01*
X207054612Y-174454795D01*
X207046583Y-174433509D01*
X207040208Y-174411468D01*
X207035562Y-174388747D01*
X207032720Y-174365421D01*
X207031756Y-174341565D01*
X207032720Y-174317671D01*
X207035562Y-174294314D01*
X207040208Y-174271566D01*
X207046583Y-174249503D01*
X207054612Y-174228200D01*
X207064221Y-174207730D01*
X207075335Y-174188169D01*
X207087879Y-174169592D01*
X207101778Y-174152071D01*
X207116958Y-174135684D01*
X207133344Y-174120502D01*
X207150862Y-174106603D01*
X207169436Y-174094059D01*
X207188992Y-174082946D01*
X207209456Y-174073338D01*
X207230752Y-174065310D01*
X207252806Y-174058936D01*
X207275544Y-174054290D01*
X207298890Y-174051449D01*
X207322770Y-174050485D01*
X207346652Y-174051449D01*
X207370003Y-174054290D01*
X207392749Y-174058936D01*
X207414815Y-174065310D01*
X207436126Y-174073338D01*
X207456606Y-174082946D01*
X207476180Y-174094059D01*
X207494773Y-174106603D01*
X207512311Y-174120502D01*
X207528717Y-174135684D01*
X207543918Y-174152071D01*
X207557837Y-174169592D01*
X207570400Y-174188169D01*
X207581531Y-174207730D01*
X207591156Y-174228200D01*
X207599200Y-174249503D01*
X207605586Y-174271566D01*
X207610241Y-174294314D01*
X207613089Y-174317671D01*
X207614055Y-174341565D01*
G36*
X211792328Y-178521564D02*
G01*
X211791364Y-178545423D01*
X211788521Y-178568757D01*
X211783875Y-178591491D01*
X211777500Y-178613550D01*
X211769469Y-178634857D01*
X211759859Y-178655337D01*
X211748743Y-178674915D01*
X211736197Y-178693516D01*
X211722294Y-178711062D01*
X211707109Y-178727479D01*
X211690717Y-178742692D01*
X211673193Y-178756624D01*
X211654611Y-178769200D01*
X211635045Y-178780345D01*
X211614571Y-178789982D01*
X211593262Y-178798037D01*
X211571194Y-178804433D01*
X211548441Y-178809096D01*
X211525077Y-178811948D01*
X211501178Y-178812916D01*
X211477317Y-178811948D01*
X211453985Y-178809096D01*
X211431259Y-178804433D01*
X211409213Y-178798037D01*
X211387922Y-178789982D01*
X211367461Y-178780345D01*
X211347905Y-178769200D01*
X211329329Y-178756624D01*
X211311808Y-178742692D01*
X211295418Y-178727479D01*
X211280232Y-178711062D01*
X211266326Y-178693516D01*
X211253776Y-178674915D01*
X211242656Y-178655337D01*
X211233040Y-178634857D01*
X211225005Y-178613550D01*
X211218625Y-178591491D01*
X211213975Y-178568757D01*
X211211130Y-178545423D01*
X211210165Y-178521564D01*
X211211130Y-178497689D01*
X211213975Y-178474346D01*
X211218625Y-178451609D01*
X211225005Y-178429554D01*
X211233040Y-178408256D01*
X211242656Y-178387789D01*
X211253776Y-178368229D01*
X211266326Y-178349649D01*
X211280232Y-178332126D01*
X211295418Y-178315733D01*
X211311808Y-178300547D01*
X211329329Y-178286641D01*
X211347905Y-178274090D01*
X211367461Y-178262970D01*
X211387922Y-178253356D01*
X211409213Y-178245321D01*
X211431259Y-178238942D01*
X211453985Y-178234293D01*
X211477317Y-178231448D01*
X211501178Y-178230483D01*
X211525077Y-178231448D01*
X211548441Y-178234293D01*
X211571194Y-178238942D01*
X211593262Y-178245321D01*
X211614571Y-178253356D01*
X211635045Y-178262970D01*
X211654611Y-178274090D01*
X211673193Y-178286641D01*
X211690717Y-178300547D01*
X211707109Y-178315733D01*
X211722294Y-178332126D01*
X211736197Y-178349649D01*
X211748743Y-178368229D01*
X211759859Y-178387789D01*
X211769469Y-178408256D01*
X211777500Y-178429554D01*
X211783875Y-178451609D01*
X211788521Y-178474346D01*
X211791364Y-178497689D01*
X211792328Y-178521564D01*
G37*
X211792328Y-178521564D02*
X211791364Y-178545423D01*
X211788521Y-178568757D01*
X211783875Y-178591491D01*
X211777500Y-178613550D01*
X211769469Y-178634857D01*
X211759859Y-178655337D01*
X211748743Y-178674915D01*
X211736197Y-178693516D01*
X211722294Y-178711062D01*
X211707109Y-178727479D01*
X211690717Y-178742692D01*
X211673193Y-178756624D01*
X211654611Y-178769200D01*
X211635045Y-178780345D01*
X211614571Y-178789982D01*
X211593262Y-178798037D01*
X211571194Y-178804433D01*
X211548441Y-178809096D01*
X211525077Y-178811948D01*
X211501178Y-178812916D01*
X211477317Y-178811948D01*
X211453985Y-178809096D01*
X211431259Y-178804433D01*
X211409213Y-178798037D01*
X211387922Y-178789982D01*
X211367461Y-178780345D01*
X211347905Y-178769200D01*
X211329329Y-178756624D01*
X211311808Y-178742692D01*
X211295418Y-178727479D01*
X211280232Y-178711062D01*
X211266326Y-178693516D01*
X211253776Y-178674915D01*
X211242656Y-178655337D01*
X211233040Y-178634857D01*
X211225005Y-178613550D01*
X211218625Y-178591491D01*
X211213975Y-178568757D01*
X211211130Y-178545423D01*
X211210165Y-178521564D01*
X211211130Y-178497689D01*
X211213975Y-178474346D01*
X211218625Y-178451609D01*
X211225005Y-178429554D01*
X211233040Y-178408256D01*
X211242656Y-178387789D01*
X211253776Y-178368229D01*
X211266326Y-178349649D01*
X211280232Y-178332126D01*
X211295418Y-178315733D01*
X211311808Y-178300547D01*
X211329329Y-178286641D01*
X211347905Y-178274090D01*
X211367461Y-178262970D01*
X211387922Y-178253356D01*
X211409213Y-178245321D01*
X211431259Y-178238942D01*
X211453985Y-178234293D01*
X211477317Y-178231448D01*
X211501178Y-178230483D01*
X211525077Y-178231448D01*
X211548441Y-178234293D01*
X211571194Y-178238942D01*
X211593262Y-178245321D01*
X211614571Y-178253356D01*
X211635045Y-178262970D01*
X211654611Y-178274090D01*
X211673193Y-178286641D01*
X211690717Y-178300547D01*
X211707109Y-178315733D01*
X211722294Y-178332126D01*
X211736197Y-178349649D01*
X211748743Y-178368229D01*
X211759859Y-178387789D01*
X211769469Y-178408256D01*
X211777500Y-178429554D01*
X211783875Y-178451609D01*
X211788521Y-178474346D01*
X211791364Y-178497689D01*
X211792328Y-178521564D01*
G36*
X219031756Y-171281547D02*
G01*
X219030791Y-171305422D01*
X219027945Y-171328765D01*
X219023295Y-171351502D01*
X219016914Y-171373557D01*
X219008878Y-171394855D01*
X218999261Y-171415322D01*
X218988138Y-171434882D01*
X218975585Y-171453462D01*
X218961676Y-171470985D01*
X218946485Y-171487378D01*
X218930089Y-171502564D01*
X218912562Y-171516470D01*
X218893978Y-171529020D01*
X218874413Y-171540140D01*
X218853941Y-171549755D01*
X218832637Y-171557789D01*
X218810577Y-171564169D01*
X218787835Y-171568818D01*
X218764487Y-171571663D01*
X218740606Y-171572627D01*
X218716726Y-171571663D01*
X218693380Y-171568818D01*
X218670642Y-171564169D01*
X218648588Y-171557789D01*
X218627292Y-171549755D01*
X218606828Y-171540140D01*
X218587272Y-171529020D01*
X218568698Y-171516470D01*
X218551180Y-171502564D01*
X218534794Y-171487378D01*
X218519614Y-171470985D01*
X218505715Y-171453462D01*
X218493171Y-171434882D01*
X218482057Y-171415322D01*
X218472449Y-171394855D01*
X218464419Y-171373557D01*
X218458044Y-171351502D01*
X218453398Y-171328765D01*
X218450556Y-171305422D01*
X218449592Y-171281547D01*
X218450557Y-171257690D01*
X218453402Y-171234361D01*
X218458052Y-171211636D01*
X218464432Y-171189589D01*
X218472468Y-171168296D01*
X218482083Y-171147832D01*
X218493204Y-171128272D01*
X218505754Y-171109691D01*
X218519660Y-171092164D01*
X218534845Y-171075767D01*
X218551236Y-171060575D01*
X218568757Y-171046663D01*
X218587332Y-171034106D01*
X218606888Y-171022979D01*
X218627349Y-171013358D01*
X218648641Y-171005317D01*
X218670687Y-170998933D01*
X218693413Y-170994279D01*
X218716744Y-170991432D01*
X218740606Y-170990466D01*
X218764468Y-170991432D01*
X218787802Y-170994279D01*
X218810533Y-170998933D01*
X218832585Y-171005317D01*
X218853883Y-171013358D01*
X218874353Y-171022979D01*
X218893917Y-171034106D01*
X218912503Y-171046663D01*
X218930034Y-171060575D01*
X218946434Y-171075767D01*
X218961630Y-171092164D01*
X218975546Y-171109691D01*
X218988106Y-171128272D01*
X218999235Y-171147832D01*
X219008859Y-171168296D01*
X219016901Y-171189589D01*
X219023287Y-171211636D01*
X219027942Y-171234361D01*
X219030790Y-171257690D01*
X219031756Y-171281547D01*
G37*
X219031756Y-171281547D02*
X219030791Y-171305422D01*
X219027945Y-171328765D01*
X219023295Y-171351502D01*
X219016914Y-171373557D01*
X219008878Y-171394855D01*
X218999261Y-171415322D01*
X218988138Y-171434882D01*
X218975585Y-171453462D01*
X218961676Y-171470985D01*
X218946485Y-171487378D01*
X218930089Y-171502564D01*
X218912562Y-171516470D01*
X218893978Y-171529020D01*
X218874413Y-171540140D01*
X218853941Y-171549755D01*
X218832637Y-171557789D01*
X218810577Y-171564169D01*
X218787835Y-171568818D01*
X218764487Y-171571663D01*
X218740606Y-171572627D01*
X218716726Y-171571663D01*
X218693380Y-171568818D01*
X218670642Y-171564169D01*
X218648588Y-171557789D01*
X218627292Y-171549755D01*
X218606828Y-171540140D01*
X218587272Y-171529020D01*
X218568698Y-171516470D01*
X218551180Y-171502564D01*
X218534794Y-171487378D01*
X218519614Y-171470985D01*
X218505715Y-171453462D01*
X218493171Y-171434882D01*
X218482057Y-171415322D01*
X218472449Y-171394855D01*
X218464419Y-171373557D01*
X218458044Y-171351502D01*
X218453398Y-171328765D01*
X218450556Y-171305422D01*
X218449592Y-171281547D01*
X218450557Y-171257690D01*
X218453402Y-171234361D01*
X218458052Y-171211636D01*
X218464432Y-171189589D01*
X218472468Y-171168296D01*
X218482083Y-171147832D01*
X218493204Y-171128272D01*
X218505754Y-171109691D01*
X218519660Y-171092164D01*
X218534845Y-171075767D01*
X218551236Y-171060575D01*
X218568757Y-171046663D01*
X218587332Y-171034106D01*
X218606888Y-171022979D01*
X218627349Y-171013358D01*
X218648641Y-171005317D01*
X218670687Y-170998933D01*
X218693413Y-170994279D01*
X218716744Y-170991432D01*
X218740606Y-170990466D01*
X218764468Y-170991432D01*
X218787802Y-170994279D01*
X218810533Y-170998933D01*
X218832585Y-171005317D01*
X218853883Y-171013358D01*
X218874353Y-171022979D01*
X218893917Y-171034106D01*
X218912503Y-171046663D01*
X218930034Y-171060575D01*
X218946434Y-171075767D01*
X218961630Y-171092164D01*
X218975546Y-171109691D01*
X218988106Y-171128272D01*
X218999235Y-171147832D01*
X219008859Y-171168296D01*
X219016901Y-171189589D01*
X219023287Y-171211636D01*
X219027942Y-171234361D01*
X219030790Y-171257690D01*
X219031756Y-171281547D01*
D11*
G36*
X213063510Y-171788804D02*
G01*
X213063510Y-172067340D01*
X213038439Y-172067772D01*
X213013585Y-172069058D01*
X212988962Y-172071186D01*
X212964584Y-172074139D01*
X212940466Y-172077905D01*
X212916621Y-172082469D01*
X212893064Y-172087816D01*
X212869809Y-172093933D01*
X212846869Y-172100805D01*
X212824261Y-172108419D01*
X212801996Y-172116759D01*
X212780090Y-172125812D01*
X212758557Y-172135564D01*
X212737410Y-172146001D01*
X212716665Y-172157107D01*
X212696335Y-172168870D01*
X212676434Y-172181275D01*
X212656977Y-172194307D01*
X212637978Y-172207953D01*
X212619450Y-172222198D01*
X212601409Y-172237028D01*
X212583867Y-172252429D01*
X212566841Y-172268387D01*
X212550342Y-172284887D01*
X212534387Y-172301916D01*
X212518988Y-172319459D01*
X212504160Y-172337501D01*
X212489918Y-172356030D01*
X212476275Y-172375030D01*
X212463245Y-172394488D01*
X212450843Y-172414389D01*
X212439083Y-172434719D01*
X212427979Y-172455464D01*
X212417546Y-172476610D01*
X212407796Y-172498142D01*
X212398745Y-172520046D01*
X212390407Y-172542309D01*
X212382796Y-172564915D01*
X212375926Y-172587851D01*
X212369811Y-172611103D01*
X212364465Y-172634656D01*
X212359903Y-172658496D01*
X212356139Y-172682609D01*
X212353186Y-172706981D01*
X212351060Y-172731598D01*
X212349774Y-172756445D01*
X212349342Y-172781508D01*
X212349774Y-172806562D01*
X212351060Y-172831400D01*
X212353186Y-172856006D01*
X212356139Y-172880368D01*
X212359903Y-172904470D01*
X212364465Y-172928298D01*
X212369811Y-172951839D01*
X212375926Y-172975078D01*
X212382796Y-172998001D01*
X212390407Y-173020594D01*
X212398745Y-173042843D01*
X212407796Y-173064734D01*
X212417546Y-173086251D01*
X212427979Y-173107383D01*
X212439083Y-173128113D01*
X212450843Y-173148428D01*
X212463245Y-173168315D01*
X212476275Y-173187758D01*
X212489918Y-173206743D01*
X212504160Y-173225257D01*
X212518988Y-173243285D01*
X212534387Y-173260813D01*
X212550342Y-173277828D01*
X212566841Y-173294314D01*
X212583867Y-173310257D01*
X212601409Y-173325644D01*
X212619450Y-173340461D01*
X212637978Y-173354692D01*
X212656977Y-173368325D01*
X212676434Y-173381345D01*
X212696335Y-173393737D01*
X212716665Y-173405488D01*
X212737410Y-173416583D01*
X212758557Y-173427009D01*
X212780090Y-173436751D01*
X212801996Y-173445794D01*
X212824261Y-173454126D01*
X212846869Y-173461731D01*
X212869809Y-173468596D01*
X212893064Y-173474706D01*
X212916621Y-173480048D01*
X212940466Y-173484606D01*
X212964584Y-173488368D01*
X212988962Y-173491318D01*
X213013585Y-173493442D01*
X213038439Y-173494728D01*
X213063510Y-173495159D01*
X213088572Y-173494728D01*
X213113417Y-173493442D01*
X213138030Y-173491316D01*
X213162397Y-173488365D01*
X213186504Y-173484602D01*
X213210337Y-173480042D01*
X213233882Y-173474699D01*
X213257125Y-173468587D01*
X213280051Y-173461719D01*
X213302646Y-173454112D01*
X213324897Y-173445778D01*
X213346789Y-173436731D01*
X213368309Y-173426987D01*
X213389441Y-173416558D01*
X213410171Y-173405460D01*
X213430487Y-173393706D01*
X213450373Y-173381311D01*
X213469815Y-173368289D01*
X213488800Y-173354653D01*
X213507313Y-173340419D01*
X213525339Y-173325600D01*
X213542866Y-173310211D01*
X213559878Y-173294265D01*
X213576362Y-173277776D01*
X213592304Y-173260760D01*
X213607689Y-173243230D01*
X213622503Y-173225201D01*
X213636732Y-173206686D01*
X213650362Y-173187699D01*
X213663379Y-173168256D01*
X213675768Y-173148369D01*
X213687517Y-173128054D01*
X213698609Y-173107324D01*
X213709032Y-173086194D01*
X213718772Y-173064677D01*
X213727813Y-173042788D01*
X213736142Y-173020541D01*
X213743745Y-172997951D01*
X213750608Y-172975031D01*
X213756716Y-172951796D01*
X213762055Y-172928259D01*
X213766612Y-172904436D01*
X213770372Y-172880339D01*
X213773321Y-172855984D01*
X213775445Y-172831384D01*
X213776730Y-172806554D01*
X213777162Y-172781508D01*
X213776730Y-172756445D01*
X213775445Y-172731598D01*
X213773321Y-172706981D01*
X213770372Y-172682609D01*
X213766612Y-172658496D01*
X213762055Y-172634656D01*
X213756716Y-172611103D01*
X213750608Y-172587851D01*
X213743745Y-172564915D01*
X213736142Y-172542309D01*
X213727813Y-172520046D01*
X213718772Y-172498142D01*
X213709032Y-172476610D01*
X213698609Y-172455464D01*
X213687517Y-172434719D01*
X213675768Y-172414389D01*
X213663379Y-172394488D01*
X213650362Y-172375030D01*
X213636732Y-172356030D01*
X213622503Y-172337501D01*
X213607689Y-172319459D01*
X213592304Y-172301916D01*
X213576362Y-172284887D01*
X213559878Y-172268387D01*
X213542866Y-172252429D01*
X213525339Y-172237028D01*
X213507313Y-172222198D01*
X213488800Y-172207953D01*
X213469815Y-172194307D01*
X213450373Y-172181275D01*
X213430487Y-172168870D01*
X213410171Y-172157107D01*
X213389441Y-172146001D01*
X213368309Y-172135564D01*
X213346789Y-172125812D01*
X213324897Y-172116759D01*
X213302646Y-172108419D01*
X213280051Y-172100805D01*
X213257125Y-172093933D01*
X213233882Y-172087816D01*
X213210337Y-172082469D01*
X213186504Y-172077905D01*
X213162397Y-172074139D01*
X213138030Y-172071186D01*
X213113417Y-172069058D01*
X213088572Y-172067772D01*
X213063510Y-172067340D01*
X213063510Y-171788804D01*
X213088317Y-171789109D01*
X213112977Y-171790021D01*
X213137482Y-171791533D01*
X213161825Y-171793636D01*
X213185999Y-171796325D01*
X213209997Y-171799591D01*
X213233811Y-171803428D01*
X213257435Y-171807828D01*
X213280861Y-171812784D01*
X213304082Y-171818290D01*
X213327090Y-171824337D01*
X213349880Y-171830919D01*
X213372443Y-171838029D01*
X213394772Y-171845659D01*
X213416861Y-171853802D01*
X213438702Y-171862451D01*
X213460287Y-171871599D01*
X213481611Y-171881239D01*
X213502664Y-171891363D01*
X213523442Y-171901964D01*
X213543935Y-171913036D01*
X213564138Y-171924570D01*
X213584042Y-171936561D01*
X213603641Y-171949000D01*
X213622928Y-171961880D01*
X213641895Y-171975195D01*
X213660535Y-171988937D01*
X213678841Y-172003098D01*
X213696806Y-172017673D01*
X213714423Y-172032653D01*
X213731685Y-172048031D01*
X213748584Y-172063801D01*
X213765113Y-172079954D01*
X213781265Y-172096485D01*
X213797033Y-172113385D01*
X213812409Y-172130648D01*
X213827387Y-172148266D01*
X213841960Y-172166232D01*
X213856120Y-172184539D01*
X213869860Y-172203180D01*
X213883172Y-172222147D01*
X213896051Y-172241434D01*
X213908488Y-172261034D01*
X213920476Y-172280938D01*
X213932009Y-172301141D01*
X213943079Y-172321634D01*
X213953678Y-172342411D01*
X213963800Y-172363464D01*
X213973438Y-172384786D01*
X213982584Y-172406371D01*
X213991232Y-172428210D01*
X213999373Y-172450297D01*
X214007001Y-172472625D01*
X214014109Y-172495186D01*
X214020690Y-172517973D01*
X214026736Y-172540979D01*
X214032240Y-172564197D01*
X214037195Y-172587620D01*
X214041594Y-172611240D01*
X214045430Y-172635050D01*
X214048695Y-172659044D01*
X214051383Y-172683213D01*
X214053486Y-172707552D01*
X214054997Y-172732052D01*
X214055909Y-172756706D01*
X214056214Y-172781508D01*
X214055909Y-172806303D01*
X214054997Y-172830951D01*
X214053486Y-172855444D01*
X214051383Y-172879775D01*
X214048695Y-172903937D01*
X214045430Y-172927923D01*
X214041594Y-172951725D01*
X214037195Y-172975337D01*
X214032240Y-172998751D01*
X214026736Y-173021960D01*
X214020690Y-173044958D01*
X214014109Y-173067736D01*
X214007001Y-173090287D01*
X213999373Y-173112605D01*
X213991232Y-173134683D01*
X213982584Y-173156512D01*
X213973438Y-173178087D01*
X213963800Y-173199399D01*
X213953678Y-173220442D01*
X213943079Y-173241208D01*
X213932009Y-173261691D01*
X213920476Y-173281883D01*
X213908488Y-173301777D01*
X213896051Y-173321366D01*
X213883172Y-173340643D01*
X213869860Y-173359600D01*
X213856120Y-173378230D01*
X213841960Y-173396527D01*
X213827387Y-173414482D01*
X213812409Y-173432090D01*
X213797033Y-173449342D01*
X213781265Y-173466232D01*
X213765113Y-173482752D01*
X213748584Y-173498896D01*
X213731685Y-173514655D01*
X213714423Y-173530024D01*
X213696806Y-173544994D01*
X213678841Y-173559559D01*
X213660535Y-173573711D01*
X213641895Y-173587443D01*
X213622928Y-173600749D01*
X213603641Y-173613620D01*
X213584042Y-173626050D01*
X213564138Y-173638032D01*
X213543935Y-173649559D01*
X213523442Y-173660622D01*
X213502664Y-173671216D01*
X213481611Y-173681333D01*
X213460287Y-173690965D01*
X213438702Y-173700106D01*
X213416861Y-173708749D01*
X213394772Y-173716886D01*
X213372443Y-173724510D01*
X213349880Y-173731614D01*
X213327090Y-173738191D01*
X213304082Y-173744233D01*
X213280861Y-173749735D01*
X213257435Y-173754687D01*
X213233811Y-173759084D01*
X213209997Y-173762917D01*
X213185999Y-173766181D01*
X213161825Y-173768867D01*
X213137482Y-173770969D01*
X213112977Y-173772479D01*
X213088317Y-173773390D01*
X213063510Y-173773695D01*
X213038703Y-173773390D01*
X213014043Y-173772478D01*
X212989538Y-173770968D01*
X212965195Y-173768865D01*
X212941021Y-173766179D01*
X212917023Y-173762914D01*
X212893209Y-173759079D01*
X212869585Y-173754682D01*
X212846159Y-173749728D01*
X212822938Y-173744225D01*
X212799930Y-173738181D01*
X212777140Y-173731603D01*
X212754577Y-173724497D01*
X212732248Y-173716871D01*
X212710159Y-173708733D01*
X212688318Y-173700088D01*
X212666733Y-173690945D01*
X212645409Y-173681311D01*
X212624356Y-173671192D01*
X212603578Y-173660596D01*
X212583085Y-173649530D01*
X212562882Y-173638002D01*
X212542978Y-173626018D01*
X212523379Y-173613586D01*
X212504092Y-173600712D01*
X212485125Y-173587405D01*
X212466485Y-173573670D01*
X212448179Y-173559516D01*
X212430214Y-173544950D01*
X212412597Y-173529978D01*
X212395335Y-173514608D01*
X212378436Y-173498846D01*
X212361907Y-173482701D01*
X212345755Y-173466180D01*
X212329987Y-173449288D01*
X212314611Y-173432035D01*
X212299632Y-173414426D01*
X212285060Y-173396469D01*
X212270900Y-173378172D01*
X212257160Y-173359541D01*
X212243847Y-173340583D01*
X212230969Y-173321306D01*
X212218532Y-173301717D01*
X212206544Y-173281823D01*
X212195011Y-173261631D01*
X212183941Y-173241148D01*
X212173342Y-173220382D01*
X212163220Y-173199340D01*
X212153582Y-173178029D01*
X212144436Y-173156455D01*
X212135788Y-173134627D01*
X212127647Y-173112551D01*
X212120019Y-173090235D01*
X212112911Y-173067686D01*
X212106330Y-173044910D01*
X212100284Y-173021916D01*
X212094780Y-172998710D01*
X212089825Y-172975299D01*
X212085426Y-172951691D01*
X212081590Y-172927892D01*
X212078325Y-172903911D01*
X212075637Y-172879753D01*
X212073534Y-172855427D01*
X212072023Y-172830939D01*
X212071111Y-172806297D01*
X212070806Y-172781508D01*
X212071111Y-172756706D01*
X212072023Y-172732052D01*
X212073534Y-172707552D01*
X212075637Y-172683213D01*
X212078325Y-172659044D01*
X212081590Y-172635050D01*
X212085426Y-172611240D01*
X212089825Y-172587620D01*
X212094780Y-172564197D01*
X212100284Y-172540979D01*
X212106330Y-172517973D01*
X212112911Y-172495186D01*
X212120019Y-172472625D01*
X212127647Y-172450297D01*
X212135788Y-172428210D01*
X212144436Y-172406371D01*
X212153582Y-172384786D01*
X212163220Y-172363464D01*
X212173342Y-172342411D01*
X212183941Y-172321634D01*
X212195011Y-172301141D01*
X212206544Y-172280938D01*
X212218532Y-172261034D01*
X212230969Y-172241434D01*
X212243847Y-172222147D01*
X212257160Y-172203180D01*
X212270900Y-172184539D01*
X212285060Y-172166232D01*
X212299632Y-172148266D01*
X212314611Y-172130648D01*
X212329987Y-172113385D01*
X212345755Y-172096485D01*
X212361907Y-172079954D01*
X212378436Y-172063801D01*
X212395335Y-172048031D01*
X212412597Y-172032653D01*
X212430214Y-172017673D01*
X212448179Y-172003098D01*
X212466485Y-171988937D01*
X212485125Y-171975195D01*
X212504092Y-171961880D01*
X212523379Y-171949000D01*
X212542978Y-171936561D01*
X212562882Y-171924570D01*
X212583085Y-171913036D01*
X212603578Y-171901964D01*
X212624356Y-171891363D01*
X212645409Y-171881239D01*
X212666733Y-171871599D01*
X212688318Y-171862451D01*
X212710159Y-171853802D01*
X212732248Y-171845659D01*
X212754577Y-171838029D01*
X212777140Y-171830919D01*
X212799930Y-171824337D01*
X212822938Y-171818290D01*
X212846159Y-171812784D01*
X212869585Y-171807828D01*
X212893209Y-171803428D01*
X212917023Y-171799591D01*
X212941021Y-171796325D01*
X212965195Y-171793636D01*
X212989538Y-171791533D01*
X213014043Y-171790021D01*
X213038703Y-171789109D01*
X213063510Y-171788804D01*
G37*
%TD*%
%TA.AperFunction,ComponentPad*%
D12*
%TO.P,MCU1,1*%
%TO.N,RAW*%
G36*
X245182818Y-135081070D02*
G01*
X246928749Y-135233819D01*
X246776000Y-136979750D01*
X245030069Y-136827001D01*
X245182818Y-135081070D01*
G37*
%TD.AperFunction*%
D13*
%TO.P,MCU1,2*%
%TO.N,GND*%
X245758034Y-138560745D03*
%TO.P,MCU1,3*%
%TO.N,RST*%
X245536658Y-141091079D03*
%TO.P,MCU1,4*%
%TO.N,VCC*%
X245315282Y-143621414D03*
%TO.P,MCU1,5*%
%TO.N,P21*%
X245093907Y-146151748D03*
%TO.P,MCU1,6*%
%TO.N,P20*%
X244872531Y-148682083D03*
%TO.P,MCU1,7*%
%TO.N,P19*%
X244651156Y-151212418D03*
%TO.P,MCU1,8*%
%TO.N,P18*%
X244429780Y-153742752D03*
%TO.P,MCU1,9*%
%TO.N,P15*%
X244208404Y-156273087D03*
%TO.P,MCU1,10*%
%TO.N,P14*%
X243987029Y-158803421D03*
%TO.P,MCU1,11*%
%TO.N,P16*%
X243765653Y-161333756D03*
%TO.P,MCU1,12*%
%TO.N,P10*%
X243544278Y-163864090D03*
%TO.P,MCU1,13*%
%TO.N,P1*%
X261161416Y-137358664D03*
%TO.P,MCU1,14*%
%TO.N,P0*%
X260940041Y-139888998D03*
%TO.P,MCU1,15*%
%TO.N,GND*%
X260718665Y-142419333D03*
%TO.P,MCU1,16*%
X260497290Y-144949667D03*
%TO.P,MCU1,17*%
%TO.N,P2*%
X260275914Y-147480002D03*
%TO.P,MCU1,18*%
%TO.N,P3*%
X260054538Y-150010336D03*
%TO.P,MCU1,19*%
%TO.N,P4*%
X259833163Y-152540671D03*
%TO.P,MCU1,20*%
%TO.N,P5*%
X259611787Y-155071006D03*
%TO.P,MCU1,21*%
%TO.N,P6*%
X259390412Y-157601340D03*
%TO.P,MCU1,22*%
%TO.N,P7*%
X259169036Y-160131675D03*
%TO.P,MCU1,23*%
%TO.N,P8*%
X258947660Y-162662009D03*
%TO.P,MCU1,24*%
%TO.N,P9*%
X258726285Y-165192344D03*
%TD*%
%TA.AperFunction,SMDPad,CuDef*%
D14*
%TO.P,S16,1*%
%TO.N,first_only*%
G36*
X233301286Y-187266059D02*
G01*
X232412033Y-189709260D01*
X229968832Y-188820007D01*
X230858085Y-186376806D01*
X233301286Y-187266059D01*
G37*
%TD.AperFunction*%
%TA.AperFunction,SMDPad,CuDef*%
%TO.P,S16,2*%
%TO.N,P7*%
G36*
X223200281Y-181248403D02*
G01*
X222311028Y-183691604D01*
X219867827Y-182802351D01*
X220757080Y-180359150D01*
X223200281Y-181248403D01*
G37*
%TD.AperFunction*%
%TD*%
%TA.AperFunction,SMDPad,CuDef*%
%TO.P,S1,1*%
%TO.N,pinky_bottom*%
G36*
X166316445Y-179480469D02*
G01*
X166989374Y-181991876D01*
X164477967Y-182664805D01*
X163805038Y-180153398D01*
X166316445Y-179480469D01*
G37*
%TD.AperFunction*%
%TA.AperFunction,SMDPad,CuDef*%
%TO.P,S1,2*%
%TO.N,P9*%
G36*
X154590600Y-180344792D02*
G01*
X155263529Y-182856199D01*
X152752122Y-183529128D01*
X152079193Y-181017721D01*
X154590600Y-180344792D01*
G37*
%TD.AperFunction*%
%TD*%
D15*
%TO.P,S7,1*%
%TO.N,middle_bottom*%
X198993113Y-153250361D03*
%TO.P,S7,2*%
%TO.N,P7*%
X187443113Y-151050361D03*
%TD*%
%TO.P,S8,1*%
%TO.N,middle_home*%
X198993113Y-136250361D03*
%TO.P,S8,2*%
%TO.N,P7*%
X187443113Y-134050361D03*
%TD*%
%TA.AperFunction,SMDPad,CuDef*%
D14*
%TO.P,S6,1*%
%TO.N,ring_top*%
G36*
X178598413Y-124941905D02*
G01*
X178825018Y-127532012D01*
X176234911Y-127758617D01*
X176008306Y-125168510D01*
X178598413Y-124941905D01*
G37*
%TD.AperFunction*%
%TA.AperFunction,SMDPad,CuDef*%
%TO.P,S6,2*%
%TO.N,P8*%
G36*
X166900622Y-123756926D02*
G01*
X167127227Y-126347033D01*
X164537120Y-126573638D01*
X164310515Y-123983531D01*
X166900622Y-123756926D01*
G37*
%TD.AperFunction*%
%TD*%
D15*
%TO.P,S9,1*%
%TO.N,middle_top*%
X198993113Y-119250361D03*
%TO.P,S9,2*%
%TO.N,P7*%
X187443113Y-117050361D03*
%TD*%
%TA.AperFunction,SMDPad,CuDef*%
D14*
%TO.P,D1,2*%
%TO.N,pinky_bottom*%
G36*
X158085328Y-171074409D02*
G01*
X158395911Y-172233520D01*
X157526578Y-172466457D01*
X157215995Y-171307346D01*
X158085328Y-171074409D01*
G37*
%TD.AperFunction*%
%TA.AperFunction,SMDPad,CuDef*%
%TO.P,D1,1*%
%TO.N,P16*%
G36*
X161272884Y-170220307D02*
G01*
X161583467Y-171379418D01*
X160714134Y-171612355D01*
X160403551Y-170453244D01*
X161272884Y-170220307D01*
G37*
%TD.AperFunction*%
%TD*%
%TA.AperFunction,SMDPad,CuDef*%
%TO.P,S2,1*%
%TO.N,pinky_home*%
G36*
X161916522Y-163059730D02*
G01*
X162589451Y-165571137D01*
X160078044Y-166244066D01*
X159405115Y-163732659D01*
X161916522Y-163059730D01*
G37*
%TD.AperFunction*%
%TA.AperFunction,SMDPad,CuDef*%
%TO.P,S2,2*%
%TO.N,P9*%
G36*
X150190677Y-163924053D02*
G01*
X150863606Y-166435460D01*
X148352199Y-167108389D01*
X147679270Y-164596982D01*
X150190677Y-163924053D01*
G37*
%TD.AperFunction*%
%TD*%
%TA.AperFunction,SMDPad,CuDef*%
%TO.P,D2,2*%
%TO.N,pinky_home*%
G36*
X153685404Y-154653670D02*
G01*
X153995987Y-155812781D01*
X153126654Y-156045718D01*
X152816071Y-154886607D01*
X153685404Y-154653670D01*
G37*
%TD.AperFunction*%
%TA.AperFunction,SMDPad,CuDef*%
%TO.P,D2,1*%
%TO.N,P14*%
G36*
X156872960Y-153799568D02*
G01*
X157183543Y-154958679D01*
X156314210Y-155191616D01*
X156003627Y-154032505D01*
X156872960Y-153799568D01*
G37*
%TD.AperFunction*%
%TD*%
%TA.AperFunction,SMDPad,CuDef*%
%TO.P,S3,1*%
%TO.N,pinky_top*%
G36*
X157516598Y-146638991D02*
G01*
X158189527Y-149150398D01*
X155678120Y-149823327D01*
X155005191Y-147311920D01*
X157516598Y-146638991D01*
G37*
%TD.AperFunction*%
%TA.AperFunction,SMDPad,CuDef*%
%TO.P,S3,2*%
%TO.N,P9*%
G36*
X145790753Y-147503314D02*
G01*
X146463682Y-150014721D01*
X143952275Y-150687650D01*
X143279346Y-148176243D01*
X145790753Y-147503314D01*
G37*
%TD.AperFunction*%
%TD*%
%TA.AperFunction,SMDPad,CuDef*%
%TO.P,D3,2*%
%TO.N,pinky_top*%
G36*
X149285481Y-138232931D02*
G01*
X149596064Y-139392042D01*
X148726731Y-139624979D01*
X148416148Y-138465868D01*
X149285481Y-138232931D01*
G37*
%TD.AperFunction*%
%TA.AperFunction,SMDPad,CuDef*%
%TO.P,D3,1*%
%TO.N,P15*%
G36*
X152473037Y-137378829D02*
G01*
X152783620Y-138537940D01*
X151914287Y-138770877D01*
X151603704Y-137611766D01*
X152473037Y-137378829D01*
G37*
%TD.AperFunction*%
%TD*%
%TA.AperFunction,SMDPad,CuDef*%
%TO.P,S4,1*%
%TO.N,ring_bottom*%
G36*
X181561708Y-158812525D02*
G01*
X181788313Y-161402632D01*
X179198206Y-161629237D01*
X178971601Y-159039130D01*
X181561708Y-158812525D01*
G37*
%TD.AperFunction*%
%TA.AperFunction,SMDPad,CuDef*%
%TO.P,S4,2*%
%TO.N,P8*%
G36*
X169863917Y-157627546D02*
G01*
X170090522Y-160217653D01*
X167500415Y-160444258D01*
X167273810Y-157854151D01*
X169863917Y-157627546D01*
G37*
%TD.AperFunction*%
%TD*%
%TA.AperFunction,SMDPad,CuDef*%
%TO.P,D4,2*%
%TO.N,ring_bottom*%
G36*
X174915338Y-149104855D02*
G01*
X175019925Y-150300289D01*
X174123350Y-150378729D01*
X174018763Y-149183295D01*
X174915338Y-149104855D01*
G37*
%TD.AperFunction*%
%TA.AperFunction,SMDPad,CuDef*%
%TO.P,D4,1*%
%TO.N,P16*%
G36*
X178202780Y-148817241D02*
G01*
X178307367Y-150012675D01*
X177410792Y-150091115D01*
X177306205Y-148895681D01*
X178202780Y-148817241D01*
G37*
%TD.AperFunction*%
%TD*%
%TA.AperFunction,SMDPad,CuDef*%
%TO.P,S5,1*%
%TO.N,ring_home*%
G36*
X180080061Y-141877215D02*
G01*
X180306666Y-144467322D01*
X177716559Y-144693927D01*
X177489954Y-142103820D01*
X180080061Y-141877215D01*
G37*
%TD.AperFunction*%
%TA.AperFunction,SMDPad,CuDef*%
%TO.P,S5,2*%
%TO.N,P8*%
G36*
X168382270Y-140692236D02*
G01*
X168608875Y-143282343D01*
X166018768Y-143508948D01*
X165792163Y-140918841D01*
X168382270Y-140692236D01*
G37*
%TD.AperFunction*%
%TD*%
%TA.AperFunction,SMDPad,CuDef*%
%TO.P,D5,2*%
%TO.N,ring_home*%
G36*
X173433690Y-132169545D02*
G01*
X173538277Y-133364979D01*
X172641702Y-133443419D01*
X172537115Y-132247985D01*
X173433690Y-132169545D01*
G37*
%TD.AperFunction*%
%TA.AperFunction,SMDPad,CuDef*%
%TO.P,D5,1*%
%TO.N,P14*%
G36*
X176721132Y-131881931D02*
G01*
X176825719Y-133077365D01*
X175929144Y-133155805D01*
X175824557Y-131960371D01*
X176721132Y-131881931D01*
G37*
%TD.AperFunction*%
%TD*%
%TA.AperFunction,SMDPad,CuDef*%
%TO.P,D6,2*%
%TO.N,ring_top*%
G36*
X171952043Y-115234235D02*
G01*
X172056630Y-116429669D01*
X171160055Y-116508109D01*
X171055468Y-115312675D01*
X171952043Y-115234235D01*
G37*
%TD.AperFunction*%
%TA.AperFunction,SMDPad,CuDef*%
%TO.P,D6,1*%
%TO.N,P15*%
G36*
X175239485Y-114946621D02*
G01*
X175344072Y-116142055D01*
X174447497Y-116220495D01*
X174342910Y-115025061D01*
X175239485Y-114946621D01*
G37*
%TD.AperFunction*%
%TD*%
D16*
%TO.P,D7,2*%
%TO.N,middle_bottom*%
X194068113Y-142300361D03*
%TO.P,D7,1*%
%TO.N,P16*%
X197368113Y-142300361D03*
%TD*%
%TO.P,D8,2*%
%TO.N,middle_home*%
X194068113Y-125300361D03*
%TO.P,D8,1*%
%TO.N,P14*%
X197368113Y-125300361D03*
%TD*%
%TO.P,D9,2*%
%TO.N,middle_top*%
X194068113Y-108300362D03*
%TO.P,D9,1*%
%TO.N,P15*%
X197368113Y-108300362D03*
%TD*%
%TA.AperFunction,SMDPad,CuDef*%
D14*
%TO.P,S10,1*%
%TO.N,index_bottom*%
G36*
X219152078Y-158062761D02*
G01*
X218925473Y-160652868D01*
X216335366Y-160426263D01*
X216561971Y-157836156D01*
X219152078Y-158062761D01*
G37*
%TD.AperFunction*%
%TA.AperFunction,SMDPad,CuDef*%
%TO.P,S10,2*%
%TO.N,P6*%
G36*
X207837772Y-154864483D02*
G01*
X207611167Y-157454590D01*
X205021060Y-157227985D01*
X205247665Y-154637878D01*
X207837772Y-154864483D01*
G37*
%TD.AperFunction*%
%TD*%
%TA.AperFunction,SMDPad,CuDef*%
%TO.P,D10,2*%
%TO.N,index_bottom*%
G36*
X214292399Y-147348441D02*
G01*
X214187812Y-148543875D01*
X213291237Y-148465435D01*
X213395824Y-147270001D01*
X214292399Y-147348441D01*
G37*
%TD.AperFunction*%
%TA.AperFunction,SMDPad,CuDef*%
%TO.P,D10,1*%
%TO.N,P16*%
G36*
X217579841Y-147636055D02*
G01*
X217475254Y-148831489D01*
X216578679Y-148753049D01*
X216683266Y-147557615D01*
X217579841Y-147636055D01*
G37*
%TD.AperFunction*%
%TD*%
%TA.AperFunction,SMDPad,CuDef*%
%TO.P,S11,1*%
%TO.N,index_home*%
G36*
X220633725Y-141127451D02*
G01*
X220407120Y-143717558D01*
X217817013Y-143490953D01*
X218043618Y-140900846D01*
X220633725Y-141127451D01*
G37*
%TD.AperFunction*%
%TA.AperFunction,SMDPad,CuDef*%
%TO.P,S11,2*%
%TO.N,P6*%
G36*
X209319419Y-137929173D02*
G01*
X209092814Y-140519280D01*
X206502707Y-140292675D01*
X206729312Y-137702568D01*
X209319419Y-137929173D01*
G37*
%TD.AperFunction*%
%TD*%
%TA.AperFunction,SMDPad,CuDef*%
%TO.P,D11,2*%
%TO.N,index_home*%
G36*
X215774047Y-130413131D02*
G01*
X215669460Y-131608565D01*
X214772885Y-131530125D01*
X214877472Y-130334691D01*
X215774047Y-130413131D01*
G37*
%TD.AperFunction*%
%TA.AperFunction,SMDPad,CuDef*%
%TO.P,D11,1*%
%TO.N,P14*%
G36*
X219061489Y-130700745D02*
G01*
X218956902Y-131896179D01*
X218060327Y-131817739D01*
X218164914Y-130622305D01*
X219061489Y-130700745D01*
G37*
%TD.AperFunction*%
%TD*%
%TA.AperFunction,SMDPad,CuDef*%
%TO.P,S12,1*%
%TO.N,index_top*%
G36*
X222115373Y-124192142D02*
G01*
X221888768Y-126782249D01*
X219298661Y-126555644D01*
X219525266Y-123965537D01*
X222115373Y-124192142D01*
G37*
%TD.AperFunction*%
%TA.AperFunction,SMDPad,CuDef*%
%TO.P,S12,2*%
%TO.N,P6*%
G36*
X210801067Y-120993864D02*
G01*
X210574462Y-123583971D01*
X207984355Y-123357366D01*
X208210960Y-120767259D01*
X210801067Y-120993864D01*
G37*
%TD.AperFunction*%
%TD*%
%TA.AperFunction,SMDPad,CuDef*%
%TO.P,D12,2*%
%TO.N,index_top*%
G36*
X217255695Y-113477821D02*
G01*
X217151108Y-114673255D01*
X216254533Y-114594815D01*
X216359120Y-113399381D01*
X217255695Y-113477821D01*
G37*
%TD.AperFunction*%
%TA.AperFunction,SMDPad,CuDef*%
%TO.P,D12,1*%
%TO.N,P15*%
G36*
X220543137Y-113765435D02*
G01*
X220438550Y-114960869D01*
X219541975Y-114882429D01*
X219646562Y-113686995D01*
X220543137Y-113765435D01*
G37*
%TD.AperFunction*%
%TD*%
%TA.AperFunction,SMDPad,CuDef*%
%TO.P,S13,1*%
%TO.N,inner_bottom*%
G36*
X236836641Y-162454116D02*
G01*
X236610036Y-165044223D01*
X234019929Y-164817618D01*
X234246534Y-162227511D01*
X236836641Y-162454116D01*
G37*
%TD.AperFunction*%
%TA.AperFunction,SMDPad,CuDef*%
%TO.P,S13,2*%
%TO.N,P5*%
G36*
X225522335Y-159255838D02*
G01*
X225295730Y-161845945D01*
X222705623Y-161619340D01*
X222932228Y-159029233D01*
X225522335Y-159255838D01*
G37*
%TD.AperFunction*%
%TD*%
%TA.AperFunction,SMDPad,CuDef*%
%TO.P,D13,2*%
%TO.N,inner_bottom*%
G36*
X231976963Y-151739796D02*
G01*
X231872376Y-152935230D01*
X230975801Y-152856790D01*
X231080388Y-151661356D01*
X231976963Y-151739796D01*
G37*
%TD.AperFunction*%
%TA.AperFunction,SMDPad,CuDef*%
%TO.P,D13,1*%
%TO.N,P16*%
G36*
X235264405Y-152027410D02*
G01*
X235159818Y-153222844D01*
X234263243Y-153144404D01*
X234367830Y-151948970D01*
X235264405Y-152027410D01*
G37*
%TD.AperFunction*%
%TD*%
%TA.AperFunction,SMDPad,CuDef*%
%TO.P,S14,1*%
%TO.N,inner_home*%
G36*
X238318289Y-145518806D02*
G01*
X238091684Y-148108913D01*
X235501577Y-147882308D01*
X235728182Y-145292201D01*
X238318289Y-145518806D01*
G37*
%TD.AperFunction*%
%TA.AperFunction,SMDPad,CuDef*%
%TO.P,S14,2*%
%TO.N,P5*%
G36*
X227003983Y-142320528D02*
G01*
X226777378Y-144910635D01*
X224187271Y-144684030D01*
X224413876Y-142093923D01*
X227003983Y-142320528D01*
G37*
%TD.AperFunction*%
%TD*%
%TA.AperFunction,SMDPad,CuDef*%
%TO.P,D14,2*%
%TO.N,inner_home*%
G36*
X233458610Y-134804486D02*
G01*
X233354023Y-135999920D01*
X232457448Y-135921480D01*
X232562035Y-134726046D01*
X233458610Y-134804486D01*
G37*
%TD.AperFunction*%
%TA.AperFunction,SMDPad,CuDef*%
%TO.P,D14,1*%
%TO.N,P14*%
G36*
X236746052Y-135092100D02*
G01*
X236641465Y-136287534D01*
X235744890Y-136209094D01*
X235849477Y-135013660D01*
X236746052Y-135092100D01*
G37*
%TD.AperFunction*%
%TD*%
%TA.AperFunction,SMDPad,CuDef*%
%TO.P,S15,1*%
%TO.N,inner_top*%
G36*
X239799936Y-128583497D02*
G01*
X239573331Y-131173604D01*
X236983224Y-130946999D01*
X237209829Y-128356892D01*
X239799936Y-128583497D01*
G37*
%TD.AperFunction*%
%TA.AperFunction,SMDPad,CuDef*%
%TO.P,S15,2*%
%TO.N,P5*%
G36*
X228485630Y-125385219D02*
G01*
X228259025Y-127975326D01*
X225668918Y-127748721D01*
X225895523Y-125158614D01*
X228485630Y-125385219D01*
G37*
%TD.AperFunction*%
%TD*%
%TA.AperFunction,SMDPad,CuDef*%
%TO.P,D15,2*%
%TO.N,inner_top*%
G36*
X234940258Y-117869176D02*
G01*
X234835671Y-119064610D01*
X233939096Y-118986170D01*
X234043683Y-117790736D01*
X234940258Y-117869176D01*
G37*
%TD.AperFunction*%
%TA.AperFunction,SMDPad,CuDef*%
%TO.P,D15,1*%
%TO.N,P15*%
G36*
X238227700Y-118156790D02*
G01*
X238123113Y-119352224D01*
X237226538Y-119273784D01*
X237331125Y-118078350D01*
X238227700Y-118156790D01*
G37*
%TD.AperFunction*%
%TD*%
%TA.AperFunction,SMDPad,CuDef*%
%TO.P,D16,2*%
%TO.N,first_only*%
G36*
X231380268Y-175659043D02*
G01*
X230969844Y-176786675D01*
X230124120Y-176478857D01*
X230534544Y-175351225D01*
X231380268Y-175659043D01*
G37*
%TD.AperFunction*%
%TA.AperFunction,SMDPad,CuDef*%
%TO.P,D16,1*%
%TO.N,P10*%
G36*
X234481254Y-176787709D02*
G01*
X234070830Y-177915341D01*
X233225106Y-177607523D01*
X233635530Y-176479891D01*
X234481254Y-176787709D01*
G37*
%TD.AperFunction*%
%TD*%
%TA.AperFunction,SMDPad,CuDef*%
%TO.P,S17,1*%
%TO.N,second_only*%
G36*
X249981923Y-195924284D02*
G01*
X248681923Y-198175950D01*
X246430257Y-196875950D01*
X247730257Y-194624284D01*
X249981923Y-195924284D01*
G37*
%TD.AperFunction*%
%TA.AperFunction,SMDPad,CuDef*%
%TO.P,S17,2*%
%TO.N,P6*%
G36*
X241079330Y-188244028D02*
G01*
X239779330Y-190495694D01*
X237527664Y-189195694D01*
X238827664Y-186944028D01*
X241079330Y-188244028D01*
G37*
%TD.AperFunction*%
%TD*%
%TA.AperFunction,SMDPad,CuDef*%
%TO.P,D17,2*%
%TO.N,second_only*%
G36*
X250105626Y-184160024D02*
G01*
X249505626Y-185199254D01*
X248726204Y-184749254D01*
X249326204Y-183710024D01*
X250105626Y-184160024D01*
G37*
%TD.AperFunction*%
%TA.AperFunction,SMDPad,CuDef*%
%TO.P,D17,1*%
%TO.N,P10*%
G36*
X252963510Y-185810024D02*
G01*
X252363510Y-186849254D01*
X251584088Y-186399254D01*
X252184088Y-185360024D01*
X252963510Y-185810024D01*
G37*
%TD.AperFunction*%
%TD*%
%TA.AperFunction,SMDPad,CuDef*%
%TO.P,S18,1*%
%TO.N,third_only*%
G36*
X264905659Y-207347534D02*
G01*
X263234411Y-209339250D01*
X261242695Y-207668002D01*
X262913943Y-205676286D01*
X264905659Y-207347534D01*
G37*
%TD.AperFunction*%
%TA.AperFunction,SMDPad,CuDef*%
%TO.P,S18,2*%
%TO.N,P5*%
G36*
X257471979Y-198238039D02*
G01*
X255800731Y-200229755D01*
X253809015Y-198558507D01*
X255480263Y-196566791D01*
X257471979Y-198238039D01*
G37*
%TD.AperFunction*%
%TD*%
%TA.AperFunction,SMDPad,CuDef*%
%TO.P,D18,2*%
%TO.N,third_only*%
G36*
X267070326Y-195783479D02*
G01*
X266298980Y-196702732D01*
X265609540Y-196124223D01*
X266380886Y-195204970D01*
X267070326Y-195783479D01*
G37*
%TD.AperFunction*%
%TA.AperFunction,SMDPad,CuDef*%
%TO.P,D18,1*%
%TO.N,P10*%
G36*
X269598272Y-197904679D02*
G01*
X268826926Y-198823932D01*
X268137486Y-198245423D01*
X268908832Y-197326170D01*
X269598272Y-197904679D01*
G37*
%TD.AperFunction*%
%TD*%
%TO.P,REF\u002A\u002A,1*%
%TO.N,GND*%
%TA.AperFunction,ComponentPad*%
G36*
G01*
X267542287Y-148527293D02*
X267594581Y-147929577D01*
G75*
G02*
X268461262Y-147202346I796956J-69725D01*
G01*
X268461262Y-147202346D01*
G75*
G02*
X269188493Y-148069027I-69725J-796956D01*
G01*
X269136199Y-148666743D01*
G75*
G02*
X268269518Y-149393974I-796956J69725D01*
G01*
X268269518Y-149393974D01*
G75*
G02*
X267542287Y-148527293I69725J796956D01*
G01*
G37*
%TD.AperFunction*%
%TO.P,REF\u002A\u002A,2*%
%TA.AperFunction,ComponentPad*%
G36*
G01*
X263055663Y-147030563D02*
X263107957Y-146432847D01*
G75*
G02*
X263974638Y-145705616I796956J-69725D01*
G01*
X263974638Y-145705616D01*
G75*
G02*
X264701869Y-146572297I-69725J-796956D01*
G01*
X264649575Y-147170013D01*
G75*
G02*
X263782894Y-147897244I-796956J69725D01*
G01*
X263782894Y-147897244D01*
G75*
G02*
X263055663Y-147030563I69725J796956D01*
G01*
G37*
%TD.AperFunction*%
%TO.P,REF\u002A\u002A,3*%
%TO.N,P2*%
%TA.AperFunction,ComponentPad*%
G36*
G01*
X263404286Y-143045784D02*
X263456580Y-142448068D01*
G75*
G02*
X264323261Y-141720837I796956J-69725D01*
G01*
X264323261Y-141720837D01*
G75*
G02*
X265050492Y-142587518I-69725J-796956D01*
G01*
X264998198Y-143185234D01*
G75*
G02*
X264131517Y-143912465I-796956J69725D01*
G01*
X264131517Y-143912465D01*
G75*
G02*
X263404286Y-143045784I69725J796956D01*
G01*
G37*
%TD.AperFunction*%
%TO.P,REF\u002A\u002A,4*%
%TO.N,VCC*%
%TA.AperFunction,ComponentPad*%
G36*
G01*
X263665753Y-140057200D02*
X263718047Y-139459484D01*
G75*
G02*
X264584728Y-138732253I796956J-69725D01*
G01*
X264584728Y-138732253D01*
G75*
G02*
X265311959Y-139598934I-69725J-796956D01*
G01*
X265259665Y-140196650D01*
G75*
G02*
X264392984Y-140923881I-796956J69725D01*
G01*
X264392984Y-140923881D01*
G75*
G02*
X263665753Y-140057200I69725J796956D01*
G01*
G37*
%TD.AperFunction*%
%TO.P,REF\u002A\u002A,1*%
%TO.N,GND*%
%TA.AperFunction,ComponentPad*%
G36*
G01*
X262959791Y-148126377D02*
X263012085Y-147528661D01*
G75*
G02*
X263878766Y-146801430I796956J-69725D01*
G01*
X263878766Y-146801430D01*
G75*
G02*
X264605997Y-147668111I-69725J-796956D01*
G01*
X264553703Y-148265827D01*
G75*
G02*
X263687022Y-148993058I-796956J69725D01*
G01*
X263687022Y-148993058D01*
G75*
G02*
X262959791Y-148126377I69725J796956D01*
G01*
G37*
%TD.AperFunction*%
%TO.P,REF\u002A\u002A,2*%
%TA.AperFunction,ComponentPad*%
G36*
G01*
X267638158Y-147431479D02*
X267690452Y-146833763D01*
G75*
G02*
X268557133Y-146106532I796956J-69725D01*
G01*
X268557133Y-146106532D01*
G75*
G02*
X269284364Y-146973213I-69725J-796956D01*
G01*
X269232070Y-147570929D01*
G75*
G02*
X268365389Y-148298160I-796956J69725D01*
G01*
X268365389Y-148298160D01*
G75*
G02*
X267638158Y-147431479I69725J796956D01*
G01*
G37*
%TD.AperFunction*%
%TO.P,REF\u002A\u002A,3*%
%TO.N,P2*%
%TA.AperFunction,ComponentPad*%
G36*
G01*
X267986781Y-143446700D02*
X268039075Y-142848984D01*
G75*
G02*
X268905756Y-142121753I796956J-69725D01*
G01*
X268905756Y-142121753D01*
G75*
G02*
X269632987Y-142988434I-69725J-796956D01*
G01*
X269580693Y-143586150D01*
G75*
G02*
X268714012Y-144313381I-796956J69725D01*
G01*
X268714012Y-144313381D01*
G75*
G02*
X267986781Y-143446700I69725J796956D01*
G01*
G37*
%TD.AperFunction*%
%TO.P,REF\u002A\u002A,4*%
%TO.N,VCC*%
%TA.AperFunction,ComponentPad*%
G36*
G01*
X268248249Y-140458116D02*
X268300543Y-139860400D01*
G75*
G02*
X269167224Y-139133169I796956J-69725D01*
G01*
X269167224Y-139133169D01*
G75*
G02*
X269894455Y-139999850I-69725J-796956D01*
G01*
X269842161Y-140597566D01*
G75*
G02*
X268975480Y-141324797I-796956J69725D01*
G01*
X268975480Y-141324797D01*
G75*
G02*
X268248249Y-140458116I69725J796956D01*
G01*
G37*
%TD.AperFunction*%
%TD*%
D17*
%TO.N,pinky_bottom*%
X156468750Y-171750000D03*
X159070392Y-179132892D03*
%TO.N,P9*%
X149271438Y-153495406D03*
X153671361Y-169916144D03*
X167812500Y-173531250D03*
%TO.N,P16*%
X198656250Y-142312500D03*
X218343750Y-148218750D03*
X236062500Y-152625000D03*
X179156250Y-149437500D03*
X162375000Y-170906250D03*
%TO.N,pinky_home*%
X152062500Y-155343750D03*
X154670469Y-162732969D03*
%TO.N,P14*%
X198656250Y-125343750D03*
X219843750Y-131250000D03*
X237562500Y-135656250D03*
X177656250Y-132562500D03*
X157968750Y-154500000D03*
%TO.N,pinky_top*%
X147656250Y-138937500D03*
X150270545Y-146708045D03*
%TO.N,P15*%
X221343750Y-114375000D03*
X239062500Y-118687500D03*
X176156250Y-115593750D03*
X153562500Y-138093750D03*
X198656250Y-108281250D03*
%TO.N,ring_bottom*%
X173250000Y-149718750D03*
X174562500Y-157406250D03*
%TO.N,P8*%
X167531250Y-129562500D03*
X169406250Y-146343750D03*
X171375000Y-163031250D03*
%TO.N,ring_home*%
X171750000Y-132843750D03*
X173343750Y-140718750D03*
%TO.N,ring_top*%
X170250000Y-115875000D03*
X171656250Y-123843750D03*
%TO.N,middle_bottom*%
X192750000Y-142312500D03*
X192750000Y-150375000D03*
%TO.N,P7*%
X187443113Y-121838137D03*
X187443113Y-138786863D03*
X196087001Y-159694249D03*
X228093750Y-182343750D03*
%TO.N,middle_home*%
X192750000Y-125343750D03*
X193312500Y-133312500D03*
%TO.N,middle_top*%
X192750000Y-108281250D03*
X192750000Y-116250000D03*
%TO.N,index_bottom*%
X212531250Y-147843750D03*
X212531250Y-156000000D03*
%TO.N,P6*%
X209392711Y-125205211D03*
X207911063Y-142098563D03*
X206429416Y-161633084D03*
X245906250Y-190687500D03*
%TO.N,index_home*%
X213937500Y-130968750D03*
X213937500Y-139218750D03*
%TO.N,index_top*%
X215437500Y-114000000D03*
X214781250Y-122156250D03*
%TO.N,inner_bottom*%
X230156250Y-152343750D03*
X230156250Y-160593750D03*
%TO.N,P5*%
X227077274Y-128827274D03*
X225595627Y-146470627D03*
X224113979Y-163832729D03*
X265031250Y-197906250D03*
%TO.N,inner_home*%
X231656250Y-135281250D03*
X231656250Y-143531250D03*
%TO.N,inner_top*%
X233156250Y-118406250D03*
X233156250Y-126656250D03*
%TO.N,first_only*%
X229406250Y-176062500D03*
X227250000Y-184032874D03*
%TO.N,P10*%
X235218750Y-177187500D03*
X253687500Y-186187500D03*
X270468750Y-198093750D03*
X250687500Y-182343750D03*
%TO.N,second_only*%
X247968750Y-184406250D03*
X245156250Y-191531250D03*
%TO.N,third_only*%
X264750000Y-195937500D03*
X260812500Y-201562500D03*
%TD*%
D18*
%TO.N,pinky_bottom*%
X156489183Y-171770433D02*
X156468750Y-171750000D01*
X157805953Y-171770433D02*
X156489183Y-171770433D01*
X163457461Y-179132892D02*
X159070392Y-179132892D01*
X165397206Y-181072637D02*
X163457461Y-179132892D01*
%TO.N,P9*%
X153443750Y-181709349D02*
X153671361Y-181936960D01*
X149271438Y-153495406D02*
X149271438Y-165516221D01*
X144871514Y-149095482D02*
X149271438Y-153495406D01*
X149271438Y-165516221D02*
X153671361Y-169916144D01*
X153671361Y-174296361D02*
X157484889Y-174296361D01*
X153671361Y-169916144D02*
X153671361Y-174296361D01*
X153671361Y-174296361D02*
X153671361Y-181936960D01*
X157484889Y-174296361D02*
X158718750Y-173062500D01*
X167343750Y-173062500D02*
X167812500Y-173531250D01*
X158718750Y-173062500D02*
X167343750Y-173062500D01*
%TO.N,P16*%
X197368113Y-142300361D02*
X197368113Y-142006887D01*
X197380252Y-142312500D02*
X197368113Y-142300361D01*
X198656250Y-142312500D02*
X197380252Y-142312500D01*
X218319552Y-148194552D02*
X218343750Y-148218750D01*
X217079260Y-148194552D02*
X218319552Y-148194552D01*
X234802917Y-152625000D02*
X234763824Y-152585907D01*
X236062500Y-152625000D02*
X234802917Y-152625000D01*
X177823464Y-149437500D02*
X177806786Y-149454178D01*
X179156250Y-149437500D02*
X177823464Y-149437500D01*
X161003590Y-170906250D02*
X160993509Y-170916331D01*
X162375000Y-170906250D02*
X161003590Y-170906250D01*
X243765653Y-161333756D02*
X240281250Y-157849353D01*
X240281250Y-156843750D02*
X236062500Y-152625000D01*
X240281250Y-157849353D02*
X240281250Y-156843750D01*
%TO.N,pinky_home*%
X152068444Y-155349694D02*
X152062500Y-155343750D01*
X153406029Y-155349694D02*
X152068444Y-155349694D01*
X159078354Y-162732969D02*
X154670469Y-162732969D01*
X160997283Y-164651898D02*
X159078354Y-162732969D01*
%TO.N,P14*%
X197368113Y-125300361D02*
X197368113Y-125368113D01*
X176325138Y-132518868D02*
X176325138Y-132543888D01*
X197411502Y-125343750D02*
X197368113Y-125300361D01*
X198656250Y-125343750D02*
X197411502Y-125343750D01*
X219834508Y-131259242D02*
X219843750Y-131250000D01*
X218560908Y-131259242D02*
X219834508Y-131259242D01*
X237556847Y-135650597D02*
X237562500Y-135656250D01*
X236245471Y-135650597D02*
X237556847Y-135650597D01*
X176368770Y-132562500D02*
X176325138Y-132518868D01*
X177656250Y-132562500D02*
X176368770Y-132562500D01*
X156597993Y-154500000D02*
X156593585Y-154495592D01*
X157968750Y-154500000D02*
X156597993Y-154500000D01*
X243987029Y-158803421D02*
X241406250Y-156222642D01*
X241406250Y-139500000D02*
X237562500Y-135656250D01*
X241406250Y-156222642D02*
X241406250Y-139500000D01*
%TO.N,pinky_top*%
X147664795Y-138928955D02*
X147656250Y-138937500D01*
X149006106Y-138928955D02*
X147664795Y-138928955D01*
X155074245Y-146708045D02*
X150270545Y-146708045D01*
X156597359Y-148231159D02*
X155074245Y-146708045D01*
%TO.N,P15*%
X174843491Y-115583558D02*
X174843491Y-115713491D01*
X221292682Y-114323932D02*
X221343750Y-114375000D01*
X220042556Y-114323932D02*
X221292682Y-114323932D01*
X239034713Y-118715287D02*
X239062500Y-118687500D01*
X237727119Y-118715287D02*
X239034713Y-118715287D01*
X176146058Y-115583558D02*
X176156250Y-115593750D01*
X174843491Y-115583558D02*
X176146058Y-115583558D01*
X152212559Y-138093750D02*
X152193662Y-138074853D01*
X153562500Y-138093750D02*
X152212559Y-138093750D01*
X197387225Y-108281250D02*
X197368113Y-108300362D01*
X198656250Y-108281250D02*
X197387225Y-108281250D01*
X242718750Y-122343750D02*
X239062500Y-118687500D01*
X242718750Y-154783433D02*
X242718750Y-122343750D01*
X244208404Y-156273087D02*
X242718750Y-154783433D01*
%TO.N,ring_bottom*%
X173273042Y-149741792D02*
X173250000Y-149718750D01*
X174519344Y-149741792D02*
X173273042Y-149741792D01*
X177565326Y-157406250D02*
X174562500Y-157406250D01*
X180379957Y-160220881D02*
X177565326Y-157406250D01*
%TO.N,P8*%
X167200519Y-137425733D02*
X167200519Y-142100592D01*
X165718871Y-135944085D02*
X167200519Y-137425733D01*
X165718871Y-125165282D02*
X165718871Y-135944085D01*
X167200519Y-157554255D02*
X168682166Y-159035902D01*
X167200519Y-142100592D02*
X167200519Y-157554255D01*
X167531250Y-126977661D02*
X165718871Y-125165282D01*
X167531250Y-129562500D02*
X167531250Y-126977661D01*
X169406250Y-144306323D02*
X167200519Y-142100592D01*
X169406250Y-146343750D02*
X169406250Y-144306323D01*
X171375000Y-161728736D02*
X168682166Y-159035902D01*
X171375000Y-163031250D02*
X171375000Y-161728736D01*
%TO.N,ring_home*%
X171787268Y-132806482D02*
X171750000Y-132843750D01*
X173037696Y-132806482D02*
X171787268Y-132806482D01*
X176331489Y-140718750D02*
X173343750Y-140718750D01*
X178898310Y-143285571D02*
X176331489Y-140718750D01*
%TO.N,ring_top*%
X170253828Y-115871172D02*
X170250000Y-115875000D01*
X171556049Y-115871172D02*
X170253828Y-115871172D01*
X174910151Y-123843750D02*
X171656250Y-123843750D01*
X177416662Y-126350261D02*
X174910151Y-123843750D01*
%TO.N,middle_bottom*%
X198993113Y-154174387D02*
X198993113Y-153250361D01*
X194068113Y-142300361D02*
X194068113Y-142036863D01*
X194055974Y-142312500D02*
X194068113Y-142300361D01*
X192750000Y-142312500D02*
X194055974Y-142312500D01*
X196117752Y-150375000D02*
X192750000Y-150375000D01*
X198993113Y-153250361D02*
X196117752Y-150375000D01*
%TO.N,P7*%
X187443113Y-121838137D02*
X187443113Y-134050361D01*
X187443113Y-117050361D02*
X187443113Y-121838137D01*
X187443113Y-138786863D02*
X187443113Y-151050361D01*
X187443113Y-134050361D02*
X187443113Y-138786863D01*
X187443113Y-151050361D02*
X196087001Y-159694249D01*
X228093750Y-182343750D02*
X228093750Y-179531250D01*
X228093750Y-179531250D02*
X226406250Y-177843750D01*
X221534054Y-180641946D02*
X221534054Y-182025377D01*
X224332250Y-177843750D02*
X221534054Y-180641946D01*
X226406250Y-177843750D02*
X224332250Y-177843750D01*
X196087001Y-159694249D02*
X196087001Y-167962001D01*
X196087001Y-167962001D02*
X209062500Y-180937500D01*
X220446177Y-180937500D02*
X221534054Y-182025377D01*
X209062500Y-180937500D02*
X220446177Y-180937500D01*
%TO.N,middle_home*%
X194024724Y-125343750D02*
X194068113Y-125300361D01*
X192750000Y-125343750D02*
X194024724Y-125343750D01*
X196055252Y-133312500D02*
X193312500Y-133312500D01*
X198993113Y-136250361D02*
X196055252Y-133312500D01*
%TO.N,middle_top*%
X194068113Y-108300362D02*
X194067138Y-108300362D01*
X198993113Y-119250361D02*
X198993113Y-119884387D01*
X194068113Y-108300362D02*
X194068113Y-108556887D01*
X192769112Y-108300362D02*
X192750000Y-108281250D01*
X194068113Y-108300362D02*
X192769112Y-108300362D01*
X195992752Y-116250000D02*
X192750000Y-116250000D01*
X198993113Y-119250361D02*
X195992752Y-116250000D01*
%TO.N,index_bottom*%
X213791818Y-147906938D02*
X213780562Y-147906938D01*
X213728630Y-147843750D02*
X213791818Y-147906938D01*
X212531250Y-147843750D02*
X213728630Y-147843750D01*
X217743722Y-159244512D02*
X217743722Y-158774972D01*
X214968750Y-156000000D02*
X212531250Y-156000000D01*
X217743722Y-158774972D02*
X214968750Y-156000000D01*
%TO.N,P6*%
X207911063Y-133995187D02*
X207911063Y-139110924D01*
X209392711Y-132513539D02*
X207911063Y-133995187D01*
X206429416Y-150851834D02*
X206429416Y-156046234D01*
X207911063Y-149370187D02*
X206429416Y-150851834D01*
X239303497Y-184178497D02*
X239303497Y-188719861D01*
X234187500Y-179062500D02*
X239303497Y-184178497D01*
X231341802Y-179062500D02*
X234187500Y-179062500D01*
X229466802Y-177187500D02*
X231341802Y-179062500D01*
X209392711Y-125205211D02*
X209392711Y-132513539D01*
X209392711Y-122175615D02*
X209392711Y-125205211D01*
X207911063Y-142098563D02*
X207911063Y-149370187D01*
X207911063Y-139110924D02*
X207911063Y-142098563D01*
X206429416Y-156046234D02*
X206429416Y-161633084D01*
X245906250Y-190687500D02*
X243562500Y-188343750D01*
X243562500Y-188343750D02*
X242718750Y-188343750D01*
X242718750Y-188343750D02*
X242156250Y-187781250D01*
X240242108Y-187781250D02*
X239303497Y-188719861D01*
X242156250Y-187781250D02*
X240242108Y-187781250D01*
X206429416Y-161633084D02*
X206429416Y-163304416D01*
X206429416Y-163304416D02*
X207750000Y-164625000D01*
X229458248Y-177187500D02*
X229466802Y-177187500D01*
X216895748Y-164625000D02*
X229458248Y-177187500D01*
X207750000Y-164625000D02*
X216895748Y-164625000D01*
%TO.N,index_home*%
X215270588Y-130968750D02*
X215273466Y-130971628D01*
X213937500Y-130968750D02*
X215270588Y-130968750D01*
X219225369Y-142309202D02*
X219225369Y-141975369D01*
X219225369Y-141975369D02*
X216468750Y-139218750D01*
X216468750Y-139218750D02*
X213937500Y-139218750D01*
%TO.N,index_top*%
X216755114Y-114036318D02*
X216755114Y-114088636D01*
X216718796Y-114000000D02*
X216755114Y-114036318D01*
X215437500Y-114000000D02*
X216718796Y-114000000D01*
X217489374Y-122156250D02*
X214781250Y-122156250D01*
X220707017Y-125373893D02*
X217489374Y-122156250D01*
%TO.N,inner_bottom*%
X231476382Y-152298293D02*
X231476382Y-152336118D01*
X230201707Y-152298293D02*
X230156250Y-152343750D01*
X231476382Y-152298293D02*
X230201707Y-152298293D01*
X235428285Y-163635867D02*
X235428285Y-163147035D01*
X232875000Y-160593750D02*
X230156250Y-160593750D01*
X235428285Y-163147035D02*
X232875000Y-160593750D01*
%TO.N,P5*%
X225595627Y-139373123D02*
X225595627Y-143502279D01*
X227077274Y-137891476D02*
X225595627Y-139373123D01*
X224113979Y-156229771D02*
X224113979Y-160437589D01*
X225595627Y-154748123D02*
X224113979Y-156229771D01*
X224113979Y-168988979D02*
X229687500Y-174562500D01*
X229687500Y-174562500D02*
X235125000Y-174562500D01*
X235125000Y-174562500D02*
X243843750Y-183281250D01*
X243843750Y-183281250D02*
X253031250Y-183281250D01*
X255640497Y-185890497D02*
X255640497Y-198398273D01*
X253031250Y-183281250D02*
X255640497Y-185890497D01*
X227077274Y-128827274D02*
X227077274Y-137891476D01*
X227077274Y-126566970D02*
X227077274Y-128827274D01*
X225595627Y-146470627D02*
X225595627Y-154748123D01*
X225595627Y-143502279D02*
X225595627Y-146470627D01*
X224113979Y-163832729D02*
X224113979Y-168988979D01*
X224113979Y-160437589D02*
X224113979Y-163832729D01*
X265031250Y-197906250D02*
X261750000Y-194625000D01*
X259413770Y-194625000D02*
X255640497Y-198398273D01*
X261750000Y-194625000D02*
X259413770Y-194625000D01*
%TO.N,inner_home*%
X232958029Y-135362983D02*
X232887017Y-135362983D01*
X232876296Y-135281250D02*
X232958029Y-135362983D01*
X231656250Y-135281250D02*
X232876296Y-135281250D01*
X236909933Y-146700557D02*
X236909933Y-145878683D01*
X234562500Y-143531250D02*
X231656250Y-143531250D01*
X236909933Y-145878683D02*
X234562500Y-143531250D01*
%TO.N,inner_top*%
X234439677Y-118427673D02*
X234439677Y-118435323D01*
X234418254Y-118406250D02*
X234439677Y-118427673D01*
X233156250Y-118406250D02*
X234418254Y-118406250D01*
X238391580Y-129765248D02*
X238391580Y-129172830D01*
X235875000Y-126656250D02*
X233156250Y-126656250D01*
X238391580Y-129172830D02*
X235875000Y-126656250D01*
%TO.N,first_only*%
X230745744Y-176062500D02*
X230752194Y-176068950D01*
X229406250Y-176062500D02*
X230745744Y-176062500D01*
X231635059Y-188043033D02*
X231635059Y-186072559D01*
X229595374Y-184032874D02*
X227250000Y-184032874D01*
X231635059Y-186072559D02*
X229595374Y-184032874D01*
%TO.N,P10*%
X233863296Y-177187500D02*
X233853180Y-177197616D01*
X235218750Y-177187500D02*
X233863296Y-177187500D01*
X252356660Y-186187500D02*
X252273799Y-186104639D01*
X253687500Y-186187500D02*
X252356660Y-186187500D01*
X268886578Y-198093750D02*
X268867879Y-198075051D01*
X270468750Y-198093750D02*
X268886578Y-198093750D01*
X243544278Y-175200528D02*
X250687500Y-182343750D01*
X243544278Y-163864090D02*
X243544278Y-175200528D01*
%TO.N,second_only*%
X248017139Y-184454639D02*
X247968750Y-184406250D01*
X249415915Y-184454639D02*
X248017139Y-184454639D01*
X248206090Y-194581090D02*
X245156250Y-191531250D01*
X248206090Y-196400117D02*
X248206090Y-194581090D01*
%TO.N,third_only*%
X264766351Y-195953851D02*
X264750000Y-195937500D01*
X266339933Y-195953851D02*
X264766351Y-195953851D01*
X263074177Y-207507768D02*
X263074177Y-203824177D01*
X263074177Y-203824177D02*
X260812500Y-201562500D01*
%TO.N,GND*%
X262027003Y-144949667D02*
X263878766Y-146801430D01*
X260497290Y-144949667D02*
X262027003Y-144949667D01*
%TO.N,VCC*%
X264488856Y-137551356D02*
X264488856Y-139828067D01*
X262593750Y-135656250D02*
X264488856Y-137551356D01*
X259968750Y-135656250D02*
X262593750Y-135656250D01*
X254660640Y-140964360D02*
X259968750Y-135656250D01*
X247972336Y-140964360D02*
X254660640Y-140964360D01*
X245315282Y-143621414D02*
X247972336Y-140964360D01*
%TD*%
M02*
