0
SECTION
2
HEADER
9
$INSUNITS
70
4
0
ENDSEC
0
SECTION
2
TABLES
0
TABLE
2
LTYPE
0
LTYPE
72
65
70
64
2
CONTINUOUS
3
______
73
0
40
0
0
ENDTAB
0
TABLE
2
LAYER
0
ENDTAB
0
ENDSEC
0
SECTION
2
ENTITIES
0
LINE
8
0
10
8.0726315
20
-10.8601829
11
23.5274447
21
-6.7190782
0
ARC
8
0
10
23.2686256
20
-5.7531523
40
1
50
285
51
15
0
LINE
8
0
10
22.0797436
20
2.5475192
11
24.2345515
21
-5.4943333
0
LINE
8
0
10
-5.8342466
20
37.1772894
11
6.8478866
21
-10.1530761
0
ARC
8
0
10
7.8138124
20
-9.8942571
40
1
50
195
51
285
0
LINE
8
0
10
-5.1271398
20
38.4020343
11
15.9665148
21
44.054062
0
ARC
8
0
10
-4.8683207
20
37.4361084
40
1
50
105
51
195
0
LINE
8
0
10
16.9223778
20
61.5724701
11
18.1786419
21
47.2133066
0
LINE
8
0
10
17.8314168
20
62.6558205
11
36.8858302
21
64.3228656
0
ARC
8
0
10
17.9185725
20
61.6596258
40
1
50
95
51
185
0
LINE
8
0
10
57.6243631
20
68.8728959
11
57.6243631
21
69.7933885
0
ARC
8
0
10
56.6243631
20
69.7933885
40
1
50
0
51
90
0
LINE
8
0
10
56.6243631
20
70.7933885
11
40.6243631
21
70.7933885
0
ARC
8
0
10
40.6243631
20
69.7933885
40
1
50
90
51
180
0
LINE
8
0
10
39.6243631
20
69.7933885
11
39.6243631
21
67.3114497
0
LINE
8
0
10
80.3289409
20
61.293353
11
80.4887265
21
63.11971
0
ARC
8
0
10
79.4925318
20
63.2068657
40
1
50
355
51
85
0
LINE
8
0
10
60.362896
20
65.8843118
11
79.5796875
21
64.2030604
0
LINE
8
0
10
111.2359078
20
-9.9657888
11
113.9633822
21
21.2093867
0
LINE
8
0
10
99.7673819
20
42.5277727
11
120.6874704
21
40.6975021
0
LINE
8
0
10
122.4558742
20
26.4893092
11
123.4145874
21
37.4474509
0
LINE
8
0
10
119.205823
20
23.7621922
11
117.2134334
21
23.9365037
0
LINE
8
0
10
97.0402649
20
45.7778239
11
98.1732896
21
58.728355
0
ARC
8
0
10
97.1770949
20
58.8155107
40
1
50
355
51
85
0
LINE
8
0
10
80.3289409
20
61.293353
11
97.2642506
21
59.8117054
0
LINE
8
0
10
26.0035815
20
6.1430542
11
88.8844739
21
-16.7437189
0
LINE
8
0
10
89.3584135
20
-16.9647207
11
103.9293104
21
-25.3772319
0
ARC
8
0
10
104.4293104
20
-24.5112065
40
1
50
240
51
267.2532941
0
LINE
8
0
10
111.6470751
20
-10.2031764
11
111.2359078
21
-9.9657888
0
LINE
8
0
10
104.3813897
20
-25.5100576
11
117.960879
21
-36.9046021
0
ARC
8
0
10
118.6036666
20
-36.1385577
40
1
50
230
51
320
0
LINE
8
0
10
119.369711
20
-36.7813453
11
129.0115252
21
-25.2906787
0
ARC
8
0
10
128.2454807
20
-24.6478911
40
1
50
320
51
50
0
LINE
8
0
10
112.0352906
20
-9.7405192
11
128.8882683
21
-23.8818466
0
LINE
8
0
10
111.6470751
20
-10.2031764
11
112.0352906
21
-9.7405192
0
ARC
8
0
10
24.9775211
20
3.3239762
40
3
50
70.0000019
51
194.9999979
0
ARC
8
0
10
87.8584135
20
-19.5627969
40
3
50
59.9999999
51
70.0000019
0
ARC
8
0
10
116.9519663
20
20.9479196
40
3
50
85.0000024
51
175.0000024
0
ARC
8
0
10
119.4672901
20
26.7507763
40
3
50
265.0000024
51
355.0000024
0
ARC
8
0
10
120.4260033
20
37.708918
40
3
50
355.0000024
51
85.0000024
0
ARC
8
0
10
100.028849
20
45.5163568
40
3
50
175.0000024
51
265.0000024
0
ARC
8
0
10
60.6243631
20
68.8728959
40
3
50
180
51
265.0000024
0
ARC
8
0
10
36.6243631
20
67.3114497
40
3
50
274.9999976
51
0
0
ARC
8
0
10
15.1900578
20
46.9518395
40
3
50
284.9999979
51
4.9999976
0
ENDSEC
0
EOF