0
SECTION
2
HEADER
9
$INSUNITS
70
4
0
ENDSEC
0
SECTION
2
TABLES
0
TABLE
2
LTYPE
0
LTYPE
72
65
70
64
2
CONTINUOUS
3
______
73
0
40
0
0
ENDTAB
0
TABLE
2
LAYER
0
ENDTAB
0
ENDSEC
0
SECTION
2
ENTITIES
0
LINE
8
0
10
7.1067056
20
-11.1190019
11
24.4933705
21
-6.4602591
0
ARC
8
0
10
24.2345515
20
-5.4943333
40
1
50
285
51
15
0
LINE
8
0
10
23.2268964
20
2.1299898
11
25.2004773
21
-5.2355142
0
LINE
8
0
10
-2.4002486
20
20.4977313
11
5.8819608
21
-10.4118951
0
ARC
8
0
10
6.8478866
20
-10.1530761
40
1
50
195
51
285
0
LINE
8
0
10
-6.0930656
20
38.1432152
11
14.985688
21
43.7912502
0
ARC
8
0
10
-5.8342466
20
37.1772894
40
1
50
105
51
195
0
LINE
8
0
10
-6.8001724
20
36.9184703
11
-2.4002486
21
20.4977314
0
LINE
8
0
10
15.9261831
20
61.4853143
11
17.1978151
21
46.9504948
0
LINE
8
0
10
16.8352221
20
62.5686647
11
35.8858302
21
64.235377
0
ARC
8
0
10
16.9223778
20
61.5724701
40
1
50
95
51
185
0
LINE
8
0
10
58.6243631
20
68.7854072
11
58.6243631
21
69.7933885
0
ARC
8
0
10
57.6243631
20
69.7933885
40
1
50
0
51
90
0
LINE
8
0
10
57.6243631
20
70.7933885
11
39.6243631
21
70.7933885
0
ARC
8
0
10
39.6243631
20
69.7933885
40
1
50
90
51
180
0
LINE
8
0
10
38.6243631
20
69.7933885
11
38.6243631
21
67.2239611
0
LINE
8
0
10
81.3251356
20
61.2061972
11
81.4849212
21
63.0325542
0
ARC
8
0
10
80.4887265
20
63.11971
40
1
50
355
51
85
0
LINE
8
0
10
61.362896
20
65.7968231
11
80.5758822
21
64.1159046
0
LINE
8
0
10
112.3802178
20
-8.3599784
11
114.9595769
21
21.122231
0
LINE
8
0
10
100.7635766
20
42.4406169
11
121.6836651
21
40.6103464
0
LINE
8
0
10
123.4520689
20
26.4021535
11
124.4107821
21
37.3602952
0
LINE
8
0
10
120.2020177
20
23.6750365
11
118.2096281
21
23.849348
0
LINE
8
0
10
98.0364596
20
45.6906681
11
99.1694843
21
58.6411992
0
ARC
8
0
10
98.1732896
20
58.728355
40
1
50
355
51
85
0
LINE
8
0
10
81.3251356
20
61.2061972
11
98.2604453
21
59.7245496
0
LINE
8
0
10
27.1507343
20
5.7255247
11
88.8844741
21
-16.743719
0
LINE
8
0
10
89.3584137
20
-16.9647208
11
104.6438014
21
-25.7897434
0
LINE
8
0
10
114.6591499
20
-11.9421985
11
115.0273866
21
-12.1548001
0
LINE
8
0
10
115.0273866
20
-12.1548001
11
114.9898992
21
-12.2197302
0
LINE
8
0
10
105.0721642
20
-26.0896864
11
118.7269234
21
-37.5473898
0
ARC
8
0
10
119.369711
20
-36.7813453
40
1
50
230
51
320
0
LINE
8
0
10
120.1357555
20
-37.4241329
11
129.7775696
21
-25.9334663
0
ARC
8
0
10
129.0115252
20
-25.2906787
40
1
50
320
51
50
0
LINE
8
0
10
114.9898992
20
-12.2197302
11
129.6543128
21
-24.5246342
0
LINE
8
0
10
113.4404391
20
-10.9195788
11
114.6591499
21
-11.9421985
0
ARC
8
0
10
26.124674
20
2.9064468
40
3
50
70.0000019
51
194.9999979
0
ARC
8
0
10
87.8584137
20
-19.562797
40
3
50
59.9999999
51
70.0000019
0
ARC
8
0
10
103.1438014
20
-28.3878196
40
3
50
49.9999988
51
59.9999999
0
ARC
8
0
10
115.368802
20
-8.6214455
40
3
50
175.0000024
51
229.9999988
0
ARC
8
0
10
117.948161
20
20.8607639
40
3
50
85.0000024
51
175.0000024
0
ARC
8
0
10
120.4634848
20
26.6636206
40
3
50
265.0000024
51
355.0000024
0
ARC
8
0
10
121.422198
20
37.6217623
40
3
50
355.0000024
51
85.0000024
0
ARC
8
0
10
101.0250437
20
45.429201
40
3
50
175.0000024
51
265.0000024
0
ARC
8
0
10
61.6243631
20
68.7854072
40
3
50
180
51
265.0000024
0
ARC
8
0
10
35.6243631
20
67.2239611
40
3
50
274.9999976
51
0
0
ARC
8
0
10
14.209231
20
46.6890277
40
3
50
284.9999979
51
4.9999976
0
ENDSEC
0
EOF