0
SECTION
2
HEADER
9
$INSUNITS
70
4
0
ENDSEC
0
SECTION
2
TABLES
0
TABLE
2
LTYPE
0
LTYPE
72
65
70
64
2
CONTINUOUS
3
______
73
0
40
0
0
ENDTAB
0
TABLE
2
LAYER
0
ENDTAB
0
ENDSEC
0
SECTION
2
ENTITIES
0
LINE
8
0
10
7.4949342
20
-12.5678907
11
24.8815991
21
-7.9091479
0
ARC
8
0
10
24.62278
20
-6.943222
40
1
50
285
51
15
0
LINE
8
0
10
22.2092758
20
5.9278019
11
25.5887059
21
-6.684403
0
LINE
8
0
10
-7.188401
20
38.3673591
11
6.2701893
21
-11.8607839
0
ARC
8
0
10
7.2361152
20
-11.6019648
40
1
50
195
51
285
0
LINE
8
0
10
-6.4812942
20
39.592104
11
17.2844618
21
45.9601191
0
ARC
8
0
10
-6.2224751
20
38.6261781
40
1
50
105
51
195
0
LINE
8
0
10
15.7954495
20
62.9796064
11
17.2844618
21
45.9601191
0
LINE
8
0
10
16.7044885
20
64.0629568
11
38.6243631
21
65.9806973
0
ARC
8
0
10
16.7916442
20
63.0667621
40
1
50
95
51
185
0
LINE
8
0
10
58.6243631
20
67.5421435
11
58.6243631
21
71.2933885
0
ARC
8
0
10
57.6243631
20
71.2933885
40
1
50
0
51
90
0
LINE
8
0
10
57.6243631
20
72.2933885
11
39.6243631
21
72.2933885
0
ARC
8
0
10
39.6243631
20
71.2933885
40
1
50
90
51
180
0
LINE
8
0
10
38.6243631
20
71.2933885
11
38.6243631
21
65.9806973
0
LINE
8
0
10
81.4558692
20
62.7004893
11
81.6156548
21
64.5268463
0
ARC
8
0
10
80.6194601
20
64.614002
40
1
50
355
51
85
0
LINE
8
0
10
58.6243631
20
67.5421435
11
80.7066158
21
65.6101967
0
LINE
8
0
10
115.2092057
20
-10.4456393
11
118.7761406
21
30.3246134
0
LINE
8
0
10
97.905726
20
44.1963763
11
119.8220095
21
42.2789499
0
LINE
8
0
10
119.8220095
20
42.2789499
11
118.950452
21
32.3170029
0
LINE
8
0
10
118.950452
20
32.3170029
11
118.7761406
21
30.3246134
0
LINE
8
0
10
97.905726
20
44.1963763
11
99.3002179
21
60.1354913
0
ARC
8
0
10
98.3040232
20
60.222647
40
1
50
355
51
85
0
LINE
8
0
10
81.4558692
20
62.7004893
11
98.3911789
21
61.2188417
0
LINE
8
0
10
22.2092758
20
5.9278019
11
88.4947623
21
-18.1981422
0
LINE
8
0
10
88.4947623
20
-18.1981422
11
104.0074526
21
-27.1543981
0
LINE
8
0
10
115.5228008
20
-10.7087768
11
115.7773866
21
-10.855762
0
LINE
8
0
10
115.7773866
20
-10.855762
11
115.7514691
21
-10.9006523
0
LINE
8
0
10
104.0074526
20
-27.1543981
11
117.762742
21
-38.6964564
0
ARC
8
0
10
118.4055296
20
-37.930412
40
1
50
230
51
320
0
LINE
8
0
10
119.171574
20
-38.5731996
11
130.741751
21
-24.7843996
0
ARC
8
0
10
129.9757066
20
-24.141612
40
1
50
320
51
50
0
LINE
8
0
10
115.7514691
20
-10.9006523
11
130.6184942
21
-23.3755676
0
LINE
8
0
10
115.2092057
20
-10.4456393
11
115.5228008
21
-10.7087768
0
ENDSEC
0
EOF