0
SECTION
2
HEADER
9
$INSUNITS
70
4
0
ENDSEC
0
SECTION
2
TABLES
0
TABLE
2
LTYPE
0
LTYPE
72
65
70
64
2
CONTINUOUS
3
______
73
0
40
0
0
ENDTAB
0
TABLE
2
LAYER
0
ENDTAB
0
ENDSEC
0
SECTION
2
ENTITIES
0
LINE
8
0
10
7.1067056
20
-11.1190019
11
24.4933705
21
-6.4602591
0
ARC
8
0
10
24.2345515
20
-5.4943333
40
1
50
285
51
15
0
LINE
8
0
10
21.7353362
20
7.6965684
11
25.2004773
21
-5.2355142
0
LINE
8
0
10
-2.4002486
20
20.4977313
11
5.8819608
21
-10.4118951
0
ARC
8
0
10
6.8478866
20
-10.1530761
40
1
50
195
51
285
0
LINE
8
0
10
-6.0930656
20
38.1432152
11
17.4172121
21
44.4427751
0
ARC
8
0
10
-5.8342466
20
37.1772894
40
1
50
105
51
195
0
LINE
8
0
10
-6.8001724
20
36.9184703
11
-2.4002486
21
20.4977314
0
LINE
8
0
10
15.9261831
20
61.4853143
11
17.4172121
21
44.4427751
0
LINE
8
0
10
16.8352221
20
62.5686647
11
38.6243631
21
64.4749676
0
ARC
8
0
10
16.9223778
20
61.5724701
40
1
50
95
51
185
0
LINE
8
0
10
58.6243631
20
66.0364137
11
58.6243631
21
69.7933885
0
ARC
8
0
10
57.6243631
20
69.7933885
40
1
50
0
51
90
0
LINE
8
0
10
57.6243631
20
70.7933885
11
39.6243631
21
70.7933885
0
ARC
8
0
10
39.6243631
20
69.7933885
40
1
50
90
51
180
0
LINE
8
0
10
38.6243631
20
69.7933885
11
38.6243631
21
64.4749676
0
LINE
8
0
10
81.3251356
20
61.2061972
11
81.4849212
21
63.0325542
0
ARC
8
0
10
80.4887265
20
63.11971
40
1
50
355
51
85
0
LINE
8
0
10
58.6243631
20
66.0364137
11
80.5758822
21
64.1159046
0
LINE
8
0
10
112.2441066
20
-9.9157367
11
115.2210442
21
24.1108152
0
LINE
8
0
10
97.7749924
20
42.7020842
11
124.6722493
21
40.3488792
0
LINE
8
0
10
123.1906017
20
23.4135693
11
124.6722493
21
40.3488792
0
LINE
8
0
10
123.1906017
20
23.4135693
11
115.2210442
21
24.1108152
0
LINE
8
0
10
97.7749924
20
42.7020842
11
99.1694843
21
58.6411992
0
ARC
8
0
10
98.1732896
20
58.728355
40
1
50
355
51
85
0
LINE
8
0
10
81.3251356
20
61.2061972
11
98.2604453
21
59.7245496
0
LINE
8
0
10
21.7353362
20
7.6965684
11
89.1311114
21
-16.8334877
0
LINE
8
0
10
89.1311114
20
-16.8334877
11
104.8711034
21
-25.9209763
0
LINE
8
0
10
114.6591499
20
-11.9421985
11
115.0273866
21
-12.1548001
0
LINE
8
0
10
115.0273866
20
-12.1548001
11
114.9898992
21
-12.2197302
0
LINE
8
0
10
104.8711034
20
-25.9209763
11
118.7269234
21
-37.5473898
0
ARC
8
0
10
119.369711
20
-36.7813453
40
1
50
230
51
320
0
LINE
8
0
10
120.1357555
20
-37.4241329
11
129.7775696
21
-25.9334663
0
ARC
8
0
10
129.0115252
20
-25.2906787
40
1
50
320
51
50
0
LINE
8
0
10
114.9898992
20
-12.2197302
11
129.6543128
21
-24.5246342
0
LINE
8
0
10
112.2441066
20
-9.9157367
11
114.6591499
21
-11.9421985
0
ENDSEC
0
EOF