0
SECTION
2
HEADER
9
$INSUNITS
70
4
0
ENDSEC
0
SECTION
2
TABLES
0
TABLE
2
LTYPE
0
LTYPE
72
65
70
64
2
CONTINUOUS
3
______
73
0
40
0
0
ENDTAB
0
TABLE
2
LAYER
0
ENDTAB
0
ENDSEC
0
SECTION
2
ENTITIES
0
LINE
8
0
10
7.4949342
20
-12.5678907
11
24.8815991
21
-7.9091479
0
ARC
8
0
10
24.62278
20
-6.943222
40
1
50
285
51
15
0
LINE
8
0
10
23.7008361
20
0.3612232
11
25.5887059
21
-6.684403
0
LINE
8
0
10
-7.188401
20
38.3673591
11
6.2701893
21
-11.8607839
0
ARC
8
0
10
7.2361152
20
-11.6019648
40
1
50
195
51
285
0
LINE
8
0
10
-6.4812942
20
39.592104
11
14.8529376
21
45.3085942
0
ARC
8
0
10
-6.2224751
20
38.6261781
40
1
50
105
51
195
0
LINE
8
0
10
15.7954495
20
62.9796064
11
17.0650647
21
48.4678388
0
LINE
8
0
10
16.7044885
20
64.0629568
11
35.8858302
21
65.7411067
0
ARC
8
0
10
16.7916442
20
63.0667621
40
1
50
95
51
185
0
LINE
8
0
10
58.6243631
20
70.291137
11
58.6243631
21
71.2933885
0
ARC
8
0
10
57.6243631
20
71.2933885
40
1
50
0
51
90
0
LINE
8
0
10
57.6243631
20
72.2933885
11
39.6243631
21
72.2933885
0
ARC
8
0
10
39.6243631
20
71.2933885
40
1
50
90
51
180
0
LINE
8
0
10
38.6243631
20
71.2933885
11
38.6243631
21
68.7296909
0
LINE
8
0
10
81.4558692
20
62.7004893
11
81.6156548
21
64.5268463
0
ARC
8
0
10
80.6194601
20
64.614002
40
1
50
355
51
85
0
LINE
8
0
10
61.362896
20
67.3025529
11
80.7066158
21
65.6101967
0
LINE
8
0
10
112.5398141
20
-6.5357847
11
114.8288433
21
19.6279389
0
LINE
8
0
10
100.8943102
20
43.934909
11
121.8143988
21
42.1046384
0
LINE
8
0
10
123.3213353
20
24.9078614
11
124.5415158
21
38.8545872
0
LINE
8
0
10
120.0712841
20
22.1807444
11
118.0788945
21
22.3550559
0
LINE
8
0
10
98.1671932
20
47.1849602
11
99.3002179
21
60.1354913
0
ARC
8
0
10
98.3040232
20
60.222647
40
1
50
355
51
85
0
LINE
8
0
10
81.4558692
20
62.7004893
11
98.3911789
21
61.2188417
0
LINE
8
0
10
27.6246739
20
3.9567582
11
88.248125
21
-18.1083735
0
LINE
8
0
10
88.7220647
20
-18.3293753
11
103.7801505
21
-27.0231652
0
LINE
8
0
10
115.5228008
20
-10.7087768
11
115.7773866
21
-10.855762
0
LINE
8
0
10
115.7773866
20
-10.855762
11
115.7514691
21
-10.9006523
0
LINE
8
0
10
104.2085134
20
-27.3231081
11
117.762742
21
-38.6964564
0
ARC
8
0
10
118.4055296
20
-37.930412
40
1
50
230
51
320
0
LINE
8
0
10
119.171574
20
-38.5731996
11
130.741751
21
-24.7843996
0
ARC
8
0
10
129.9757066
20
-24.141612
40
1
50
320
51
50
0
LINE
8
0
10
115.7514691
20
-10.9006523
11
130.6184942
21
-23.3755676
0
LINE
8
0
10
113.6000354
20
-9.0953851
11
115.5228008
21
-10.7087768
0
ARC
8
0
10
26.5986136
20
1.1376803
40
3
50
70.0000019
51
194.9999979
0
ARC
8
0
10
87.2220647
20
-20.9274515
40
3
50
59.9999999
51
70.0000019
0
ARC
8
0
10
102.2801505
20
-29.6212414
40
3
50
49.9999988
51
59.9999999
0
ARC
8
0
10
115.5283982
20
-6.7972518
40
3
50
175.0000024
51
229.9999988
0
ARC
8
0
10
117.8174274
20
19.3664718
40
3
50
85.0000024
51
175.0000024
0
ARC
8
0
10
120.3327512
20
25.1693285
40
3
50
265.0000024
51
355.0000024
0
ARC
8
0
10
121.5529317
20
39.1160543
40
3
50
355.0000024
51
85.0000024
0
ARC
8
0
10
101.1557773
20
46.9234931
40
3
50
175.0000024
51
265.0000024
0
ARC
8
0
10
61.6243631
20
70.291137
40
3
50
180
51
265.0000024
0
ARC
8
0
10
35.6243631
20
68.7296909
40
3
50
274.9999976
51
0
0
ARC
8
0
10
14.0764806
20
48.2063717
40
3
50
284.9999979
51
4.9999976
0
ENDSEC
0
EOF