<?xml version="1.0" encoding="UTF-8" standalone="no"?>
<!-- Created with Inkscape (http://www.inkscape.org/) -->

<svg
   width="210mm"
   height="297mm"
   viewBox="0 0 210 297"
   version="1.1"
   id="svg5"
   inkscape:version="1.1.1 (3bf5ae0d25, 2021-09-20)"
   sodipodi:docname="Description.svg"
   xmlns:inkscape="http://www.inkscape.org/namespaces/inkscape"
   xmlns:sodipodi="http://sodipodi.sourceforge.net/DTD/sodipodi-0.dtd"
   xmlns="http://www.w3.org/2000/svg"
   xmlns:svg="http://www.w3.org/2000/svg">
  <sodipodi:namedview
     id="namedview7"
     pagecolor="#ffffff"
     bordercolor="#666666"
     borderopacity="1.0"
     inkscape:pageshadow="2"
     inkscape:pageopacity="0.0"
     inkscape:pagecheckerboard="0"
     inkscape:document-units="mm"
     showgrid="false"
     inkscape:zoom="3.6233469"
     inkscape:cx="258.04871"
     inkscape:cy="142.13378"
     inkscape:window-width="3840"
     inkscape:window-height="2080"
     inkscape:window-x="-11"
     inkscape:window-y="-11"
     inkscape:window-maximized="1"
     inkscape:current-layer="g29120" />
  <defs
     id="defs2" />
  <g
     inkscape:label="F.SilkS"
     inkscape:groupmode="layer"
     id="layer1"
     style="display:inline">
    <g
       id="g27923"
       transform="matrix(0.26679389,0,0,0.26679389,1.1861355,0.99688543)">
      <g
         aria-label="The Archimedes Tux (ThAT_0.1) 
Remixed By: @Albert-IV
Original Project: 
@tapioki/cephalopoda (A Dux)"
         id="text5600"
         style="font-size:6.35px;line-height:1.25;font-family:'FiraCode Nerd Font';-inkscape-font-specification:'FiraCode Nerd Font, Normal';font-variant-ligatures:none;stroke-width:0.264583">
        <path
           d="M 3.7799945,2.8315225 H 5.141174 L 5.1997894,2.3463174 H 1.8163792 v 0.4852051 h 1.4002564 v 3.9988718 h 0.5633589 z"
           id="path27964" />
        <path
           d="M 6.6651646,1.9685738 6.1180877,2.0271892 V 6.8303943 H 6.6651646 V 4.3327276 c 0.1791026,-0.270282 0.5275385,-0.5731282 0.9183077,-0.5731282 0.4070513,0 0.5926667,0.182359 0.5926667,0.5926667 V 6.8303943 H 8.7232159 V 4.3392405 c 0,-0.6317436 -0.2930769,-1.0094872 -0.9638974,-1.0094872 -0.4037949,0 -0.8238718,0.182359 -1.0941539,0.5405641 z"
           id="path27966" />
        <path
           d="m 10.455617,5.3096507 h 2.305538 c 0.0065,-0.074897 0.01303,-0.182359 0.01303,-0.2995897 0,-1.0420513 -0.527539,-1.6803077 -1.393744,-1.6803077 -0.911795,0 -1.4979484,0.7522308 -1.4979484,1.7910256 0,1.0648461 0.5666154,1.7845128 1.5695894,1.7845128 0.42659,0 0.859693,-0.1530513 1.178821,-0.4037949 L 12.373642,6.1400353 c -0.302846,0.2051538 -0.566615,0.309359 -0.915051,0.309359 -0.530795,0 -0.973667,-0.3451795 -1.002974,-1.1397436 z M 11.38695,3.7791379 c 0.514513,0 0.846667,0.3744872 0.859692,1.1071795 h -1.787769 c 0.04559,-0.7554872 0.416821,-1.1071795 0.928077,-1.1071795 z"
           id="path27968" />
        <path
           d="m 20.009906,5.6873943 0.358205,1.143 h 0.592666 L 19.501906,2.3463174 h -0.722923 l -1.458872,4.4840769 h 0.556846 l 0.358205,-1.143 z M 18.3817,5.2184712 19.127418,2.8217533 19.863367,5.2184712 Z"
           id="path27970" />
        <path
           d="m 24.064126,3.3264969 c -0.621974,0 -0.967153,0.3223846 -1.230923,0.8857436 L 22.732255,3.4013943 h -0.950872 v 0.4200769 h 0.534051 v 2.5888462 h -0.534051 v 0.4200769 h 1.778 V 6.4103174 h -0.696872 v -1.452359 c 0.227949,-0.7554872 0.59918,-1.1267179 1.129974,-1.1267179 h 0.02931 v 0.7294359 h 0.449385 l 0.07815,-1.1592821 c -0.156308,-0.04559 -0.293077,-0.074897 -0.485206,-0.074897 z"
           id="path27972" />
        <path
           d="m 27.206554,6.4331122 c -0.58941,0 -1.016,-0.3875128 -1.016,-1.3025641 0,-0.905282 0.423334,-1.3448974 1.016,-1.3448974 0.29959,0 0.592667,0.1042052 0.885744,0.3061026 l 0.267026,-0.364718 c -0.325641,-0.2637692 -0.706641,-0.397282 -1.146257,-0.397282 -1.029025,0 -1.615179,0.7717692 -1.615179,1.8007948 0,1.0746154 0.582897,1.7747436 1.608666,1.7747436 0.403795,0 0.859693,-0.1595641 1.159282,-0.4135641 L 28.098811,6.1335225 c -0.254,0.1758461 -0.547077,0.2995897 -0.892257,0.2995897 z"
           id="path27974" />
        <path
           d="m 30.111262,1.9685738 -0.547076,0.058615 v 4.8032051 h 0.547076 V 4.3327276 c 0.179103,-0.270282 0.527539,-0.5731282 0.918308,-0.5731282 0.407051,0 0.592667,0.182359 0.592667,0.5926667 v 2.4781282 h 0.547077 V 4.3392405 c 0,-0.6317436 -0.293077,-1.0094872 -0.963898,-1.0094872 -0.403795,0 -0.823871,0.182359 -1.094154,0.5405641 z"
           id="path27976" />
        <path
           d="m 34.771176,1.7959841 c -0.231205,0 -0.394026,0.1660769 -0.394026,0.381 0,0.2214359 0.162821,0.3907692 0.394026,0.3907692 0.24423,0 0.400538,-0.1693333 0.400538,-0.3907692 0,-0.2149231 -0.156308,-0.381 -0.400538,-0.381 z m 0.436359,1.6054102 h -1.572847 v 0.4331026 h 1.02577 v 2.5627948 h -1.058334 v 0.4331026 h 2.572564 V 6.3972917 h -0.967153 z"
           id="path27978" />
        <path
           d="m 39.639501,3.3297533 c -0.351692,0 -0.569872,0.182359 -0.755487,0.452641 -0.107462,-0.3549487 -0.361462,-0.452641 -0.621975,-0.452641 -0.341923,0 -0.560102,0.2051538 -0.745717,0.4689231 l -0.03257,-0.3972821 h -0.429846 v 3.429 H 37.55865 V 4.1666507 c 0.188872,-0.2930769 0.387513,-0.4103077 0.599179,-0.4103077 0.247488,0 0.26377,0.1791026 0.26377,0.6089487 V 6.8303943 H 38.93286 V 4.1666507 c 0.188872,-0.2930769 0.394026,-0.4103077 0.599179,-0.4103077 0.247488,0 0.26377,0.1791026 0.26377,0.6089487 v 2.4651026 h 0.508 V 4.2773687 c 0,-0.7913077 -0.338667,-0.9476154 -0.664308,-0.9476154 z"
           id="path27980" />
        <path
           d="m 41.717079,5.3096507 h 2.305538 c 0.0065,-0.074897 0.01303,-0.182359 0.01303,-0.2995897 0,-1.0420513 -0.527538,-1.6803077 -1.393744,-1.6803077 -0.911794,0 -1.497948,0.7522308 -1.497948,1.7910256 0,1.0648461 0.566615,1.7845128 1.569589,1.7845128 0.42659,0 0.859693,-0.1530513 1.178821,-0.4037949 l -0.25726,-0.3614615 c -0.302847,0.2051538 -0.566616,0.309359 -0.915052,0.309359 -0.530795,0 -0.973666,-0.3451795 -1.002974,-1.1397436 z m 0.931333,-1.5305128 c 0.514513,0 0.846667,0.3744872 0.859693,1.1071795 h -1.78777 c 0.04559,-0.7554872 0.416821,-1.1071795 0.928077,-1.1071795 z"
           id="path27982" />
        <path
           d="M 47.246456,1.9522918 V 3.7335482 C 47.018507,3.4665225 46.722174,3.3297533 46.328148,3.3297533 c -0.846667,0 -1.344898,0.7587436 -1.344898,1.7910256 0,1.0615897 0.410308,1.7845128 1.305821,1.7845128 0.377744,0 0.71641,-0.1628205 0.973667,-0.5275385 l 0.0521,0.4526411 H 47.79353 V 2.0206764 Z M 46.47143,3.7693687 c 0.315872,0 0.58941,0.1628205 0.775026,0.4396154 v 1.7128717 c -0.185616,0.2800513 -0.455898,0.5405641 -0.843411,0.5405641 -0.537307,0 -0.823871,-0.452641 -0.823871,-1.341641 0,-0.905282 0.319128,-1.3514102 0.892256,-1.3514102 z"
           id="path27984" />
        <path
           d="m 49.532448,5.3096507 h 2.305538 c 0.0065,-0.074897 0.01303,-0.182359 0.01303,-0.2995897 0,-1.0420513 -0.527539,-1.6803077 -1.393744,-1.6803077 -0.911795,0 -1.497949,0.7522308 -1.497949,1.7910256 0,1.0648461 0.566616,1.7845128 1.56959,1.7845128 0.42659,0 0.859692,-0.1530513 1.178821,-0.4037949 L 51.450473,6.1400353 c -0.302846,0.2051538 -0.566615,0.309359 -0.915051,0.309359 -0.530795,0 -0.973667,-0.3451795 -1.002974,-1.1397436 z m 0.931333,-1.5305128 c 0.514513,0 0.846667,0.3744872 0.859692,1.1071795 h -1.787769 c 0.04559,-0.7554872 0.416821,-1.1071795 0.928077,-1.1071795 z"
           id="path27986" />
        <path
           d="m 54.176077,6.4526507 c -0.403795,0 -0.762,-0.1465385 -1.029026,-0.3712308 l -0.312615,0.3614616 c 0.293077,0.2539999 0.722923,0.4624102 1.341641,0.4624102 0.732692,0 1.445846,-0.2898205 1.445846,-1.0225128 0,-0.6415128 -0.442872,-0.8759743 -1.113692,-1.0583333 -0.693616,-0.1888718 -0.911795,-0.2963333 -0.911795,-0.6024359 0,-0.2637692 0.201897,-0.4493846 0.742461,-0.4493846 0.442872,0 0.739205,0.1302564 0.996462,0.3061025 L 55.576333,3.7074969 C 55.289769,3.4958302 54.882718,3.3297533 54.332385,3.3297533 c -0.775026,0 -1.302565,0.3582051 -1.302565,0.9345897 0,0.5959231 0.455898,0.8108462 1.169052,0.9866923 0.726179,0.182359 0.830384,0.3484359 0.830384,0.6577949 0,0.3321538 -0.325641,0.5438205 -0.853179,0.5438205 z"
           id="path27988" />
        <path
           d="m 62.395237,2.8315225 h 1.361179 l 0.05861,-0.4852051 h -3.38341 v 0.4852051 h 1.400257 v 3.9988718 h 0.563359 z"
           id="path27990" />
        <path
           d="m 65.280408,3.4013943 h -0.547077 v 2.4944102 c 0,0.635 0.325641,1.0094872 0.989949,1.0094872 0.400538,0 0.827128,-0.1888718 1.09741,-0.5373077 l 0.04559,0.4624103 h 0.465666 v -3.429 H 66.78487 v 2.5237179 c -0.185616,0.2930769 -0.55359,0.5438205 -0.928077,0.5438205 -0.397282,0 -0.576385,-0.1888718 -0.576385,-0.6382564 z"
           id="path27992" />
        <path
           d="m 68.973169,6.8303943 0.950872,-1.4718974 0.937846,1.4718974 h 0.670821 L 70.269221,4.9970353 71.3764,3.4013943 H 70.751169 L 69.946836,4.6779071 69.152272,3.4013943 h -0.648026 l 1.110436,1.6184359 -1.266743,1.8105641 z"
           id="path27994" />
        <path
           d="m 77.185812,4.5509071 c 0,-1.3644359 0.455898,-2.0580512 1.393744,-2.8916922 L 78.292992,1.3596251 c -1.058333,0.8629487 -1.680308,1.706359 -1.680308,3.191282 0,1.4849231 0.621975,2.3283333 1.680308,3.191282 L 78.579556,7.4425994 C 77.648223,6.6187276 77.185812,5.9088302 77.185812,4.5509071 Z"
           id="path27996" />
        <path
           d="m 81.933651,2.8315225 h 1.361179 l 0.05861,-0.4852051 h -3.38341 v 0.4852051 h 1.400257 v 3.9988718 h 0.563359 z"
           id="path27998" />
        <path
           d="m 84.818822,1.9685738 -0.547077,0.058615 v 4.8032051 h 0.547077 V 4.3327276 c 0.179103,-0.270282 0.527539,-0.5731282 0.918308,-0.5731282 0.407051,0 0.592666,0.182359 0.592666,0.5926667 v 2.4781282 h 0.547077 V 4.3392405 c 0,-0.6317436 -0.293077,-1.0094872 -0.963897,-1.0094872 -0.403795,0 -0.823872,0.182359 -1.094154,0.5405641 z"
           id="path28000" />
        <path
           d="m 90.348199,5.6873943 0.358205,1.143 H 91.29907 L 89.840199,2.3463174 h -0.722923 l -1.458872,4.4840769 h 0.556846 l 0.358205,-1.143 z M 88.719994,5.2184712 89.465712,2.8217533 90.20166,5.2184712 Z"
           id="path28002" />
        <path
           d="m 93.656704,2.8315225 h 1.361179 l 0.05862,-0.4852051 h -3.38341 v 0.4852051 h 1.400257 v 3.9988718 h 0.563359 z"
           id="path28004" />
        <path
           d="m 95.665901,8.0124712 h 3.25641 V 7.5337789 h -3.25641 z"
           id="path28006" />
        <path
           d="m 101.20178,2.2746764 c -0.96389,0 -1.468639,0.8271282 -1.468639,2.3120512 0,1.4914359 0.504749,2.3185641 1.468639,2.3185641 0.9639,0 1.46864,-0.8271282 1.46864,-2.3185641 0,-1.484923 -0.50474,-2.3120512 -1.46864,-2.3120512 z m 0,0.4396154 c 0.25726,0 0.4559,0.087923 0.59593,0.2898205 l -1.37095,2.754923 c -0.0782,-0.2898205 -0.11398,-0.6740769 -0.11398,-1.1723077 0,-1.3286153 0.33867,-1.8724358 0.889,-1.8724358 z m 0,3.7481281 c -0.254,0 -0.44613,-0.087923 -0.58941,-0.2865641 l 1.36444,-2.7679487 c 0.0814,0.2898205 0.11723,0.6773334 0.11723,1.1788205 0,1.3286154 -0.33541,1.8756923 -0.89226,1.8756923 z"
           id="path28008" />
        <path
           d="m 104.53308,6.3289071 c 0,0.3223846 0.24749,0.5763846 0.56987,0.5763846 0.3289,0 0.57639,-0.254 0.57639,-0.5763846 0,-0.3158718 -0.24749,-0.5698718 -0.57639,-0.5698718 -0.32238,0 -0.56987,0.254 -0.56987,0.5698718 z"
           id="path28010" />
        <path
           d="M 109.49584,6.3842661 V 2.3463174 h -0.47869 l -1.33513,0.8271282 0.23772,0.3907692 1.02903,-0.6252307 v 3.445282 h -1.10393 v 0.4461282 h 2.58885 V 6.3842661 Z"
           id="path28012" />
        <path
           d="m 113.49471,4.5509071 c 0,1.3579231 -0.46241,2.0678205 -1.39375,2.8916923 l 0.28657,0.2995897 c 1.05833,-0.8629487 1.68031,-1.7063589 1.68031,-3.191282 0,-1.484923 -0.62198,-2.3283333 -1.68031,-3.191282 l -0.28657,0.2995898 c 0.93785,0.833641 1.39375,1.5272563 1.39375,2.8916922 z"
           id="path28014" />
        <path
           d="m 5.0565073,11.540792 c 0,-0.827129 -0.579641,-1.256975 -1.6868205,-1.256975 H 2.2169176 v 4.484077 H 2.783533 v -1.924538 h 0.6056923 l 1.2244102,1.924538 H 5.2909689 L 3.9623535,12.778228 C 4.577815,12.628433 5.0565073,12.214869 5.0565073,11.540792 Z m -0.6056923,0 c 0,0.621974 -0.3712307,0.859692 -1.0159999,0.859692 H 2.783533 v -1.667282 h 0.6512821 c 0.6903589,0 1.0159999,0.234461 1.0159999,0.80759 z"
           id="path28016" />
        <path
           d="m 6.5479339,13.247151 h 2.3055384 c 0.00651,-0.0749 0.013026,-0.182359 0.013026,-0.29959 0,-1.042051 -0.5275384,-1.680308 -1.3937435,-1.680308 -0.9117949,0 -1.4979487,0.752231 -1.4979487,1.791026 0,1.064846 0.5666153,1.784513 1.5695897,1.784513 0.4265897,0 0.8596923,-0.153052 1.1788205,-0.403795 L 8.4659595,14.077535 c -0.3028462,0.205154 -0.5666154,0.309359 -0.9150513,0.309359 -0.5307949,0 -0.9736667,-0.345179 -1.0029743,-1.139743 z m 0.9313333,-1.530513 c 0.5145128,0 0.8466666,0.374487 0.8596923,1.107179 H 6.5511903 C 6.59678,12.06833 6.9680108,11.716638 7.4792672,11.716638 Z"
           id="path28018" />
        <path
           d="m 12.285719,11.267253 c -0.351692,0 -0.569871,0.182359 -0.755487,0.452641 -0.107461,-0.354949 -0.361461,-0.452641 -0.621974,-0.452641 -0.341923,0 -0.560103,0.205154 -0.745718,0.468923 L 10.12998,11.338894 H 9.7001296 v 3.429 h 0.5047434 v -2.663743 c 0.188872,-0.293077 0.387513,-0.410308 0.59918,-0.410308 0.247487,0 0.263769,0.179102 0.263769,0.608949 v 2.465102 h 0.511256 v -2.663743 c 0.188872,-0.293077 0.394026,-0.410308 0.59918,-0.410308 0.247487,0 0.263769,0.179102 0.263769,0.608949 v 2.465102 h 0.508 v -2.553025 c 0,-0.791308 -0.338667,-0.947616 -0.664308,-0.947616 z"
           id="path28020" />
        <path
           d="m 15.232762,9.733484 c -0.231205,0 -0.394026,0.1660769 -0.394026,0.381 0,0.221436 0.162821,0.390769 0.394026,0.390769 0.24423,0 0.400538,-0.169333 0.400538,-0.390769 0,-0.2149231 -0.156308,-0.381 -0.400538,-0.381 z m 0.436359,1.60541 h -1.572847 v 0.433103 h 1.02577 v 2.562795 H 14.06371 v 0.433102 h 2.572564 v -0.433102 h -0.967153 z"
           id="path28022" />
        <path
           d="m 18.17329,14.767894 0.950872,-1.471897 0.937846,1.471897 h 0.670821 l -1.263488,-1.833359 1.10718,-1.595641 H 19.95129 l -0.804333,1.276513 -0.794564,-1.276513 h -0.648026 l 1.110436,1.618436 -1.266744,1.810564 z"
           id="path28024" />
        <path
           d="m 22.178665,13.247151 h 2.305538 c 0.0065,-0.0749 0.01303,-0.182359 0.01303,-0.29959 0,-1.042051 -0.527538,-1.680308 -1.393744,-1.680308 -0.911794,0 -1.497948,0.752231 -1.497948,1.791026 0,1.064846 0.566615,1.784513 1.569589,1.784513 0.42659,0 0.859693,-0.153052 1.178821,-0.403795 l -0.257256,-0.361462 c -0.302847,0.205154 -0.566616,0.309359 -0.915052,0.309359 -0.530795,0 -0.973666,-0.345179 -1.002974,-1.139743 z m 0.931333,-1.530513 c 0.514513,0 0.846667,0.374487 0.859693,1.107179 h -1.78777 c 0.04559,-0.755487 0.416821,-1.107179 0.928077,-1.107179 z"
           id="path28026" />
        <path
           d="m 27.708042,9.8897917 v 1.7812563 c -0.227949,-0.267026 -0.524282,-0.403795 -0.918308,-0.403795 -0.846667,0 -1.344898,0.758744 -1.344898,1.791026 0,1.06159 0.410308,1.784513 1.305821,1.784513 0.377744,0 0.71641,-0.162821 0.973667,-0.527539 l 0.0521,0.452641 h 0.478692 V 9.9581763 Z m -0.775026,1.8170773 c 0.315872,0 0.58941,0.16282 0.775026,0.439615 v 1.712872 c -0.185616,0.280051 -0.455898,0.540564 -0.843411,0.540564 -0.537307,0 -0.823871,-0.452641 -0.823871,-1.341641 0,-0.905282 0.319128,-1.35141 0.892256,-1.35141 z"
           id="path28028" />
        <path
           d="m 36.330996,13.488125 c 0,-0.758744 -0.534051,-1.009487 -1.029025,-1.094154 0.429846,-0.09769 0.833641,-0.403795 0.833641,-0.980179 0,-0.879231 -0.801077,-1.129975 -1.585872,-1.129975 h -1.103923 v 4.484077 h 1.204871 c 0.823872,0 1.680308,-0.302846 1.680308,-1.279769 z m -0.775025,-2.045026 c 0,0.527539 -0.293077,0.748975 -0.823872,0.748975 h -0.722923 v -1.452359 h 0.667564 c 0.540564,0 0.879231,0.195384 0.879231,0.703384 z m 0.179102,2.064564 c 0,0.664308 -0.547077,0.794564 -0.986692,0.794564 H 34.009176 V 12.65774 h 0.765256 c 0.521026,0 0.960641,0.17259 0.960641,0.849923 z"
           id="path28030" />
        <path
           d="m 40.232168,11.338894 h -0.566616 l -0.97041,3.01218 -0.983436,-3.01218 h -0.586154 l 1.198359,3.429 h 0.182359 c -0.182359,0.530795 -0.384256,0.820616 -1.094154,0.941103 l 0.08467,0.436359 c 0.908539,-0.09118 1.289539,-0.657795 1.530513,-1.354667 z"
           id="path28032" />
        <path
           d="m 42.055746,11.964125 c 0,0.28982 0.227948,0.530795 0.524282,0.530795 0.302846,0 0.530795,-0.240975 0.530795,-0.530795 0,-0.293077 -0.227949,-0.524282 -0.530795,-0.524282 -0.296334,0 -0.524282,0.231205 -0.524282,0.524282 z m 0,2.347872 c 0,0.296333 0.227948,0.530795 0.524282,0.530795 0.302846,0 0.530795,-0.234462 0.530795,-0.530795 0,-0.283308 -0.227949,-0.524282 -0.530795,-0.524282 -0.296334,0 -0.524282,0.240974 -0.524282,0.524282 z"
           id="path28034" />
        <path
           d="m 50.294448,10.212176 c -0.579641,0 -1.201616,0.201898 -1.784513,0.709898 l 0.312615,0.364718 c 0.55359,-0.488462 1.055077,-0.59918 1.47841,-0.59918 1.198359,0 1.400257,0.989949 1.400257,2.233898 0,1.113692 0,1.996179 -0.407051,1.996179 -0.257257,0 -0.459154,-0.153051 -0.459154,-0.856436 v -1.924538 c -0.364718,-0.195385 -0.615462,-0.244231 -0.918308,-0.244231 -0.804333,0 -1.276513,0.547077 -1.276513,1.680308 0,0.862948 0.273539,1.491435 0.983436,1.491435 0.521026,0 0.768513,-0.332153 0.889,-0.631743 h 0.02605 c -0.0065,0.319128 0.221436,0.92482 0.765257,0.92482 0.784795,0 0.957384,-0.801077 0.957384,-2.442307 0,-1.331872 -0.283307,-2.702821 -1.966871,-2.702821 z m -0.351693,2.084103 c 0.156308,0 0.280052,0.02605 0.416821,0.09769 v 1.686821 c -0.07815,0.188871 -0.21818,0.573128 -0.670821,0.573128 -0.394025,0 -0.517769,-0.442872 -0.517769,-1.081128 0,-0.840154 0.179103,-1.276513 0.771769,-1.276513 z"
           id="path28036" />
        <path
           d="m 55.179051,13.624894 0.358205,1.143 h 0.592667 l -1.458872,-4.484077 h -0.722923 l -1.458872,4.484077 h 0.556846 l 0.358206,-1.143 z m -1.628205,-0.468923 0.745718,-2.396718 0.735949,2.396718 z"
           id="path28038" />
        <path
           d="m 58.253094,9.9581763 h -1.598897 v 0.4331027 h 1.051821 v 3.500641 c 0,0.595923 0.413564,0.950872 1.022512,0.950872 0.34518,0 0.628488,-0.08467 0.814103,-0.175847 l -0.146539,-0.400538 c -0.185615,0.0749 -0.37123,0.120487 -0.576384,0.120487 -0.332154,0 -0.566616,-0.127 -0.566616,-0.465667 z"
           id="path28040" />
        <path
           d="M 61.372724,11.785022 V 9.8897917 l -0.547077,0.068385 v 4.8097173 h 0.478692 l 0.03908,-0.354949 c 0.231205,0.293077 0.537308,0.429847 0.93459,0.429847 0.885743,0 1.357923,-0.752231 1.357923,-1.791026 0,-1.074615 -0.367975,-1.784513 -1.286282,-1.784513 -0.394026,0 -0.72618,0.188872 -0.976923,0.517769 z m 0.775025,2.614898 c -0.312615,0 -0.595923,-0.169334 -0.775025,-0.442872 v -1.699846 c 0.185615,-0.276795 0.475436,-0.550333 0.859692,-0.550333 0.527538,0 0.80759,0.446128 0.80759,1.341641 0,0.915051 -0.319128,1.35141 -0.892257,1.35141 z"
           id="path28042" />
        <path
           d="m 65.163177,13.247151 h 2.305539 c 0.0065,-0.0749 0.01302,-0.182359 0.01302,-0.29959 0,-1.042051 -0.527538,-1.680308 -1.393743,-1.680308 -0.911795,0 -1.497949,0.752231 -1.497949,1.791026 0,1.064846 0.566615,1.784513 1.56959,1.784513 0.42659,0 0.859692,-0.153052 1.17882,-0.403795 l -0.257256,-0.361462 c -0.302846,0.205154 -0.566615,0.309359 -0.915051,0.309359 -0.530795,0 -0.973667,-0.345179 -1.002975,-1.139743 z m 0.931334,-1.530513 c 0.514512,0 0.846666,0.374487 0.859692,1.107179 h -1.787769 c 0.04559,-0.755487 0.41682,-1.107179 0.928077,-1.107179 z"
           id="path28044" />
        <path
           d="m 70.956323,11.263997 c -0.621974,0 -0.967154,0.322384 -1.230923,0.885743 L 69.624451,11.338894 H 68.67358 v 0.420077 h 0.534051 v 2.588846 H 68.67358 v 0.420077 h 1.778 v -0.420077 h -0.696872 v -1.452359 c 0.227948,-0.755487 0.599179,-1.126718 1.129974,-1.126718 h 0.02931 v 0.729436 h 0.449384 l 0.07815,-1.159282 c -0.156307,-0.04559 -0.293077,-0.0749 -0.485205,-0.0749 z"
           id="path28046" />
        <path
           d="m 75.271059,14.595304 -0.211667,-0.37123 c -0.185615,0.09769 -0.400538,0.16282 -0.657795,0.16282 -0.468923,0 -0.654538,-0.205154 -0.654538,-0.586154 v -2.038512 h 1.120205 l 0.06513,-0.423334 h -1.185333 v -0.84341 l -0.547077,0.06513 v 0.778282 h -0.788051 v 0.423334 h 0.788051 v 2.045025 c 0,0.605692 0.41682,1.035539 1.152769,1.035539 0.319128,0 0.683846,-0.09444 0.918308,-0.247488 z"
           id="path28048" />
        <path
           d="m 76.449864,12.967099 h 2.611641 v -0.475436 h -2.611641 z"
           id="path28050" />
        <path
           d="m 82.946394,10.283817 h -2.566051 v 0.452641 h 0.996461 v 3.578795 h -0.996461 v 0.452641 h 2.566051 v -0.452641 h -0.996461 v -3.578795 h 0.996461 z"
           id="path28052" />
        <path
           d="M 85.584078,14.126381 84.38572,10.283817 h -0.608949 l 1.501205,4.484077 h 0.586154 l 1.501205,-4.484077 h -0.569872 z"
           id="path28054" />
        <path
           d="m 5.1607125,20.46824 c 0,-1.387231 -0.5601026,-2.318564 -1.651,-2.318564 -1.0908974,0 -1.651,0.963898 -1.651,2.325077 0,1.387231 0.5601026,2.305538 1.651,2.305538 1.0908974,0 1.651,-0.950871 1.651,-2.312051 z m -0.5926667,0 c 0,1.195103 -0.3028461,1.836616 -1.0583333,1.836616 -0.7359487,0 -1.0583333,-0.635 -1.0583333,-1.830103 0,-1.195103 0.3028461,-1.852897 1.0583333,-1.852897 0.7554872,0 1.0583333,0.651282 1.0583333,1.846384 z"
           id="path28056" />
        <path
           d="m 8.4333954,19.201497 c -0.6219744,0 -0.9671539,0.322384 -1.2309231,0.885743 L 7.1015236,19.276394 H 6.1506518 v 0.420077 h 0.5340513 v 2.588846 H 6.1506518 v 0.420077 h 1.778 V 22.285317 H 7.23178 V 20.832958 C 7.4597287,20.077471 7.8309595,19.70624 8.3617543,19.70624 h 0.029308 v 0.729436 h 0.4493846 l 0.078154,-1.159282 c -0.1563077,-0.04559 -0.2930769,-0.0749 -0.4852051,-0.0749 z"
           id="path28058" />
        <path
           d="m 11.325078,17.670984 c -0.231205,0 -0.394025,0.166077 -0.394025,0.381 0,0.221436 0.16282,0.390769 0.394025,0.390769 0.244231,0 0.400539,-0.169333 0.400539,-0.390769 0,-0.214923 -0.156308,-0.381 -0.400539,-0.381 z m 0.436359,1.60541 h -1.572846 v 0.433103 h 1.025769 v 2.562794 h -1.058333 v 0.433103 h 2.572564 v -0.433103 h -0.967154 z"
           id="path28060" />
        <path
           d="m 16.720941,18.911676 c -0.403795,0.175846 -0.696872,0.286564 -1.563077,0.289821 -0.80759,0 -1.367692,0.49823 -1.367692,1.191846 0,0.439615 0.182359,0.739205 0.576385,0.947615 -0.247488,0.162821 -0.377744,0.377744 -0.377744,0.59918 0,0.338666 0.270282,0.644769 0.862949,0.644769 h 0.612205 c 0.442872,0 0.775025,0.166077 0.775025,0.491718 0,0.374487 -0.332153,0.563359 -1.087641,0.563359 -0.768512,0 -0.950871,-0.185616 -0.950871,-0.586154 h -0.494975 c 0,0.696872 0.354949,1.032282 1.449103,1.032282 1.042051,0 1.637974,-0.371231 1.637974,-1.045308 0,-0.527538 -0.521025,-0.931333 -1.211384,-0.931333 H 14.96248 c -0.354949,0 -0.459154,-0.123744 -0.459154,-0.286564 0,-0.130257 0.0749,-0.260513 0.179102,-0.332154 0.143282,0.04559 0.280052,0.06513 0.511257,0.06513 0.810846,0 1.289538,-0.488461 1.289538,-1.165795 0,-0.390769 -0.198641,-0.680589 -0.595923,-0.862948 0.384257,0 0.709898,-0.0098 1.002974,-0.100949 z m -1.563077,0.690359 c 0.501487,0 0.758744,0.270282 0.758744,0.788051 0,0.504744 -0.263769,0.801077 -0.745718,0.801077 -0.560103,0 -0.820616,-0.332154 -0.820616,-0.79782 0,-0.459154 0.254,-0.791308 0.80759,-0.791308 z"
           id="path28062" />
        <path
           d="m 19.140444,17.670984 c -0.231205,0 -0.394026,0.166077 -0.394026,0.381 0,0.221436 0.162821,0.390769 0.394026,0.390769 0.244231,0 0.400539,-0.169333 0.400539,-0.390769 0,-0.214923 -0.156308,-0.381 -0.400539,-0.381 z m 0.436359,1.60541 h -1.572846 v 0.433103 h 1.025769 v 2.562794 h -1.058333 v 0.433103 h 2.572564 v -0.433103 h -0.967154 z"
           id="path28064" />
        <path
           d="m 21.748819,22.705394 h 0.547077 v -2.497667 c 0.179102,-0.267025 0.521025,-0.573128 0.92482,-0.573128 0.517769,0 0.586154,0.283308 0.586154,0.983436 v 2.087359 h 0.547077 V 20.21424 c 0,-0.631743 -0.289821,-1.009487 -0.963897,-1.009487 -0.397282,0 -0.85318,0.195385 -1.133231,0.547077 l -0.04233,-0.475436 h -0.465666 z"
           id="path28066" />
        <path
           d="m 28.111836,21.95642 v -1.644487 c 0,-0.677334 -0.429846,-1.10718 -1.283025,-1.10718 -0.332154,0 -0.703385,0.05861 -1.120205,0.214923 l 0.143282,0.413564 c 0.354948,-0.123743 0.664307,-0.175846 0.892256,-0.175846 0.511257,0 0.817359,0.185615 0.817359,0.68059 v 0.286564 H 27.05676 c -1.042052,0 -1.608667,0.390769 -1.608667,1.09741 0,0.638257 0.420077,1.058333 1.107179,1.058333 0.442872,0 0.830385,-0.16282 1.074616,-0.481948 0.09769,0.306102 0.332154,0.442872 0.628487,0.481948 l 0.133513,-0.384256 C 28.19976,22.33742 28.111836,22.233215 28.111836,21.95642 Z m -1.416538,0.407051 c -0.446128,0 -0.661051,-0.221436 -0.661051,-0.648026 0,-0.439615 0.276795,-0.719666 1.032282,-0.719666 h 0.494974 v 0.882487 c -0.205154,0.306102 -0.527538,0.485205 -0.866205,0.485205 z"
           id="path28068" />
        <path
           d="m 30.899314,17.895676 h -1.598898 v 0.433103 h 1.051821 v 3.500641 c 0,0.595923 0.413564,0.950871 1.022513,0.950871 0.345179,0 0.628487,-0.08467 0.814102,-0.175846 l -0.146538,-0.400538 c -0.185616,0.0749 -0.371231,0.120487 -0.576385,0.120487 -0.332154,0 -0.566615,-0.127 -0.566615,-0.465667 z"
           id="path28070" />
        <path
           d="m 40.352655,19.598779 c 0,-0.941103 -0.661051,-1.377462 -1.729154,-1.377462 h -1.146256 v 4.484077 h 0.566615 v -1.664026 h 0.573128 c 1.012744,0 1.735667,-0.394025 1.735667,-1.442589 z m -0.605692,0.0065 c 0,0.768512 -0.452641,0.980179 -1.077872,0.980179 H 38.04386 v -1.914769 h 0.648026 c 0.608948,0 1.055077,0.240974 1.055077,0.93459 z"
           id="path28072" />
        <path
           d="m 43.60254,19.201497 c -0.621974,0 -0.967153,0.322384 -1.230923,0.885743 l -0.100948,-0.810846 h -0.950872 v 0.420077 h 0.534051 v 2.588846 h -0.534051 v 0.420077 h 1.778 v -0.420077 h -0.696872 v -1.452359 c 0.227949,-0.755487 0.59918,-1.126718 1.129974,-1.126718 h 0.02931 v 0.729436 h 0.449385 l 0.07815,-1.159282 c -0.156308,-0.04559 -0.293077,-0.0749 -0.485206,-0.0749 z"
           id="path28074" />
        <path
           d="m 46.500738,19.204753 c -0.967154,0 -1.481667,0.732692 -1.481667,1.791026 0,1.077871 0.508,1.784512 1.475154,1.784512 0.960641,0 1.475154,-0.742461 1.475154,-1.791025 0,-1.087641 -0.501488,-1.784513 -1.468641,-1.784513 z m 0,0.446128 c 0.582897,0 0.882487,0.42659 0.882487,1.338385 0,0.911795 -0.29959,1.341641 -0.889,1.341641 -0.58941,0 -0.889,-0.429846 -0.889,-1.335128 0,-0.918308 0.306102,-1.344898 0.895513,-1.344898 z"
           id="path28076" />
        <path
           d="m 50.835012,17.670984 c -0.234462,0 -0.39077,0.166077 -0.39077,0.381 0,0.221436 0.156308,0.390769 0.39077,0.390769 0.240974,0 0.403795,-0.169333 0.403795,-0.390769 0,-0.214923 -0.162821,-0.381 -0.403795,-0.381 z m 0.511256,1.60541 h -1.973384 v 0.433103 h 1.426307 v 2.481384 c 0,0.921564 -0.713154,1.302564 -1.729154,1.471898 l 0.09118,0.423333 c 1.380718,-0.231205 2.185051,-0.784795 2.185051,-1.931051 z"
           id="path28078" />
        <path
           d="m 53.440128,21.18465 h 2.305539 c 0.0065,-0.0749 0.01303,-0.182359 0.01303,-0.299589 0,-1.042052 -0.527538,-1.680308 -1.393743,-1.680308 -0.911795,0 -1.497949,0.752231 -1.497949,1.791026 0,1.064846 0.566615,1.784512 1.56959,1.784512 0.426589,0 0.859692,-0.153051 1.17882,-0.403794 l -0.257256,-0.361462 c -0.302846,0.205154 -0.566616,0.309359 -0.915052,0.309359 -0.530794,0 -0.973666,-0.345179 -1.002974,-1.139744 z m 0.931333,-1.530512 c 0.514513,0 0.846667,0.374487 0.859693,1.107179 h -1.787769 c 0.04559,-0.755487 0.41682,-1.107179 0.928076,-1.107179 z"
           id="path28080" />
        <path
           d="m 58.468018,22.308112 c -0.589411,0 -1.016,-0.387513 -1.016,-1.302564 0,-0.905282 0.423333,-1.344898 1.016,-1.344898 0.299589,0 0.592666,0.104206 0.885743,0.306103 l 0.267026,-0.364718 c -0.325641,-0.263769 -0.706641,-0.397282 -1.146257,-0.397282 -1.029025,0 -1.615179,0.771769 -1.615179,1.800795 0,1.074615 0.582897,1.774743 1.608667,1.774743 0.403794,0 0.859692,-0.159564 1.159282,-0.413564 l -0.267026,-0.358205 c -0.254,0.175846 -0.547077,0.29959 -0.892256,0.29959 z"
           id="path28082" />
        <path
           d="m 63.548006,22.532804 -0.211667,-0.37123 c -0.185615,0.09769 -0.400538,0.16282 -0.657795,0.16282 -0.468923,0 -0.654538,-0.205154 -0.654538,-0.586154 v -2.038513 h 1.120205 l 0.06513,-0.423333 h -1.185333 v -0.84341 l -0.547077,0.06513 v 0.778282 H 60.68888 v 0.423333 h 0.788051 v 2.045026 c 0,0.605692 0.41682,1.035538 1.152769,1.035538 0.319128,0 0.683846,-0.09443 0.918308,-0.247487 z"
           id="path28084" />
        <path
           d="m 65.501844,19.901625 c 0,0.28982 0.227949,0.530795 0.524282,0.530795 0.302846,0 0.530795,-0.240975 0.530795,-0.530795 0,-0.293077 -0.227949,-0.524282 -0.530795,-0.524282 -0.296333,0 -0.524282,0.231205 -0.524282,0.524282 z m 0,2.347872 c 0,0.296333 0.227949,0.530794 0.524282,0.530794 0.302846,0 0.530795,-0.234461 0.530795,-0.530794 0,-0.283308 -0.227949,-0.524282 -0.530795,-0.524282 -0.296333,0 -0.524282,0.240974 -0.524282,0.524282 z"
           id="path28086" />
        <path
           d="m 3.4022509,26.087176 c -0.579641,0 -1.2016153,0.201897 -1.7845127,0.709897 l 0.3126153,0.364718 c 0.5535898,-0.488461 1.0550769,-0.599179 1.4784103,-0.599179 1.1983589,0 1.4002564,0.989949 1.4002564,2.233897 0,1.113693 0,1.99618 -0.4070513,1.99618 -0.2572564,0 -0.4591539,-0.153051 -0.4591539,-0.856436 v -1.924539 c -0.3647179,-0.195384 -0.6154615,-0.24423 -0.9183076,-0.24423 -0.8043334,0 -1.2765128,0.547077 -1.2765128,1.680307 0,0.862949 0.2735384,1.491436 0.9834358,1.491436 0.5210257,0 0.7685129,-0.332154 0.889,-0.631743 h 0.026051 c -0.00651,0.319128 0.2214359,0.92482 0.7652564,0.92482 0.7847949,0 0.9573846,-0.801077 0.9573846,-2.442307 0,-1.331872 -0.2833077,-2.702821 -1.9668715,-2.702821 z m -0.3516923,2.084103 c 0.1563077,0 0.2800513,0.02605 0.4168206,0.09769 v 1.68682 c -0.078154,0.188872 -0.2181795,0.573129 -0.6708206,0.573129 -0.3940256,0 -0.5177692,-0.442872 -0.5177692,-1.081129 0,-0.840153 0.1791026,-1.276512 0.7717692,-1.276512 z"
           id="path28088" />
        <path
           d="M 8.8404466,30.470304 8.62878,30.099073 c -0.1856154,0.09769 -0.4005385,0.162821 -0.6577949,0.162821 -0.4689231,0 -0.6545384,-0.205154 -0.6545384,-0.586154 V 27.637227 H 8.4366518 L 8.50178,27.213894 H 7.3164467 v -0.84341 l -0.547077,0.06513 v 0.778282 H 5.9813185 v 0.423333 h 0.7880512 v 2.045026 c 0,0.605692 0.4168206,1.035538 1.1527693,1.035538 0.3191282,0 0.6838461,-0.09444 0.9183076,-0.247487 z"
           id="path28090" />
        <path
           d="m 12.481104,29.89392 v -1.644488 c 0,-0.677333 -0.429846,-1.107179 -1.283026,-1.107179 -0.332154,0 -0.703384,0.05861 -1.120205,0.214923 l 0.143282,0.413564 c 0.354949,-0.123743 0.664308,-0.175846 0.892257,-0.175846 0.511256,0 0.817359,0.185615 0.817359,0.68059 v 0.286564 h -0.504744 c -1.042051,0 -1.6086666,0.390769 -1.6086666,1.09741 0,0.638256 0.4200766,1.058333 1.1071796,1.058333 0.442872,0 0.830384,-0.16282 1.074615,-0.481948 0.09769,0.306102 0.332154,0.442871 0.628487,0.481948 l 0.133513,-0.384256 C 12.569027,30.27492 12.481104,30.170714 12.481104,29.89392 Z m -1.416539,0.407051 c -0.446128,0 -0.661051,-0.221436 -0.661051,-0.648026 0,-0.439615 0.276795,-0.719666 1.032282,-0.719666 h 0.494975 v 0.882487 c -0.205154,0.306102 -0.527539,0.485205 -0.866206,0.485205 z"
           id="path28092" />
        <path
           d="m 15.467223,27.142253 c -0.413564,0 -0.771769,0.198641 -1.022513,0.550333 l -0.04559,-0.478692 h -0.465667 v 4.809718 l 0.547077,-0.06838 v -1.634718 c 0.227949,0.267026 0.530795,0.397282 0.905282,0.397282 0.892256,0 1.322102,-0.75223 1.322102,-1.791025 0,-1.074616 -0.325641,-1.784513 -1.240692,-1.784513 z m -0.130256,0.439615 c 0.537307,0 0.784795,0.446129 0.784795,1.341641 0,0.915052 -0.286564,1.338385 -0.856436,1.338385 -0.325641,0 -0.605693,-0.162821 -0.784795,-0.429846 v -1.699846 c 0.185615,-0.276795 0.475436,-0.550334 0.856436,-0.550334 z"
           id="path28094" />
        <path
           d="m 19.140444,25.608484 c -0.231205,0 -0.394026,0.166077 -0.394026,0.381 0,0.221436 0.162821,0.390769 0.394026,0.390769 0.244231,0 0.400539,-0.169333 0.400539,-0.390769 0,-0.214923 -0.156308,-0.381 -0.400539,-0.381 z m 0.436359,1.60541 h -1.572846 v 0.433103 h 1.025769 v 2.562794 h -1.058333 v 0.433103 h 2.572564 v -0.433103 h -0.967154 z"
           id="path28096" />
        <path
           d="m 23.054639,27.142253 c -0.967154,0 -1.481666,0.732692 -1.481666,1.791026 0,1.077871 0.508,1.784512 1.475153,1.784512 0.960641,0 1.475154,-0.742461 1.475154,-1.791025 0,-1.087641 -0.501487,-1.784513 -1.468641,-1.784513 z m 0,0.446128 c 0.582898,0 0.882487,0.42659 0.882487,1.338385 0,0.911795 -0.299589,1.341641 -0.889,1.341641 -0.58941,0 -0.889,-0.429846 -0.889,-1.335128 0,-0.918308 0.306103,-1.344898 0.895513,-1.344898 z"
           id="path28098" />
        <path
           d="m 26.239401,25.764791 -0.547077,0.06839 v 4.809718 h 0.547077 z m 2.289256,1.449103 H 27.81876 l -1.517488,1.556564 1.686821,1.872436 h 0.719667 l -1.722641,-1.885462 z"
           id="path28100" />
        <path
           d="m 30.863493,25.608484 c -0.231205,0 -0.394025,0.166077 -0.394025,0.381 0,0.221436 0.16282,0.390769 0.394025,0.390769 0.244231,0 0.400539,-0.169333 0.400539,-0.390769 0,-0.214923 -0.156308,-0.381 -0.400539,-0.381 z m 0.436359,1.60541 h -1.572846 v 0.433103 h 1.025769 v 2.562794 h -1.058333 v 0.433103 h 2.572564 v -0.433103 h -0.967154 z"
           id="path28102" />
        <path
           d="M 33.602124,31.313714 36.383099,25.585689 35.94674,25.370766 33.159253,31.11833 Z"
           id="path28104" />
        <path
           d="m 38.929604,30.245612 c -0.589411,0 -1.016,-0.387513 -1.016,-1.302564 0,-0.905282 0.423333,-1.344898 1.016,-1.344898 0.299589,0 0.592666,0.104205 0.885743,0.306103 l 0.267026,-0.364718 c -0.325641,-0.263769 -0.706641,-0.397282 -1.146257,-0.397282 -1.029025,0 -1.615179,0.771769 -1.615179,1.800795 0,1.074615 0.582897,1.774743 1.608667,1.774743 0.403794,0 0.859692,-0.159564 1.159282,-0.413564 L 39.82186,29.946022 c -0.254,0.175846 -0.547077,0.29959 -0.892256,0.29959 z"
           id="path28106" />
        <path
           d="m 41.717079,29.12215 h 2.305538 c 0.0065,-0.0749 0.01303,-0.182359 0.01303,-0.299589 0,-1.042052 -0.527538,-1.680308 -1.393744,-1.680308 -0.911794,0 -1.497948,0.752231 -1.497948,1.791026 0,1.064846 0.566615,1.784512 1.569589,1.784512 0.42659,0 0.859693,-0.153051 1.178821,-0.403795 l -0.257256,-0.361461 c -0.302847,0.205154 -0.566616,0.309359 -0.915052,0.309359 -0.530795,0 -0.973666,-0.34518 -1.002974,-1.139744 z m 0.931333,-1.530512 c 0.514513,0 0.846667,0.374487 0.859693,1.107179 h -1.78777 c 0.04559,-0.755487 0.416821,-1.107179 0.928077,-1.107179 z"
           id="path28108" />
        <path
           d="m 46.728686,27.142253 c -0.413564,0 -0.771769,0.198641 -1.022512,0.550333 l -0.04559,-0.478692 h -0.465667 v 4.809718 l 0.547077,-0.06838 v -1.634718 c 0.227949,0.267026 0.530795,0.397282 0.905282,0.397282 0.892256,0 1.322103,-0.75223 1.322103,-1.791025 0,-1.074616 -0.325641,-1.784513 -1.240693,-1.784513 z m -0.130256,0.439615 c 0.537308,0 0.784795,0.446129 0.784795,1.341641 0,0.915052 -0.286564,1.338385 -0.856436,1.338385 -0.325641,0 -0.605692,-0.162821 -0.784795,-0.429846 v -1.699846 c 0.185615,-0.276795 0.475436,-0.550334 0.856436,-0.550334 z"
           id="path28110" />
        <path
           d="m 49.649678,25.781073 -0.547077,0.05862 v 4.803205 h 0.547077 v -2.497667 c 0.179103,-0.270282 0.527539,-0.573128 0.918308,-0.573128 0.407051,0 0.592667,0.182359 0.592667,0.592667 v 2.478128 H 51.70773 V 28.15174 c 0,-0.631743 -0.293077,-1.009487 -0.963898,-1.009487 -0.403795,0 -0.823872,0.182359 -1.094154,0.540564 z"
           id="path28112" />
        <path
           d="m 55.465615,29.89392 v -1.644488 c 0,-0.677333 -0.429846,-1.107179 -1.283025,-1.107179 -0.332154,0 -0.703385,0.05861 -1.120205,0.214923 l 0.143282,0.413564 c 0.354948,-0.123743 0.664307,-0.175846 0.892256,-0.175846 0.511256,0 0.817359,0.185615 0.817359,0.68059 v 0.286564 h -0.504744 c -1.042051,0 -1.608666,0.390769 -1.608666,1.09741 0,0.638256 0.420077,1.058333 1.107179,1.058333 0.442872,0 0.830385,-0.16282 1.074616,-0.481948 0.09769,0.306102 0.332153,0.442871 0.628487,0.481948 l 0.133513,-0.384256 C 55.553538,30.27492 55.465615,30.170714 55.465615,29.89392 Z m -1.416538,0.407051 c -0.446128,0 -0.661051,-0.221436 -0.661051,-0.648026 0,-0.439615 0.276794,-0.719666 1.032282,-0.719666 h 0.494974 v 0.882487 c -0.205154,0.306102 -0.527539,0.485205 -0.866205,0.485205 z"
           id="path28114" />
        <path
           d="m 58.253094,25.833176 h -1.598897 v 0.433103 h 1.051821 v 3.500641 c 0,0.595923 0.413564,0.950871 1.022512,0.950871 0.34518,0 0.628488,-0.08467 0.814103,-0.175846 l -0.146539,-0.400538 c -0.185615,0.0749 -0.37123,0.120487 -0.576384,0.120487 -0.332154,0 -0.566616,-0.127 -0.566616,-0.465667 z"
           id="path28116" />
        <path
           d="m 62.131467,27.142253 c -0.967154,0 -1.481666,0.732692 -1.481666,1.791026 0,1.077871 0.508,1.784512 1.475153,1.784512 0.960642,0 1.475154,-0.742461 1.475154,-1.791025 0,-1.087641 -0.501487,-1.784513 -1.468641,-1.784513 z m 0,0.446128 c 0.582898,0 0.882487,0.42659 0.882487,1.338385 0,0.911795 -0.299589,1.341641 -0.889,1.341641 -0.58941,0 -0.888999,-0.429846 -0.888999,-1.335128 0,-0.918308 0.306102,-1.344898 0.895512,-1.344898 z"
           id="path28118" />
        <path
           d="m 66.2671,27.142253 c -0.413564,0 -0.771769,0.198641 -1.022512,0.550333 l -0.04559,-0.478692 h -0.465667 v 4.809718 l 0.547077,-0.06838 v -1.634718 c 0.227949,0.267026 0.530795,0.397282 0.905282,0.397282 0.892256,0 1.322103,-0.75223 1.322103,-1.791025 0,-1.074616 -0.325641,-1.784513 -1.240693,-1.784513 z m -0.130256,0.439615 c 0.537308,0 0.784795,0.446129 0.784795,1.341641 0,0.915052 -0.286564,1.338385 -0.856436,1.338385 -0.325641,0 -0.605692,-0.162821 -0.784795,-0.429846 v -1.699846 c 0.185615,-0.276795 0.475436,-0.550334 0.856436,-0.550334 z"
           id="path28120" />
        <path
           d="m 69.946836,27.142253 c -0.967154,0 -1.481667,0.732692 -1.481667,1.791026 0,1.077871 0.508,1.784512 1.475154,1.784512 0.960641,0 1.475154,-0.742461 1.475154,-1.791025 0,-1.087641 -0.501487,-1.784513 -1.468641,-1.784513 z m 0,0.446128 c 0.582897,0 0.882487,0.42659 0.882487,1.338385 0,0.911795 -0.29959,1.341641 -0.889,1.341641 -0.58941,0 -0.889,-0.429846 -0.889,-1.335128 0,-0.918308 0.306103,-1.344898 0.895513,-1.344898 z"
           id="path28122" />
        <path
           d="m 74.600238,25.764791 v 1.781257 c -0.227948,-0.267026 -0.524282,-0.403795 -0.918307,-0.403795 -0.846667,0 -1.344898,0.758744 -1.344898,1.791026 0,1.061589 0.410308,1.784512 1.305821,1.784512 0.377743,0 0.71641,-0.16282 0.973666,-0.527538 l 0.0521,0.452641 h 0.478692 v -4.809718 z m -0.775025,1.817077 c 0.315871,0 0.58941,0.162821 0.775025,0.439616 v 1.712871 c -0.185615,0.280052 -0.455897,0.540565 -0.84341,0.540565 -0.537308,0 -0.823872,-0.452641 -0.823872,-1.341641 0,-0.905282 0.319128,-1.351411 0.892257,-1.351411 z"
           id="path28124" />
        <path
           d="m 78.91171,29.89392 v -1.644488 c 0,-0.677333 -0.429846,-1.107179 -1.283026,-1.107179 -0.332154,0 -0.703384,0.05861 -1.120205,0.214923 l 0.143282,0.413564 c 0.354949,-0.123743 0.664308,-0.175846 0.892257,-0.175846 0.511256,0 0.817358,0.185615 0.817358,0.68059 v 0.286564 h -0.504743 c -1.042051,0 -1.608667,0.390769 -1.608667,1.09741 0,0.638256 0.420077,1.058333 1.10718,1.058333 0.442871,0 0.830384,-0.16282 1.074615,-0.481948 0.09769,0.306102 0.332154,0.442871 0.628487,0.481948 l 0.133513,-0.384256 C 78.999633,30.27492 78.91171,30.170714 78.91171,29.89392 Z m -1.416539,0.407051 c -0.446128,0 -0.661051,-0.221436 -0.661051,-0.648026 0,-0.439615 0.276795,-0.719666 1.032282,-0.719666 h 0.494974 v 0.882487 c -0.205153,0.306102 -0.527538,0.485205 -0.866205,0.485205 z"
           id="path28126" />
        <path
           d="m 85.001181,28.363407 c 0,-1.364436 0.455897,-2.058051 1.393744,-2.891692 l -0.286564,-0.29959 c -1.058334,0.862948 -1.680308,1.706359 -1.680308,3.191282 0,1.484923 0.621974,2.328333 1.680308,3.191282 l 0.286564,-0.29959 C 85.463591,30.431227 85.001181,29.72133 85.001181,28.363407 Z"
           id="path28128" />
        <path
           d="m 90.348199,29.499894 0.358205,1.143 h 0.592666 l -1.458871,-4.484077 h -0.722923 l -1.458872,4.484077 h 0.556846 l 0.358205,-1.143 z m -1.628205,-0.468923 0.745718,-2.396718 0.735948,2.396718 z"
           id="path28130" />
        <path
           d="m 98.938593,28.379689 c 0,-1.862667 -1.048564,-2.220872 -2.097128,-2.220872 H 95.88408 v 4.484077 h 1.029026 c 0.928077,0 2.025487,-0.384256 2.025487,-2.263205 z m -0.602436,0 c 0,1.484923 -0.709897,1.810564 -1.354667,1.810564 h -0.534051 v -3.569026 h 0.527539 c 0.615461,0 1.361179,0.195385 1.361179,1.758462 z"
           id="path28132" />
        <path
           d="m 100.44955,27.213894 h -0.547075 v 2.49441 c 0,0.635 0.325645,1.009487 0.989945,1.009487 0.40054,0 0.82713,-0.188871 1.09741,-0.537307 l 0.0456,0.46241 h 0.46567 v -3.429 h -0.54708 v 2.523718 c -0.18561,0.293077 -0.55359,0.54382 -0.92807,0.54382 -0.39729,0 -0.57639,-0.188871 -0.57639,-0.638256 z"
           id="path28134" />
        <path
           d="m 104.14231,30.642894 0.95087,-1.471898 0.93785,1.471898 h 0.67082 l -1.26349,-1.833359 1.10718,-1.595641 h -0.62523 l -0.80433,1.276513 -0.79456,-1.276513 h -0.64803 l 1.11044,1.618436 -1.26675,1.810564 z"
           id="path28136" />
        <path
           d="m 109.58702,28.363407 c 0,1.357923 -0.46241,2.06782 -1.39374,2.891692 l 0.28656,0.29959 c 1.05834,-0.862949 1.68031,-1.706359 1.68031,-3.191282 0,-1.484923 -0.62197,-2.328334 -1.68031,-3.191282 l -0.28656,0.29959 c 0.93785,0.833641 1.39374,1.527256 1.39374,2.891692 z"
           id="path28138" />
      </g>
    </g>
  </g>
  <g
     inkscape:label="B.SilkS"
     inkscape:groupmode="layer"
     id="g29120"
     style="display:inline">
    <g
       id="g29118"
       transform="matrix(-0.26679389,0,0,0.26679389,32.050341,0.99688543)">
      <g
         aria-label="The Archimedes Tux (ThAT_0.1) 
Remixed By: @Albert-IV
Original Project: 
@tapioki/cephalopoda (A Dux)"
         id="g29116"
         style="font-size:6.35px;line-height:1.25;font-family:'FiraCode Nerd Font';-inkscape-font-specification:'FiraCode Nerd Font, Normal';font-variant-ligatures:none;stroke-width:0.264583">
        <path
           d="M 3.7799945,2.8315225 H 5.141174 L 5.1997894,2.3463174 H 1.8163792 v 0.4852051 h 1.4002564 v 3.9988718 h 0.5633589 z"
           id="path28940" />
        <path
           d="M 6.6651646,1.9685738 6.1180877,2.0271892 V 6.8303943 H 6.6651646 V 4.3327276 c 0.1791026,-0.270282 0.5275385,-0.5731282 0.9183077,-0.5731282 0.4070513,0 0.5926667,0.182359 0.5926667,0.5926667 V 6.8303943 H 8.7232159 V 4.3392405 c 0,-0.6317436 -0.2930769,-1.0094872 -0.9638974,-1.0094872 -0.4037949,0 -0.8238718,0.182359 -1.0941539,0.5405641 z"
           id="path28942" />
        <path
           d="m 10.455617,5.3096507 h 2.305538 c 0.0065,-0.074897 0.01303,-0.182359 0.01303,-0.2995897 0,-1.0420513 -0.527539,-1.6803077 -1.393744,-1.6803077 -0.911795,0 -1.4979484,0.7522308 -1.4979484,1.7910256 0,1.0648461 0.5666154,1.7845128 1.5695894,1.7845128 0.42659,0 0.859693,-0.1530513 1.178821,-0.4037949 L 12.373642,6.1400353 c -0.302846,0.2051538 -0.566615,0.309359 -0.915051,0.309359 -0.530795,0 -0.973667,-0.3451795 -1.002974,-1.1397436 z M 11.38695,3.7791379 c 0.514513,0 0.846667,0.3744872 0.859692,1.1071795 h -1.787769 c 0.04559,-0.7554872 0.416821,-1.1071795 0.928077,-1.1071795 z"
           id="path28944" />
        <path
           d="m 20.009906,5.6873943 0.358205,1.143 h 0.592666 L 19.501906,2.3463174 h -0.722923 l -1.458872,4.4840769 h 0.556846 l 0.358205,-1.143 z M 18.3817,5.2184712 19.127418,2.8217533 19.863367,5.2184712 Z"
           id="path28946" />
        <path
           d="m 24.064126,3.3264969 c -0.621974,0 -0.967153,0.3223846 -1.230923,0.8857436 L 22.732255,3.4013943 h -0.950872 v 0.4200769 h 0.534051 v 2.5888462 h -0.534051 v 0.4200769 h 1.778 V 6.4103174 h -0.696872 v -1.452359 c 0.227949,-0.7554872 0.59918,-1.1267179 1.129974,-1.1267179 h 0.02931 v 0.7294359 h 0.449385 l 0.07815,-1.1592821 c -0.156308,-0.04559 -0.293077,-0.074897 -0.485206,-0.074897 z"
           id="path28948" />
        <path
           d="m 27.206554,6.4331122 c -0.58941,0 -1.016,-0.3875128 -1.016,-1.3025641 0,-0.905282 0.423334,-1.3448974 1.016,-1.3448974 0.29959,0 0.592667,0.1042052 0.885744,0.3061026 l 0.267026,-0.364718 c -0.325641,-0.2637692 -0.706641,-0.397282 -1.146257,-0.397282 -1.029025,0 -1.615179,0.7717692 -1.615179,1.8007948 0,1.0746154 0.582897,1.7747436 1.608666,1.7747436 0.403795,0 0.859693,-0.1595641 1.159282,-0.4135641 L 28.098811,6.1335225 c -0.254,0.1758461 -0.547077,0.2995897 -0.892257,0.2995897 z"
           id="path28950" />
        <path
           d="m 30.111262,1.9685738 -0.547076,0.058615 v 4.8032051 h 0.547076 V 4.3327276 c 0.179103,-0.270282 0.527539,-0.5731282 0.918308,-0.5731282 0.407051,0 0.592667,0.182359 0.592667,0.5926667 v 2.4781282 h 0.547077 V 4.3392405 c 0,-0.6317436 -0.293077,-1.0094872 -0.963898,-1.0094872 -0.403795,0 -0.823871,0.182359 -1.094154,0.5405641 z"
           id="path28952" />
        <path
           d="m 34.771176,1.7959841 c -0.231205,0 -0.394026,0.1660769 -0.394026,0.381 0,0.2214359 0.162821,0.3907692 0.394026,0.3907692 0.24423,0 0.400538,-0.1693333 0.400538,-0.3907692 0,-0.2149231 -0.156308,-0.381 -0.400538,-0.381 z m 0.436359,1.6054102 h -1.572847 v 0.4331026 h 1.02577 v 2.5627948 h -1.058334 v 0.4331026 h 2.572564 V 6.3972917 h -0.967153 z"
           id="path28954" />
        <path
           d="m 39.639501,3.3297533 c -0.351692,0 -0.569872,0.182359 -0.755487,0.452641 -0.107462,-0.3549487 -0.361462,-0.452641 -0.621975,-0.452641 -0.341923,0 -0.560102,0.2051538 -0.745717,0.4689231 l -0.03257,-0.3972821 h -0.429846 v 3.429 H 37.55865 V 4.1666507 c 0.188872,-0.2930769 0.387513,-0.4103077 0.599179,-0.4103077 0.247488,0 0.26377,0.1791026 0.26377,0.6089487 V 6.8303943 H 38.93286 V 4.1666507 c 0.188872,-0.2930769 0.394026,-0.4103077 0.599179,-0.4103077 0.247488,0 0.26377,0.1791026 0.26377,0.6089487 v 2.4651026 h 0.508 V 4.2773687 c 0,-0.7913077 -0.338667,-0.9476154 -0.664308,-0.9476154 z"
           id="path28956" />
        <path
           d="m 41.717079,5.3096507 h 2.305538 c 0.0065,-0.074897 0.01303,-0.182359 0.01303,-0.2995897 0,-1.0420513 -0.527538,-1.6803077 -1.393744,-1.6803077 -0.911794,0 -1.497948,0.7522308 -1.497948,1.7910256 0,1.0648461 0.566615,1.7845128 1.569589,1.7845128 0.42659,0 0.859693,-0.1530513 1.178821,-0.4037949 l -0.25726,-0.3614615 c -0.302847,0.2051538 -0.566616,0.309359 -0.915052,0.309359 -0.530795,0 -0.973666,-0.3451795 -1.002974,-1.1397436 z m 0.931333,-1.5305128 c 0.514513,0 0.846667,0.3744872 0.859693,1.1071795 h -1.78777 c 0.04559,-0.7554872 0.416821,-1.1071795 0.928077,-1.1071795 z"
           id="path28958" />
        <path
           d="M 47.246456,1.9522918 V 3.7335482 C 47.018507,3.4665225 46.722174,3.3297533 46.328148,3.3297533 c -0.846667,0 -1.344898,0.7587436 -1.344898,1.7910256 0,1.0615897 0.410308,1.7845128 1.305821,1.7845128 0.377744,0 0.71641,-0.1628205 0.973667,-0.5275385 l 0.0521,0.4526411 H 47.79353 V 2.0206764 Z M 46.47143,3.7693687 c 0.315872,0 0.58941,0.1628205 0.775026,0.4396154 v 1.7128717 c -0.185616,0.2800513 -0.455898,0.5405641 -0.843411,0.5405641 -0.537307,0 -0.823871,-0.452641 -0.823871,-1.341641 0,-0.905282 0.319128,-1.3514102 0.892256,-1.3514102 z"
           id="path28960" />
        <path
           d="m 49.532448,5.3096507 h 2.305538 c 0.0065,-0.074897 0.01303,-0.182359 0.01303,-0.2995897 0,-1.0420513 -0.527539,-1.6803077 -1.393744,-1.6803077 -0.911795,0 -1.497949,0.7522308 -1.497949,1.7910256 0,1.0648461 0.566616,1.7845128 1.56959,1.7845128 0.42659,0 0.859692,-0.1530513 1.178821,-0.4037949 L 51.450473,6.1400353 c -0.302846,0.2051538 -0.566615,0.309359 -0.915051,0.309359 -0.530795,0 -0.973667,-0.3451795 -1.002974,-1.1397436 z m 0.931333,-1.5305128 c 0.514513,0 0.846667,0.3744872 0.859692,1.1071795 h -1.787769 c 0.04559,-0.7554872 0.416821,-1.1071795 0.928077,-1.1071795 z"
           id="path28962" />
        <path
           d="m 54.176077,6.4526507 c -0.403795,0 -0.762,-0.1465385 -1.029026,-0.3712308 l -0.312615,0.3614616 c 0.293077,0.2539999 0.722923,0.4624102 1.341641,0.4624102 0.732692,0 1.445846,-0.2898205 1.445846,-1.0225128 0,-0.6415128 -0.442872,-0.8759743 -1.113692,-1.0583333 -0.693616,-0.1888718 -0.911795,-0.2963333 -0.911795,-0.6024359 0,-0.2637692 0.201897,-0.4493846 0.742461,-0.4493846 0.442872,0 0.739205,0.1302564 0.996462,0.3061025 L 55.576333,3.7074969 C 55.289769,3.4958302 54.882718,3.3297533 54.332385,3.3297533 c -0.775026,0 -1.302565,0.3582051 -1.302565,0.9345897 0,0.5959231 0.455898,0.8108462 1.169052,0.9866923 0.726179,0.182359 0.830384,0.3484359 0.830384,0.6577949 0,0.3321538 -0.325641,0.5438205 -0.853179,0.5438205 z"
           id="path28964" />
        <path
           d="m 62.395237,2.8315225 h 1.361179 l 0.05861,-0.4852051 h -3.38341 v 0.4852051 h 1.400257 v 3.9988718 h 0.563359 z"
           id="path28966" />
        <path
           d="m 65.280408,3.4013943 h -0.547077 v 2.4944102 c 0,0.635 0.325641,1.0094872 0.989949,1.0094872 0.400538,0 0.827128,-0.1888718 1.09741,-0.5373077 l 0.04559,0.4624103 h 0.465666 v -3.429 H 66.78487 v 2.5237179 c -0.185616,0.2930769 -0.55359,0.5438205 -0.928077,0.5438205 -0.397282,0 -0.576385,-0.1888718 -0.576385,-0.6382564 z"
           id="path28968" />
        <path
           d="m 68.973169,6.8303943 0.950872,-1.4718974 0.937846,1.4718974 h 0.670821 L 70.269221,4.9970353 71.3764,3.4013943 H 70.751169 L 69.946836,4.6779071 69.152272,3.4013943 h -0.648026 l 1.110436,1.6184359 -1.266743,1.8105641 z"
           id="path28970" />
        <path
           d="m 77.185812,4.5509071 c 0,-1.3644359 0.455898,-2.0580512 1.393744,-2.8916922 L 78.292992,1.3596251 c -1.058333,0.8629487 -1.680308,1.706359 -1.680308,3.191282 0,1.4849231 0.621975,2.3283333 1.680308,3.191282 L 78.579556,7.4425994 C 77.648223,6.6187276 77.185812,5.9088302 77.185812,4.5509071 Z"
           id="path28972" />
        <path
           d="m 81.933651,2.8315225 h 1.361179 l 0.05861,-0.4852051 h -3.38341 v 0.4852051 h 1.400257 v 3.9988718 h 0.563359 z"
           id="path28974" />
        <path
           d="m 84.818822,1.9685738 -0.547077,0.058615 v 4.8032051 h 0.547077 V 4.3327276 c 0.179103,-0.270282 0.527539,-0.5731282 0.918308,-0.5731282 0.407051,0 0.592666,0.182359 0.592666,0.5926667 v 2.4781282 h 0.547077 V 4.3392405 c 0,-0.6317436 -0.293077,-1.0094872 -0.963897,-1.0094872 -0.403795,0 -0.823872,0.182359 -1.094154,0.5405641 z"
           id="path28976" />
        <path
           d="m 90.348199,5.6873943 0.358205,1.143 H 91.29907 L 89.840199,2.3463174 h -0.722923 l -1.458872,4.4840769 h 0.556846 l 0.358205,-1.143 z M 88.719994,5.2184712 89.465712,2.8217533 90.20166,5.2184712 Z"
           id="path28978" />
        <path
           d="m 93.656704,2.8315225 h 1.361179 l 0.05862,-0.4852051 h -3.38341 v 0.4852051 h 1.400257 v 3.9988718 h 0.563359 z"
           id="path28980" />
        <path
           d="m 95.665901,8.0124712 h 3.25641 V 7.5337789 h -3.25641 z"
           id="path28982" />
        <path
           d="m 101.20178,2.2746764 c -0.96389,0 -1.468639,0.8271282 -1.468639,2.3120512 0,1.4914359 0.504749,2.3185641 1.468639,2.3185641 0.9639,0 1.46864,-0.8271282 1.46864,-2.3185641 0,-1.484923 -0.50474,-2.3120512 -1.46864,-2.3120512 z m 0,0.4396154 c 0.25726,0 0.4559,0.087923 0.59593,0.2898205 l -1.37095,2.754923 c -0.0782,-0.2898205 -0.11398,-0.6740769 -0.11398,-1.1723077 0,-1.3286153 0.33867,-1.8724358 0.889,-1.8724358 z m 0,3.7481281 c -0.254,0 -0.44613,-0.087923 -0.58941,-0.2865641 l 1.36444,-2.7679487 c 0.0814,0.2898205 0.11723,0.6773334 0.11723,1.1788205 0,1.3286154 -0.33541,1.8756923 -0.89226,1.8756923 z"
           id="path28984" />
        <path
           d="m 104.53308,6.3289071 c 0,0.3223846 0.24749,0.5763846 0.56987,0.5763846 0.3289,0 0.57639,-0.254 0.57639,-0.5763846 0,-0.3158718 -0.24749,-0.5698718 -0.57639,-0.5698718 -0.32238,0 -0.56987,0.254 -0.56987,0.5698718 z"
           id="path28986" />
        <path
           d="M 109.49584,6.3842661 V 2.3463174 h -0.47869 l -1.33513,0.8271282 0.23772,0.3907692 1.02903,-0.6252307 v 3.445282 h -1.10393 v 0.4461282 h 2.58885 V 6.3842661 Z"
           id="path28988" />
        <path
           d="m 113.49471,4.5509071 c 0,1.3579231 -0.46241,2.0678205 -1.39375,2.8916923 l 0.28657,0.2995897 c 1.05833,-0.8629487 1.68031,-1.7063589 1.68031,-3.191282 0,-1.484923 -0.62198,-2.3283333 -1.68031,-3.191282 l -0.28657,0.2995898 c 0.93785,0.833641 1.39375,1.5272563 1.39375,2.8916922 z"
           id="path28990" />
        <path
           d="m 5.0565073,11.540792 c 0,-0.827129 -0.579641,-1.256975 -1.6868205,-1.256975 H 2.2169176 v 4.484077 H 2.783533 v -1.924538 h 0.6056923 l 1.2244102,1.924538 H 5.2909689 L 3.9623535,12.778228 C 4.577815,12.628433 5.0565073,12.214869 5.0565073,11.540792 Z m -0.6056923,0 c 0,0.621974 -0.3712307,0.859692 -1.0159999,0.859692 H 2.783533 v -1.667282 h 0.6512821 c 0.6903589,0 1.0159999,0.234461 1.0159999,0.80759 z"
           id="path28992" />
        <path
           d="m 6.5479339,13.247151 h 2.3055384 c 0.00651,-0.0749 0.013026,-0.182359 0.013026,-0.29959 0,-1.042051 -0.5275384,-1.680308 -1.3937435,-1.680308 -0.9117949,0 -1.4979487,0.752231 -1.4979487,1.791026 0,1.064846 0.5666153,1.784513 1.5695897,1.784513 0.4265897,0 0.8596923,-0.153052 1.1788205,-0.403795 L 8.4659595,14.077535 c -0.3028462,0.205154 -0.5666154,0.309359 -0.9150513,0.309359 -0.5307949,0 -0.9736667,-0.345179 -1.0029743,-1.139743 z m 0.9313333,-1.530513 c 0.5145128,0 0.8466666,0.374487 0.8596923,1.107179 H 6.5511903 C 6.59678,12.06833 6.9680108,11.716638 7.4792672,11.716638 Z"
           id="path28994" />
        <path
           d="m 12.285719,11.267253 c -0.351692,0 -0.569871,0.182359 -0.755487,0.452641 -0.107461,-0.354949 -0.361461,-0.452641 -0.621974,-0.452641 -0.341923,0 -0.560103,0.205154 -0.745718,0.468923 L 10.12998,11.338894 H 9.7001296 v 3.429 h 0.5047434 v -2.663743 c 0.188872,-0.293077 0.387513,-0.410308 0.59918,-0.410308 0.247487,0 0.263769,0.179102 0.263769,0.608949 v 2.465102 h 0.511256 v -2.663743 c 0.188872,-0.293077 0.394026,-0.410308 0.59918,-0.410308 0.247487,0 0.263769,0.179102 0.263769,0.608949 v 2.465102 h 0.508 v -2.553025 c 0,-0.791308 -0.338667,-0.947616 -0.664308,-0.947616 z"
           id="path28996" />
        <path
           d="m 15.232762,9.733484 c -0.231205,0 -0.394026,0.1660769 -0.394026,0.381 0,0.221436 0.162821,0.390769 0.394026,0.390769 0.24423,0 0.400538,-0.169333 0.400538,-0.390769 0,-0.2149231 -0.156308,-0.381 -0.400538,-0.381 z m 0.436359,1.60541 h -1.572847 v 0.433103 h 1.02577 v 2.562795 H 14.06371 v 0.433102 h 2.572564 v -0.433102 h -0.967153 z"
           id="path28998" />
        <path
           d="m 18.17329,14.767894 0.950872,-1.471897 0.937846,1.471897 h 0.670821 l -1.263488,-1.833359 1.10718,-1.595641 H 19.95129 l -0.804333,1.276513 -0.794564,-1.276513 h -0.648026 l 1.110436,1.618436 -1.266744,1.810564 z"
           id="path29000" />
        <path
           d="m 22.178665,13.247151 h 2.305538 c 0.0065,-0.0749 0.01303,-0.182359 0.01303,-0.29959 0,-1.042051 -0.527538,-1.680308 -1.393744,-1.680308 -0.911794,0 -1.497948,0.752231 -1.497948,1.791026 0,1.064846 0.566615,1.784513 1.569589,1.784513 0.42659,0 0.859693,-0.153052 1.178821,-0.403795 l -0.257256,-0.361462 c -0.302847,0.205154 -0.566616,0.309359 -0.915052,0.309359 -0.530795,0 -0.973666,-0.345179 -1.002974,-1.139743 z m 0.931333,-1.530513 c 0.514513,0 0.846667,0.374487 0.859693,1.107179 h -1.78777 c 0.04559,-0.755487 0.416821,-1.107179 0.928077,-1.107179 z"
           id="path29002" />
        <path
           d="m 27.708042,9.8897917 v 1.7812563 c -0.227949,-0.267026 -0.524282,-0.403795 -0.918308,-0.403795 -0.846667,0 -1.344898,0.758744 -1.344898,1.791026 0,1.06159 0.410308,1.784513 1.305821,1.784513 0.377744,0 0.71641,-0.162821 0.973667,-0.527539 l 0.0521,0.452641 h 0.478692 V 9.9581763 Z m -0.775026,1.8170773 c 0.315872,0 0.58941,0.16282 0.775026,0.439615 v 1.712872 c -0.185616,0.280051 -0.455898,0.540564 -0.843411,0.540564 -0.537307,0 -0.823871,-0.452641 -0.823871,-1.341641 0,-0.905282 0.319128,-1.35141 0.892256,-1.35141 z"
           id="path29004" />
        <path
           d="m 36.330996,13.488125 c 0,-0.758744 -0.534051,-1.009487 -1.029025,-1.094154 0.429846,-0.09769 0.833641,-0.403795 0.833641,-0.980179 0,-0.879231 -0.801077,-1.129975 -1.585872,-1.129975 h -1.103923 v 4.484077 h 1.204871 c 0.823872,0 1.680308,-0.302846 1.680308,-1.279769 z m -0.775025,-2.045026 c 0,0.527539 -0.293077,0.748975 -0.823872,0.748975 h -0.722923 v -1.452359 h 0.667564 c 0.540564,0 0.879231,0.195384 0.879231,0.703384 z m 0.179102,2.064564 c 0,0.664308 -0.547077,0.794564 -0.986692,0.794564 H 34.009176 V 12.65774 h 0.765256 c 0.521026,0 0.960641,0.17259 0.960641,0.849923 z"
           id="path29006" />
        <path
           d="m 40.232168,11.338894 h -0.566616 l -0.97041,3.01218 -0.983436,-3.01218 h -0.586154 l 1.198359,3.429 h 0.182359 c -0.182359,0.530795 -0.384256,0.820616 -1.094154,0.941103 l 0.08467,0.436359 c 0.908539,-0.09118 1.289539,-0.657795 1.530513,-1.354667 z"
           id="path29008" />
        <path
           d="m 42.055746,11.964125 c 0,0.28982 0.227948,0.530795 0.524282,0.530795 0.302846,0 0.530795,-0.240975 0.530795,-0.530795 0,-0.293077 -0.227949,-0.524282 -0.530795,-0.524282 -0.296334,0 -0.524282,0.231205 -0.524282,0.524282 z m 0,2.347872 c 0,0.296333 0.227948,0.530795 0.524282,0.530795 0.302846,0 0.530795,-0.234462 0.530795,-0.530795 0,-0.283308 -0.227949,-0.524282 -0.530795,-0.524282 -0.296334,0 -0.524282,0.240974 -0.524282,0.524282 z"
           id="path29010" />
        <path
           d="m 50.294448,10.212176 c -0.579641,0 -1.201616,0.201898 -1.784513,0.709898 l 0.312615,0.364718 c 0.55359,-0.488462 1.055077,-0.59918 1.47841,-0.59918 1.198359,0 1.400257,0.989949 1.400257,2.233898 0,1.113692 0,1.996179 -0.407051,1.996179 -0.257257,0 -0.459154,-0.153051 -0.459154,-0.856436 v -1.924538 c -0.364718,-0.195385 -0.615462,-0.244231 -0.918308,-0.244231 -0.804333,0 -1.276513,0.547077 -1.276513,1.680308 0,0.862948 0.273539,1.491435 0.983436,1.491435 0.521026,0 0.768513,-0.332153 0.889,-0.631743 h 0.02605 c -0.0065,0.319128 0.221436,0.92482 0.765257,0.92482 0.784795,0 0.957384,-0.801077 0.957384,-2.442307 0,-1.331872 -0.283307,-2.702821 -1.966871,-2.702821 z m -0.351693,2.084103 c 0.156308,0 0.280052,0.02605 0.416821,0.09769 v 1.686821 c -0.07815,0.188871 -0.21818,0.573128 -0.670821,0.573128 -0.394025,0 -0.517769,-0.442872 -0.517769,-1.081128 0,-0.840154 0.179103,-1.276513 0.771769,-1.276513 z"
           id="path29012" />
        <path
           d="m 55.179051,13.624894 0.358205,1.143 h 0.592667 l -1.458872,-4.484077 h -0.722923 l -1.458872,4.484077 h 0.556846 l 0.358206,-1.143 z m -1.628205,-0.468923 0.745718,-2.396718 0.735949,2.396718 z"
           id="path29014" />
        <path
           d="m 58.253094,9.9581763 h -1.598897 v 0.4331027 h 1.051821 v 3.500641 c 0,0.595923 0.413564,0.950872 1.022512,0.950872 0.34518,0 0.628488,-0.08467 0.814103,-0.175847 l -0.146539,-0.400538 c -0.185615,0.0749 -0.37123,0.120487 -0.576384,0.120487 -0.332154,0 -0.566616,-0.127 -0.566616,-0.465667 z"
           id="path29016" />
        <path
           d="M 61.372724,11.785022 V 9.8897917 l -0.547077,0.068385 v 4.8097173 h 0.478692 l 0.03908,-0.354949 c 0.231205,0.293077 0.537308,0.429847 0.93459,0.429847 0.885743,0 1.357923,-0.752231 1.357923,-1.791026 0,-1.074615 -0.367975,-1.784513 -1.286282,-1.784513 -0.394026,0 -0.72618,0.188872 -0.976923,0.517769 z m 0.775025,2.614898 c -0.312615,0 -0.595923,-0.169334 -0.775025,-0.442872 v -1.699846 c 0.185615,-0.276795 0.475436,-0.550333 0.859692,-0.550333 0.527538,0 0.80759,0.446128 0.80759,1.341641 0,0.915051 -0.319128,1.35141 -0.892257,1.35141 z"
           id="path29018" />
        <path
           d="m 65.163177,13.247151 h 2.305539 c 0.0065,-0.0749 0.01302,-0.182359 0.01302,-0.29959 0,-1.042051 -0.527538,-1.680308 -1.393743,-1.680308 -0.911795,0 -1.497949,0.752231 -1.497949,1.791026 0,1.064846 0.566615,1.784513 1.56959,1.784513 0.42659,0 0.859692,-0.153052 1.17882,-0.403795 l -0.257256,-0.361462 c -0.302846,0.205154 -0.566615,0.309359 -0.915051,0.309359 -0.530795,0 -0.973667,-0.345179 -1.002975,-1.139743 z m 0.931334,-1.530513 c 0.514512,0 0.846666,0.374487 0.859692,1.107179 h -1.787769 c 0.04559,-0.755487 0.41682,-1.107179 0.928077,-1.107179 z"
           id="path29020" />
        <path
           d="m 70.956323,11.263997 c -0.621974,0 -0.967154,0.322384 -1.230923,0.885743 L 69.624451,11.338894 H 68.67358 v 0.420077 h 0.534051 v 2.588846 H 68.67358 v 0.420077 h 1.778 v -0.420077 h -0.696872 v -1.452359 c 0.227948,-0.755487 0.599179,-1.126718 1.129974,-1.126718 h 0.02931 v 0.729436 h 0.449384 l 0.07815,-1.159282 c -0.156307,-0.04559 -0.293077,-0.0749 -0.485205,-0.0749 z"
           id="path29022" />
        <path
           d="m 75.271059,14.595304 -0.211667,-0.37123 c -0.185615,0.09769 -0.400538,0.16282 -0.657795,0.16282 -0.468923,0 -0.654538,-0.205154 -0.654538,-0.586154 v -2.038512 h 1.120205 l 0.06513,-0.423334 h -1.185333 v -0.84341 l -0.547077,0.06513 v 0.778282 h -0.788051 v 0.423334 h 0.788051 v 2.045025 c 0,0.605692 0.41682,1.035539 1.152769,1.035539 0.319128,0 0.683846,-0.09444 0.918308,-0.247488 z"
           id="path29024" />
        <path
           d="m 76.449864,12.967099 h 2.611641 v -0.475436 h -2.611641 z"
           id="path29026" />
        <path
           d="m 82.946394,10.283817 h -2.566051 v 0.452641 h 0.996461 v 3.578795 h -0.996461 v 0.452641 h 2.566051 v -0.452641 h -0.996461 v -3.578795 h 0.996461 z"
           id="path29028" />
        <path
           d="M 85.584078,14.126381 84.38572,10.283817 h -0.608949 l 1.501205,4.484077 h 0.586154 l 1.501205,-4.484077 h -0.569872 z"
           id="path29030" />
        <path
           d="m 5.1607125,20.46824 c 0,-1.387231 -0.5601026,-2.318564 -1.651,-2.318564 -1.0908974,0 -1.651,0.963898 -1.651,2.325077 0,1.387231 0.5601026,2.305538 1.651,2.305538 1.0908974,0 1.651,-0.950871 1.651,-2.312051 z m -0.5926667,0 c 0,1.195103 -0.3028461,1.836616 -1.0583333,1.836616 -0.7359487,0 -1.0583333,-0.635 -1.0583333,-1.830103 0,-1.195103 0.3028461,-1.852897 1.0583333,-1.852897 0.7554872,0 1.0583333,0.651282 1.0583333,1.846384 z"
           id="path29032" />
        <path
           d="m 8.4333954,19.201497 c -0.6219744,0 -0.9671539,0.322384 -1.2309231,0.885743 L 7.1015236,19.276394 H 6.1506518 v 0.420077 h 0.5340513 v 2.588846 H 6.1506518 v 0.420077 h 1.778 V 22.285317 H 7.23178 V 20.832958 C 7.4597287,20.077471 7.8309595,19.70624 8.3617543,19.70624 h 0.029308 v 0.729436 h 0.4493846 l 0.078154,-1.159282 c -0.1563077,-0.04559 -0.2930769,-0.0749 -0.4852051,-0.0749 z"
           id="path29034" />
        <path
           d="m 11.325078,17.670984 c -0.231205,0 -0.394025,0.166077 -0.394025,0.381 0,0.221436 0.16282,0.390769 0.394025,0.390769 0.244231,0 0.400539,-0.169333 0.400539,-0.390769 0,-0.214923 -0.156308,-0.381 -0.400539,-0.381 z m 0.436359,1.60541 h -1.572846 v 0.433103 h 1.025769 v 2.562794 h -1.058333 v 0.433103 h 2.572564 v -0.433103 h -0.967154 z"
           id="path29036" />
        <path
           d="m 16.720941,18.911676 c -0.403795,0.175846 -0.696872,0.286564 -1.563077,0.289821 -0.80759,0 -1.367692,0.49823 -1.367692,1.191846 0,0.439615 0.182359,0.739205 0.576385,0.947615 -0.247488,0.162821 -0.377744,0.377744 -0.377744,0.59918 0,0.338666 0.270282,0.644769 0.862949,0.644769 h 0.612205 c 0.442872,0 0.775025,0.166077 0.775025,0.491718 0,0.374487 -0.332153,0.563359 -1.087641,0.563359 -0.768512,0 -0.950871,-0.185616 -0.950871,-0.586154 h -0.494975 c 0,0.696872 0.354949,1.032282 1.449103,1.032282 1.042051,0 1.637974,-0.371231 1.637974,-1.045308 0,-0.527538 -0.521025,-0.931333 -1.211384,-0.931333 H 14.96248 c -0.354949,0 -0.459154,-0.123744 -0.459154,-0.286564 0,-0.130257 0.0749,-0.260513 0.179102,-0.332154 0.143282,0.04559 0.280052,0.06513 0.511257,0.06513 0.810846,0 1.289538,-0.488461 1.289538,-1.165795 0,-0.390769 -0.198641,-0.680589 -0.595923,-0.862948 0.384257,0 0.709898,-0.0098 1.002974,-0.100949 z m -1.563077,0.690359 c 0.501487,0 0.758744,0.270282 0.758744,0.788051 0,0.504744 -0.263769,0.801077 -0.745718,0.801077 -0.560103,0 -0.820616,-0.332154 -0.820616,-0.79782 0,-0.459154 0.254,-0.791308 0.80759,-0.791308 z"
           id="path29038" />
        <path
           d="m 19.140444,17.670984 c -0.231205,0 -0.394026,0.166077 -0.394026,0.381 0,0.221436 0.162821,0.390769 0.394026,0.390769 0.244231,0 0.400539,-0.169333 0.400539,-0.390769 0,-0.214923 -0.156308,-0.381 -0.400539,-0.381 z m 0.436359,1.60541 h -1.572846 v 0.433103 h 1.025769 v 2.562794 h -1.058333 v 0.433103 h 2.572564 v -0.433103 h -0.967154 z"
           id="path29040" />
        <path
           d="m 21.748819,22.705394 h 0.547077 v -2.497667 c 0.179102,-0.267025 0.521025,-0.573128 0.92482,-0.573128 0.517769,0 0.586154,0.283308 0.586154,0.983436 v 2.087359 h 0.547077 V 20.21424 c 0,-0.631743 -0.289821,-1.009487 -0.963897,-1.009487 -0.397282,0 -0.85318,0.195385 -1.133231,0.547077 l -0.04233,-0.475436 h -0.465666 z"
           id="path29042" />
        <path
           d="m 28.111836,21.95642 v -1.644487 c 0,-0.677334 -0.429846,-1.10718 -1.283025,-1.10718 -0.332154,0 -0.703385,0.05861 -1.120205,0.214923 l 0.143282,0.413564 c 0.354948,-0.123743 0.664307,-0.175846 0.892256,-0.175846 0.511257,0 0.817359,0.185615 0.817359,0.68059 v 0.286564 H 27.05676 c -1.042052,0 -1.608667,0.390769 -1.608667,1.09741 0,0.638257 0.420077,1.058333 1.107179,1.058333 0.442872,0 0.830385,-0.16282 1.074616,-0.481948 0.09769,0.306102 0.332154,0.442872 0.628487,0.481948 l 0.133513,-0.384256 C 28.19976,22.33742 28.111836,22.233215 28.111836,21.95642 Z m -1.416538,0.407051 c -0.446128,0 -0.661051,-0.221436 -0.661051,-0.648026 0,-0.439615 0.276795,-0.719666 1.032282,-0.719666 h 0.494974 v 0.882487 c -0.205154,0.306102 -0.527538,0.485205 -0.866205,0.485205 z"
           id="path29044" />
        <path
           d="m 30.899314,17.895676 h -1.598898 v 0.433103 h 1.051821 v 3.500641 c 0,0.595923 0.413564,0.950871 1.022513,0.950871 0.345179,0 0.628487,-0.08467 0.814102,-0.175846 l -0.146538,-0.400538 c -0.185616,0.0749 -0.371231,0.120487 -0.576385,0.120487 -0.332154,0 -0.566615,-0.127 -0.566615,-0.465667 z"
           id="path29046" />
        <path
           d="m 40.352655,19.598779 c 0,-0.941103 -0.661051,-1.377462 -1.729154,-1.377462 h -1.146256 v 4.484077 h 0.566615 v -1.664026 h 0.573128 c 1.012744,0 1.735667,-0.394025 1.735667,-1.442589 z m -0.605692,0.0065 c 0,0.768512 -0.452641,0.980179 -1.077872,0.980179 H 38.04386 v -1.914769 h 0.648026 c 0.608948,0 1.055077,0.240974 1.055077,0.93459 z"
           id="path29048" />
        <path
           d="m 43.60254,19.201497 c -0.621974,0 -0.967153,0.322384 -1.230923,0.885743 l -0.100948,-0.810846 h -0.950872 v 0.420077 h 0.534051 v 2.588846 h -0.534051 v 0.420077 h 1.778 v -0.420077 h -0.696872 v -1.452359 c 0.227949,-0.755487 0.59918,-1.126718 1.129974,-1.126718 h 0.02931 v 0.729436 h 0.449385 l 0.07815,-1.159282 c -0.156308,-0.04559 -0.293077,-0.0749 -0.485206,-0.0749 z"
           id="path29050" />
        <path
           d="m 46.500738,19.204753 c -0.967154,0 -1.481667,0.732692 -1.481667,1.791026 0,1.077871 0.508,1.784512 1.475154,1.784512 0.960641,0 1.475154,-0.742461 1.475154,-1.791025 0,-1.087641 -0.501488,-1.784513 -1.468641,-1.784513 z m 0,0.446128 c 0.582897,0 0.882487,0.42659 0.882487,1.338385 0,0.911795 -0.29959,1.341641 -0.889,1.341641 -0.58941,0 -0.889,-0.429846 -0.889,-1.335128 0,-0.918308 0.306102,-1.344898 0.895513,-1.344898 z"
           id="path29052" />
        <path
           d="m 50.835012,17.670984 c -0.234462,0 -0.39077,0.166077 -0.39077,0.381 0,0.221436 0.156308,0.390769 0.39077,0.390769 0.240974,0 0.403795,-0.169333 0.403795,-0.390769 0,-0.214923 -0.162821,-0.381 -0.403795,-0.381 z m 0.511256,1.60541 h -1.973384 v 0.433103 h 1.426307 v 2.481384 c 0,0.921564 -0.713154,1.302564 -1.729154,1.471898 l 0.09118,0.423333 c 1.380718,-0.231205 2.185051,-0.784795 2.185051,-1.931051 z"
           id="path29054" />
        <path
           d="m 53.440128,21.18465 h 2.305539 c 0.0065,-0.0749 0.01303,-0.182359 0.01303,-0.299589 0,-1.042052 -0.527538,-1.680308 -1.393743,-1.680308 -0.911795,0 -1.497949,0.752231 -1.497949,1.791026 0,1.064846 0.566615,1.784512 1.56959,1.784512 0.426589,0 0.859692,-0.153051 1.17882,-0.403794 l -0.257256,-0.361462 c -0.302846,0.205154 -0.566616,0.309359 -0.915052,0.309359 -0.530794,0 -0.973666,-0.345179 -1.002974,-1.139744 z m 0.931333,-1.530512 c 0.514513,0 0.846667,0.374487 0.859693,1.107179 h -1.787769 c 0.04559,-0.755487 0.41682,-1.107179 0.928076,-1.107179 z"
           id="path29056" />
        <path
           d="m 58.468018,22.308112 c -0.589411,0 -1.016,-0.387513 -1.016,-1.302564 0,-0.905282 0.423333,-1.344898 1.016,-1.344898 0.299589,0 0.592666,0.104206 0.885743,0.306103 l 0.267026,-0.364718 c -0.325641,-0.263769 -0.706641,-0.397282 -1.146257,-0.397282 -1.029025,0 -1.615179,0.771769 -1.615179,1.800795 0,1.074615 0.582897,1.774743 1.608667,1.774743 0.403794,0 0.859692,-0.159564 1.159282,-0.413564 l -0.267026,-0.358205 c -0.254,0.175846 -0.547077,0.29959 -0.892256,0.29959 z"
           id="path29058" />
        <path
           d="m 63.548006,22.532804 -0.211667,-0.37123 c -0.185615,0.09769 -0.400538,0.16282 -0.657795,0.16282 -0.468923,0 -0.654538,-0.205154 -0.654538,-0.586154 v -2.038513 h 1.120205 l 0.06513,-0.423333 h -1.185333 v -0.84341 l -0.547077,0.06513 v 0.778282 H 60.68888 v 0.423333 h 0.788051 v 2.045026 c 0,0.605692 0.41682,1.035538 1.152769,1.035538 0.319128,0 0.683846,-0.09443 0.918308,-0.247487 z"
           id="path29060" />
        <path
           d="m 65.501844,19.901625 c 0,0.28982 0.227949,0.530795 0.524282,0.530795 0.302846,0 0.530795,-0.240975 0.530795,-0.530795 0,-0.293077 -0.227949,-0.524282 -0.530795,-0.524282 -0.296333,0 -0.524282,0.231205 -0.524282,0.524282 z m 0,2.347872 c 0,0.296333 0.227949,0.530794 0.524282,0.530794 0.302846,0 0.530795,-0.234461 0.530795,-0.530794 0,-0.283308 -0.227949,-0.524282 -0.530795,-0.524282 -0.296333,0 -0.524282,0.240974 -0.524282,0.524282 z"
           id="path29062" />
        <path
           d="m 3.4022509,26.087176 c -0.579641,0 -1.2016153,0.201897 -1.7845127,0.709897 l 0.3126153,0.364718 c 0.5535898,-0.488461 1.0550769,-0.599179 1.4784103,-0.599179 1.1983589,0 1.4002564,0.989949 1.4002564,2.233897 0,1.113693 0,1.99618 -0.4070513,1.99618 -0.2572564,0 -0.4591539,-0.153051 -0.4591539,-0.856436 v -1.924539 c -0.3647179,-0.195384 -0.6154615,-0.24423 -0.9183076,-0.24423 -0.8043334,0 -1.2765128,0.547077 -1.2765128,1.680307 0,0.862949 0.2735384,1.491436 0.9834358,1.491436 0.5210257,0 0.7685129,-0.332154 0.889,-0.631743 h 0.026051 c -0.00651,0.319128 0.2214359,0.92482 0.7652564,0.92482 0.7847949,0 0.9573846,-0.801077 0.9573846,-2.442307 0,-1.331872 -0.2833077,-2.702821 -1.9668715,-2.702821 z m -0.3516923,2.084103 c 0.1563077,0 0.2800513,0.02605 0.4168206,0.09769 v 1.68682 c -0.078154,0.188872 -0.2181795,0.573129 -0.6708206,0.573129 -0.3940256,0 -0.5177692,-0.442872 -0.5177692,-1.081129 0,-0.840153 0.1791026,-1.276512 0.7717692,-1.276512 z"
           id="path29064" />
        <path
           d="M 8.8404466,30.470304 8.62878,30.099073 c -0.1856154,0.09769 -0.4005385,0.162821 -0.6577949,0.162821 -0.4689231,0 -0.6545384,-0.205154 -0.6545384,-0.586154 V 27.637227 H 8.4366518 L 8.50178,27.213894 H 7.3164467 v -0.84341 l -0.547077,0.06513 v 0.778282 H 5.9813185 v 0.423333 h 0.7880512 v 2.045026 c 0,0.605692 0.4168206,1.035538 1.1527693,1.035538 0.3191282,0 0.6838461,-0.09444 0.9183076,-0.247487 z"
           id="path29066" />
        <path
           d="m 12.481104,29.89392 v -1.644488 c 0,-0.677333 -0.429846,-1.107179 -1.283026,-1.107179 -0.332154,0 -0.703384,0.05861 -1.120205,0.214923 l 0.143282,0.413564 c 0.354949,-0.123743 0.664308,-0.175846 0.892257,-0.175846 0.511256,0 0.817359,0.185615 0.817359,0.68059 v 0.286564 h -0.504744 c -1.042051,0 -1.6086666,0.390769 -1.6086666,1.09741 0,0.638256 0.4200766,1.058333 1.1071796,1.058333 0.442872,0 0.830384,-0.16282 1.074615,-0.481948 0.09769,0.306102 0.332154,0.442871 0.628487,0.481948 l 0.133513,-0.384256 C 12.569027,30.27492 12.481104,30.170714 12.481104,29.89392 Z m -1.416539,0.407051 c -0.446128,0 -0.661051,-0.221436 -0.661051,-0.648026 0,-0.439615 0.276795,-0.719666 1.032282,-0.719666 h 0.494975 v 0.882487 c -0.205154,0.306102 -0.527539,0.485205 -0.866206,0.485205 z"
           id="path29068" />
        <path
           d="m 15.467223,27.142253 c -0.413564,0 -0.771769,0.198641 -1.022513,0.550333 l -0.04559,-0.478692 h -0.465667 v 4.809718 l 0.547077,-0.06838 v -1.634718 c 0.227949,0.267026 0.530795,0.397282 0.905282,0.397282 0.892256,0 1.322102,-0.75223 1.322102,-1.791025 0,-1.074616 -0.325641,-1.784513 -1.240692,-1.784513 z m -0.130256,0.439615 c 0.537307,0 0.784795,0.446129 0.784795,1.341641 0,0.915052 -0.286564,1.338385 -0.856436,1.338385 -0.325641,0 -0.605693,-0.162821 -0.784795,-0.429846 v -1.699846 c 0.185615,-0.276795 0.475436,-0.550334 0.856436,-0.550334 z"
           id="path29070" />
        <path
           d="m 19.140444,25.608484 c -0.231205,0 -0.394026,0.166077 -0.394026,0.381 0,0.221436 0.162821,0.390769 0.394026,0.390769 0.244231,0 0.400539,-0.169333 0.400539,-0.390769 0,-0.214923 -0.156308,-0.381 -0.400539,-0.381 z m 0.436359,1.60541 h -1.572846 v 0.433103 h 1.025769 v 2.562794 h -1.058333 v 0.433103 h 2.572564 v -0.433103 h -0.967154 z"
           id="path29072" />
        <path
           d="m 23.054639,27.142253 c -0.967154,0 -1.481666,0.732692 -1.481666,1.791026 0,1.077871 0.508,1.784512 1.475153,1.784512 0.960641,0 1.475154,-0.742461 1.475154,-1.791025 0,-1.087641 -0.501487,-1.784513 -1.468641,-1.784513 z m 0,0.446128 c 0.582898,0 0.882487,0.42659 0.882487,1.338385 0,0.911795 -0.299589,1.341641 -0.889,1.341641 -0.58941,0 -0.889,-0.429846 -0.889,-1.335128 0,-0.918308 0.306103,-1.344898 0.895513,-1.344898 z"
           id="path29074" />
        <path
           d="m 26.239401,25.764791 -0.547077,0.06839 v 4.809718 h 0.547077 z m 2.289256,1.449103 H 27.81876 l -1.517488,1.556564 1.686821,1.872436 h 0.719667 l -1.722641,-1.885462 z"
           id="path29076" />
        <path
           d="m 30.863493,25.608484 c -0.231205,0 -0.394025,0.166077 -0.394025,0.381 0,0.221436 0.16282,0.390769 0.394025,0.390769 0.244231,0 0.400539,-0.169333 0.400539,-0.390769 0,-0.214923 -0.156308,-0.381 -0.400539,-0.381 z m 0.436359,1.60541 h -1.572846 v 0.433103 h 1.025769 v 2.562794 h -1.058333 v 0.433103 h 2.572564 v -0.433103 h -0.967154 z"
           id="path29078" />
        <path
           d="M 33.602124,31.313714 36.383099,25.585689 35.94674,25.370766 33.159253,31.11833 Z"
           id="path29080" />
        <path
           d="m 38.929604,30.245612 c -0.589411,0 -1.016,-0.387513 -1.016,-1.302564 0,-0.905282 0.423333,-1.344898 1.016,-1.344898 0.299589,0 0.592666,0.104205 0.885743,0.306103 l 0.267026,-0.364718 c -0.325641,-0.263769 -0.706641,-0.397282 -1.146257,-0.397282 -1.029025,0 -1.615179,0.771769 -1.615179,1.800795 0,1.074615 0.582897,1.774743 1.608667,1.774743 0.403794,0 0.859692,-0.159564 1.159282,-0.413564 L 39.82186,29.946022 c -0.254,0.175846 -0.547077,0.29959 -0.892256,0.29959 z"
           id="path29082" />
        <path
           d="m 41.717079,29.12215 h 2.305538 c 0.0065,-0.0749 0.01303,-0.182359 0.01303,-0.299589 0,-1.042052 -0.527538,-1.680308 -1.393744,-1.680308 -0.911794,0 -1.497948,0.752231 -1.497948,1.791026 0,1.064846 0.566615,1.784512 1.569589,1.784512 0.42659,0 0.859693,-0.153051 1.178821,-0.403795 l -0.257256,-0.361461 c -0.302847,0.205154 -0.566616,0.309359 -0.915052,0.309359 -0.530795,0 -0.973666,-0.34518 -1.002974,-1.139744 z m 0.931333,-1.530512 c 0.514513,0 0.846667,0.374487 0.859693,1.107179 h -1.78777 c 0.04559,-0.755487 0.416821,-1.107179 0.928077,-1.107179 z"
           id="path29084" />
        <path
           d="m 46.728686,27.142253 c -0.413564,0 -0.771769,0.198641 -1.022512,0.550333 l -0.04559,-0.478692 h -0.465667 v 4.809718 l 0.547077,-0.06838 v -1.634718 c 0.227949,0.267026 0.530795,0.397282 0.905282,0.397282 0.892256,0 1.322103,-0.75223 1.322103,-1.791025 0,-1.074616 -0.325641,-1.784513 -1.240693,-1.784513 z m -0.130256,0.439615 c 0.537308,0 0.784795,0.446129 0.784795,1.341641 0,0.915052 -0.286564,1.338385 -0.856436,1.338385 -0.325641,0 -0.605692,-0.162821 -0.784795,-0.429846 v -1.699846 c 0.185615,-0.276795 0.475436,-0.550334 0.856436,-0.550334 z"
           id="path29086" />
        <path
           d="m 49.649678,25.781073 -0.547077,0.05862 v 4.803205 h 0.547077 v -2.497667 c 0.179103,-0.270282 0.527539,-0.573128 0.918308,-0.573128 0.407051,0 0.592667,0.182359 0.592667,0.592667 v 2.478128 H 51.70773 V 28.15174 c 0,-0.631743 -0.293077,-1.009487 -0.963898,-1.009487 -0.403795,0 -0.823872,0.182359 -1.094154,0.540564 z"
           id="path29088" />
        <path
           d="m 55.465615,29.89392 v -1.644488 c 0,-0.677333 -0.429846,-1.107179 -1.283025,-1.107179 -0.332154,0 -0.703385,0.05861 -1.120205,0.214923 l 0.143282,0.413564 c 0.354948,-0.123743 0.664307,-0.175846 0.892256,-0.175846 0.511256,0 0.817359,0.185615 0.817359,0.68059 v 0.286564 h -0.504744 c -1.042051,0 -1.608666,0.390769 -1.608666,1.09741 0,0.638256 0.420077,1.058333 1.107179,1.058333 0.442872,0 0.830385,-0.16282 1.074616,-0.481948 0.09769,0.306102 0.332153,0.442871 0.628487,0.481948 l 0.133513,-0.384256 C 55.553538,30.27492 55.465615,30.170714 55.465615,29.89392 Z m -1.416538,0.407051 c -0.446128,0 -0.661051,-0.221436 -0.661051,-0.648026 0,-0.439615 0.276794,-0.719666 1.032282,-0.719666 h 0.494974 v 0.882487 c -0.205154,0.306102 -0.527539,0.485205 -0.866205,0.485205 z"
           id="path29090" />
        <path
           d="m 58.253094,25.833176 h -1.598897 v 0.433103 h 1.051821 v 3.500641 c 0,0.595923 0.413564,0.950871 1.022512,0.950871 0.34518,0 0.628488,-0.08467 0.814103,-0.175846 l -0.146539,-0.400538 c -0.185615,0.0749 -0.37123,0.120487 -0.576384,0.120487 -0.332154,0 -0.566616,-0.127 -0.566616,-0.465667 z"
           id="path29092" />
        <path
           d="m 62.131467,27.142253 c -0.967154,0 -1.481666,0.732692 -1.481666,1.791026 0,1.077871 0.508,1.784512 1.475153,1.784512 0.960642,0 1.475154,-0.742461 1.475154,-1.791025 0,-1.087641 -0.501487,-1.784513 -1.468641,-1.784513 z m 0,0.446128 c 0.582898,0 0.882487,0.42659 0.882487,1.338385 0,0.911795 -0.299589,1.341641 -0.889,1.341641 -0.58941,0 -0.888999,-0.429846 -0.888999,-1.335128 0,-0.918308 0.306102,-1.344898 0.895512,-1.344898 z"
           id="path29094" />
        <path
           d="m 66.2671,27.142253 c -0.413564,0 -0.771769,0.198641 -1.022512,0.550333 l -0.04559,-0.478692 h -0.465667 v 4.809718 l 0.547077,-0.06838 v -1.634718 c 0.227949,0.267026 0.530795,0.397282 0.905282,0.397282 0.892256,0 1.322103,-0.75223 1.322103,-1.791025 0,-1.074616 -0.325641,-1.784513 -1.240693,-1.784513 z m -0.130256,0.439615 c 0.537308,0 0.784795,0.446129 0.784795,1.341641 0,0.915052 -0.286564,1.338385 -0.856436,1.338385 -0.325641,0 -0.605692,-0.162821 -0.784795,-0.429846 v -1.699846 c 0.185615,-0.276795 0.475436,-0.550334 0.856436,-0.550334 z"
           id="path29096" />
        <path
           d="m 69.946836,27.142253 c -0.967154,0 -1.481667,0.732692 -1.481667,1.791026 0,1.077871 0.508,1.784512 1.475154,1.784512 0.960641,0 1.475154,-0.742461 1.475154,-1.791025 0,-1.087641 -0.501487,-1.784513 -1.468641,-1.784513 z m 0,0.446128 c 0.582897,0 0.882487,0.42659 0.882487,1.338385 0,0.911795 -0.29959,1.341641 -0.889,1.341641 -0.58941,0 -0.889,-0.429846 -0.889,-1.335128 0,-0.918308 0.306103,-1.344898 0.895513,-1.344898 z"
           id="path29098" />
        <path
           d="m 74.600238,25.764791 v 1.781257 c -0.227948,-0.267026 -0.524282,-0.403795 -0.918307,-0.403795 -0.846667,0 -1.344898,0.758744 -1.344898,1.791026 0,1.061589 0.410308,1.784512 1.305821,1.784512 0.377743,0 0.71641,-0.16282 0.973666,-0.527538 l 0.0521,0.452641 h 0.478692 v -4.809718 z m -0.775025,1.817077 c 0.315871,0 0.58941,0.162821 0.775025,0.439616 v 1.712871 c -0.185615,0.280052 -0.455897,0.540565 -0.84341,0.540565 -0.537308,0 -0.823872,-0.452641 -0.823872,-1.341641 0,-0.905282 0.319128,-1.351411 0.892257,-1.351411 z"
           id="path29100" />
        <path
           d="m 78.91171,29.89392 v -1.644488 c 0,-0.677333 -0.429846,-1.107179 -1.283026,-1.107179 -0.332154,0 -0.703384,0.05861 -1.120205,0.214923 l 0.143282,0.413564 c 0.354949,-0.123743 0.664308,-0.175846 0.892257,-0.175846 0.511256,0 0.817358,0.185615 0.817358,0.68059 v 0.286564 h -0.504743 c -1.042051,0 -1.608667,0.390769 -1.608667,1.09741 0,0.638256 0.420077,1.058333 1.10718,1.058333 0.442871,0 0.830384,-0.16282 1.074615,-0.481948 0.09769,0.306102 0.332154,0.442871 0.628487,0.481948 l 0.133513,-0.384256 C 78.999633,30.27492 78.91171,30.170714 78.91171,29.89392 Z m -1.416539,0.407051 c -0.446128,0 -0.661051,-0.221436 -0.661051,-0.648026 0,-0.439615 0.276795,-0.719666 1.032282,-0.719666 h 0.494974 v 0.882487 c -0.205153,0.306102 -0.527538,0.485205 -0.866205,0.485205 z"
           id="path29102" />
        <path
           d="m 85.001181,28.363407 c 0,-1.364436 0.455897,-2.058051 1.393744,-2.891692 l -0.286564,-0.29959 c -1.058334,0.862948 -1.680308,1.706359 -1.680308,3.191282 0,1.484923 0.621974,2.328333 1.680308,3.191282 l 0.286564,-0.29959 C 85.463591,30.431227 85.001181,29.72133 85.001181,28.363407 Z"
           id="path29104" />
        <path
           d="m 90.348199,29.499894 0.358205,1.143 h 0.592666 l -1.458871,-4.484077 h -0.722923 l -1.458872,4.484077 h 0.556846 l 0.358205,-1.143 z m -1.628205,-0.468923 0.745718,-2.396718 0.735948,2.396718 z"
           id="path29106" />
        <path
           d="m 98.938593,28.379689 c 0,-1.862667 -1.048564,-2.220872 -2.097128,-2.220872 H 95.88408 v 4.484077 h 1.029026 c 0.928077,0 2.025487,-0.384256 2.025487,-2.263205 z m -0.602436,0 c 0,1.484923 -0.709897,1.810564 -1.354667,1.810564 h -0.534051 v -3.569026 h 0.527539 c 0.615461,0 1.361179,0.195385 1.361179,1.758462 z"
           id="path29108" />
        <path
           d="m 100.44955,27.213894 h -0.547075 v 2.49441 c 0,0.635 0.325645,1.009487 0.989945,1.009487 0.40054,0 0.82713,-0.188871 1.09741,-0.537307 l 0.0456,0.46241 h 0.46567 v -3.429 h -0.54708 v 2.523718 c -0.18561,0.293077 -0.55359,0.54382 -0.92807,0.54382 -0.39729,0 -0.57639,-0.188871 -0.57639,-0.638256 z"
           id="path29110" />
        <path
           d="m 104.14231,30.642894 0.95087,-1.471898 0.93785,1.471898 h 0.67082 l -1.26349,-1.833359 1.10718,-1.595641 h -0.62523 l -0.80433,1.276513 -0.79456,-1.276513 h -0.64803 l 1.11044,1.618436 -1.26675,1.810564 z"
           id="path29112" />
        <path
           d="m 109.58702,28.363407 c 0,1.357923 -0.46241,2.06782 -1.39374,2.891692 l 0.28656,0.29959 c 1.05834,-0.862949 1.68031,-1.706359 1.68031,-3.191282 0,-1.484923 -0.62197,-2.328334 -1.68031,-3.191282 l -0.28656,0.29959 c 0.93785,0.833641 1.39374,1.527256 1.39374,2.891692 z"
           id="path29114" />
      </g>
    </g>
  </g>
</svg>
