<?xml version="1.0" encoding="UTF-8" standalone="no"?>
<!-- Created with Inkscape (http://www.inkscape.org/) -->

<svg
   width="90"
   height="90"
   viewBox="0 0 90 90"
   version="1.1"
   id="SVGRoot"
   sodipodi:docname="eye-edited.svg"
   inkscape:version="1.1.1 (3bf5ae0d25, 2021-09-20)"
   xmlns:inkscape="http://www.inkscape.org/namespaces/inkscape"
   xmlns:sodipodi="http://sodipodi.sourceforge.net/DTD/sodipodi-0.dtd"
   xmlns="http://www.w3.org/2000/svg"
   xmlns:svg="http://www.w3.org/2000/svg">
  <sodipodi:namedview
     id="namedview1049"
     pagecolor="#ffffff"
     bordercolor="#666666"
     borderopacity="1.0"
     inkscape:pageshadow="2"
     inkscape:pageopacity="0.0"
     inkscape:pagecheckerboard="0"
     inkscape:document-units="px"
     showgrid="true"
     inkscape:zoom="16"
     inkscape:cx="34.90625"
     inkscape:cy="20.5"
     inkscape:window-width="3840"
     inkscape:window-height="2080"
     inkscape:window-x="-11"
     inkscape:window-y="-11"
     inkscape:window-maximized="1"
     inkscape:current-layer="layer2">
    <inkscape:grid
       type="xygrid"
       id="grid1055" />
  </sodipodi:namedview>
  <defs
     id="defs1044" />
  <g
     inkscape:groupmode="layer"
     id="layer2"
     inkscape:label="F.Cu"
     style="display:inline">
    <g
       id="g28483"
       transform="matrix(3.8565371,0,0,3.8555533,-0.34284704,-0.34176147)">
      <path
         d="m 9.8101128,1.9049304 c 0,0.1576042 0.1276012,0.2853408 0.2850692,0.2853408 0.157602,0 0.285469,-0.1277366 0.285469,-0.2853408 0,-0.1574709 -0.127867,-0.2853409 -0.285469,-0.2853409 -0.157468,0 -0.2850692,0.1277367 -0.2850692,0.2853409"
         id="path1174"
         style="display:inline;fill:#f1f208;fill-opacity:1;stroke-width:0.133336" />
      <path
         d="m 5.9969579,8.6671009 c -1.344546,0 -2.6661013,-1.3205074 -2.6661013,-2.663743 0,-1.3432355 1.3233346,-2.6750192 2.6678806,-2.6750192 1.3445459,0 2.6739462,1.3610566 2.6739462,2.7042922 0,1.3431022 -1.3311796,2.63447 -2.6757255,2.63447 z m 0.00325,-5.004924 c -1.2905454,0 -2.3404219,1.0488277 -2.3404219,2.3379285 0,1.2891009 1.0498765,2.3379286 2.3404219,2.3379286 1.2905455,0 2.3402887,-1.0488277 2.3402887,-2.3379286 0,-1.2891008 -1.0497432,-2.3379285 -2.3402887,-2.3379285 z"
         id="path1148"
         style="display:inline;fill:#f1f208;fill-opacity:1;stroke-width:0.133336"
         sodipodi:nodetypes="ssssssssss" />
      <path
         d="m 6.0002757,6.9727159 c -0.536405,0 -0.9728092,-0.4362783 -0.9728092,-0.9725592 0,-0.5364141 0.4364042,-0.9728257 0.9728092,-0.9728257 0.5364051,0 0.9728092,0.4364116 0.9728092,0.9728257 0,0.5361476 -0.4364041,0.9725592 -0.9728092,0.9725592 z"
         id="path1152-0"
         style="display:inline;fill:#f1f208;fill-opacity:1;stroke:none;stroke-width:0.133333;stroke-miterlimit:4;stroke-dasharray:none"
         sodipodi:nodetypes="sssss" />
      <path
         d="m 4.215127,0.40502398 c 0,0.15760418 0.1277345,0.28520755 0.285336,0.28520755 0.1576014,0 0.2853359,-0.12760337 0.2853359,-0.28520755 0,-0.15747084 -0.1277345,-0.28534088 -0.2853359,-0.28534088 -0.1576015,0 -0.285336,0.12787004 -0.285336,0.28534088"
         id="path1166"
         style="display:inline;fill:#f1f208;fill-opacity:1;stroke-width:0.133336" />
      <path
         d="m 1.6199026,10.097414 c 0,0.157737 0.1277346,0.285341 0.285336,0.285341 0.1576015,0 0.285336,-0.127604 0.285336,-0.285341 0,-0.157471 -0.1277345,-0.285341 -0.285336,-0.285341 -0.1576014,0 -0.285336,0.1280034 -0.285336,0.285341"
         id="path1168"
         style="display:inline;fill:#f1f208;fill-opacity:1;stroke-width:0.133336" />
      <path
         d="m 11.309727,7.4998784 c 0,0.1574709 0.127868,0.2852076 0.285469,0.2852076 0.157602,0 0.285203,-0.1277367 0.285203,-0.2852076 0,-0.1577374 -0.127601,-0.2853408 -0.285203,-0.2853408 -0.157601,0 -0.285469,0.1276034 -0.285469,0.2853408"
         id="path1170"
         style="display:inline;fill:#f1f208;fill-opacity:1;stroke-width:0.133336" />
      <path
         d="m 7.2148885,11.597454 c 0,0.15747 0.1276012,0.285607 0.285336,0.285607 0.1574681,0 0.2852026,-0.128137 0.2852026,-0.285607 0,-0.157604 -0.1277345,-0.285341 -0.2852026,-0.285341 -0.1577348,0 -0.285336,0.127737 -0.285336,0.285341"
         id="path1172"
         style="display:inline;fill:#f1f208;fill-opacity:1;stroke-width:0.133336" />
      <path
         d="m 0.12002191,4.500199 c 0,0.1576043 0.12773454,0.285341 0.28533601,0.285341 0.15760148,0 0.28520268,-0.1277367 0.28520268,-0.285341 0,-0.1574708 -0.12773453,-0.2853408 -0.28520268,-0.2853408 -0.15746814,0 -0.28533601,0.12787 -0.28533601,0.2853408"
         id="path1176"
         style="display:inline;fill:#f1f208;fill-opacity:1;stroke-width:0.133336" />
      <path
         d="m 6.0002104,8.6811097 c -1.4782805,0 -2.6809585,-1.2028318 -2.6809585,-2.6810043 0,-1.4783057 1.202678,-2.6810042 2.6809585,-2.6810042 1.4784138,0 2.6810918,1.2026985 2.6810918,2.6810042 0,1.4783058 -1.202678,2.6810043 -2.6810918,2.6810043 z m 0,-5.2313384 c -1.4062798,0 -2.5502906,1.1441636 -2.5502906,2.5503341 0,1.4061706 1.1441441,2.5503342 2.5502906,2.5503342 1.4061465,0 2.5504239,-1.1441636 2.5504239,-2.5503342 0,-1.4063038 -1.1441441,-2.5503341 -2.5504239,-2.5503341 z"
         id="path1146"
         style="display:inline;fill:#f1f208;fill-opacity:1;stroke-width:0.133336" />
    </g>
  </g>
  <g
     inkscape:groupmode="layer"
     id="g28523"
     inkscape:label="B.Cu"
     style="display:inline">
    <g
       id="g28521"
       transform="matrix(-3.8565371,0,0,3.8555533,45.937222,-0.34176147)">
      <path
         d="m 9.8101128,1.9049304 c 0,0.1576042 0.1276012,0.2853408 0.2850692,0.2853408 0.157602,0 0.285469,-0.1277366 0.285469,-0.2853408 0,-0.1574709 -0.127867,-0.2853409 -0.285469,-0.2853409 -0.157468,0 -0.2850692,0.1277367 -0.2850692,0.2853409"
         id="path28503"
         style="display:inline;fill:#f1f208;fill-opacity:1;stroke-width:0.133336" />
      <path
         d="m 5.9969579,8.6671009 c -1.344546,0 -2.6661013,-1.3205074 -2.6661013,-2.663743 0,-1.3432355 1.3233346,-2.6750192 2.6678806,-2.6750192 1.3445459,0 2.6739462,1.3610566 2.6739462,2.7042922 0,1.3431022 -1.3311796,2.63447 -2.6757255,2.63447 z m 0.00325,-5.004924 c -1.2905454,0 -2.3404219,1.0488277 -2.3404219,2.3379285 0,1.2891009 1.0498765,2.3379286 2.3404219,2.3379286 1.2905455,0 2.3402887,-1.0488277 2.3402887,-2.3379286 0,-1.2891008 -1.0497432,-2.3379285 -2.3402887,-2.3379285 z"
         id="path28505"
         style="display:inline;fill:#f1f208;fill-opacity:1;stroke-width:0.133336"
         sodipodi:nodetypes="ssssssssss" />
      <path
         d="m 6.0002757,6.9727159 c -0.536405,0 -0.9728092,-0.4362783 -0.9728092,-0.9725592 0,-0.5364141 0.4364042,-0.9728257 0.9728092,-0.9728257 0.5364051,0 0.9728092,0.4364116 0.9728092,0.9728257 0,0.5361476 -0.4364041,0.9725592 -0.9728092,0.9725592 z"
         id="path28507"
         style="display:inline;fill:#f1f208;fill-opacity:1;stroke:none;stroke-width:0.133333;stroke-miterlimit:4;stroke-dasharray:none"
         sodipodi:nodetypes="sssss" />
      <path
         d="m 4.215127,0.40502398 c 0,0.15760418 0.1277345,0.28520755 0.285336,0.28520755 0.1576014,0 0.2853359,-0.12760337 0.2853359,-0.28520755 0,-0.15747084 -0.1277345,-0.28534088 -0.2853359,-0.28534088 -0.1576015,0 -0.285336,0.12787004 -0.285336,0.28534088"
         id="path28509"
         style="display:inline;fill:#f1f208;fill-opacity:1;stroke-width:0.133336" />
      <path
         d="m 1.6199026,10.097414 c 0,0.157737 0.1277346,0.285341 0.285336,0.285341 0.1576015,0 0.285336,-0.127604 0.285336,-0.285341 0,-0.157471 -0.1277345,-0.285341 -0.285336,-0.285341 -0.1576014,0 -0.285336,0.1280034 -0.285336,0.285341"
         id="path28511"
         style="display:inline;fill:#f1f208;fill-opacity:1;stroke-width:0.133336" />
      <path
         d="m 11.309727,7.4998784 c 0,0.1574709 0.127868,0.2852076 0.285469,0.2852076 0.157602,0 0.285203,-0.1277367 0.285203,-0.2852076 0,-0.1577374 -0.127601,-0.2853408 -0.285203,-0.2853408 -0.157601,0 -0.285469,0.1276034 -0.285469,0.2853408"
         id="path28513"
         style="display:inline;fill:#f1f208;fill-opacity:1;stroke-width:0.133336" />
      <path
         d="m 7.2148885,11.597454 c 0,0.15747 0.1276012,0.285607 0.285336,0.285607 0.1574681,0 0.2852026,-0.128137 0.2852026,-0.285607 0,-0.157604 -0.1277345,-0.285341 -0.2852026,-0.285341 -0.1577348,0 -0.285336,0.127737 -0.285336,0.285341"
         id="path28515"
         style="display:inline;fill:#f1f208;fill-opacity:1;stroke-width:0.133336" />
      <path
         d="m 0.12002191,4.500199 c 0,0.1576043 0.12773454,0.285341 0.28533601,0.285341 0.15760148,0 0.28520268,-0.1277367 0.28520268,-0.285341 0,-0.1574708 -0.12773453,-0.2853408 -0.28520268,-0.2853408 -0.15746814,0 -0.28533601,0.12787 -0.28533601,0.2853408"
         id="path28517"
         style="display:inline;fill:#f1f208;fill-opacity:1;stroke-width:0.133336" />
      <path
         d="m 6.0002104,8.6811097 c -1.4782805,0 -2.6809585,-1.2028318 -2.6809585,-2.6810043 0,-1.4783057 1.202678,-2.6810042 2.6809585,-2.6810042 1.4784138,0 2.6810918,1.2026985 2.6810918,2.6810042 0,1.4783058 -1.202678,2.6810043 -2.6810918,2.6810043 z m 0,-5.2313384 c -1.4062798,0 -2.5502906,1.1441636 -2.5502906,2.5503341 0,1.4061706 1.1441441,2.5503342 2.5502906,2.5503342 1.4061465,0 2.5504239,-1.1441636 2.5504239,-2.5503342 0,-1.4063038 -1.1441441,-2.5503341 -2.5504239,-2.5503341 z"
         id="path28519"
         style="display:inline;fill:#f1f208;fill-opacity:1;stroke-width:0.133336" />
    </g>
  </g>
  <g
     inkscape:label="F.SilkS"
     inkscape:groupmode="layer"
     id="layer1"
     style="display:inline">
    <g
       id="g28472"
       transform="matrix(3.7795276,0,0,3.7795275,0,6.3554175e-6)">
      <path
         d="m 9.3886422,3.8320481 c -0.00827,0 -0.018133,-0.002 -0.0252,-0.00587 C 8.8229035,3.5351072 8.2460981,3.3152347 7.6490258,3.1725641 7.6368925,3.1697641 7.627159,3.1626975 7.6204922,3.1533637 7.2030217,2.713352 6.7300838,2.3281419 6.214479,2.0081334 c -0.013333,-0.0028 -0.0252,-0.011067 -0.0324,-0.023734 -0.0132,-0.023201 -0.00533,-0.052801 0.017733,-0.066402 5.334e-4,-4e-4 0.0012,-6.666e-4 0.00173,-0.00107 0.8050742,-0.4370783 1.674949,-0.7080188 2.5856242,-0.8052214 0.021334,-0.00507 0.045334,0.0064 0.055067,0.028001 0.3713368,0.8372222 0.5718721,1.7260456 0.5956056,2.6419366 4e-4,0.0132 -0.00467,0.026001 -0.013867,0.035468 -0.00947,0.0096 -0.022,0.014934 -0.035334,0.014934 z M 7.6866262,3.0806948 C 8.2599649,3.2190985 8.8146367,3.427504 9.3369083,3.7011113 9.3043747,2.8394884 9.1126395,2.002933 8.766903,1.2123787 7.9090282,1.3077145 7.0882206,1.5597212 6.3252801,1.9617319 c 0.497738,0.315875 0.9553423,0.6918849 1.3613461,1.1189629 z"
         id="path1136"
         style="stroke-width:0.133336" />
      <path
         d="m 2.6169786,3.8452484 c -0.013867,0 -0.027734,-0.00333 -0.038134,-0.0108 -0.017467,-0.012667 -0.033067,-0.030801 -0.032534,-0.052535 0.023867,-0.9177577 0.2248021,-1.8088479 0.5970724,-2.6482035 0.010667,-0.024001 0.034,-0.038401 0.058667,-0.038934 0.00373,-1.333e-4 0.00747,-1.333e-4 0.011067,2.667e-4 1.527481,0.1628041 2.9798947,0.8372219 4.0895051,1.8991167 0.023467,0.022401 0.0268,0.058402 0.0084,0.084936 -0.016933,0.023867 -0.047334,0.033068 -0.074001,0.024534 -1.5636147,-0.2776073 -3.19403,-0.015867 -4.5921765,0.7369528 -0.00853,0.00293 -0.018133,0.00467 -0.027867,0.00467 z M 3.2437846,1.2299792 C 2.9055147,2.0069331 2.7163129,2.8282881 2.6808459,3.6739105 4.0163251,2.9796255 5.5586063,2.721352 7.0531536,2.9413579 5.9974104,1.994266 4.6544644,1.38985 3.2437846,1.2299792 Z"
         id="path1142"
         style="stroke-width:0.133336" />
      <path
         d="m 5.2863371,6.0001054 c 0,0.3940105 0.3196029,0.7136189 0.7138733,0.7136189 0.3944037,0 0.71374,-0.3194751 0.71374,-0.7136189 0,-0.3942771 -0.3193363,-0.7138855 -0.71374,-0.7138855 -0.3942704,0 -0.7138733,0.3196084 -0.7138733,0.7138855"
         id="path1150"
         style="stroke-width:0.133336" />
      <path
         d="m 6.0003437,11.999998 c -0.028534,0 -0.055467,-0.0092 -0.077467,-0.0252 C 5.4727392,11.66199 5.058202,11.298247 4.6893985,10.892369 4.166727,11.059707 3.6247218,11.167443 3.0772501,11.212911 c -0.0072,8e-4 -0.014267,5.33e-4 -0.021334,1.33e-4 -0.046667,-0.0037 -0.089468,-0.03227 -0.1094676,-0.07467 C 2.7124462,10.641562 2.5348446,10.118481 2.4183101,9.5819336 1.8869718,9.4664638 1.3683002,9.2909925 0.87536232,9.0599198 0.81962847,9.040986 0.78202811,8.9867178 0.78709483,8.9260496 0.83269526,8.3780351 0.9408296,7.8350873 1.1085645,7.3112068 0.70576074,6.9451971 0.34415735,6.533853 0.0328211,6.0874411 9.5413064e-4,6.0513069 -0.00944597,5.9993054 0.00935421,5.9522375 0.01335425,5.9422373 0.0185543,5.9329037 0.02468769,5.9243701 0.33789062,5.4734249 0.70202737,5.0582138 1.1080312,4.6892708 0.94202962,4.1701904 0.83456195,3.6324428 0.78842818,3.0890951 c -0.003867,-0.022267 -0.001867,-0.045735 0.0064,-0.067869 0.0133334,-0.035601 0.0409337,-0.062668 0.074534,-0.076002 C 1.3637668,2.7129517 1.8841718,2.5365471 2.4179099,2.420544 2.5345778,1.8834631 2.7121794,1.3594492 2.9464483,0.86210276 c 0.014133,-0.0298675 0.038934,-0.0533347 0.069734,-0.0657351 0.0188,-0.007467 0.040667,-0.0113336 0.061334,-0.0096 0.547605,0.0457346 1.0894769,0.15347073 1.6122819,0.32067514 0.3684035,-0.40534404 0.782674,-0.76908701 1.2326782,-1.08176195 0.013467,-0.01000027 0.0288,-0.0173338 0.045467,-0.02160058 0.036667,-0.00933358 0.075867,-0.0025334 0.1069342,0.01906717 C 6.526082,0.33648882 6.9416858,0.70089847 7.3112893,1.1074426 7.8344941,0.94010481 8.3760991,0.83223528 8.9226378,0.78663408 c 0.0084,-6.6667e-4 0.0172,-5.3334e-4 0.0252,4e-4 0.0452,0.005067 0.086801,0.0333342 0.1061343,0.074402 0.2345356,0.49774652 0.4124039,1.02176032 0.5290717,1.55884122 0.5314722,0.1157364 1.0502772,0.2912078 1.5429482,0.5221472 0.05133,0.017867 0.08773,0.066535 0.08773,0.1234699 0,0.00373 -1.33e-4,0.0076 -5.33e-4,0.0112 -0.04533,0.5470812 -0.153068,1.0888289 -0.320537,1.6119094 C 11.29746,5.0568802 11.66053,5.4702245 11.972533,5.918903 11.989867,5.9417037 12,5.9698377 12,5.9999718 c 0,0.028668 -0.0092,0.055735 -0.02547,0.077736 -0.312803,0.4500118 -0.676673,0.8648229 -1.082543,1.2334993 0.167335,0.5224138 0.275069,1.0632281 0.320669,1.6092426 6.67e-4,0.00493 9.34e-4,0.00987 9.34e-4,0.0148 0,0.055468 -0.03453,0.1032026 -0.08373,0.1222698 C 10.635454,9.2897922 10.115182,9.4659302 9.5823772,9.5819333 9.4657095,10.118214 9.2881079,10.641428 9.053839,11.138375 c -0.019867,0.04213 -0.060801,0.07053 -0.1074676,0.0744 -0.00693,8e-4 -0.015867,0.0011 -0.0232,1.34e-4 -0.5473385,-0.04547 -1.0893436,-0.153204 -1.6121485,-0.320542 -0.3678701,0.404811 -0.781474,0.76802 -1.2305448,1.080429 -0.022267,0.0172 -0.050267,0.0272 -0.080134,0.0272 z M 4.8365995,10.664896 c 0.3474698,0.390277 0.7386736,0.741086 1.1637442,1.044294 0.4258707,-0.303741 0.8174744,-0.655351 1.1654776,-1.046161 0.032667,-0.04387 0.090934,-0.06387 0.1456013,-0.0456 0.5000048,0.166537 1.0192096,0.276407 1.5442812,0.326942 0.2162686,-0.47508 0.3796036,-0.9740262 0.4853378,-1.4848396 0.0028,-0.029601 0.015734,-0.058268 0.037734,-0.080402 0.020267,-0.020134 0.046267,-0.032934 0.073467,-0.037068 C 9.9654475,9.2364578 10.466919,9.0727201 10.944523,8.855381 10.894123,8.3313672 10.784389,7.8130868 10.617854,7.3133402 c -0.0067,-0.019734 -0.0084,-0.040801 -0.0053,-0.061335 0.0047,-0.030134 0.01987,-0.059202 0.04267,-0.079602 0.394137,-0.3496092 0.748407,-0.7437529 1.054277,-1.172431 -0.303736,-0.4258779 -0.655473,-0.817755 -1.04681,-1.1658975 -0.04347,-0.032934 -0.0632,-0.090802 -0.04493,-0.1450705 C 10.784255,4.1892576 10.89399,3.6709772 10.94439,3.1469632 10.464919,2.9285575 9.9609142,2.7644197 9.444776,2.6585503 9.400242,2.6494803 9.363709,2.6177493 9.348108,2.5749483 9.343978,2.5632153 9.341308,2.5510813 9.340508,2.5389473 9.2347742,2.028667 9.0715726,1.5301204 8.8553039,1.0554412 8.332099,1.1058425 7.8143609,1.2153121 7.3147562,1.3813164 c -0.00213,8e-4 -0.0044,0.0016 -0.0068,0.00227 -0.053867,0.0164 -0.1113344,-0.0044 -0.1433346,-0.047735 C 6.816885,0.9455715 6.4254146,0.59422886 6.0000773,0.29062082 5.5744733,0.5943622 5.1831363,0.9455715 4.8356664,1.3358484 c -0.0152,0.020667 -0.0364,0.036934 -0.061734,0.045868 -0.030667,0.010933 -0.0632,0.00973 -0.091867,-0.0016 C 4.1843267,1.2149121 3.6676551,1.1057092 3.1448503,1.0554412 2.9275149,1.5327872 2.7639134,2.0342671 2.6580457,2.5477473 c -0.00147,0.011333 -0.00453,0.022534 -0.00907,0.033334 -0.016667,0.039734 -0.051734,0.069202 -0.093868,0.077735 -0.5160048,0.1058695 -1.0198762,0.2698739 -1.499214,0.4882796 0.050667,0.5242807 0.1605348,1.0425611 0.326803,1.5420409 0.016134,0.048268 0.00267,0.1014694 -0.0344,0.1364036 -0.004,0.00387 -0.00827,0.00733 -0.012667,0.010667 -0.39000361,0.3472092 -0.74107357,0.7384196 -1.04454309,1.1638974 0.30586954,0.4286781 0.6604062,0.8228219 1.05427659,1.1724311 0.029867,0.026534 0.0448,0.063735 0.044,0.1008026 0,0.0136 -0.00227,0.027201 -0.0068,0.040668 -0.1662682,0.4994798 -0.2760025,1.0176269 -0.3266697,1.5415074 0.4752045,0.2164057 0.9741425,0.37961 1.4846806,0.4852128 0.0296,0.0028 0.058134,0.015734 0.080267,0.037868 0.0204,0.020134 0.033067,0.046268 0.0372,0.073335 0.1057344,0.5138804 0.2694692,1.0153603 0.4868047,1.4927063 0.5252049,-0.05053 1.0444097,-0.160404 1.544281,-0.326942 0.055601,-0.01867 0.1149345,0.002 0.1474681,0.0472 z"
         id="path1154"
         style="stroke-width:0.133336" />
      <path
         d="m 6.0002104,8.9725841 c -2.238821,0 -4.3629743,-1.0769618 -5.68578666,-2.881543 -0.0237336,-0.024934 -0.0361337,-0.057735 -0.035867,-0.090936 -1.3335e-4,-0.033201 0.0121334,-0.066002 0.0360003,-0.090936 C 1.6373694,4.104322 3.761656,3.0273601 6.0003437,3.0273601 c 2.2389544,0 4.3632413,1.0769619 5.6860533,2.8819429 0.0224,0.023734 0.03587,0.055601 0.03587,0.089869 0,0.031601 -0.01133,0.061335 -0.03053,0.084669 C 10.368918,7.8928223 8.2420981,8.9725841 6.0002104,8.9725841 Z M 0.57242616,6.0001054 C 1.8491048,7.6996171 3.8707238,8.7112439 6.0002104,8.7112439 c 2.1296199,0 4.1512386,-1.0116268 5.4279176,-2.7111385 C 10.151316,4.3004605 8.129697,3.2888337 6.0002104,3.2888337 c -2.1293533,0 -4.1509723,1.0116268 -5.42778424,2.7112717 z"
         id="path1156"
         style="stroke-width:0.133336" />
      <path
         d="m 3.2033842,10.889435 c -0.0188,0 -0.036667,-0.0108 -0.0448,-0.02907 -0.3714707,-0.837353 -0.5720059,-1.72631 -0.5958727,-2.6420675 -2.666e-4,-0.013867 0.0052,-0.026934 0.014934,-0.036401 0.00987,-0.0096 0.023734,-0.015334 0.036934,-0.013734 0.0072,4e-4 0.016134,0.00253 0.0224,0.00587 0.5402717,0.2908077 1.1170771,0.5106802 1.7145494,0.653484 0.012267,0.0028 0.0224,0.010133 0.029067,0.019867 0.4177372,0.4401451 0.8909417,0.8253552 1.4064132,1.1450971 0.0124,0.00307 0.0236,0.011066 0.030534,0.022934 0.013333,0.0228 0.00613,0.05227 -0.016267,0.06627 -0.00107,5.33e-4 -0.00213,0.0012 -0.0032,0.0017 -0.8045409,0.436812 -1.6738824,0.707619 -2.5838909,0.804822 -0.00347,8e-4 -0.0072,0.0012 -0.0108,0.0012 z M 2.6633791,8.2989663 c 0.0328,0.8613561 0.2244022,1.698045 0.5701387,2.4884657 0.8578746,-0.09534 1.678549,-0.347209 2.4416229,-0.749353 C 5.177536,9.722604 4.7197984,9.3463273 4.3136612,8.9191161 3.7399226,8.7807124 3.1852506,8.5721736 2.6633791,8.2989663 Z"
         id="path1160"
         style="stroke-width:0.133336" />
      <path
         d="m 8.7971699,10.905835 c -0.00467,0 -0.00907,-5.33e-4 -0.013734,-0.0015 -1.5258803,-0.163304 -2.976694,-0.837455 -4.0855044,-1.89855 -0.023467,-0.022401 -0.0268,-0.058668 -0.008,-0.085202 0.0168,-0.023601 0.046667,-0.033201 0.073601,-0.024134 1.5636147,0.2772073 3.19403,0.015734 4.5919097,-0.7369528 0.0084,-0.0044 0.017467,-0.00707 0.026934,-0.0076 0.020134,-0.00213 0.037334,0.00547 0.0504,0.018134 0.013333,0.0128 0.0216,0.030401 0.021067,0.048535 -0.023867,0.9181577 -0.224802,1.8091148 -0.5972056,2.6483368 -0.010533,0.02453 -0.0344,0.03894 -0.059467,0.03894 z M 4.9472672,9.0587197 C 6.0030104,10.005812 7.345823,10.610228 8.7567695,10.769965 9.0947727,9.9932778 9.2839744,9.1720561 9.3195748,8.3265671 7.9798289,9.0209854 6.4391478,9.2777922 4.9472672,9.0587197 Z"
         id="path1164"
         style="stroke-width:0.133336" />
    </g>
  </g>
  <g
     inkscape:label="B.SilkS"
     inkscape:groupmode="layer"
     id="g28501"
     style="display:inline">
    <g
       id="g28499"
       transform="matrix(-3.7795276,0,0,3.7795275,45.354331,6.3554175e-6)">
      <path
         d="m 9.3886422,3.8320481 c -0.00827,0 -0.018133,-0.002 -0.0252,-0.00587 C 8.8229035,3.5351072 8.2460981,3.3152347 7.6490258,3.1725641 7.6368925,3.1697641 7.627159,3.1626975 7.6204922,3.1533637 7.2030217,2.713352 6.7300838,2.3281419 6.214479,2.0081334 c -0.013333,-0.0028 -0.0252,-0.011067 -0.0324,-0.023734 -0.0132,-0.023201 -0.00533,-0.052801 0.017733,-0.066402 5.334e-4,-4e-4 0.0012,-6.666e-4 0.00173,-0.00107 0.8050742,-0.4370783 1.674949,-0.7080188 2.5856242,-0.8052214 0.021334,-0.00507 0.045334,0.0064 0.055067,0.028001 0.3713368,0.8372222 0.5718721,1.7260456 0.5956056,2.6419366 4e-4,0.0132 -0.00467,0.026001 -0.013867,0.035468 -0.00947,0.0096 -0.022,0.014934 -0.035334,0.014934 z M 7.6866262,3.0806948 C 8.2599649,3.2190985 8.8146367,3.427504 9.3369083,3.7011113 9.3043747,2.8394884 9.1126395,2.002933 8.766903,1.2123787 7.9090282,1.3077145 7.0882206,1.5597212 6.3252801,1.9617319 c 0.497738,0.315875 0.9553423,0.6918849 1.3613461,1.1189629 z"
         id="path28485"
         style="stroke-width:0.133336" />
      <path
         d="m 2.6169786,3.8452484 c -0.013867,0 -0.027734,-0.00333 -0.038134,-0.0108 -0.017467,-0.012667 -0.033067,-0.030801 -0.032534,-0.052535 0.023867,-0.9177577 0.2248021,-1.8088479 0.5970724,-2.6482035 0.010667,-0.024001 0.034,-0.038401 0.058667,-0.038934 0.00373,-1.333e-4 0.00747,-1.333e-4 0.011067,2.667e-4 1.527481,0.1628041 2.9798947,0.8372219 4.0895051,1.8991167 0.023467,0.022401 0.0268,0.058402 0.0084,0.084936 -0.016933,0.023867 -0.047334,0.033068 -0.074001,0.024534 -1.5636147,-0.2776073 -3.19403,-0.015867 -4.5921765,0.7369528 -0.00853,0.00293 -0.018133,0.00467 -0.027867,0.00467 z M 3.2437846,1.2299792 C 2.9055147,2.0069331 2.7163129,2.8282881 2.6808459,3.6739105 4.0163251,2.9796255 5.5586063,2.721352 7.0531536,2.9413579 5.9974104,1.994266 4.6544644,1.38985 3.2437846,1.2299792 Z"
         id="path28487"
         style="stroke-width:0.133336" />
      <path
         d="m 5.2863371,6.0001054 c 0,0.3940105 0.3196029,0.7136189 0.7138733,0.7136189 0.3944037,0 0.71374,-0.3194751 0.71374,-0.7136189 0,-0.3942771 -0.3193363,-0.7138855 -0.71374,-0.7138855 -0.3942704,0 -0.7138733,0.3196084 -0.7138733,0.7138855"
         id="path28489"
         style="stroke-width:0.133336" />
      <path
         d="m 6.0003437,11.999998 c -0.028534,0 -0.055467,-0.0092 -0.077467,-0.0252 C 5.4727392,11.66199 5.058202,11.298247 4.6893985,10.892369 4.166727,11.059707 3.6247218,11.167443 3.0772501,11.212911 c -0.0072,8e-4 -0.014267,5.33e-4 -0.021334,1.33e-4 -0.046667,-0.0037 -0.089468,-0.03227 -0.1094676,-0.07467 C 2.7124462,10.641562 2.5348446,10.118481 2.4183101,9.5819336 1.8869718,9.4664638 1.3683002,9.2909925 0.87536232,9.0599198 0.81962847,9.040986 0.78202811,8.9867178 0.78709483,8.9260496 0.83269526,8.3780351 0.9408296,7.8350873 1.1085645,7.3112068 0.70576074,6.9451971 0.34415735,6.533853 0.0328211,6.0874411 9.5413064e-4,6.0513069 -0.00944597,5.9993054 0.00935421,5.9522375 0.01335425,5.9422373 0.0185543,5.9329037 0.02468769,5.9243701 0.33789062,5.4734249 0.70202737,5.0582138 1.1080312,4.6892708 0.94202962,4.1701904 0.83456195,3.6324428 0.78842818,3.0890951 c -0.003867,-0.022267 -0.001867,-0.045735 0.0064,-0.067869 0.0133334,-0.035601 0.0409337,-0.062668 0.074534,-0.076002 C 1.3637668,2.7129517 1.8841718,2.5365471 2.4179099,2.420544 2.5345778,1.8834631 2.7121794,1.3594492 2.9464483,0.86210276 c 0.014133,-0.0298675 0.038934,-0.0533347 0.069734,-0.0657351 0.0188,-0.007467 0.040667,-0.0113336 0.061334,-0.0096 0.547605,0.0457346 1.0894769,0.15347073 1.6122819,0.32067514 0.3684035,-0.40534404 0.782674,-0.76908701 1.2326782,-1.08176195 0.013467,-0.01000027 0.0288,-0.0173338 0.045467,-0.02160058 0.036667,-0.00933358 0.075867,-0.0025334 0.1069342,0.01906717 C 6.526082,0.33648882 6.9416858,0.70089847 7.3112893,1.1074426 7.8344941,0.94010481 8.3760991,0.83223528 8.9226378,0.78663408 c 0.0084,-6.6667e-4 0.0172,-5.3334e-4 0.0252,4e-4 0.0452,0.005067 0.086801,0.0333342 0.1061343,0.074402 0.2345356,0.49774652 0.4124039,1.02176032 0.5290717,1.55884122 0.5314722,0.1157364 1.0502772,0.2912078 1.5429482,0.5221472 0.05133,0.017867 0.08773,0.066535 0.08773,0.1234699 0,0.00373 -1.33e-4,0.0076 -5.33e-4,0.0112 -0.04533,0.5470812 -0.153068,1.0888289 -0.320537,1.6119094 C 11.29746,5.0568802 11.66053,5.4702245 11.972533,5.918903 11.989867,5.9417037 12,5.9698377 12,5.9999718 c 0,0.028668 -0.0092,0.055735 -0.02547,0.077736 -0.312803,0.4500118 -0.676673,0.8648229 -1.082543,1.2334993 0.167335,0.5224138 0.275069,1.0632281 0.320669,1.6092426 6.67e-4,0.00493 9.34e-4,0.00987 9.34e-4,0.0148 0,0.055468 -0.03453,0.1032026 -0.08373,0.1222698 C 10.635454,9.2897922 10.115182,9.4659302 9.5823772,9.5819333 9.4657095,10.118214 9.2881079,10.641428 9.053839,11.138375 c -0.019867,0.04213 -0.060801,0.07053 -0.1074676,0.0744 -0.00693,8e-4 -0.015867,0.0011 -0.0232,1.34e-4 -0.5473385,-0.04547 -1.0893436,-0.153204 -1.6121485,-0.320542 -0.3678701,0.404811 -0.781474,0.76802 -1.2305448,1.080429 -0.022267,0.0172 -0.050267,0.0272 -0.080134,0.0272 z M 4.8365995,10.664896 c 0.3474698,0.390277 0.7386736,0.741086 1.1637442,1.044294 0.4258707,-0.303741 0.8174744,-0.655351 1.1654776,-1.046161 0.032667,-0.04387 0.090934,-0.06387 0.1456013,-0.0456 0.5000048,0.166537 1.0192096,0.276407 1.5442812,0.326942 0.2162686,-0.47508 0.3796036,-0.9740262 0.4853378,-1.4848396 0.0028,-0.029601 0.015734,-0.058268 0.037734,-0.080402 0.020267,-0.020134 0.046267,-0.032934 0.073467,-0.037068 C 9.9654475,9.2364578 10.466919,9.0727201 10.944523,8.855381 10.894123,8.3313672 10.784389,7.8130868 10.617854,7.3133402 c -0.0067,-0.019734 -0.0084,-0.040801 -0.0053,-0.061335 0.0047,-0.030134 0.01987,-0.059202 0.04267,-0.079602 0.394137,-0.3496092 0.748407,-0.7437529 1.054277,-1.172431 -0.303736,-0.4258779 -0.655473,-0.817755 -1.04681,-1.1658975 -0.04347,-0.032934 -0.0632,-0.090802 -0.04493,-0.1450705 C 10.784255,4.1892576 10.89399,3.6709772 10.94439,3.1469632 10.464919,2.9285575 9.9609142,2.7644197 9.444776,2.6585503 9.400242,2.6494803 9.363709,2.6177493 9.348108,2.5749483 9.343978,2.5632153 9.341308,2.5510813 9.340508,2.5389473 9.2347742,2.028667 9.0715726,1.5301204 8.8553039,1.0554412 8.332099,1.1058425 7.8143609,1.2153121 7.3147562,1.3813164 c -0.00213,8e-4 -0.0044,0.0016 -0.0068,0.00227 -0.053867,0.0164 -0.1113344,-0.0044 -0.1433346,-0.047735 C 6.816885,0.9455715 6.4254146,0.59422886 6.0000773,0.29062082 5.5744733,0.5943622 5.1831363,0.9455715 4.8356664,1.3358484 c -0.0152,0.020667 -0.0364,0.036934 -0.061734,0.045868 -0.030667,0.010933 -0.0632,0.00973 -0.091867,-0.0016 C 4.1843267,1.2149121 3.6676551,1.1057092 3.1448503,1.0554412 2.9275149,1.5327872 2.7639134,2.0342671 2.6580457,2.5477473 c -0.00147,0.011333 -0.00453,0.022534 -0.00907,0.033334 -0.016667,0.039734 -0.051734,0.069202 -0.093868,0.077735 -0.5160048,0.1058695 -1.0198762,0.2698739 -1.499214,0.4882796 0.050667,0.5242807 0.1605348,1.0425611 0.326803,1.5420409 0.016134,0.048268 0.00267,0.1014694 -0.0344,0.1364036 -0.004,0.00387 -0.00827,0.00733 -0.012667,0.010667 -0.39000361,0.3472092 -0.74107357,0.7384196 -1.04454309,1.1638974 0.30586954,0.4286781 0.6604062,0.8228219 1.05427659,1.1724311 0.029867,0.026534 0.0448,0.063735 0.044,0.1008026 0,0.0136 -0.00227,0.027201 -0.0068,0.040668 -0.1662682,0.4994798 -0.2760025,1.0176269 -0.3266697,1.5415074 0.4752045,0.2164057 0.9741425,0.37961 1.4846806,0.4852128 0.0296,0.0028 0.058134,0.015734 0.080267,0.037868 0.0204,0.020134 0.033067,0.046268 0.0372,0.073335 0.1057344,0.5138804 0.2694692,1.0153603 0.4868047,1.4927063 0.5252049,-0.05053 1.0444097,-0.160404 1.544281,-0.326942 0.055601,-0.01867 0.1149345,0.002 0.1474681,0.0472 z"
         id="path28491"
         style="stroke-width:0.133336" />
      <path
         d="m 6.0002104,8.9725841 c -2.238821,0 -4.3629743,-1.0769618 -5.68578666,-2.881543 -0.0237336,-0.024934 -0.0361337,-0.057735 -0.035867,-0.090936 -1.3335e-4,-0.033201 0.0121334,-0.066002 0.0360003,-0.090936 C 1.6373694,4.104322 3.761656,3.0273601 6.0003437,3.0273601 c 2.2389544,0 4.3632413,1.0769619 5.6860533,2.8819429 0.0224,0.023734 0.03587,0.055601 0.03587,0.089869 0,0.031601 -0.01133,0.061335 -0.03053,0.084669 C 10.368918,7.8928223 8.2420981,8.9725841 6.0002104,8.9725841 Z M 0.57242616,6.0001054 C 1.8491048,7.6996171 3.8707238,8.7112439 6.0002104,8.7112439 c 2.1296199,0 4.1512386,-1.0116268 5.4279176,-2.7111385 C 10.151316,4.3004605 8.129697,3.2888337 6.0002104,3.2888337 c -2.1293533,0 -4.1509723,1.0116268 -5.42778424,2.7112717 z"
         id="path28493"
         style="stroke-width:0.133336" />
      <path
         d="m 3.2033842,10.889435 c -0.0188,0 -0.036667,-0.0108 -0.0448,-0.02907 -0.3714707,-0.837353 -0.5720059,-1.72631 -0.5958727,-2.6420675 -2.666e-4,-0.013867 0.0052,-0.026934 0.014934,-0.036401 0.00987,-0.0096 0.023734,-0.015334 0.036934,-0.013734 0.0072,4e-4 0.016134,0.00253 0.0224,0.00587 0.5402717,0.2908077 1.1170771,0.5106802 1.7145494,0.653484 0.012267,0.0028 0.0224,0.010133 0.029067,0.019867 0.4177372,0.4401451 0.8909417,0.8253552 1.4064132,1.1450971 0.0124,0.00307 0.0236,0.011066 0.030534,0.022934 0.013333,0.0228 0.00613,0.05227 -0.016267,0.06627 -0.00107,5.33e-4 -0.00213,0.0012 -0.0032,0.0017 -0.8045409,0.436812 -1.6738824,0.707619 -2.5838909,0.804822 -0.00347,8e-4 -0.0072,0.0012 -0.0108,0.0012 z M 2.6633791,8.2989663 c 0.0328,0.8613561 0.2244022,1.698045 0.5701387,2.4884657 0.8578746,-0.09534 1.678549,-0.347209 2.4416229,-0.749353 C 5.177536,9.722604 4.7197984,9.3463273 4.3136612,8.9191161 3.7399226,8.7807124 3.1852506,8.5721736 2.6633791,8.2989663 Z"
         id="path28495"
         style="stroke-width:0.133336" />
      <path
         d="m 8.7971699,10.905835 c -0.00467,0 -0.00907,-5.33e-4 -0.013734,-0.0015 -1.5258803,-0.163304 -2.976694,-0.837455 -4.0855044,-1.89855 -0.023467,-0.022401 -0.0268,-0.058668 -0.008,-0.085202 0.0168,-0.023601 0.046667,-0.033201 0.073601,-0.024134 1.5636147,0.2772073 3.19403,0.015734 4.5919097,-0.7369528 0.0084,-0.0044 0.017467,-0.00707 0.026934,-0.0076 0.020134,-0.00213 0.037334,0.00547 0.0504,0.018134 0.013333,0.0128 0.0216,0.030401 0.021067,0.048535 -0.023867,0.9181577 -0.224802,1.8091148 -0.5972056,2.6483368 -0.010533,0.02453 -0.0344,0.03894 -0.059467,0.03894 z M 4.9472672,9.0587197 C 6.0030104,10.005812 7.345823,10.610228 8.7567695,10.769965 9.0947727,9.9932778 9.2839744,9.1720561 9.3195748,8.3265671 7.9798289,9.0209854 6.4391478,9.2777922 4.9472672,9.0587197 Z"
         id="path28497"
         style="stroke-width:0.133336" />
    </g>
  </g>
</svg>
