<?xml version="1.0" encoding="UTF-8" standalone="no"?>
<!-- Created with Inkscape (http://www.inkscape.org/) -->

<svg
   width="90"
   height="90"
   viewBox="0 0 90 90"
   version="1.1"
   id="SVGRoot"
   sodipodi:docname="eye-edited.svg"
   inkscape:version="1.1.1 (3bf5ae0d25, 2021-09-20)"
   xmlns:inkscape="http://www.inkscape.org/namespaces/inkscape"
   xmlns:sodipodi="http://sodipodi.sourceforge.net/DTD/sodipodi-0.dtd"
   xmlns="http://www.w3.org/2000/svg"
   xmlns:svg="http://www.w3.org/2000/svg">
  <sodipodi:namedview
     id="namedview1049"
     pagecolor="#ffffff"
     bordercolor="#666666"
     borderopacity="1.0"
     inkscape:pageshadow="2"
     inkscape:pageopacity="0.0"
     inkscape:pagecheckerboard="0"
     inkscape:document-units="px"
     showgrid="true"
     inkscape:zoom="32"
     inkscape:cx="23.03125"
     inkscape:cy="22.5"
     inkscape:window-width="3840"
     inkscape:window-height="2080"
     inkscape:window-x="-11"
     inkscape:window-y="-11"
     inkscape:window-maximized="1"
     inkscape:current-layer="g1427">
    <inkscape:grid
       type="xygrid"
       id="grid1055" />
  </sodipodi:namedview>
  <defs
     id="defs1044" />
  <g
     inkscape:label="B.SilkS"
     inkscape:groupmode="layer"
     id="g1427"
     style="display:inline">
    <g
       id="g1425"
       transform="matrix(-1,0,0,1,45.354342,0)">
      <path
         d="m 19.979319,22.677668 c 0,1.489173 1.207948,2.697142 2.698104,2.697142 1.490659,0 2.6976,-1.207465 2.6976,-2.697142 0,-1.490181 -1.206941,-2.69815 -2.6976,-2.69815 -1.490156,0 -2.698104,1.207969 -2.698104,2.69815"
         id="path1409"
         style="display:inline;stroke-width:0.503947" />
      <g
         id="g1423">
        <path
           d="m 35.484632,14.483338 c -0.03126,0 -0.06853,-0.0076 -0.09524,-0.02219 -2.042981,-1.100111 -4.223033,-1.931125 -6.479684,-2.470352 -0.04586,-0.01058 -0.08265,-0.03729 -0.107843,-0.07257 -1.577842,-1.663036 -3.365324,-3.1189483 -5.314066,-4.3284292 -0.05039,-0.010583 -0.09524,-0.041828 -0.122457,-0.089703 -0.04989,-0.087689 -0.02015,-0.1995629 0.06702,-0.2509682 0.002,-0.00151 0.0045,-0.00252 0.0065,-0.00404 3.0428,-1.6519495 6.330516,-2.6759765 9.772438,-3.0433564 0.08063,-0.019162 0.171341,0.024189 0.208127,0.1058305 1.403478,3.1643043 2.161407,6.5236363 2.251108,9.9852713 0.0015,0.04989 -0.01765,0.09827 -0.05241,0.134053 -0.03579,0.03628 -0.08315,0.05644 -0.133546,0.05644 z m -6.432816,-2.839761 c 2.166949,0.523101 4.263347,1.310775 6.237287,2.344881 -0.122962,-3.256527 -0.847631,-6.4183113 -2.154351,-9.406233 -3.242362,0.3603243 -6.344627,1.3127905 -9.228181,2.832201 1.881214,1.1938583 3.610742,2.614998 5.145245,4.229151 z"
           id="path1411"
           style="stroke-width:0.503947" />
        <path
           d="m 9.8909428,14.533228 c -0.052411,0 -0.1048214,-0.01258 -0.1441285,-0.04082 -0.066017,-0.04788 -0.1249776,-0.116414 -0.1229631,-0.198558 0.090206,-3.46869 0.8496458,-6.8365903 2.2566518,-10.0089579 0.04032,-0.090712 0.128504,-0.1451376 0.221733,-0.1471521 0.0141,-5.038e-4 0.02823,-5.038e-4 0.04183,0.00101 5.773157,0.6153225 11.262595,3.1643032 15.456398,7.177764 0.08869,0.08467 0.101291,0.220732 0.03175,0.321018 -0.064,0.09021 -0.1789,0.124981 -0.279689,0.09273 C 21.4428,10.681037 15.2806,11.670292 9.9962672,14.515595 c -0.032239,0.01107 -0.068534,0.01765 -0.1053241,0.01765 z M 12.259973,4.6487466 C 10.981473,7.5852652 10.26638,10.689599 10.132331,13.885652 15.179812,11.261583 21.008906,10.285431 26.657589,11.116949 22.667378,7.5373895 17.591677,5.2529827 12.259973,4.6487466 Z"
           id="path1413"
           style="stroke-width:0.503947" />
        <path
           d="m 22.678465,45.354329 c -0.107845,0 -0.209639,-0.03477 -0.292789,-0.09524 -1.701307,-1.182267 -3.268062,-2.557043 -4.661965,-4.09107 -1.975451,0.632458 -4.023975,1.039649 -6.093159,1.211497 -0.02721,0.003 -0.05392,0.002 -0.08063,5.03e-4 -0.176382,-0.01399 -0.33815,-0.12197 -0.413739,-0.282222 C 10.251765,40.220083 9.5805151,38.243084 9.1400698,36.215188 7.131862,35.778767 5.1715284,35.115568 3.308456,34.242222 3.0978084,34.170662 2.9556968,33.965553 2.9748466,33.736256 3.1471947,31.66502 3.5558914,29.612934 4.1898501,27.632914 2.6674422,26.24957 1.3007522,24.694883 0.12404825,23.007657 0.00360616,22.871087 -0.0357013,22.674546 0.03535449,22.496652 c 0.01511827,-0.0378 0.034772,-0.07307 0.05795332,-0.105326 C 1.2770669,20.686966 2.6533318,19.117665 4.1878345,17.723234 3.5604269,15.761356 3.1542499,13.728924 2.9798861,11.675326 2.9652706,11.591167 2.9728297,11.50247 3.004075,11.418813 3.054469,11.284259 3.1587851,11.181958 3.2857784,11.131562 5.1543943,10.253682 7.1212793,9.5869559 9.1385572,9.148519 9.5795067,7.1186069 10.250757,5.138082 11.136183,3.2583474 c 0.05342,-0.112885 0.147152,-0.2015799 0.263561,-0.2484476 0.07105,-0.028222 0.153702,-0.042836 0.231814,-0.036283 2.069688,0.1728551 4.117708,0.5800468 6.093664,1.2120005 1.392391,-1.532009 2.958138,-2.9067855 4.658941,-4.08854907 0.0509,-0.03779629 0.10885,-0.06551357 0.171844,-0.08163998 0.138584,-0.03527652 0.286741,-0.00957506 0.404161,0.07206489 1.705339,1.18428236 3.276125,2.56157866 4.673052,4.09812336 1.977467,-0.6324578 4.024478,-1.0401536 6.090136,-1.2125046 0.03175,-0.00252 0.06501,-0.00202 0.09524,0.00151 0.170835,0.019151 0.328067,0.1259875 0.401137,0.2812044 0.886434,1.8812467 1.558692,3.8617712 1.999642,5.8916833 2.008713,0.4374289 3.969551,1.1006284 5.831615,1.9734704 0.194003,0.06753 0.331578,0.251471 0.331578,0.466658 0,0.0141 -5.03e-4,0.02872 -0.002,0.04233 -0.171326,2.067709 -0.578524,4.115259 -1.211478,6.092256 1.529983,1.390399 2.902216,2.952645 4.08144,4.648438 0.06551,0.08618 0.103812,0.192509 0.103812,0.306402 0,0.108351 -0.03477,0.210652 -0.09626,0.293805 -1.182248,1.700832 -2.557505,3.268622 -4.091502,4.662045 0.632448,1.974477 1.039631,4.018499 1.211978,6.082176 0.0025,0.01863 0.0035,0.0373 0.0035,0.05594 0,0.209643 -0.130507,0.390057 -0.31646,0.462122 -1.868621,0.877881 -3.835003,1.5436 -5.848754,1.982037 -0.440949,2.026887 -1.112199,4.004389 -1.997625,5.882614 -0.07509,0.159231 -0.229799,0.26657 -0.406176,0.281197 -0.02619,0.003 -0.05997,0.0042 -0.08769,5.06e-4 -2.068681,-0.171855 -4.117205,-0.579038 -6.09316,-1.211497 -1.390375,1.529994 -2.953603,2.902753 -4.650878,4.083511 -0.08416,0.06501 -0.189986,0.102803 -0.302869,0.102803 z m -4.398404,-5.046055 c 1.313272,1.475063 2.791838,2.800955 4.398404,3.946938 1.60959,-1.147997 3.089667,-2.476917 4.404954,-3.953994 0.123466,-0.165808 0.343688,-0.241399 0.550305,-0.172347 1.889781,0.629431 3.85213,1.044688 5.836653,1.235687 0.817393,-1.795578 1.434722,-3.681359 1.834348,-5.611993 0.01058,-0.111877 0.05947,-0.220225 0.142616,-0.303881 0.0766,-0.0761 0.174868,-0.124475 0.277671,-0.1401 1.939672,-0.399131 3.834997,-1.017983 5.640115,-1.839422 -0.190488,-1.980524 -0.605231,-3.939379 -1.234655,-5.828185 -0.02532,-0.07458 -0.03175,-0.154209 -0.02003,-0.231818 0.01776,-0.113892 0.0751,-0.223755 0.161272,-0.300858 1.489652,-1.321357 2.828625,-2.811034 3.984669,-4.431235 -1.147978,-1.609617 -2.477378,-3.090727 -3.956447,-4.406541 -0.164296,-0.124475 -0.238866,-0.343189 -0.169814,-0.548298 0.629268,-1.888806 1.044015,-3.847661 1.234503,-5.828187 -1.812174,-0.82547 -3.717074,-1.445833 -5.667832,-1.84597 -0.168318,-0.03428 -0.306395,-0.1542082 -0.36536,-0.3159757 -0.01561,-0.044345 -0.0257,-0.090206 -0.02872,-0.1360668 -0.399624,-1.9286184 -1.016449,-3.812889 -1.833843,-5.6069521 -1.977467,0.1904931 -3.934272,0.6042365 -5.822542,1.2316543 -0.008,0.00302 -0.01663,0.00605 -0.0257,0.00858 C 27.417036,5.2912937 27.199837,5.2126797 27.078891,5.048894 25.764611,3.5738203 24.285038,2.2459112 22.677464,1.0984162 21.068882,2.2464151 19.589813,3.5738203 18.276541,5.0488826 18.219091,5.1269936 18.138966,5.1884757 18.043215,5.222242 17.927308,5.263564 17.804349,5.259017 17.696001,5.216192 15.814778,4.5918 13.862004,4.1790647 11.886049,3.9890754 c -0.821426,1.8041423 -1.439762,3.6994994 -1.839892,5.6402119 -0.0056,0.042833 -0.01712,0.085168 -0.03428,0.1259868 -0.062994,0.1501758 -0.1955303,0.2615509 -0.3547769,0.2938019 -1.9502544,0.400136 -3.8546503,1.019996 -5.6663207,1.845466 0.1914973,1.981533 0.6067457,3.940388 1.2351609,5.828186 0.060979,0.18243 0.010091,0.383506 -0.1300157,0.515541 -0.015118,0.01463 -0.031257,0.0277 -0.047875,0.04032 -1.4740294,1.312287 -2.800908,2.790877 -3.9478794,4.398982 1.1560423,1.620201 2.4960234,3.109878 3.9846674,4.431236 0.1128832,0.100286 0.1693229,0.240888 0.1662993,0.380986 0,0.0514 -0.00858,0.102807 -0.025701,0.153706 -0.6284153,1.887798 -1.0431591,3.846149 -1.2346572,5.82617 1.7960485,0.817911 3.6817985,1.434746 5.6113913,1.833875 0.111874,0.01058 0.2197191,0.05947 0.3033714,0.143123 0.077102,0.0761 0.1249776,0.174871 0.1405986,0.277172 0.399626,1.942225 1.018466,3.837582 1.839891,5.641724 1.985027,-0.190979 3.947376,-0.606251 5.836653,-1.235686 0.210146,-0.07056 0.434398,0.0076 0.55736,0.178394 z"
           id="path1415"
           style="stroke-width:0.503947" />
        <path
           d="m 22.677961,33.912135 c -8.461686,0 -16.489982,-4.070407 -21.4895878,-10.890871 -0.089702,-0.09424 -0.1365683,-0.218211 -0.1355603,-0.343695 -5.04e-4,-0.125485 0.045859,-0.249457 0.1360641,-0.343696 4.9996058,-6.821469 13.028406,-10.891876 21.489588,-10.891876 8.46219,0 16.490991,4.070407 21.490595,10.892383 0.08466,0.0897 0.135572,0.210145 0.135572,0.339662 0,0.119437 -0.04282,0.231817 -0.115389,0.320009 -4.999631,6.837094 -13.038006,10.918084 -21.511282,10.918084 z M 2.1635005,22.67757 c 4.8252421,6.423351 12.4660065,10.246822 20.5144605,10.246822 8.048957,0 15.689721,-3.823471 20.514964,-10.246822 -4.825746,-6.423855 -12.466511,-10.247326 -20.514964,-10.247326 -8.04795,0 -15.6887146,3.823471 -20.5144605,10.247326 z"
           id="path1417"
           style="stroke-width:0.503947" />
        <path
           d="m 12.107279,41.156925 c -0.07105,0 -0.138584,-0.04082 -0.169323,-0.10987 -1.403984,-3.164799 -2.1619119,-6.524637 -2.2521172,-9.985767 -0.00101,-0.05241 0.019654,-0.101798 0.056443,-0.137579 0.037304,-0.03628 0.089703,-0.05795 0.1395931,-0.05191 0.027213,0.0015 0.060979,0.0096 0.084661,0.02219 2.0419721,1.099116 4.2220241,1.93013 6.4801871,2.469861 0.04636,0.01058 0.08466,0.0383 0.109859,0.07509 1.578849,1.66354 3.367339,3.119452 5.315578,4.327926 0.04687,0.0116 0.0892,0.04182 0.115404,0.08668 0.05039,0.08617 0.02317,0.197556 -0.06148,0.25047 -0.004,0.002 -0.008,0.0045 -0.01209,0.0064 -3.040785,1.650943 -6.326485,2.674465 -9.765887,3.041847 -0.01311,0.003 -0.02721,0.0045 -0.04082,0.0045 z m -2.040964,-9.790747 c 0.123968,3.255519 0.848134,6.417807 2.154855,9.405224 3.24236,-0.36034 6.344122,-1.312286 9.228181,-2.8322 -1.880711,-1.192346 -3.610743,-2.614495 -5.145749,-4.229151 -2.168461,-0.523101 -4.264859,-1.311279 -6.237287,-2.343873 z"
           id="path1419"
           style="stroke-width:0.503947" />
        <path
           d="m 33.249146,41.21891 c -0.01765,0 -0.03428,-0.002 -0.05191,-0.0057 -5.767106,-0.617212 -11.250497,-3.165184 -15.441276,-7.175622 -0.08869,-0.08467 -0.101292,-0.221737 -0.03024,-0.322023 0.0635,-0.0892 0.176379,-0.125484 0.278177,-0.09121 5.909724,1.047713 12.071924,0.05947 17.355249,-2.785333 0.03175,-0.01663 0.06602,-0.02672 0.101798,-0.02873 0.0761,-0.0081 0.141105,0.02067 0.190488,0.06854 0.05039,0.04838 0.08164,0.114902 0.07962,0.18344 -0.09021,3.470202 -0.849645,6.837599 -2.257155,10.009461 -0.03981,0.09271 -0.130015,0.147175 -0.224757,0.147175 z M 18.698333,34.237687 c 3.99021,3.579561 9.065408,5.863968 14.398119,6.467698 1.277492,-2.93551 1.992585,-6.03934 2.127138,-9.234889 -5.063606,2.624573 -10.886653,3.595181 -16.525257,2.767191 z"
           id="path1421"
           style="stroke-width:0.503947" />
      </g>
    </g>
  </g>
  <g
     inkscape:groupmode="layer"
     id="g1447"
     inkscape:label="B.Mask"
     style="display:inline">
    <g
       id="g1445"
       transform="matrix(-1,0,0,1,45.594374,0)">
      <path
         d="m 37.490217,7.0027992 c 0,0.6076514 0.492099,1.1001467 1.09938,1.1001467 0.607798,0 1.100922,-0.4924953 1.100922,-1.1001467 0,-0.6071374 -0.493124,-1.100147 -1.100922,-1.100147 -0.607281,0 -1.09938,0.4924956 -1.09938,1.100147"
         id="path1429"
         style="display:inline;fill:#f1f208;fill-opacity:1;stroke-width:0.51415" />
      <path
         id="path1431"
         style="display:inline;fill:#f1f208;fill-opacity:1;stroke-width:0.51415"
         d="m 22.666016,12.384766 c -1.022629,0 -2.041786,0.202119 -3.019532,0.5625 -3.175002,1.018279 -5.686986,3.530863 -6.701172,6.707031 -0.364287,0.986538 -0.568359,2.014834 -0.568359,3.044922 0,0.72204 0.102547,1.44141 0.287109,2.146484 0.955302,4.719026 5.134898,8.283203 10.132813,8.283203 5.701558,0 10.339844,-4.638203 10.339844,-10.33789 0,-5.149663 -3.786811,-9.430462 -8.722657,-10.208985 -0.577408,-0.126463 -1.16182,-0.197265 -1.748046,-0.197265 z m 0.0059,1.287109 c 4.977037,0 9.025391,4.043475 9.025391,9.013672 0,4.970197 -4.048354,9.015625 -9.025391,9.015625 -4.977036,0 -9.027344,-4.045428 -9.027344,-9.015625 0,-4.970197 4.050308,-9.013672 9.027344,-9.013672 z" />
      <path
         d="m 15.912947,1.2198301 c 0,0.6076513 0.492612,1.0996329 1.100408,1.0996329 0.607796,0 1.100409,-0.4919816 1.100409,-1.0996329 0,-0.60713724 -0.492613,-1.100147 -1.100409,-1.100147 -0.607796,0 -1.100408,0.49300976 -1.100408,1.100147"
         id="path1433"
         style="display:inline;fill:#f1f208;fill-opacity:1;stroke-width:0.51415" />
      <path
         d="m 5.9043674,38.589356 c 0,0.608164 0.4926133,1.100148 1.1004089,1.100148 0.607796,0 1.1004089,-0.491984 1.1004089,-1.100148 0,-0.607137 -0.4926129,-1.100147 -1.1004089,-1.100147 -0.6077956,0 -1.1004089,0.493524 -1.1004089,1.100147"
         id="path1435"
         style="display:inline;fill:#f1f208;fill-opacity:1;stroke-width:0.51415" />
      <path
         d="m 43.273535,28.574419 c 0,0.607138 0.493127,1.099634 1.100922,1.099634 0.607797,0 1.099895,-0.492496 1.099895,-1.099634 0,-0.608165 -0.492098,-1.100146 -1.099895,-1.100146 -0.607795,0 -1.100922,0.491981 -1.100922,1.100146"
         id="path1437"
         style="display:inline;fill:#f1f208;fill-opacity:1;stroke-width:0.51415" />
      <path
         d="m 27.481638,44.372841 c 0,0.607134 0.492099,1.101173 1.100409,1.101173 0.607282,0 1.099894,-0.494039 1.099894,-1.101173 0,-0.607651 -0.492612,-1.100148 -1.099894,-1.100148 -0.60831,0 -1.100409,0.492497 -1.100409,1.100148"
         id="path1439"
         style="display:inline;fill:#f1f208;fill-opacity:1;stroke-width:0.51415" />
      <path
         d="m 0.12002191,17.008996 c 0,0.607651 0.49261299,1.100147 1.10040889,1.100147 0.607796,0 1.0998947,-0.492496 1.0998947,-1.100147 0,-0.607137 -0.4926129,-1.100147 -1.0998947,-1.100147 -0.60728171,0 -1.10040889,0.49301 -1.10040889,1.100147"
         id="path1441"
         style="display:inline;fill:#f1f208;fill-opacity:1;stroke-width:0.51415" />
      <path
         id="path1443"
         style="display:inline;fill:#f1f208;fill-opacity:1;stroke:none;stroke-width:0.514138;stroke-miterlimit:4;stroke-dasharray:none"
         d="m 22.677171,18.926187 c -2.068666,0 -3.751953,1.68378 -3.751953,3.751953 0,2.06766 1.683287,3.75 3.751953,3.75 2.068666,0 3.751953,-1.682854 3.751953,-3.75 0,-2.068173 -1.683287,-3.751953 -3.751953,-3.751953 z m 0,1.052734 c 1.490659,0 2.699219,1.209038 2.699219,2.699219 0,1.489677 -1.20856,2.697265 -2.699219,2.697265 -1.490156,0 -2.697266,-1.208092 -2.697266,-2.697265 0,-1.490181 1.20711,-2.699219 2.697266,-2.699219 z" />
    </g>
  </g>
  <g
     inkscape:groupmode="layer"
     id="g1467"
     inkscape:label="B.Cu"
     style="display:inline">
    <g
       id="g1465"
       transform="matrix(-1,0,0,1,45.594374,0)">
      <path
         d="m 37.490217,7.0027992 c 0,0.6076514 0.492099,1.1001467 1.09938,1.1001467 0.607798,0 1.100922,-0.4924953 1.100922,-1.1001467 0,-0.6071374 -0.493124,-1.100147 -1.100922,-1.100147 -0.607281,0 -1.09938,0.4924956 -1.09938,1.100147"
         id="path1449"
         style="display:inline;fill:#f1f208;fill-opacity:1;stroke-width:0.51415" />
      <path
         id="path1451"
         style="display:inline;fill:#f1f208;fill-opacity:1;stroke-width:0.51415"
         d="m 22.666016,12.384766 c -1.022629,0 -2.041786,0.202119 -3.019532,0.5625 -3.175002,1.018279 -5.686986,3.530863 -6.701172,6.707031 -0.364287,0.986538 -0.568359,2.014834 -0.568359,3.044922 0,0.72204 0.102547,1.44141 0.287109,2.146484 0.955302,4.719026 5.134898,8.283203 10.132813,8.283203 5.701558,0 10.339844,-4.638203 10.339844,-10.33789 0,-5.149663 -3.786811,-9.430462 -8.722657,-10.208985 -0.577408,-0.126463 -1.16182,-0.197265 -1.748046,-0.197265 z m 0.0059,1.287109 c 4.977037,0 9.025391,4.043475 9.025391,9.013672 0,4.970197 -4.048354,9.015625 -9.025391,9.015625 -4.977036,0 -9.027344,-4.045428 -9.027344,-9.015625 0,-4.970197 4.050308,-9.013672 9.027344,-9.013672 z" />
      <path
         d="m 15.912947,1.2198301 c 0,0.6076513 0.492612,1.0996329 1.100408,1.0996329 0.607796,0 1.100409,-0.4919816 1.100409,-1.0996329 0,-0.60713724 -0.492613,-1.100147 -1.100409,-1.100147 -0.607796,0 -1.100408,0.49300976 -1.100408,1.100147"
         id="path1453"
         style="display:inline;fill:#f1f208;fill-opacity:1;stroke-width:0.51415" />
      <path
         d="m 5.9043674,38.589356 c 0,0.608164 0.4926133,1.100148 1.1004089,1.100148 0.607796,0 1.1004089,-0.491984 1.1004089,-1.100148 0,-0.607137 -0.4926129,-1.100147 -1.1004089,-1.100147 -0.6077956,0 -1.1004089,0.493524 -1.1004089,1.100147"
         id="path1455"
         style="display:inline;fill:#f1f208;fill-opacity:1;stroke-width:0.51415" />
      <path
         d="m 43.273535,28.574419 c 0,0.607138 0.493127,1.099634 1.100922,1.099634 0.607797,0 1.099895,-0.492496 1.099895,-1.099634 0,-0.608165 -0.492098,-1.100146 -1.099895,-1.100146 -0.607795,0 -1.100922,0.491981 -1.100922,1.100146"
         id="path1457"
         style="display:inline;fill:#f1f208;fill-opacity:1;stroke-width:0.51415" />
      <path
         d="m 27.481638,44.372841 c 0,0.607134 0.492099,1.101173 1.100409,1.101173 0.607282,0 1.099894,-0.494039 1.099894,-1.101173 0,-0.607651 -0.492612,-1.100148 -1.099894,-1.100148 -0.60831,0 -1.100409,0.492497 -1.100409,1.100148"
         id="path1459"
         style="display:inline;fill:#f1f208;fill-opacity:1;stroke-width:0.51415" />
      <path
         d="m 0.12002191,17.008996 c 0,0.607651 0.49261299,1.100147 1.10040889,1.100147 0.607796,0 1.0998947,-0.492496 1.0998947,-1.100147 0,-0.607137 -0.4926129,-1.100147 -1.0998947,-1.100147 -0.60728171,0 -1.10040889,0.49301 -1.10040889,1.100147"
         id="path1461"
         style="display:inline;fill:#f1f208;fill-opacity:1;stroke-width:0.51415" />
      <path
         id="path1463"
         style="display:inline;fill:#f1f208;fill-opacity:1;stroke:none;stroke-width:0.514138;stroke-miterlimit:4;stroke-dasharray:none"
         d="m 22.677171,18.926187 c -2.068666,0 -3.751953,1.68378 -3.751953,3.751953 0,2.06766 1.683287,3.75 3.751953,3.75 2.068666,0 3.751953,-1.682854 3.751953,-3.75 0,-2.068173 -1.683287,-3.751953 -3.751953,-3.751953 z m 0,1.052734 c 1.490659,0 2.699219,1.209038 2.699219,2.699219 0,1.489677 -1.20856,2.697265 -2.699219,2.697265 -1.490156,0 -2.697266,-1.208092 -2.697266,-2.697265 0,-1.490181 1.20711,-2.699219 2.697266,-2.699219 z" />
    </g>
  </g>
  <g
     inkscape:groupmode="layer"
     id="layer2"
     inkscape:label="F.Cu"
     style="display:inline">
    <g
       id="g1387">
      <path
         d="m 37.490217,7.0027992 c 0,0.6076514 0.492099,1.1001467 1.09938,1.1001467 0.607798,0 1.100922,-0.4924953 1.100922,-1.1001467 0,-0.6071374 -0.493124,-1.100147 -1.100922,-1.100147 -0.607281,0 -1.09938,0.4924956 -1.09938,1.100147"
         id="path1174"
         style="display:inline;fill:#f1f208;fill-opacity:1;stroke-width:0.51415" />
      <path
         id="path1148"
         style="display:inline;fill:#f1f208;fill-opacity:1;stroke-width:0.51415"
         d="M 22.666016 12.384766 C 21.643387 12.384766 20.62423 12.586885 19.646484 12.947266 C 16.471482 13.965545 13.959498 16.478129 12.945312 19.654297 C 12.581025 20.640835 12.376953 21.669131 12.376953 22.699219 C 12.376953 23.421259 12.4795 24.140629 12.664062 24.845703 C 13.619364 29.564729 17.79896 33.128906 22.796875 33.128906 C 28.498433 33.128906 33.136719 28.490703 33.136719 22.791016 C 33.136719 17.641353 29.349908 13.360554 24.414062 12.582031 C 23.836654 12.455568 23.252242 12.384766 22.666016 12.384766 z M 22.671875 13.671875 C 27.648912 13.671875 31.697266 17.71535 31.697266 22.685547 C 31.697266 27.655744 27.648912 31.701172 22.671875 31.701172 C 17.694839 31.701172 13.644531 27.655744 13.644531 22.685547 C 13.644531 17.71535 17.694839 13.671875 22.671875 13.671875 z " />
      <path
         d="m 15.912947,1.2198301 c 0,0.6076513 0.492612,1.0996329 1.100408,1.0996329 0.607796,0 1.100409,-0.4919816 1.100409,-1.0996329 0,-0.60713724 -0.492613,-1.100147 -1.100409,-1.100147 -0.607796,0 -1.100408,0.49300976 -1.100408,1.100147"
         id="path1166"
         style="display:inline;fill:#f1f208;fill-opacity:1;stroke-width:0.51415" />
      <path
         d="m 5.9043674,38.589356 c 0,0.608164 0.4926133,1.100148 1.1004089,1.100148 0.607796,0 1.1004089,-0.491984 1.1004089,-1.100148 0,-0.607137 -0.4926129,-1.100147 -1.1004089,-1.100147 -0.6077956,0 -1.1004089,0.493524 -1.1004089,1.100147"
         id="path1168"
         style="display:inline;fill:#f1f208;fill-opacity:1;stroke-width:0.51415" />
      <path
         d="m 43.273535,28.574419 c 0,0.607138 0.493127,1.099634 1.100922,1.099634 0.607797,0 1.099895,-0.492496 1.099895,-1.099634 0,-0.608165 -0.492098,-1.100146 -1.099895,-1.100146 -0.607795,0 -1.100922,0.491981 -1.100922,1.100146"
         id="path1170"
         style="display:inline;fill:#f1f208;fill-opacity:1;stroke-width:0.51415" />
      <path
         d="m 27.481638,44.372841 c 0,0.607134 0.492099,1.101173 1.100409,1.101173 0.607282,0 1.099894,-0.494039 1.099894,-1.101173 0,-0.607651 -0.492612,-1.100148 -1.099894,-1.100148 -0.60831,0 -1.100409,0.492497 -1.100409,1.100148"
         id="path1172"
         style="display:inline;fill:#f1f208;fill-opacity:1;stroke-width:0.51415" />
      <path
         d="m 0.12002191,17.008996 c 0,0.607651 0.49261299,1.100147 1.10040889,1.100147 0.607796,0 1.0998947,-0.492496 1.0998947,-1.100147 0,-0.607137 -0.4926129,-1.100147 -1.0998947,-1.100147 -0.60728171,0 -1.10040889,0.49301 -1.10040889,1.100147"
         id="path1176"
         style="display:inline;fill:#f1f208;fill-opacity:1;stroke-width:0.51415" />
      <path
         id="path1152-0"
         style="display:inline;fill:#f1f208;fill-opacity:1;stroke:none;stroke-width:0.514138;stroke-miterlimit:4;stroke-dasharray:none"
         d="m 22.677171,18.926187 c -2.068666,0 -3.751953,1.68378 -3.751953,3.751953 0,2.06766 1.683287,3.75 3.751953,3.75 2.068666,0 3.751953,-1.682854 3.751953,-3.75 0,-2.068173 -1.683287,-3.751953 -3.751953,-3.751953 z m 0,1.052734 c 1.490659,0 2.699219,1.209038 2.699219,2.699219 0,1.489677 -1.20856,2.697265 -2.699219,2.697265 -1.490156,0 -2.697266,-1.208092 -2.697266,-2.697265 0,-1.490181 1.20711,-2.699219 2.697266,-2.699219 z" />
    </g>
  </g>
  <g
     inkscape:groupmode="layer"
     id="g1407"
     inkscape:label="F.Mask"
     style="display:inline">
    <g
       id="g1405">
      <path
         d="m 37.490217,7.0027992 c 0,0.6076514 0.492099,1.1001467 1.09938,1.1001467 0.607798,0 1.100922,-0.4924953 1.100922,-1.1001467 0,-0.6071374 -0.493124,-1.100147 -1.100922,-1.100147 -0.607281,0 -1.09938,0.4924956 -1.09938,1.100147"
         id="path1389"
         style="display:inline;fill:#f1f208;fill-opacity:1;stroke-width:0.51415" />
      <path
         id="path1391"
         style="display:inline;fill:#f1f208;fill-opacity:1;stroke-width:0.51415"
         d="M 22.666016 12.384766 C 21.643387 12.384766 20.62423 12.586885 19.646484 12.947266 C 16.471482 13.965545 13.959498 16.478129 12.945312 19.654297 C 12.581025 20.640835 12.376953 21.669131 12.376953 22.699219 C 12.376953 23.421259 12.4795 24.140629 12.664062 24.845703 C 13.619364 29.564729 17.79896 33.128906 22.796875 33.128906 C 28.498433 33.128906 33.136719 28.490703 33.136719 22.791016 C 33.136719 17.641353 29.349908 13.360554 24.414062 12.582031 C 23.836654 12.455568 23.252242 12.384766 22.666016 12.384766 z M 22.671875 13.671875 C 27.648912 13.671875 31.697266 17.71535 31.697266 22.685547 C 31.697266 27.655744 27.648912 31.701172 22.671875 31.701172 C 17.694839 31.701172 13.644531 27.655744 13.644531 22.685547 C 13.644531 17.71535 17.694839 13.671875 22.671875 13.671875 z " />
      <path
         d="m 15.912947,1.2198301 c 0,0.6076513 0.492612,1.0996329 1.100408,1.0996329 0.607796,0 1.100409,-0.4919816 1.100409,-1.0996329 0,-0.60713724 -0.492613,-1.100147 -1.100409,-1.100147 -0.607796,0 -1.100408,0.49300976 -1.100408,1.100147"
         id="path1393"
         style="display:inline;fill:#f1f208;fill-opacity:1;stroke-width:0.51415" />
      <path
         d="m 5.9043674,38.589356 c 0,0.608164 0.4926133,1.100148 1.1004089,1.100148 0.607796,0 1.1004089,-0.491984 1.1004089,-1.100148 0,-0.607137 -0.4926129,-1.100147 -1.1004089,-1.100147 -0.6077956,0 -1.1004089,0.493524 -1.1004089,1.100147"
         id="path1395"
         style="display:inline;fill:#f1f208;fill-opacity:1;stroke-width:0.51415" />
      <path
         d="m 43.273535,28.574419 c 0,0.607138 0.493127,1.099634 1.100922,1.099634 0.607797,0 1.099895,-0.492496 1.099895,-1.099634 0,-0.608165 -0.492098,-1.100146 -1.099895,-1.100146 -0.607795,0 -1.100922,0.491981 -1.100922,1.100146"
         id="path1397"
         style="display:inline;fill:#f1f208;fill-opacity:1;stroke-width:0.51415" />
      <path
         d="m 27.481638,44.372841 c 0,0.607134 0.492099,1.101173 1.100409,1.101173 0.607282,0 1.099894,-0.494039 1.099894,-1.101173 0,-0.607651 -0.492612,-1.100148 -1.099894,-1.100148 -0.60831,0 -1.100409,0.492497 -1.100409,1.100148"
         id="path1399"
         style="display:inline;fill:#f1f208;fill-opacity:1;stroke-width:0.51415" />
      <path
         d="m 0.12002191,17.008996 c 0,0.607651 0.49261299,1.100147 1.10040889,1.100147 0.607796,0 1.0998947,-0.492496 1.0998947,-1.100147 0,-0.607137 -0.4926129,-1.100147 -1.0998947,-1.100147 -0.60728171,0 -1.10040889,0.49301 -1.10040889,1.100147"
         id="path1401"
         style="display:inline;fill:#f1f208;fill-opacity:1;stroke-width:0.51415" />
      <path
         id="path1403"
         style="display:inline;fill:#f1f208;fill-opacity:1;stroke:none;stroke-width:0.514138;stroke-miterlimit:4;stroke-dasharray:none"
         d="m 22.677171,18.926187 c -2.068666,0 -3.751953,1.68378 -3.751953,3.751953 0,2.06766 1.683287,3.75 3.751953,3.75 2.068666,0 3.751953,-1.682854 3.751953,-3.75 0,-2.068173 -1.683287,-3.751953 -3.751953,-3.751953 z m 0,1.052734 c 1.490659,0 2.699219,1.209038 2.699219,2.699219 0,1.489677 -1.20856,2.697265 -2.699219,2.697265 -1.490156,0 -2.697266,-1.208092 -2.697266,-2.697265 0,-1.490181 1.20711,-2.699219 2.697266,-2.699219 z" />
    </g>
  </g>
  <g
     inkscape:label="F.SilkS"
     inkscape:groupmode="layer"
     id="layer1"
     style="display:inline">
    <g
       id="g1376">
      <path
         d="m 19.979319,22.677668 c 0,1.489173 1.207948,2.697142 2.698104,2.697142 1.490659,0 2.6976,-1.207465 2.6976,-2.697142 0,-1.490181 -1.206941,-2.69815 -2.6976,-2.69815 -1.490156,0 -2.698104,1.207969 -2.698104,2.69815"
         id="path997"
         style="display:inline;stroke-width:0.503947" />
      <g
         id="g1366">
        <path
           d="m 35.484632,14.483338 c -0.03126,0 -0.06853,-0.0076 -0.09524,-0.02219 -2.042981,-1.100111 -4.223033,-1.931125 -6.479684,-2.470352 -0.04586,-0.01058 -0.08265,-0.03729 -0.107843,-0.07257 -1.577842,-1.663036 -3.365324,-3.1189483 -5.314066,-4.3284292 -0.05039,-0.010583 -0.09524,-0.041828 -0.122457,-0.089703 -0.04989,-0.087689 -0.02015,-0.1995629 0.06702,-0.2509682 0.002,-0.00151 0.0045,-0.00252 0.0065,-0.00404 3.0428,-1.6519495 6.330516,-2.6759765 9.772438,-3.0433564 0.08063,-0.019162 0.171341,0.024189 0.208127,0.1058305 1.403478,3.1643043 2.161407,6.5236363 2.251108,9.9852713 0.0015,0.04989 -0.01765,0.09827 -0.05241,0.134053 -0.03579,0.03628 -0.08315,0.05644 -0.133546,0.05644 z m -6.432816,-2.839761 c 2.166949,0.523101 4.263347,1.310775 6.237287,2.344881 -0.122962,-3.256527 -0.847631,-6.4183113 -2.154351,-9.406233 -3.242362,0.3603243 -6.344627,1.3127905 -9.228181,2.832201 1.881214,1.1938583 3.610742,2.614998 5.145245,4.229151 z"
           id="path1136"
           style="stroke-width:0.503947" />
        <path
           d="m 9.8909428,14.533228 c -0.052411,0 -0.1048214,-0.01258 -0.1441285,-0.04082 -0.066017,-0.04788 -0.1249776,-0.116414 -0.1229631,-0.198558 0.090206,-3.46869 0.8496458,-6.8365903 2.2566518,-10.0089579 0.04032,-0.090712 0.128504,-0.1451376 0.221733,-0.1471521 0.0141,-5.038e-4 0.02823,-5.038e-4 0.04183,0.00101 5.773157,0.6153225 11.262595,3.1643032 15.456398,7.177764 0.08869,0.08467 0.101291,0.220732 0.03175,0.321018 -0.064,0.09021 -0.1789,0.124981 -0.279689,0.09273 C 21.4428,10.681037 15.2806,11.670292 9.9962672,14.515595 c -0.032239,0.01107 -0.068534,0.01765 -0.1053241,0.01765 z M 12.259973,4.6487466 C 10.981473,7.5852652 10.26638,10.689599 10.132331,13.885652 15.179812,11.261583 21.008906,10.285431 26.657589,11.116949 22.667378,7.5373895 17.591677,5.2529827 12.259973,4.6487466 Z"
           id="path1142"
           style="stroke-width:0.503947" />
        <path
           d="m 22.678465,45.354329 c -0.107845,0 -0.209639,-0.03477 -0.292789,-0.09524 -1.701307,-1.182267 -3.268062,-2.557043 -4.661965,-4.09107 -1.975451,0.632458 -4.023975,1.039649 -6.093159,1.211497 -0.02721,0.003 -0.05392,0.002 -0.08063,5.03e-4 -0.176382,-0.01399 -0.33815,-0.12197 -0.413739,-0.282222 C 10.251765,40.220083 9.5805151,38.243084 9.1400698,36.215188 7.131862,35.778767 5.1715284,35.115568 3.308456,34.242222 3.0978084,34.170662 2.9556968,33.965553 2.9748466,33.736256 3.1471947,31.66502 3.5558914,29.612934 4.1898501,27.632914 2.6674422,26.24957 1.3007522,24.694883 0.12404825,23.007657 0.00360616,22.871087 -0.0357013,22.674546 0.03535449,22.496652 c 0.01511827,-0.0378 0.034772,-0.07307 0.05795332,-0.105326 C 1.2770669,20.686966 2.6533318,19.117665 4.1878345,17.723234 3.5604269,15.761356 3.1542499,13.728924 2.9798861,11.675326 2.9652706,11.591167 2.9728297,11.50247 3.004075,11.418813 3.054469,11.284259 3.1587851,11.181958 3.2857784,11.131562 5.1543943,10.253682 7.1212793,9.5869559 9.1385572,9.148519 9.5795067,7.1186069 10.250757,5.138082 11.136183,3.2583474 c 0.05342,-0.112885 0.147152,-0.2015799 0.263561,-0.2484476 0.07105,-0.028222 0.153702,-0.042836 0.231814,-0.036283 2.069688,0.1728551 4.117708,0.5800468 6.093664,1.2120005 1.392391,-1.532009 2.958138,-2.9067855 4.658941,-4.08854907 0.0509,-0.03779629 0.10885,-0.06551357 0.171844,-0.08163998 0.138584,-0.03527652 0.286741,-0.00957506 0.404161,0.07206489 1.705339,1.18428236 3.276125,2.56157866 4.673052,4.09812336 1.977467,-0.6324578 4.024478,-1.0401536 6.090136,-1.2125046 0.03175,-0.00252 0.06501,-0.00202 0.09524,0.00151 0.170835,0.019151 0.328067,0.1259875 0.401137,0.2812044 0.886434,1.8812467 1.558692,3.8617712 1.999642,5.8916833 2.008713,0.4374289 3.969551,1.1006284 5.831615,1.9734704 0.194003,0.06753 0.331578,0.251471 0.331578,0.466658 0,0.0141 -5.03e-4,0.02872 -0.002,0.04233 -0.171326,2.067709 -0.578524,4.115259 -1.211478,6.092256 1.529983,1.390399 2.902216,2.952645 4.08144,4.648438 0.06551,0.08618 0.103812,0.192509 0.103812,0.306402 0,0.108351 -0.03477,0.210652 -0.09626,0.293805 -1.182248,1.700832 -2.557505,3.268622 -4.091502,4.662045 0.632448,1.974477 1.039631,4.018499 1.211978,6.082176 0.0025,0.01863 0.0035,0.0373 0.0035,0.05594 0,0.209643 -0.130507,0.390057 -0.31646,0.462122 -1.868621,0.877881 -3.835003,1.5436 -5.848754,1.982037 -0.440949,2.026887 -1.112199,4.004389 -1.997625,5.882614 -0.07509,0.159231 -0.229799,0.26657 -0.406176,0.281197 -0.02619,0.003 -0.05997,0.0042 -0.08769,5.06e-4 -2.068681,-0.171855 -4.117205,-0.579038 -6.09316,-1.211497 -1.390375,1.529994 -2.953603,2.902753 -4.650878,4.083511 -0.08416,0.06501 -0.189986,0.102803 -0.302869,0.102803 z m -4.398404,-5.046055 c 1.313272,1.475063 2.791838,2.800955 4.398404,3.946938 1.60959,-1.147997 3.089667,-2.476917 4.404954,-3.953994 0.123466,-0.165808 0.343688,-0.241399 0.550305,-0.172347 1.889781,0.629431 3.85213,1.044688 5.836653,1.235687 0.817393,-1.795578 1.434722,-3.681359 1.834348,-5.611993 0.01058,-0.111877 0.05947,-0.220225 0.142616,-0.303881 0.0766,-0.0761 0.174868,-0.124475 0.277671,-0.1401 1.939672,-0.399131 3.834997,-1.017983 5.640115,-1.839422 -0.190488,-1.980524 -0.605231,-3.939379 -1.234655,-5.828185 -0.02532,-0.07458 -0.03175,-0.154209 -0.02003,-0.231818 0.01776,-0.113892 0.0751,-0.223755 0.161272,-0.300858 1.489652,-1.321357 2.828625,-2.811034 3.984669,-4.431235 -1.147978,-1.609617 -2.477378,-3.090727 -3.956447,-4.406541 -0.164296,-0.124475 -0.238866,-0.343189 -0.169814,-0.548298 0.629268,-1.888806 1.044015,-3.847661 1.234503,-5.828187 -1.812174,-0.82547 -3.717074,-1.445833 -5.667832,-1.84597 -0.168318,-0.03428 -0.306395,-0.1542082 -0.36536,-0.3159757 -0.01561,-0.044345 -0.0257,-0.090206 -0.02872,-0.1360668 -0.399624,-1.9286184 -1.016449,-3.812889 -1.833843,-5.6069521 -1.977467,0.1904931 -3.934272,0.6042365 -5.822542,1.2316543 -0.008,0.00302 -0.01663,0.00605 -0.0257,0.00858 C 27.417036,5.2912937 27.199837,5.2126797 27.078891,5.048894 25.764611,3.5738203 24.285038,2.2459112 22.677464,1.0984162 21.068882,2.2464151 19.589813,3.5738203 18.276541,5.0488826 18.219091,5.1269936 18.138966,5.1884757 18.043215,5.222242 17.927308,5.263564 17.804349,5.259017 17.696001,5.216192 15.814778,4.5918 13.862004,4.1790647 11.886049,3.9890754 c -0.821426,1.8041423 -1.439762,3.6994994 -1.839892,5.6402119 -0.0056,0.042833 -0.01712,0.085168 -0.03428,0.1259868 -0.062994,0.1501758 -0.1955303,0.2615509 -0.3547769,0.2938019 -1.9502544,0.400136 -3.8546503,1.019996 -5.6663207,1.845466 0.1914973,1.981533 0.6067457,3.940388 1.2351609,5.828186 0.060979,0.18243 0.010091,0.383506 -0.1300157,0.515541 -0.015118,0.01463 -0.031257,0.0277 -0.047875,0.04032 -1.4740294,1.312287 -2.800908,2.790877 -3.9478794,4.398982 1.1560423,1.620201 2.4960234,3.109878 3.9846674,4.431236 0.1128832,0.100286 0.1693229,0.240888 0.1662993,0.380986 0,0.0514 -0.00858,0.102807 -0.025701,0.153706 -0.6284153,1.887798 -1.0431591,3.846149 -1.2346572,5.82617 1.7960485,0.817911 3.6817985,1.434746 5.6113913,1.833875 0.111874,0.01058 0.2197191,0.05947 0.3033714,0.143123 0.077102,0.0761 0.1249776,0.174871 0.1405986,0.277172 0.399626,1.942225 1.018466,3.837582 1.839891,5.641724 1.985027,-0.190979 3.947376,-0.606251 5.836653,-1.235686 0.210146,-0.07056 0.434398,0.0076 0.55736,0.178394 z"
           id="path1154"
           style="stroke-width:0.503947" />
        <path
           d="m 22.677961,33.912135 c -8.461686,0 -16.489982,-4.070407 -21.4895878,-10.890871 -0.089702,-0.09424 -0.1365683,-0.218211 -0.1355603,-0.343695 -5.04e-4,-0.125485 0.045859,-0.249457 0.1360641,-0.343696 4.9996058,-6.821469 13.028406,-10.891876 21.489588,-10.891876 8.46219,0 16.490991,4.070407 21.490595,10.892383 0.08466,0.0897 0.135572,0.210145 0.135572,0.339662 0,0.119437 -0.04282,0.231817 -0.115389,0.320009 -4.999631,6.837094 -13.038006,10.918084 -21.511282,10.918084 z M 2.1635005,22.67757 c 4.8252421,6.423351 12.4660065,10.246822 20.5144605,10.246822 8.048957,0 15.689721,-3.823471 20.514964,-10.246822 -4.825746,-6.423855 -12.466511,-10.247326 -20.514964,-10.247326 -8.04795,0 -15.6887146,3.823471 -20.5144605,10.247326 z"
           id="path1156"
           style="stroke-width:0.503947" />
        <path
           d="m 12.107279,41.156925 c -0.07105,0 -0.138584,-0.04082 -0.169323,-0.10987 -1.403984,-3.164799 -2.1619119,-6.524637 -2.2521172,-9.985767 -0.00101,-0.05241 0.019654,-0.101798 0.056443,-0.137579 0.037304,-0.03628 0.089703,-0.05795 0.1395931,-0.05191 0.027213,0.0015 0.060979,0.0096 0.084661,0.02219 2.0419721,1.099116 4.2220241,1.93013 6.4801871,2.469861 0.04636,0.01058 0.08466,0.0383 0.109859,0.07509 1.578849,1.66354 3.367339,3.119452 5.315578,4.327926 0.04687,0.0116 0.0892,0.04182 0.115404,0.08668 0.05039,0.08617 0.02317,0.197556 -0.06148,0.25047 -0.004,0.002 -0.008,0.0045 -0.01209,0.0064 -3.040785,1.650943 -6.326485,2.674465 -9.765887,3.041847 -0.01311,0.003 -0.02721,0.0045 -0.04082,0.0045 z m -2.040964,-9.790747 c 0.123968,3.255519 0.848134,6.417807 2.154855,9.405224 3.24236,-0.36034 6.344122,-1.312286 9.228181,-2.8322 -1.880711,-1.192346 -3.610743,-2.614495 -5.145749,-4.229151 -2.168461,-0.523101 -4.264859,-1.311279 -6.237287,-2.343873 z"
           id="path1160"
           style="stroke-width:0.503947" />
        <path
           d="m 33.249146,41.21891 c -0.01765,0 -0.03428,-0.002 -0.05191,-0.0057 -5.767106,-0.617212 -11.250497,-3.165184 -15.441276,-7.175622 -0.08869,-0.08467 -0.101292,-0.221737 -0.03024,-0.322023 0.0635,-0.0892 0.176379,-0.125484 0.278177,-0.09121 5.909724,1.047713 12.071924,0.05947 17.355249,-2.785333 0.03175,-0.01663 0.06602,-0.02672 0.101798,-0.02873 0.0761,-0.0081 0.141105,0.02067 0.190488,0.06854 0.05039,0.04838 0.08164,0.114902 0.07962,0.18344 -0.09021,3.470202 -0.849645,6.837599 -2.257155,10.009461 -0.03981,0.09271 -0.130015,0.147175 -0.224757,0.147175 z M 18.698333,34.237687 c 3.99021,3.579561 9.065408,5.863968 14.398119,6.467698 1.277492,-2.93551 1.992585,-6.03934 2.127138,-9.234889 -5.063606,2.624573 -10.886653,3.595181 -16.525257,2.767191 z"
           id="path1164"
           style="stroke-width:0.503947" />
      </g>
    </g>
  </g>
</svg>
