<svg xmlns="http://www.w3.org/2000/svg" xmlns:xlink="http://www.w3.org/1999/xlink" version="1.1" x="0px" y="0px" viewBox="0 0 100 125" enable-background="new 0 0 100 100" xml:space="preserve"><path d="M50.006,92.162c-0.052,0-0.11-0.017-0.151-0.047c-2.832-2.063-5.464-4.422-7.826-7.009  c-0.074-0.082-0.085-0.201-0.027-0.294c0.041-0.067,0.11-0.109,0.186-0.116c2.628-0.98,5.198-2.178,7.641-3.56  c0.082-0.076,0.222-0.085,0.315-0.02c2.455,1.392,5.037,2.596,7.674,3.579c0.051,0.005,0.102,0.026,0.144,0.063  c0.099,0.091,0.105,0.246,0.015,0.347c-2.358,2.585-4.992,4.944-7.826,7.009C50.108,92.146,50.058,92.162,50.006,92.162z   M42.642,85.049c2.235,2.414,4.708,4.621,7.36,6.567c2.653-1.948,5.128-4.154,7.36-6.567c-2.527-0.958-5.001-2.117-7.36-3.448  C47.646,82.931,45.172,84.09,42.642,85.049z"/><path d="M75.415,33.74c-0.062,0-0.136-0.015-0.189-0.044c-4.054-2.183-8.38-3.832-12.858-4.902  c-0.091-0.021-0.164-0.074-0.214-0.144c-3.131-3.3-6.678-6.189-10.545-8.589c-0.1-0.021-0.189-0.083-0.243-0.178  c-0.099-0.174-0.04-0.396,0.133-0.498c0.004-0.003,0.009-0.005,0.013-0.008c6.038-3.278,12.562-5.31,19.392-6.039  c0.16-0.038,0.34,0.048,0.413,0.21c2.785,6.279,4.289,12.945,4.467,19.814c0.003,0.099-0.035,0.195-0.104,0.266  C75.609,33.7,75.515,33.74,75.415,33.74z M62.65,28.105c4.3,1.038,8.46,2.601,12.377,4.653c-0.244-6.462-1.682-12.736-4.275-18.665  c-6.434,0.715-12.59,2.605-18.312,5.62C56.173,22.082,59.605,24.902,62.65,28.105z"/><path d="M84.168,39.519c-0.037,0-0.075-0.009-0.109-0.026c-0.017-0.008-0.04-0.022-0.055-0.034  c-2.194-1.815-4.551-3.466-7.004-4.907c-0.089-0.052-0.135-0.154-0.116-0.255c0.001-0.002,0.001-0.004,0.002-0.006  c-0.024-2.799-0.271-5.615-0.731-8.374c-0.025-0.049-0.034-0.106-0.021-0.164c0.003-0.013,0.007-0.025,0.011-0.037  c0.024-0.088,0.099-0.16,0.195-0.176c0.073-0.012,0.14,0.007,0.192,0.049c3.362,0.742,6.667,1.825,9.821,3.22  c0.006,0.001,0.012,0.002,0.018,0.003c0.12,0.027,0.204,0.133,0.192,0.257c-0.371,3.476-1.098,6.935-2.161,10.279  c-0.021,0.068-0.071,0.124-0.138,0.152C84.233,39.512,84.2,39.519,84.168,39.519z M77.374,34.204  c2.328,1.376,4.569,2.94,6.669,4.652c0.976-3.143,1.651-6.385,2.01-9.643c-3.013-1.324-6.162-2.362-9.367-3.087  C77.116,28.789,77.348,31.504,77.374,34.204z"/><path d="M50.008,18.928c-0.059,0-0.117-0.02-0.163-0.056c-2.443-1.384-5.014-2.583-7.643-3.564  c-0.058-0.001-0.115-0.022-0.161-0.064c-0.1-0.091-0.107-0.246-0.016-0.346c2.36-2.588,4.993-4.947,7.824-7.01  c0.026-0.019,0.055-0.032,0.085-0.04c0.069-0.017,0.156-0.007,0.215,0.037c2.836,2.067,5.469,4.425,7.825,7.01  c0.071,0.077,0.085,0.19,0.035,0.282c-0.041,0.073-0.113,0.12-0.193,0.127c-2.625,0.978-5.195,2.175-7.64,3.56  c-0.035,0.032-0.08,0.055-0.13,0.063C50.034,18.927,50.021,18.928,50.008,18.928z M42.643,14.949  c2.529,0.96,5.002,2.119,7.359,3.448c2.359-1.331,4.833-2.49,7.359-3.448c-2.229-2.411-4.703-4.618-7.359-6.567  C47.351,10.328,44.877,12.536,42.643,14.949z"/><path d="M24.628,33.839c-0.104,0-0.208-0.025-0.286-0.081c-0.131-0.095-0.248-0.231-0.244-0.394  c0.179-6.883,1.686-13.566,4.478-19.861c0.08-0.18,0.255-0.288,0.44-0.292c0.028-0.001,0.056-0.001,0.083,0.002  c11.456,1.221,22.349,6.279,30.671,14.243c0.176,0.168,0.201,0.438,0.063,0.637c-0.127,0.179-0.355,0.248-0.555,0.184  c-11.727-2.082-23.955-0.119-34.441,5.527C24.773,33.826,24.701,33.839,24.628,33.839z M29.329,14.225  c-2.537,5.827-3.956,11.987-4.222,18.329c10.016-5.207,21.583-7.144,32.792-5.494C49.981,19.957,39.909,15.424,29.329,14.225z"/><path d="M15.839,39.518c-0.104,0-0.203-0.066-0.236-0.17c-1.061-3.332-1.787-6.783-2.158-10.257c0-0.001,0-0.003,0-0.004  c0-0.001,0-0.002,0-0.003c0-0.005,0-0.01-0.001-0.015h0c-0.004-0.125,0.084-0.24,0.208-0.259c3.156-1.396,6.464-2.479,9.834-3.224  c0.051-0.035,0.119-0.052,0.18-0.041c0.114,0.02,0.197,0.115,0.204,0.226c0.006,0.042,0,0.084-0.014,0.122  c-0.466,2.778-0.713,5.611-0.735,8.425c0.009,0.087-0.03,0.177-0.108,0.229c-0.004,0.003-0.009,0.006-0.013,0.008  c-2.453,1.44-4.809,3.09-7.003,4.905c-0.028,0.023-0.061,0.041-0.097,0.049C15.88,39.515,15.86,39.518,15.839,39.518z   M13.951,29.212c0.36,3.263,1.037,6.504,2.011,9.643c2.099-1.713,4.34-3.276,6.669-4.651c0.026-2.698,0.258-5.413,0.689-8.08  C20.111,26.852,16.962,27.89,13.951,29.212z"/><path d="M50.002,70.107c-11.087,0-20.107-9.021-20.107-20.107c0-11.087,9.02-20.107,20.107-20.107  c11.088,0,20.108,9.02,20.108,20.107C70.11,61.087,61.09,70.107,50.002,70.107z M50.002,30.873  c-10.547,0-19.127,8.581-19.127,19.127c0,10.546,8.581,19.127,19.127,19.127S69.13,60.546,69.13,50  C69.13,39.453,60.549,30.873,50.002,30.873z"/><path d="M50.002,68.27c-10.084,0-18.288-8.196-18.288-18.27c0-10.074,8.204-18.27,18.288-18.27S68.289,39.926,68.289,50  C68.289,60.073,60.086,68.27,50.002,68.27z M50.002,32.466c-9.679,0-17.553,7.866-17.553,17.534c0,9.668,7.874,17.534,17.553,17.534  S67.554,59.668,67.554,50C67.554,40.332,59.681,32.466,50.002,32.466z"/><path d="M44.648,50c0,2.955,2.397,5.352,5.354,5.352c2.958,0,5.353-2.396,5.353-5.352c0-2.957-2.395-5.354-5.353-5.354  C47.045,44.646,44.648,47.043,44.648,50"/><path d="M50.002,57.294c-4.023,0-7.296-3.272-7.296-7.294c0-4.023,3.273-7.296,7.296-7.296c4.023,0,7.296,3.273,7.296,7.296  C57.298,54.021,54.025,57.294,50.002,57.294z M50.002,43.194c-3.752,0-6.806,3.053-6.806,6.806c0,3.751,3.053,6.804,6.806,6.804  c3.752,0,6.806-3.053,6.806-6.804C56.808,46.248,53.754,43.194,50.002,43.194z"/><path d="M50.003,94.998c-0.214,0-0.416-0.069-0.581-0.189c-3.376-2.346-6.485-5.074-9.251-8.118  c-3.92,1.255-7.985,2.063-12.091,2.404c-0.054,0.006-0.107,0.004-0.16,0.001c-0.35-0.028-0.671-0.242-0.821-0.56  c-1.755-3.726-3.087-7.649-3.961-11.673c-3.985-0.866-7.875-2.182-11.572-3.915c-0.418-0.142-0.7-0.549-0.662-1.004  c0.342-4.11,1.153-8.182,2.411-12.111c-3.021-2.745-5.733-5.83-8.068-9.178c-0.239-0.271-0.317-0.661-0.176-1.014  c0.03-0.075,0.069-0.145,0.115-0.209c2.349-3.382,5.08-6.496,8.125-9.263c-1.245-3.893-2.051-7.926-2.397-12.001  c-0.029-0.167-0.014-0.343,0.048-0.509c0.1-0.267,0.307-0.47,0.559-0.57c3.708-1.742,7.611-3.065,11.614-3.935  c0.875-4.028,2.207-7.958,3.964-11.688c0.106-0.224,0.292-0.4,0.523-0.493c0.141-0.056,0.305-0.085,0.46-0.072  c4.107,0.343,8.171,1.151,12.092,2.405c2.763-3.04,5.87-5.768,9.245-8.113c0.101-0.075,0.216-0.13,0.341-0.162  c0.275-0.07,0.569-0.019,0.802,0.143c3.384,2.35,6.501,5.083,9.273,8.132c3.924-1.255,7.986-2.064,12.085-2.406  c0.063-0.005,0.129-0.004,0.189,0.003c0.339,0.038,0.651,0.25,0.796,0.558c1.759,3.733,3.093,7.663,3.968,11.691  c3.986,0.868,7.877,2.184,11.572,3.916c0.385,0.134,0.658,0.499,0.658,0.926c0,0.028-0.001,0.057-0.004,0.084  c-0.34,4.103-1.148,8.166-2.404,12.089c3.036,2.759,5.759,5.859,8.099,9.224C94.924,49.562,95,49.773,95,49.999  c0,0.215-0.069,0.418-0.191,0.583c-2.346,3.375-5.075,6.486-8.119,9.251c1.255,3.918,2.063,7.974,2.405,12.069  c0.005,0.037,0.007,0.074,0.007,0.111c0,0.416-0.259,0.774-0.628,0.917c-3.708,1.742-7.61,3.063-11.606,3.933  c-0.875,4.022-2.207,7.946-3.964,11.673c-0.149,0.316-0.456,0.529-0.806,0.558c-0.052,0.006-0.119,0.008-0.174,0.001  c-4.105-0.341-8.17-1.149-12.091-2.404c-2.759,3.036-5.861,5.76-9.229,8.103C50.437,94.923,50.227,94.998,50.003,94.998z   M41.275,84.985c2.606,2.927,5.54,5.558,8.728,7.832c3.194-2.278,6.131-4.915,8.741-7.846c0.245-0.329,0.682-0.479,1.092-0.342  c3.75,1.249,7.644,2.073,11.582,2.452c1.622-3.563,2.847-7.305,3.64-11.136c0.021-0.222,0.118-0.437,0.283-0.603  c0.152-0.151,0.347-0.247,0.551-0.278c3.849-0.792,7.61-2.02,11.192-3.65c-0.378-3.93-1.201-7.817-2.45-11.565  c-0.05-0.148-0.063-0.306-0.04-0.46c0.035-0.226,0.149-0.444,0.32-0.597c2.956-2.622,5.613-5.578,7.907-8.793  c-2.278-3.194-4.916-6.133-7.851-8.744c-0.326-0.247-0.474-0.681-0.337-1.088c1.249-3.748,2.072-7.635,2.45-11.565  c-3.596-1.638-7.376-2.869-11.247-3.663c-0.334-0.068-0.608-0.306-0.725-0.627c-0.031-0.088-0.051-0.179-0.057-0.27  c-0.793-3.827-2.017-7.566-3.639-11.126c-3.924,0.378-7.807,1.199-11.554,2.444c-0.016,0.006-0.033,0.012-0.051,0.017  c-0.404,0.123-0.835-0.033-1.075-0.358c-2.608-2.927-5.544-5.562-8.734-7.839c-3.192,2.278-6.127,4.912-8.733,7.839  c-0.114,0.155-0.273,0.277-0.463,0.344c-0.23,0.082-0.474,0.073-0.689-0.012c-3.733-1.239-7.608-2.058-11.529-2.435  c-1.63,3.58-2.857,7.341-3.651,11.192c-0.011,0.085-0.034,0.169-0.068,0.25c-0.125,0.298-0.388,0.519-0.704,0.583  c-3.87,0.794-7.649,2.024-11.244,3.662c0.38,3.932,1.204,7.819,2.451,11.565c0.121,0.362,0.02,0.761-0.258,1.023  c-0.03,0.029-0.062,0.055-0.095,0.08C12.093,43.875,9.46,46.809,7.184,50c2.294,3.215,4.953,6.171,7.907,8.793  c0.224,0.199,0.336,0.478,0.33,0.756c0,0.102-0.017,0.204-0.051,0.305c-1.247,3.746-2.07,7.632-2.45,11.561  c3.564,1.623,7.306,2.847,11.135,3.639c0.222,0.021,0.436,0.118,0.602,0.284c0.153,0.151,0.248,0.347,0.279,0.55  c0.793,3.854,2.021,7.615,3.651,11.195c3.939-0.379,7.833-1.203,11.582-2.452C40.586,84.491,41.031,84.646,41.275,84.985z"/><path d="M50.002,72.293c-16.791,0-32.722-8.077-42.643-21.611C7.181,50.495,7.088,50.249,7.09,50  c-0.001-0.249,0.091-0.495,0.27-0.682c9.921-13.536,25.853-21.613,42.643-21.613c16.792,0,32.724,8.077,42.645,21.614  c0.168,0.178,0.269,0.417,0.269,0.674c0,0.237-0.085,0.46-0.229,0.635C82.767,64.195,66.816,72.293,50.002,72.293z M9.294,50  c9.575,12.746,24.737,20.333,40.708,20.333c15.972,0,31.134-7.587,40.709-20.333c-9.576-12.747-24.738-20.334-40.709-20.334  C34.032,29.666,18.87,37.253,9.294,50z"/><path d="M23.627,74.459c-0.029,0-0.058-0.005-0.085-0.015c-3.379-0.743-6.693-1.825-9.854-3.22c-0.008,0.002-0.019,0.001-0.028,0  c-0.135-0.015-0.232-0.137-0.218-0.271c0.371-3.483,1.097-6.941,2.159-10.28c0.004-0.013,0.02-0.046,0.027-0.058  c0.034-0.065,0.096-0.112,0.168-0.127c0.072-0.013,0.147,0.004,0.205,0.052c2.194,1.816,4.551,3.467,7.003,4.905  c0.083,0.049,0.13,0.142,0.12,0.237c0,0.009-0.001,0.018-0.003,0.024c0.023,2.809,0.27,5.637,0.735,8.407  c0.009,0.019,0.015,0.039,0.018,0.061c0.015,0.1-0.033,0.199-0.121,0.249C23.715,74.447,23.671,74.459,23.627,74.459z   M13.951,70.805c3.009,1.322,6.16,2.36,9.372,3.088c-0.433-2.671-0.666-5.393-0.692-8.097c-2.328-1.375-4.567-2.938-6.665-4.648  C14.992,64.276,14.313,67.528,13.951,70.805z"/><path d="M29.026,86.669c-0.141,0-0.275-0.081-0.336-0.218c-2.786-6.28-4.29-12.947-4.469-19.815  c-0.002-0.104,0.039-0.202,0.112-0.273c0.074-0.072,0.178-0.115,0.277-0.103c0.054,0.003,0.121,0.019,0.168,0.044  c4.052,2.181,8.378,3.83,12.859,4.901c0.092,0.021,0.168,0.076,0.218,0.149c3.133,3.301,6.682,6.19,10.548,8.588  c0.093,0.023,0.177,0.083,0.229,0.172c0.1,0.171,0.046,0.392-0.122,0.497c-0.008,0.004-0.016,0.009-0.024,0.013  c-6.034,3.276-12.554,5.307-19.379,6.036C29.081,86.666,29.053,86.669,29.026,86.669z M24.976,67.241  c0.246,6.46,1.683,12.735,4.276,18.663c6.434-0.715,12.589-2.604,18.312-5.62c-3.732-2.366-7.165-5.188-10.211-8.392  C33.05,70.854,28.89,69.29,24.976,67.241z"/><path d="M76.38,74.462c-0.037,0-0.074-0.009-0.109-0.026c-0.094-0.047-0.15-0.148-0.138-0.252c0.002-0.019,0.007-0.037,0.014-0.055  c0.467-2.778,0.716-5.615,0.739-8.435c-0.001-0.003-0.001-0.007-0.002-0.01c-0.01-0.096,0.034-0.189,0.116-0.238  c2.452-1.438,4.809-3.089,7.004-4.905c0.056-0.047,0.131-0.066,0.2-0.053c0.071,0.014,0.134,0.057,0.169,0.12  c0.009,0.016,0.022,0.044,0.028,0.061c1.063,3.344,1.79,6.803,2.161,10.279c0.014,0.135-0.084,0.256-0.219,0.271  c-0.005,0-0.01,0-0.014,0.001c-3.159,1.394-6.472,2.477-9.849,3.22C76.449,74.454,76.414,74.462,76.38,74.462z M77.374,65.795  c-0.026,2.706-0.259,5.428-0.691,8.098c3.21-0.728,6.36-1.765,9.37-3.087c-0.359-3.264-1.036-6.51-2.015-9.658  C81.939,62.858,79.699,64.421,77.374,65.795z"/><path d="M70.979,86.792c-0.035,0-0.068-0.004-0.103-0.011C59.432,85.556,48.551,80.5,40.235,72.542  c-0.176-0.168-0.201-0.44-0.06-0.639c0.126-0.177,0.35-0.249,0.552-0.181c11.727,2.079,23.955,0.118,34.439-5.527  c0.063-0.033,0.131-0.053,0.202-0.057c0.151-0.016,0.28,0.041,0.378,0.136c0.1,0.096,0.162,0.228,0.158,0.364  c-0.179,6.886-1.686,13.568-4.479,19.862C71.346,86.684,71.167,86.792,70.979,86.792z M42.105,72.939  c7.918,7.103,17.989,11.636,28.571,12.834c2.535-5.825,3.954-11.984,4.221-18.325C64.849,72.656,53.294,74.582,42.105,72.939z"/><path d="M36.614,8.038c0,1.182,0.958,2.139,2.14,2.139c1.182,0,2.14-0.957,2.14-2.139c0-1.181-0.958-2.14-2.14-2.14  C37.572,5.898,36.614,6.857,36.614,8.038"/><path d="M17.15,80.729c0,1.183,0.958,2.14,2.14,2.14s2.14-0.957,2.14-2.14c0-1.181-0.958-2.14-2.14-2.14S17.15,79.549,17.15,80.729"/><path d="M89.823,61.248c0,1.181,0.959,2.139,2.141,2.139s2.139-0.958,2.139-2.139c0-1.183-0.957-2.14-2.139-2.14  S89.823,60.065,89.823,61.248"/><path d="M59.112,91.979c0,1.181,0.957,2.142,2.14,2.142c1.181,0,2.139-0.961,2.139-2.142c0-1.182-0.958-2.14-2.139-2.14  C60.069,89.839,59.112,90.797,59.112,91.979"/><path d="M78.576,19.287c0,1.182,0.957,2.14,2.138,2.14c1.182,0,2.141-0.958,2.141-2.14c0-1.181-0.959-2.14-2.141-2.14  C79.533,17.147,78.576,18.105,78.576,19.287"/><path d="M5.901,38.751c0,1.182,0.958,2.14,2.14,2.14s2.139-0.958,2.139-2.14c0-1.181-0.958-2.14-2.139-2.14  S5.901,37.57,5.901,38.751"/><text x="0" y="115" fill="#000000" font-size="5px" font-weight="bold" font-family="'Helvetica Neue', Helvetica, Arial-Unicode, Arial, Sans-serif">Created by Santiago Arias</text><text x="0" y="120" fill="#000000" font-size="5px" font-weight="bold" font-family="'Helvetica Neue', Helvetica, Arial-Unicode, Arial, Sans-serif">from the Noun Project</text></svg>